<svg id="Warstwa_1" data-name="Warstwa 1" xmlns="http://www.w3.org/2000/svg" xmlns:xlink="http://www.w3.org/1999/xlink" viewBox="0 0 1225 450"><defs><style>.cls-1{fill:url(#Gradient_bez_nazwy_4);}.cls-2{fill:#f07e07;}.cls-3{fill:#f1d300;}.cls-4{opacity:0.51;}.cls-5{fill:#f1ffff;}.cls-6,.cls-8{opacity:0.38;isolation:isolate;}.cls-6{fill:url(#Gradient_bez_nazwy_6);}.cls-7{opacity:0.39;}.cls-8{fill:url(#Gradient_bez_nazwy_6-2);}</style><linearGradient id="Gradient_bez_nazwy_4" x1="436.57" y1="87.06" x2="734.26" y2="-210.63" gradientTransform="translate(0 288)" gradientUnits="userSpaceOnUse"><stop offset="0" stop-color="#f07e07"/><stop offset="1" stop-color="#007cc1"/></linearGradient><linearGradient id="Gradient_bez_nazwy_6" x1="660.94" y1="-24.36" x2="636.18" y2="-92.39" gradientTransform="translate(0 288)" gradientUnits="userSpaceOnUse"><stop offset="0"/><stop offset="0.51" stop-color="#fff"/></linearGradient><linearGradient id="Gradient_bez_nazwy_6-2" x1="682.47" y1="16.04" x2="656.94" y2="-54.09" gradientTransform="matrix(0.8, -0.6, 0.6, 0.8, 9.16, 620.9)" xlink:href="#Gradient_bez_nazwy_6"/></defs><title>2_kapsulki_z_kapsulkami</title><path class="cls-1" d="M585.4,58.87c95.92,0,173.79,75.18,173.79,167.33S681.05,393.52,585.4,393.52,411.61,318.35,411.61,226.2,489.48,58.87,585.4,58.87m0-39.06C467,19.81,370.92,112.22,370.92,226.2S466.85,432.59,585.4,432.59,799.88,340.17,799.88,226.2,704,19.81,585.4,19.81Z"/><g id="Warstwa_3" data-name="Warstwa 3"><path class="cls-2" d="M716.75,243.17,603.86,280.76c-18.73,6.33-38.94-3.37-45.54-21.28h0c-6.47-17.92,3.5-37.46,22.1-43.79l112.76-37.45c18.72-6.33,38.93,3.37,45.53,21.28h0C745.32,217.58,735.48,237.11,716.75,243.17Z"/><path class="cls-3" d="M721.07,241.83,660.44,262c9.57-17.25-5.52-58.88-23.31-64.94l60.63-20.21c16.3-5.39,34.76,4.72,41.22,22.63h0C745.32,217.58,737.23,236.3,721.07,241.83Z"/><g class="cls-4"><ellipse class="cls-5" cx="587.98" cy="239.38" rx="15.36" ry="9.84" transform="translate(-44.73 187.41) rotate(-17.46)"/></g><path class="cls-6" d="M716.75,243.17,603.86,280.76c-18.73,6.33-38.94-3.37-45.54-21.28h0c-6.47-17.92,3.5-37.46,22.1-43.79l112.76-37.45c18.72-6.33,38.93,3.37,45.53,21.28h0C745.32,217.58,735.48,237.11,716.75,243.17Z"/></g><g id="Warstwa_3_kopia" data-name="Warstwa 3 kopia"><path class="cls-2" d="M593.75,171.91l-66.28,95.51c-10.91,15.9-33.14,20.21-49.58,9.57h0c-16.57-10.51-21-31.93-10-47.69l66.29-95.52c10.91-15.9,33.14-20.21,49.57-9.56h0C600.49,134.72,604.8,156,593.75,171.91Z"/><path class="cls-3" d="M596.45,168.27l-35.7,51.19c-3.1-19.13-41.23-43.51-59.42-38.12l35.57-51.2c9.57-13.87,30.72-16.43,47.15-6.06h0C600.49,134.72,606,154.39,596.45,168.27Z"/><g class="cls-7"><ellipse class="cls-5" cx="489.06" cy="243.7" rx="15.09" ry="10.1" transform="translate(2.73 492.81) rotate(-53.61)"/></g><path class="cls-8" d="M593.75,171.91l-66.28,95.51c-10.91,15.9-33.14,20.21-49.58,9.57h0c-16.57-10.51-21-31.93-10-47.69l66.29-95.52c10.91-15.9,33.14-20.21,49.57-9.56h0C600.49,134.72,604.8,156,593.75,171.91Z"/></g></svg>