<svg xmlns="http://www.w3.org/2000/svg" xmlns:xlink="http://www.w3.org/1999/xlink" viewBox="0 0 900 320"><defs><style>.cls-1{fill:url(#Gradient_bez_nazwy);}.cls-2{fill:#f07e07;}.cls-3{fill:#f1d300;}.cls-4{opacity:0.51;}.cls-5{fill:#f1ffff;}.cls-10,.cls-6,.cls-8,.cls-9{opacity:0.38;isolation:isolate;}.cls-6{fill:url(#Gradient_bez_nazwy_2);}.cls-7{opacity:0.39;}.cls-8{fill:url(#Gradient_bez_nazwy_2-2);}.cls-9{fill:url(#Gradient_bez_nazwy_2-3);}.cls-10{fill:url(#Gradient_bez_nazwy_2-4);}</style><linearGradient id="Gradient_bez_nazwy" x1="342.96" y1="-282.85" x2="560.28" y2="-500.18" gradientTransform="translate(0 551)" gradientUnits="userSpaceOnUse"><stop offset="0" stop-color="#f07e07"/><stop offset="1" stop-color="#007cc1"/></linearGradient><linearGradient id="Gradient_bez_nazwy_2" x1="466.45" y1="-241.49" x2="451.43" y2="-282.74" gradientTransform="translate(-5.7 396.16) rotate(9.84)" gradientUnits="userSpaceOnUse"><stop offset="0"/><stop offset="0.51" stop-color="#fff"/></linearGradient><linearGradient id="Gradient_bez_nazwy_2-2" x1="906.04" y1="-574.68" x2="891.04" y2="-615.91" gradientTransform="translate(309.08 1183.93) rotate(-49.2)" xlink:href="#Gradient_bez_nazwy_2"/><linearGradient id="Gradient_bez_nazwy_2-3" x1="733.09" y1="-573.78" x2="718.07" y2="-615.03" gradientTransform="matrix(0.85, -0.53, 0.53, 0.85, 97.46, 990.75)" xlink:href="#Gradient_bez_nazwy_2"/><linearGradient id="Gradient_bez_nazwy_2-4" x1="498.71" y1="-365.48" x2="483.7" y2="-406.73" gradientTransform="translate(0 551)" xlink:href="#Gradient_bez_nazwy_2"/></defs><title>4_kapsulki_z_kapsulkami</title><g id="Warstwa_2" data-name="Warstwa 2"><g id="Warstwa_3" data-name="Warstwa 3"><path class="cls-1" d="M451.62,35A124.68,124.68,0,0,1,576.16,159.49c0,68.62-55.91,124.53-124.54,124.53S327.08,228.11,327.08,159.49A124.68,124.68,0,0,1,451.62,35m0-29.1A153.64,153.64,0,1,0,605.25,159.49,153.53,153.53,0,0,0,451.62,5.85Z"/><g id="Warstwa_3-2" data-name="Warstwa 3"><path class="cls-2" d="M529.94,231.7l-70.5,11.49a21.41,21.41,0,0,1-24.61-17.77h0a21.41,21.41,0,0,1,17.77-24.61l70.5-11.49a21.4,21.4,0,0,1,24.61,17.76h0C549.51,219.06,541.6,230,529.94,231.7Z"/><path class="cls-3" d="M532.55,231.45l-37.9,6.12c7.42-9.62,3.1-36.52-6.84-42.22l37.9-6.12c10.18-1.71,20,6.44,21.84,18.1h0C549.51,219.06,542.74,229.66,532.55,231.45Z"/><g class="cls-4"><ellipse class="cls-5" cx="454.33" cy="216.31" rx="9.21" ry="6.11" transform="translate(-28.81 75.67) rotate(-9.23)"/></g><path class="cls-6" d="M529.94,231.7l-70.5,11.49a21.41,21.41,0,0,1-24.61-17.77h0a21.41,21.41,0,0,1,17.77-24.61l70.5-11.49a21.4,21.4,0,0,1,24.61,17.76h0C549.51,219.06,541.6,230,529.94,231.7Z"/></g><g id="Warstwa_3_kopia" data-name="Warstwa 3 kopia"><path class="cls-2" d="M478.6,89.47l-26.33,66.27a21.33,21.33,0,0,1-27.79,12h0a21.33,21.33,0,0,1-12-27.8L439,73.66a21.33,21.33,0,0,1,27.79-12h0A21.42,21.42,0,0,1,478.6,89.47Z"/><path class="cls-3" d="M479.74,87l-14.26,35.53c-4.24-11.24-29.67-21.43-39.62-15.89L440,71.22c3.75-9.62,15.9-13.86,26.82-9.62h0C477.7,66,483.49,77.33,479.74,87Z"/><g class="cls-7"><ellipse class="cls-5" cx="426.5" cy="146.19" rx="9.21" ry="6.11" transform="translate(132.81 488.28) rotate(-68.27)"/></g><path class="cls-8" d="M478.6,89.47l-26.33,66.27a21.33,21.33,0,0,1-27.79,12h0a21.33,21.33,0,0,1-12-27.8L439,73.66a21.33,21.33,0,0,1,27.79-12h0A21.42,21.42,0,0,1,478.6,89.47Z"/></g><g id="Warstwa_3_kopia-2" data-name="Warstwa 3 kopia"><path class="cls-2" d="M434.42,86.78l-44.74,55.67a21.48,21.48,0,0,1-30.16,3.34h0a21.47,21.47,0,0,1-3.34-30.15L400.92,60a21.48,21.48,0,0,1,30.16-3.34h0A21.4,21.4,0,0,1,434.42,86.78Z"/><path class="cls-3" d="M436.22,84.75l-24.05,29.83c-.73-12.07-22.17-29.1-33.33-26.82l24-29.83c6.44-8.15,19.24-8.56,28.36-1.3h0C440.37,64.13,442.57,76.6,436.22,84.75Z"/><g class="cls-7"><ellipse class="cls-5" cx="367.96" cy="125.84" rx="9.21" ry="6.11" transform="matrix(0.63, -0.78, 0.78, 0.63, 39.43, 333.91)"/></g><path class="cls-9" d="M434.42,86.78l-44.74,55.67a21.48,21.48,0,0,1-30.16,3.34h0a21.47,21.47,0,0,1-3.34-30.15L400.92,60a21.48,21.48,0,0,1,30.16-3.34h0A21.4,21.4,0,0,1,434.42,86.78Z"/></g><g id="Warstwa_3-3" data-name="Warstwa 3"><path class="cls-2" d="M531.82,173.34l-67.4,23.31a21.33,21.33,0,0,1-27.23-13.28h0a21.33,21.33,0,0,1,13.29-27.23l67.4-23.31a21.32,21.32,0,0,1,27.22,13.29h0A21.24,21.24,0,0,1,531.82,173.34Z"/><path class="cls-3" d="M534.51,172.61l-36.27,12.55c5.7-10.6-3.34-36.51-14-40.34l36.27-12.56c9.78-3.34,20.86,2.94,24.78,14.1h0C549,157.45,544.21,169.1,534.51,172.61Z"/><g class="cls-4"><ellipse class="cls-5" cx="454.88" cy="171.14" rx="9.21" ry="6.11" transform="translate(-30.95 158.05) rotate(-19.07)"/></g><path class="cls-10" d="M531.82,173.34l-67.4,23.31a21.33,21.33,0,0,1-27.23-13.28h0a21.33,21.33,0,0,1,13.29-27.23l67.4-23.31a21.32,21.32,0,0,1,27.22,13.29h0A21.24,21.24,0,0,1,531.82,173.34Z"/></g></g></g></svg>