<?xml version="1.0" encoding="utf-8"?>
<!-- Generator: Adobe Illustrator 23.1.1, SVG Export Plug-In . SVG Version: 6.00 Build 0)  -->
<svg version="1.1" id="Warstwa_1" xmlns="http://www.w3.org/2000/svg" xmlns:xlink="http://www.w3.org/1999/xlink" x="0px" y="0px"
	 viewBox="0 0 640 480" style="enable-background:new 0 0 640 480;" xml:space="preserve">
<style type="text/css">
	.st0{fill:#FFFFFF;}
	.st1{fill:#096CB2;}
	.st2{fill:#1D1D1B;}
	.st3{fill:#FFDD00;}
	.st4{fill:#CA0000;}
	.st5{fill:none;stroke:#00A75D;stroke-miterlimit:10;}
	.st6{fill:#00A75D;}
	.st7{fill:none;stroke:#00A75D;stroke-width:5;stroke-miterlimit:10;}
	.st8{fill:none;stroke:#00A75D;stroke-width:5;stroke-miterlimit:10;stroke-dasharray:9.9197,9.9197;}
	.st9{fill:none;stroke:#CA0000;stroke-width:5;stroke-miterlimit:10;}
	.st10{fill:none;stroke:#CA0000;stroke-miterlimit:10;}
</style>
<g>
	<g>
		<path class="st0" d="M29.9,478C14.5,478,2,465.5,2,450.1V29.9C2,14.5,14.5,2,29.9,2h580.2C625.5,2,638,14.5,638,29.9v420.2
			c0,15.4-12.5,27.9-27.9,27.9H29.9z"/>
		<path class="st1" d="M610.1,4C624.4,4,636,15.6,636,29.9v420.2c0,14.3-11.6,25.9-25.9,25.9H29.9C15.6,476,4,464.4,4,450.1V29.9
			C4,15.6,15.6,4,29.9,4H610.1 M610.1,0H29.9C13.4,0,0,13.4,0,29.9v420.2C0,466.6,13.4,480,29.9,480h580.2
			c16.5,0,29.9-13.4,29.9-29.9V29.9C640,13.4,626.6,0,610.1,0L610.1,0z"/>
	</g>
	<g>
		<path class="st1" d="M603.6,118.4H35.4c-11,0-19.9-8.9-19.9-19.9V35.2c0-11,8.9-19.9,19.9-19.9h568.2c11,0,19.9,8.9,19.9,19.9
			v63.4C623.4,109.5,614.5,118.4,603.6,118.4z"/>
	</g>
	<g>
		<path class="st0" d="M246.4,54.4c-2.1-1.1-3.7-2.6-4.9-4.6s-1.8-4.2-1.8-6.7s0.6-4.7,1.8-6.7s2.8-3.5,4.9-4.6
			c2.1-1.1,4.4-1.7,7-1.7c2.3,0,4.3,0.4,6.2,1.2c1.8,0.8,3.4,2,4.6,3.5l-4.5,4.1c-1.6-2-3.6-2.9-5.9-2.9c-1.4,0-2.6,0.3-3.6,0.9
			c-1.1,0.6-1.9,1.4-2.5,2.5s-0.9,2.3-0.9,3.7s0.3,2.6,0.9,3.7c0.6,1.1,1.4,1.9,2.5,2.5s2.3,0.9,3.6,0.9c2.3,0,4.3-1,5.9-2.9
			l4.5,4.1c-1.2,1.5-2.7,2.7-4.6,3.5c-1.8,0.8-3.9,1.2-6.2,1.2C250.8,56.1,248.5,55.5,246.4,54.4z"/>
		<path class="st0" d="M267.3,30.6h7.1v25h-7.1V30.6z"/>
		<path class="st0" d="M299.5,50.1v5.5h-20.1v-25H299V36h-12.6v4.2h11.1v5.3h-11.1v4.6H299.5z"/>
		<path class="st0" d="M320.7,31.7c1.7,0.7,2.9,1.8,3.9,3.2c0.9,1.4,1.4,3,1.4,4.9s-0.5,3.5-1.4,4.9s-2.2,2.4-3.9,3.2
			c-1.7,0.7-3.6,1.1-5.9,1.1h-4.4v6.5h-7.1v-25h11.4C317.1,30.6,319.1,31,320.7,31.7z M317.7,42.5c0.7-0.6,1.1-1.5,1.1-2.7
			s-0.4-2.1-1.1-2.7c-0.7-0.6-1.8-1-3.3-1h-3.9v7.3h3.9C315.9,43.5,317,43.1,317.7,42.5z"/>
		<path class="st0" d="M326,44.7l14.6-10.9l2.3,3.2l-14.6,10.9L326,44.7z M330,30.6h7.1V50H349v5.6h-19V30.6z"/>
		<path class="st0" d="M356.8,54.4c-2.1-1.1-3.8-2.7-5-4.6c-1.2-2-1.8-4.2-1.8-6.7s0.6-4.7,1.8-6.7c1.2-2,2.9-3.5,5-4.6
			s4.5-1.7,7.1-1.7s5,0.6,7.1,1.7s3.8,2.7,5,4.6s1.8,4.2,1.8,6.7s-0.6,4.7-1.8,6.7s-2.9,3.5-5,4.6s-4.5,1.7-7.1,1.7
			S358.9,55.5,356.8,54.4z M367.4,49.3c1-0.6,1.8-1.4,2.4-2.5s0.9-2.3,0.9-3.7s-0.3-2.6-0.9-3.7c-0.6-1.1-1.4-1.9-2.4-2.5
			S365.2,36,364,36c-1.3,0-2.4,0.3-3.4,0.9c-1,0.6-1.8,1.4-2.4,2.5s-0.9,2.3-0.9,3.7s0.3,2.6,0.9,3.7c0.6,1.1,1.4,1.9,2.4,2.5
			s2.2,0.9,3.4,0.9C365.2,50.2,366.3,49.9,367.4,49.3z"/>
		<path class="st0" d="M398.8,45.7h-6v5.9h-5.5v-5.9h-6.1v-5.2h6.1v-5.9h5.5v5.9h6V45.7z"/>
		<path class="st0" d="M113.3,91.7h-3.9v6.6h-7.1v-25h11.4c2.3,0,4.2,0.4,5.9,1.1c1.7,0.7,2.9,1.8,3.9,3.2c0.9,1.4,1.4,3,1.4,4.9
			c0,1.8-0.4,3.4-1.3,4.7c-0.8,1.3-2.1,2.4-3.6,3.2l5.4,7.9h-7.6L113.3,91.7z M116.7,79.9c-0.7-0.6-1.8-1-3.3-1h-3.9v7.3h3.9
			c1.5,0,2.5-0.3,3.3-0.9c0.7-0.6,1.1-1.5,1.1-2.7S117.4,80.6,116.7,79.9z"/>
		<path class="st0" d="M131.7,95.9c-2.1-2-3.1-4.9-3.1-8.6V73.4h7.1V87c0,4,1.6,6,4.7,6c3.1,0,4.7-2,4.7-6V73.4h7v13.8
			c0,3.7-1,6.6-3.1,8.6s-4.9,3-8.7,3C136.6,98.9,133.7,97.9,131.7,95.9z"/>
		<path class="st0" d="M159.7,98.1c-1.9-0.5-3.4-1.2-4.6-2l2.3-5.2c1.1,0.7,2.4,1.3,3.9,1.8s2.9,0.7,4.4,0.7c2.7,0,4.1-0.7,4.1-2
			c0-0.7-0.4-1.2-1.2-1.6c-0.8-0.3-2-0.7-3.7-1.1c-1.9-0.4-3.4-0.8-4.7-1.3s-2.3-1.2-3.2-2.2s-1.4-2.4-1.4-4.1
			c0-1.5,0.4-2.9,1.2-4.1s2.1-2.2,3.7-2.9c1.7-0.7,3.7-1.1,6.1-1.1c1.6,0,3.3,0.2,4.9,0.6c1.6,0.4,3,0.9,4.2,1.6l-2.2,5.2
			c-2.4-1.3-4.7-1.9-6.9-1.9c-1.4,0-2.4,0.2-3.1,0.6c-0.6,0.4-1,1-1,1.6c0,0.7,0.4,1.2,1.1,1.5s2,0.7,3.7,1c1.9,0.4,3.5,0.8,4.7,1.3
			s2.3,1.2,3.2,2.2s1.4,2.4,1.4,4.1c0,1.5-0.4,2.9-1.2,4.1s-2.1,2.2-3.7,2.9c-1.7,0.7-3.7,1.1-6.1,1.1
			C163.6,98.9,161.6,98.6,159.7,98.1z"/>
		<path class="st0" d="M201,92.8v5.6h-22.4V94l12.6-15H179v-5.6h21.5v4.4l-12.6,15H201z"/>
		<path class="st0" d="M209.3,97.2c-2.1-1.1-3.7-2.6-4.9-4.6s-1.8-4.2-1.8-6.7s0.6-4.7,1.8-6.7s2.8-3.5,4.9-4.6
			c2.1-1.1,4.4-1.7,7-1.7c2.3,0,4.3,0.4,6.2,1.2c1.8,0.8,3.4,2,4.6,3.5l-4.5,4.1c-1.6-2-3.6-2.9-5.9-2.9c-1.4,0-2.6,0.3-3.6,0.9
			c-1.1,0.6-1.9,1.4-2.5,2.5s-0.9,2.3-0.9,3.7c0,1.4,0.3,2.6,0.9,3.7c0.6,1.1,1.4,1.9,2.5,2.5s2.3,0.9,3.6,0.9c2.3,0,4.3-1,5.9-2.9
			l4.5,4.1c-1.2,1.5-2.7,2.7-4.6,3.5c-1.8,0.8-3.9,1.2-6.2,1.2C213.8,98.9,211.4,98.3,209.3,97.2z"/>
		<path class="st0" d="M251.4,92.8v5.6H229V94l12.6-15h-12.3v-5.6h21.5v4.4l-12.6,15H251.4z"/>
		<path class="st0" d="M267.9,89.4v9h-7.1v-9.1l-9.5-15.9h7.5l5.9,9.9l5.9-9.9h6.9L267.9,89.4z"/>
		<path class="st0" d="M288.8,89.3l-2.6,2.8v6.2h-7v-25h7v10.4l9.7-10.4h7.8l-10.2,11.1l10.7,13.9H296L288.8,89.3z"/>
		<path class="st0" d="M326,89.3l-2.6,2.8v6.2h-7v-25h7v10.4l9.7-10.4h7.8l-10.2,11.1l10.7,13.9h-8.2L326,89.3z"/>
		<path class="st0" d="M347.8,97.2c-2.1-1.1-3.8-2.7-5-4.6c-1.2-2-1.8-4.2-1.8-6.7s0.6-4.7,1.8-6.7c1.2-2,2.9-3.5,5-4.6
			s4.5-1.7,7.1-1.7s5,0.6,7.1,1.7s3.8,2.7,5,4.6s1.8,4.2,1.8,6.7s-0.6,4.7-1.8,6.7s-2.9,3.5-5,4.6s-4.5,1.7-7.1,1.7
			S349.9,98.3,347.8,97.2z M358.3,92.1c1-0.6,1.8-1.4,2.4-2.5s0.9-2.3,0.9-3.7c0-1.4-0.3-2.6-0.9-3.7s-1.4-1.9-2.4-2.5
			s-2.2-0.9-3.4-0.9c-1.3,0-2.4,0.3-3.4,0.9s-1.8,1.4-2.4,2.5s-0.9,2.3-0.9,3.7c0,1.4,0.3,2.6,0.9,3.7s1.4,1.9,2.4,2.5
			s2.2,0.9,3.4,0.9C356.1,93,357.3,92.7,358.3,92.1z"/>
		<path class="st0" d="M372.5,73.4h7.1v19.4h11.9v5.6h-19V73.4z"/>
		<path class="st0" d="M399.3,97.2c-2.1-1.1-3.7-2.6-4.9-4.6s-1.8-4.2-1.8-6.7s0.6-4.7,1.8-6.7s2.8-3.5,4.9-4.6s4.4-1.7,7-1.7
			c2.3,0,4.3,0.4,6.2,1.2c1.8,0.8,3.4,2,4.6,3.5l-4.5,4.1c-1.6-2-3.6-2.9-5.9-2.9c-1.4,0-2.6,0.3-3.6,0.9c-1.1,0.6-1.9,1.4-2.5,2.5
			s-0.9,2.3-0.9,3.7c0,1.4,0.3,2.6,0.9,3.7s1.4,1.9,2.5,2.5s2.3,0.9,3.6,0.9c2.3,0,4.3-1,5.9-2.9l4.5,4.1c-1.2,1.5-2.7,2.7-4.6,3.5
			c-1.8,0.8-3.9,1.2-6.2,1.2C403.7,98.9,401.3,98.3,399.3,97.2z"/>
		<path class="st0" d="M441.3,92.8v5.6h-22.4V94l12.6-15h-12.3v-5.6h21.5v4.4l-12.6,15H441.3z"/>
		<path class="st0" d="M461.1,93.5h-10.6l-2,4.9h-7.2l11-25h7l11.1,25H463L461.1,93.5z M459.1,88.3l-3.2-8l-3.2,8H459.1z"/>
		<path class="st0" d="M475.4,98.1c-1.9-0.5-3.5-1.2-4.6-2l2.3-5.2c1.1,0.7,2.4,1.3,3.9,1.8s2.9,0.7,4.4,0.7c2.7,0,4.1-0.7,4.1-2
			c0-0.7-0.4-1.2-1.2-1.6c-0.8-0.3-2-0.7-3.7-1.1c-1.9-0.4-3.4-0.8-4.7-1.3c-1.3-0.5-2.3-1.2-3.2-2.2c-0.9-1-1.4-2.4-1.4-4.1
			c0-1.5,0.4-2.9,1.2-4.1c0.8-1.2,2.1-2.2,3.7-2.9c1.7-0.7,3.7-1.1,6.1-1.1c1.6,0,3.3,0.2,4.9,0.6s3,0.9,4.2,1.6l-2.2,5.2
			c-2.4-1.3-4.7-1.9-6.9-1.9c-1.4,0-2.4,0.2-3.1,0.6c-0.6,0.4-1,1-1,1.6c0,0.7,0.4,1.2,1.1,1.5s2,0.7,3.7,1c1.9,0.4,3.5,0.8,4.7,1.3
			s2.3,1.2,3.2,2.2c0.9,1,1.4,2.4,1.4,4.1c0,1.5-0.4,2.9-1.2,4.1c-0.8,1.2-2.1,2.2-3.7,2.9c-1.7,0.7-3.7,1.1-6.1,1.1
			C479.2,98.9,477.3,98.6,475.4,98.1z"/>
		<path class="st0" d="M500.5,79h-7.7v-5.6h22.4V79h-7.6v19.4h-7.1V79z"/>
		<path class="st0" d="M530.6,89.4v9h-7.1v-9.1L514,73.4h7.5l5.9,9.9l5.9-9.9h6.9L530.6,89.4z"/>
	</g>
</g>
<g>
	<g>
		<g>
			<path class="st2" d="M22.2,187.9l81.5-0.7l81.5-0.4l-1,0.7c0.6-1.6,1.3-2.9,2-4.3c0.7-1.4,1.6-2.7,2.5-4c1.7-2.6,3.7-5,5.8-7.3
				c4.2-4.5,8.8-8.6,13.9-12.2c5-3.6,10.4-6.6,15.9-9.3c1.4-0.7,2.8-1.3,4.2-1.9c1.4-0.6,2.8-1.3,4.2-1.8l4.3-1.7l4.3-1.5
				c1.4-0.5,2.9-1,4.4-1.4s2.9-0.9,4.4-1.3l4.4-1.2l2.2-0.6l2.2-0.5l4.5-1c1.5-0.3,3-0.6,4.5-0.9l4.5-0.8l4.5-0.7
				c12.1-1.7,24.3-2.6,36.5-2.8c12.2-0.3,24.4,0.2,36.6,1.7c12.1,1.5,24.2,4,35.8,8c11.6,3.9,22.7,9.5,32.6,16.9
				c4.9,3.7,9.5,7.9,13.5,12.6c2,2.4,3.9,4.8,5.5,7.4c1.7,2.6,3.2,5.3,4.3,8.3l-1.1-0.8l90.1,0.4l45,0.3l45,0.4l-45,0.4l-45,0.3
				l-90.1,0.4h-0.8l-0.3-0.8c-1-2.6-2.6-5.3-4.2-7.8s-3.5-4.8-5.4-7.1s-4.1-4.4-6.2-6.4c-2.2-2-4.5-3.9-6.9-5.7
				c-9.6-7.2-20.5-12.5-31.9-16.4s-23.3-6.3-35.3-7.7s-24.1-1.8-36.2-1.6s-24.2,1-36.1,2.7l-4.5,0.6l-4.5,0.8
				c-1.5,0.3-3,0.5-4.5,0.8l-4.4,1l-2.2,0.5l-2.2,0.6l-4.4,1.1c-1.5,0.4-2.9,0.9-4.3,1.3c-1.4,0.4-2.9,0.8-4.3,1.4l-4.3,1.5
				l-4.2,1.6c-1.4,0.5-2.8,1.1-4.2,1.7c-1.4,0.6-2.8,1.2-4.1,1.9c-5.4,2.6-10.7,5.6-15.6,9c-4.9,3.4-9.5,7.3-13.6,11.7
				c-2,2.2-3.9,4.5-5.6,6.9c-0.8,1.2-1.7,2.5-2.4,3.8s-1.4,2.6-1.9,3.9l-0.3,0.7h-0.7l-81.5-0.4L22.2,187.9z"/>
		</g>
		<g>
			<path class="st2" d="M22.2,230.8l81.5-0.6l81.5-0.4h0.7l0.3,0.7c0.5,1.4,1.3,2.8,2.1,4.1c0.8,1.4,1.7,2.7,2.6,4
				c1.8,2.6,3.9,5,6.1,7.3c4.4,4.6,9.4,8.6,14.7,12.1c5.3,3.5,10.9,6.6,16.7,9.2c5.8,2.7,11.8,4.8,17.9,6.7
				c6.1,1.9,12.4,3.3,18.6,4.6c6.3,1.2,12.6,2.2,19,2.9c3.2,0.3,6.4,0.7,9.6,0.9c3.2,0.2,6.4,0.5,9.6,0.6s6.4,0.3,9.6,0.3l4.8,0.1
				h2.4c0.8,0,1.5,0,2.3-0.1c3-0.3,5.9-1.3,8.4-2.9s4.7-3.9,6.6-6.3c3.8-5,6.7-10.8,10.5-16.1c1.9-2.7,4-5.3,6.5-7.6
				s5.4-4.2,8.5-5.4c0.8-0.3,1.6-0.6,2.4-0.8c0.9-0.3,1.8-0.4,2.7-0.5c1.8-0.1,3.5,0.1,5.2,0.5c3.3,0.8,6.4,2.1,9.3,3.6
				c5.8,3,11.2,6.6,16.8,9.8c2.8,1.5,5.6,3.1,8.5,3.9c1.4,0.4,2.9,0.5,4,0.1c0.1-0.1,0.3-0.1,0.4-0.2l0.2-0.1l0.2-0.2l1-0.7l2-1.4
				c5.2-3.7,10-7.9,14.2-12.6c2.1-2.3,4.1-4.8,5.9-7.5c1.7-2.6,3.4-5.4,4.5-8.2l0.3-0.7h0.7l90.1,0.4l90.1,0.7l-90.1,0.7l-90.1,0.4
				l1-0.7c-1.2,3.2-2.8,6-4.6,8.8c-1.8,2.7-3.8,5.4-6,7.8c-2.1,2.5-4.5,4.8-6.9,7c-1.3,1-2.5,2.2-3.7,3.2c-1.3,1-2.6,2-3.9,3l-2,1.4
				l-1,0.7l-0.3,0.2l-0.3,0.2c-0.2,0.1-0.5,0.2-0.7,0.3c-2,0.7-3.9,0.5-5.6,0c-3.4-0.9-6.3-2.5-9.1-4.1c-5.7-3.2-11-6.8-16.7-9.6
				c-2.8-1.4-5.7-2.7-8.7-3.3c-1.5-0.3-3-0.5-4.4-0.4c-0.7,0.1-1.4,0.2-2.1,0.4s-1.5,0.5-2.2,0.8c-2.8,1.1-5.4,2.8-7.7,4.9
				c-2.3,2.1-4.2,4.5-6,7.1c-3.6,5.2-6.5,11-10.5,16.3c-2,2.6-4.4,5.1-7.3,7s-6.3,3-9.7,3.4c-0.9,0.1-1.7,0.1-2.6,0.1h-2.4l-4.9-0.1
				c-3.2,0-6.5-0.2-9.7-0.4c-3.2-0.1-6.5-0.4-9.7-0.6s-6.4-0.6-9.7-1c-6.4-0.7-12.8-1.8-19.2-3c-6.3-1.4-12.7-2.8-18.9-4.8
				c-6.2-1.9-12.3-4.1-18.2-6.9c-5.9-2.7-11.7-5.8-17.1-9.5c-5.4-3.7-10.5-7.8-14.9-12.6c-2.2-2.4-4.3-4.9-6.2-7.6
				c-0.9-1.4-1.8-2.7-2.6-4.2c-0.8-1.4-1.6-2.9-2.2-4.5l1,0.7l-81.5-0.4L22.2,230.8z"/>
		</g>
		<g>
			
				<ellipse transform="matrix(0.9389 -0.3441 0.3441 0.9389 -49.5275 96.7083)" class="st3" cx="247.7" cy="187.9" rx="28.9" ry="17.7"/>
			<circle class="st2" cx="233" cy="191.1" r="3.8"/>
			
				<ellipse transform="matrix(0.1602 -0.9871 0.9871 0.1602 39.0577 408.5068)" class="st2" cx="259.6" cy="181.3" rx="3.8" ry="3.8"/>
			<circle class="st2" cx="250.2" cy="194.9" r="3.8"/>
		</g>
		<g>
			
				<ellipse transform="matrix(0.9389 -0.3441 0.3441 0.9389 -35.931 135.1443)" class="st3" cx="362.8" cy="168.8" rx="28.9" ry="17.7"/>
			<circle class="st2" cx="348.1" cy="172" r="3.8"/>
			<circle class="st2" cx="374.8" cy="162.3" r="3.8"/>
			<circle class="st2" cx="365.4" cy="175.8" r="3.8"/>
		</g>
		
			<ellipse transform="matrix(0.9389 -0.3441 0.3441 0.9389 -64.8839 121.3644)" class="st3" cx="309.5" cy="243.5" rx="28.9" ry="17.7"/>
		<g>
			<circle class="st2" cx="294.8" cy="246.7" r="3.8"/>
			<circle class="st2" cx="321.4" cy="237" r="3.8"/>
			<circle class="st2" cx="312" cy="250.5" r="3.8"/>
		</g>
		<g>
			<circle class="st2" cx="344.3" cy="277.1" r="3.8"/>
			<circle class="st2" cx="371" cy="267.4" r="3.8"/>
			<circle class="st2" cx="361.6" cy="280.9" r="3.8"/>
		</g>
		<g>
			<circle class="st2" cx="376.6" cy="286.9" r="3.8"/>
			<circle class="st2" cx="395.9" cy="266.1" r="3.8"/>
			<circle class="st2" cx="393.7" cy="282.4" r="3.8"/>
		</g>
	</g>
	<g>
		<path class="st2" d="M22.2,338c26.7-0.3,53.5-0.5,80.2-0.7l80.2-0.4l40.1-0.1h10c0.9,0,2,0.1,2.9,0.4c1,0.3,1.8,0.9,2.6,1.5
			c1.5,1.2,2.5,2.7,3.4,4.2c1.8,2.9,3.3,5.9,5.2,8.5c1.8,2.7,4,5.1,6.5,6.9c5.1,3.7,11.8,4.7,18.2,4.2c3.2-0.2,6.3-1,9.1-2.4
			c2.8-1.4,5.3-3.4,7.4-5.8s3.8-5.2,5.5-8.1c0.8-1.4,1.7-2.9,2.7-4.4c1-1.4,2.1-2.9,3.8-4c0.8-0.6,1.8-1,2.9-1.1
			c0.5-0.1,1.1-0.1,1.5-0.1h1.3h5h10l80.2,0.2h10h2.5c1,0,2,0.3,2.9,0.7c1.8,0.9,3.1,2.2,4.2,3.5c2.3,2.6,4.1,5.4,6.2,8
			c2,2.6,4.2,5,6.7,7s5.3,3.7,8.3,4.8c3,1.1,6.2,1.7,9.5,2c3.2,0.2,6.5,0.1,9.7-0.6c3.1-0.7,6.1-2,8.7-3.9s4.7-4.3,6.6-7
			s3.5-5.6,5.4-8.4c1-1.4,2.1-2.8,3.5-3.9s3.4-1.8,5.2-1.8h10l40.1,0.2l80.2,0.6l-80.2,0.6l-40.1,0.2h-10c-1.5,0-2.9,0.5-4.1,1.4
			s-2.2,2.2-3.1,3.5c-1.8,2.7-3.4,5.7-5.4,8.5c-1.9,2.8-4.2,5.5-7,7.6s-6.1,3.5-9.4,4.3c-3.4,0.8-6.9,0.9-10.3,0.8
			c-3.4-0.2-6.9-0.8-10.1-2c-3.3-1.2-6.3-2.9-9-5.1s-5.1-4.7-7.2-7.4c-2.1-2.6-4-5.4-6.1-7.9c-1.1-1.2-2.2-2.3-3.4-2.9
			c-0.6-0.3-1.2-0.5-1.9-0.5h-2.5h-10l-80.2,0.2h-10h-5h-1.3c-0.4,0-0.7,0-1,0.1c-0.6,0.1-1.2,0.3-1.8,0.7c-1.1,0.7-2.1,1.9-3,3.2
			c-0.9,1.3-1.7,2.7-2.6,4.2c-1.7,2.9-3.5,5.8-5.8,8.5c-2.3,2.6-5.1,4.9-8.3,6.5c-3.2,1.6-6.7,2.4-10.2,2.6s-6.9,0.1-10.4-0.6
			c-3.4-0.7-6.8-2.1-9.7-4.2s-5.3-4.7-7.2-7.6c-1.9-2.8-3.5-5.9-5.2-8.6c-0.9-1.4-1.8-2.6-2.9-3.6c-1.1-0.9-2.3-1.4-3.8-1.3h-10
			l-40.1-0.1l-80.2-0.4C75.7,338.5,48.9,338.4,22.2,338z"/>
	</g>
	<g>
		<path class="st4" d="M23.9,280.6h-2.4v4.1h-4.4v-15.6h7.1c1.4,0,2.6,0.2,3.7,0.7s1.8,1.1,2.4,2s0.8,1.9,0.8,3.1
			c0,1.1-0.3,2.1-0.8,2.9s-1.3,1.5-2.3,2l3.4,4.9h-4.7L23.9,280.6z M26,273.2c-0.5-0.4-1.1-0.6-2-0.6h-2.4v4.6H24
			c0.9,0,1.6-0.2,2-0.6c0.5-0.4,0.7-1,0.7-1.7C26.7,274.2,26.4,273.6,26,273.2z"/>
		<path class="st4" d="M35.3,283.1c-1.3-1.3-1.9-3-1.9-5.4v-8.6h4.4v8.5c0,2.5,1,3.7,3,3.7s2.9-1.2,2.9-3.7v-8.5H48v8.6
			c0,2.3-0.6,4.1-1.9,5.4S43,285,40.7,285S36.6,284.4,35.3,283.1z"/>
		<path class="st4" d="M52.8,284.6c-1.2-0.3-2.1-0.7-2.9-1.2l1.4-3.2c0.7,0.5,1.5,0.8,2.4,1.1s1.8,0.4,2.7,0.4
			c1.7,0,2.5-0.4,2.5-1.3c0-0.4-0.2-0.8-0.7-1s-1.3-0.4-2.3-0.7c-1.2-0.3-2.1-0.5-2.9-0.8c-0.8-0.3-1.5-0.8-2-1.4
			c-0.6-0.6-0.8-1.5-0.8-2.6c0-0.9,0.3-1.8,0.8-2.6c0.5-0.8,1.3-1.4,2.3-1.8s2.3-0.7,3.8-0.7c1,0,2,0.1,3,0.3c1,0.2,1.9,0.6,2.6,1
			l-1.4,3.3c-1.5-0.8-2.9-1.2-4.3-1.2c-0.9,0-1.5,0.1-1.9,0.4s-0.6,0.6-0.6,1s0.2,0.7,0.7,0.9c0.5,0.2,1.2,0.4,2.3,0.6
			c1.2,0.3,2.2,0.5,2.9,0.8s1.5,0.7,2,1.4c0.6,0.6,0.9,1.5,0.9,2.6c0,0.9-0.3,1.8-0.8,2.5c-0.5,0.8-1.3,1.4-2.3,1.8
			c-1,0.5-2.3,0.7-3.8,0.7C55.2,285,54,284.9,52.8,284.6z"/>
		<path class="st4" d="M78.6,281.2v3.5h-14V282l7.8-9.3h-7.6v-3.5h13.4v2.8l-7.8,9.3L78.6,281.2L78.6,281.2z"/>
		<path class="st4" d="M83.7,284c-1.3-0.7-2.3-1.6-3.1-2.9c-0.7-1.2-1.1-2.6-1.1-4.2s0.4-2.9,1.1-4.2c0.7-1.2,1.8-2.2,3.1-2.9
			c1.3-0.7,2.8-1,4.4-1c1.4,0,2.7,0.3,3.8,0.8c1.1,0.5,2.1,1.2,2.8,2.2l-2.8,2.5c-1-1.2-2.2-1.8-3.7-1.8c-0.8,0-1.6,0.2-2.3,0.6
			s-1.2,0.9-1.5,1.6c-0.4,0.7-0.5,1.4-0.5,2.3s0.2,1.6,0.5,2.3s0.9,1.2,1.5,1.6c0.7,0.4,1.4,0.6,2.3,0.6c1.4,0,2.7-0.6,3.7-1.8
			l2.8,2.5c-0.8,0.9-1.7,1.7-2.8,2.2c-1.1,0.5-2.4,0.8-3.8,0.8C86.5,285,85,284.7,83.7,284z"/>
		<path class="st4" d="M109.9,281.2v3.5H96V282l7.8-9.3h-7.6v-3.5h13.4v2.8l-7.8,9.3L109.9,281.2L109.9,281.2z"/>
		<path class="st4" d="M120.2,279.1v5.6h-4.4v-5.6l-5.9-9.9h4.6l3.7,6.2l3.7-6.2h4.3L120.2,279.1z"/>
		<path class="st4" d="M133.2,279.1l-1.6,1.8v3.9h-4.4v-15.6h4.4v6.5l6-6.5h4.8l-6.4,6.9l6.7,8.7h-5.1L133.2,279.1z"/>
		<path class="st4" d="M23.1,305.7l-1.6,1.8v3.9h-4.4v-15.6h4.4v6.5l6-6.5h4.8l-6.4,6.9l6.7,8.7h-5.1L23.1,305.7z"/>
		<path class="st4" d="M36.7,310.7c-1.3-0.7-2.3-1.7-3.1-2.9c-0.7-1.2-1.1-2.6-1.1-4.2c0-1.5,0.4-2.9,1.1-4.2
			c0.7-1.2,1.8-2.2,3.1-2.9c1.3-0.7,2.8-1,4.4-1s3.1,0.3,4.4,1c1.3,0.7,2.3,1.7,3.1,2.9c0.7,1.2,1.1,2.6,1.1,4.2
			c0,1.5-0.4,2.9-1.1,4.2c-0.7,1.2-1.8,2.2-3.1,2.9s-2.8,1-4.4,1S38,311.4,36.7,310.7z M43.2,307.5c0.6-0.4,1.1-0.9,1.5-1.6
			s0.6-1.4,0.6-2.3s-0.2-1.6-0.6-2.3c-0.4-0.7-0.9-1.2-1.5-1.6s-1.3-0.6-2.1-0.6s-1.5,0.2-2.1,0.6s-1.1,0.9-1.5,1.6
			s-0.6,1.4-0.6,2.3s0.2,1.6,0.6,2.3c0.4,0.7,0.9,1.2,1.5,1.6s1.3,0.6,2.1,0.6S42.6,307.9,43.2,307.5z"/>
		<path class="st4" d="M52.1,295.8h4.4v12.1h7.4v3.5H52.1V295.8z"/>
		<path class="st4" d="M68.7,310.7c-1.3-0.7-2.3-1.6-3.1-2.9c-0.7-1.2-1.1-2.6-1.1-4.2s0.4-2.9,1.1-4.2c0.7-1.2,1.8-2.2,3.1-2.9
			c1.3-0.7,2.8-1,4.4-1c1.4,0,2.7,0.3,3.8,0.8c1.1,0.5,2.1,1.2,2.8,2.2L77,301c-1-1.2-2.2-1.8-3.7-1.8c-0.8,0-1.6,0.2-2.3,0.6
			s-1.2,0.9-1.5,1.6c-0.4,0.7-0.5,1.4-0.5,2.3s0.2,1.6,0.5,2.3s0.9,1.2,1.5,1.6c0.7,0.4,1.4,0.6,2.3,0.6c1.4,0,2.7-0.6,3.7-1.8
			l2.8,2.5c-0.8,0.9-1.7,1.7-2.8,2.2c-1.1,0.5-2.4,0.8-3.8,0.8C71.5,311.7,70,311.4,68.7,310.7z"/>
		<path class="st4" d="M94.9,307.9v3.5H81v-2.8l7.8-9.3h-7.6v-3.5h13.4v2.8l-7.8,9.3H94.9z"/>
		<path class="st4" d="M107.3,308.4h-6.6l-1.2,3H95l6.9-15.6h4.3l6.9,15.6h-4.6L107.3,308.4z M106,305.1l-2-5l-2,5H106z"/>
		<path class="st4" d="M116.2,311.2c-1.2-0.3-2.1-0.7-2.9-1.2l1.4-3.2c0.7,0.5,1.5,0.8,2.4,1.1s1.8,0.4,2.7,0.4
			c1.7,0,2.5-0.4,2.5-1.3c0-0.4-0.2-0.8-0.7-1s-1.3-0.4-2.3-0.7c-1.2-0.3-2.1-0.5-2.9-0.8s-1.5-0.8-2-1.4c-0.6-0.6-0.8-1.5-0.8-2.6
			c0-0.9,0.3-1.8,0.8-2.6c0.5-0.8,1.3-1.4,2.3-1.8s2.3-0.7,3.8-0.7c1,0,2,0.1,3,0.3c1,0.2,1.9,0.6,2.6,1l-1.4,3.3
			c-1.5-0.8-2.9-1.2-4.3-1.2c-0.9,0-1.5,0.1-1.9,0.4s-0.6,0.6-0.6,1s0.2,0.7,0.7,0.9c0.5,0.2,1.2,0.4,2.3,0.6
			c1.2,0.3,2.2,0.5,2.9,0.8s1.5,0.7,2,1.4c0.6,0.6,0.9,1.5,0.9,2.6c0,0.9-0.3,1.8-0.8,2.5c-0.5,0.8-1.3,1.4-2.3,1.8
			c-1,0.5-2.3,0.7-3.8,0.7C118.6,311.7,117.3,311.5,116.2,311.2z"/>
		<path class="st4" d="M131.8,299.3H127v-3.5h14v3.5h-4.8v12.1h-4.4V299.3z"/>
		<path class="st4" d="M150.6,305.8v5.6h-4.4v-5.6l-5.9-9.9h4.6l3.7,6.2l3.7-6.2h4.3L150.6,305.8z"/>
	</g>
	<g>
		<g>
			<line class="st5" x1="328.9" y1="300.2" x2="277.7" y2="339.7"/>
			<g>
				<path class="st6" d="M272.9,343.4c1.6-2.6,3.3-6.1,3.9-9l1.5,4.8l4.3,2.7C279.7,341.8,275.8,342.5,272.9,343.4z"/>
			</g>
		</g>
	</g>
	<g>
		<g>
			<line class="st7" x1="397.5" y1="296.2" x2="402.2" y2="299.9"/>
			<line class="st8" x1="410.1" y1="305.9" x2="437.6" y2="327.1"/>
			<line class="st7" x1="441.5" y1="330.2" x2="446.2" y2="333.8"/>
			<g>
				<path class="st6" d="M458.7,343.4c-7.5-2.3-17.6-4.2-25.1-3.8l11.1-7.1l4-12.5C450.1,327.4,454.5,336.7,458.7,343.4z"/>
			</g>
		</g>
	</g>
	<g>
		<g>
			<line class="st9" x1="169" y1="289" x2="222.3" y2="319.8"/>
			<g>
				<path class="st4" d="M235.9,327.7c-7.8-1.3-18-1.9-25.4-0.4l10.1-8.5l2.3-12.9C225.3,313,230.8,321.6,235.9,327.7z"/>
			</g>
		</g>
	</g>
	<g>
		<g>
			<path class="st10" d="M172.5,278.6c0,0,30.7-49.1,81.1-53.3"/>
			<g>
				<path class="st4" d="M259.6,225c-2.8,1.2-6.2,3.2-8.3,5.2l1.5-4.8l-2-4.7C253.1,222.5,256.8,224.1,259.6,225z"/>
			</g>
		</g>
	</g>
	<g>
		<polygon class="st1" points="280.6,386.4 278,386.4 278,373.7 275.9,375.8 274.6,373.7 278.4,370.4 280.6,370.4 		"/>
		<path class="st1" d="M262.9,380.4c0,1.1,0.2,2,0.7,2.7s1.1,1.1,1.8,1.1s1.3-0.3,1.8-0.9s0.7-1.5,0.7-2.8c0-1.2-0.3-2.2-0.7-2.8
			c-0.5-0.7-1.1-1-1.8-1c-0.7,0-1.3,0.4-1.8,1C263.2,378.3,262.9,379.2,262.9,380.4 M269.5,374.4h2.7c-0.4,0.9-0.8,2-1.1,3.3
			s-0.4,2.3-0.4,2.8c0,0.7,0.1,1.6,0.4,2.8s0.6,2.1,1,3.1h-2.7c0-0.1-0.1-0.4-0.2-0.6c-0.2-0.4-0.3-0.9-0.4-1.4
			c-0.9,1.5-2.2,2.2-3.9,2.2c-1.6,0-2.9-0.7-3.8-2s-1.4-2.8-1.4-4.6c0-1.7,0.5-3.1,1.4-4.2s2.2-1.8,3.9-1.8c1.6,0,2.9,0.8,3.9,2.3
			C269,375.9,269.2,375.2,269.5,374.4z"/>
	</g>
	<g>
		<path class="st1" d="M465,385.3h-8.7V383c1.9-2,3.4-3.7,4.3-5.1c1-1.4,1.4-2.7,1.4-3.7c0-0.7-0.2-1.3-0.6-1.7s-0.9-0.6-1.6-0.6
			c-0.9,0-1.9,0.3-2.9,1.1l-0.3-2.4c1.1-0.6,2.3-1,3.6-1c1.3,0,2.4,0.4,3.2,1.2c0.8,0.8,1.2,1.8,1.2,3c0,2.4-1.8,5.5-5.4,9.3h5.7
			L465,385.3L465,385.3L465,385.3z"/>
		<path class="st1" d="M445.7,379.6c0,1.1,0.2,1.9,0.7,2.6s1.1,1,1.8,1s1.3-0.3,1.7-0.9c0.5-0.6,0.7-1.5,0.7-2.7s-0.3-2.1-0.7-2.7
			c-0.5-0.6-1.1-0.9-1.7-0.9c-0.7,0-1.3,0.3-1.7,1C445.9,377.5,445.7,378.4,445.7,379.6 M452,373.8h2.6c-0.4,0.8-0.8,1.9-1.1,3.2
			s-0.4,2.2-0.4,2.7c0,0.7,0.1,1.6,0.4,2.7s0.6,2.1,1,2.9h-2.6c0-0.1-0.1-0.3-0.2-0.6c-0.2-0.4-0.3-0.9-0.4-1.3
			c-0.9,1.4-2.1,2.1-3.8,2.1c-1.6,0-2.8-0.6-3.7-1.9c-0.9-1.3-1.3-2.7-1.3-4.4c0-1.6,0.5-2.9,1.3-4c0.9-1.1,2.1-1.7,3.7-1.7
			s2.8,0.8,3.8,2.2C451.5,375.3,451.7,374.6,452,373.8z"/>
	</g>
	<g>
		<g>
			<path class="st1" d="M199.4,454.1c-3.1-0.6-5.6-1.7-7.5-3.5c1.5-5.4,2.2-8.1,3.7-13.2c1.8,1.6,3.9,2.8,6.3,3.6
				c2.4,0.8,4.7,1,7,0.8c4.4-0.5,6.6-2.1,6.6-5c0-1.5-0.6-2.6-1.9-3.3c-1.2-0.7-3.3-1.4-6-2.1c-3-0.8-5.6-1.7-7.6-2.7
				s-3.8-2.8-5.2-5.3c-1.5-2.5-2.2-6-2.2-10.2c0-3.8,0.7-7.1,2-9.9s3.3-4.8,6-5.9c2.7-1.2,5.9-1.3,9.8-0.6c2.6,0.5,5.3,1.4,7.8,2.5
				c2.6,1.2,4.8,2.6,6.8,4.3c-1.4,4-2.1,6.1-3.5,10.2c-3.8-2.9-7.6-4.7-11.2-5.1c-2.3-0.2-3.9,0-5,0.9c-1,0.8-1.6,2-1.6,3.6
				c0,1.5,0.6,2.7,1.8,3.5s3.2,1.7,5.9,2.6c3.1,1,5.6,2,7.6,3s3.8,2.5,5.2,4.5c1.5,2,2.2,4.7,2.2,8.1c0,3-0.7,5.7-2,8.3
				c-1.3,2.6-3.4,4.8-6.1,6.7c-2.7,1.9-6,3.3-9.8,4C205.6,454.6,202.4,454.7,199.4,454.1z"/>
			<path class="st1" d="M247.6,431.3c-1.7,2-2.6,3.1-4.3,5.2c0,4.5,0,6.7,0,11.2c-4.5,0.6-6.8,0.8-11.3,1.5c0-16,0-31.9,0-47.9
				c4.5,0.6,6.8,0.9,11.3,1.5c0,7.5,0,11.2,0,18.7c6.3-7.3,9.4-10.7,15.7-17c5,0.5,7.6,0.7,12.6,1.1c-6.6,6.5-9.9,9.9-16.5,17.3
				c5.5,7.5,11.3,14.9,17.4,22c-5.3,0.4-8,0.6-13.3,1.1C254.5,440.4,252.2,437.5,247.6,431.3z"/>
			<path class="st1" d="M279.5,440.5c-3.3-2.9-5-7.4-5-13.1c0-8.6,0-12.9,0-21.6c4.6,0.3,6.9,0.5,11.5,0.7c0,8.2,0,12.3,0,20.5
				c0,6,2.6,8.9,7.7,8.8s7.6-3,7.6-8.9c0-8,0-11.9,0-19.9c4.5,0.1,6.8,0.1,11.3,0.2c0,8,0,12,0,20c0,5.4-1.7,9.5-5,12.5
				s-8,4.5-14,4.8C287.5,444.7,282.8,443.5,279.5,440.5z"/>
			<path class="st1" d="M338.1,433.9c-2.5,0-3.8-0.1-6.3-0.1c0,3.9,0,5.8,0,9.7c-4.6-0.1-6.9-0.2-11.5-0.2c0-12,0-24.1,0-36.1
				c7.4-0.1,11.1-0.1,18.5-0.4c3.7-0.1,6.8,0.3,9.6,1.3c2.7,1,4.8,2.5,6.2,4.6c1.5,2.1,2.2,4.6,2.2,7.5c0,2.8-0.7,5.3-2.1,7.3
				c-1.4,2.1-3.3,3.6-5.9,4.7c3.5,4.8,5.2,7.3,8.7,12.5c-4.9-0.3-7.4-0.5-12.3-0.7C342.5,439.9,341,437.9,338.1,433.9z M343.5,416.4
				c-1.2-0.9-3-1.4-5.3-1.3c-2.5,0.1-3.8,0.1-6.4,0.1c0,4.3,0,6.4,0,10.7c2.5,0,3.8,0,6.4,0c2.4,0,4.1-0.5,5.3-1.4
				c1.2-0.9,1.8-2.3,1.8-4S344.7,417.3,343.5,416.4z"/>
			<path class="st1" d="M371.9,444c-3.4-2.1-6-4.8-8-8c-1.9-3.2-2.9-6.8-2.9-10.7c0-3.9,1-7.5,2.9-10.7s4.6-5.9,8-8s7.2-3.5,11.4-4
				c3.7-0.4,7-0.2,10,1c3,1.1,5.4,3,7.4,5.8c-2.9,3.4-4.4,5-7.3,8.2c-2.6-3.5-5.8-5-9.5-4.7c-2.2,0.1-4.2,0.8-5.9,1.9
				c-1.7,1.1-3,2.6-4,4.4c-0.9,1.8-1.4,3.9-1.4,6.2s0.5,4.4,1.4,6.2c0.9,1.8,2.3,3.3,4,4.4s3.7,1.7,5.9,1.9c3.7,0.2,6.9-1.3,9.5-4.7
				c2.9,3.1,4.4,4.8,7.3,8.2c-2,2.7-4.4,4.7-7.4,5.8c-3,1.1-6.3,1.4-10,1C379.1,447.5,375.3,446.1,371.9,444z"/>
			<path class="st1" d="M439.9,442.3c0,5.6,0,8.3,0,13.9c-12-2.5-24-4.7-36.1-6.4c0-3.5,0-5.2,0-8.7c7.4-10,14.2-20.4,20.3-31.2
				c-7.9,0.8-11.9,1.2-19.8,1.8c0-4.4,0-6.6,0-11c11.6-1.7,23.2-3.8,34.7-6.2c0,4.4,0,6.5,0,10.9c-6.3,11.9-12.8,23.5-20.3,34.7
				C427.2,440.9,431.4,441.4,439.9,442.3z"/>
		</g>
	</g>
	<g>
		<g>
			<path class="st10" d="M176.6,282.4c0,0,145.8-4.3,230.1,41.7"/>
			<g>
				<path class="st4" d="M411.9,327.1c-3-0.5-6.9-0.6-9.8,0l3.8-3.3l0.8-5C407.8,321.5,410,324.8,411.9,327.1z"/>
			</g>
		</g>
	</g>
</g>
</svg>
