<?xml version="1.0" encoding="utf-8"?>
<!-- Generator: Adobe Illustrator 23.1.1, SVG Export Plug-In . SVG Version: 6.00 Build 0)  -->
<svg version="1.1" id="Warstwa_1" xmlns="http://www.w3.org/2000/svg" xmlns:xlink="http://www.w3.org/1999/xlink" x="0px" y="0px"
	 viewBox="0 0 1080 1920" style="enable-background:new 0 0 1080 1920;" xml:space="preserve">
<style type="text/css">
	.st0{fill:none;stroke:#FFED00;stroke-width:2.2328;stroke-linecap:round;stroke-linejoin:round;stroke-miterlimit:22.9256;}
	.st1{fill-rule:evenodd;clip-rule:evenodd;fill:#EF7D00;}
</style>
<path class="st0" d="M394.39,886.05h23.52v117.39h-23.52V886.05z M657.74,902.19h3.27h19.08h32.89v21.62h-32.89v17.63h30.15v21.62
	h-30.15v41.07h-22.35V902.19z M832.41,923.79l-18.11,9.48c9.26,7.9,11.49,15.81,11.5,25.27l0.01,46.34l21.68-0.4l-0.2-35.53
	c-0.1-18.2,14.61-22.25,23.91-24.36l-4.96-21.63c-8.45,0.74-17.78,5.94-24.4,11.64L832.41,923.79z M254.31,921.69l-21.79,7.04
	l28.21,69.52l-18.94,37.59l19.02,8.96l52.71-115.64l-20.15-7.19l-20.23,54.24L254.31,921.69z M465.89,943.17
	c9.08,0,16.44,9.92,16.44,22.16c0,12.24-7.36,22.16-16.44,22.16c-9.08,0-16.45-9.92-16.45-22.16
	C449.44,953.1,456.81,943.17,465.89,943.17z M465.89,922.72c21.72,0,39.34,19.08,39.34,42.61c0,23.53-17.62,42.61-39.34,42.61
	c-21.72,0-39.34-19.08-39.34-42.61C426.55,941.81,444.17,922.72,465.89,922.72z M764.31,943.17c9.08,0,16.44,9.92,16.44,22.16
	c0,12.24-7.36,22.16-16.44,22.16c-9.08,0-16.44-9.92-16.44-22.16C747.86,953.1,755.22,943.17,764.31,943.17z M764.31,922.72
	c21.72,0,39.34,19.08,39.34,42.61c0,23.53-17.62,42.61-39.34,42.61c-21.72,0-39.34-19.08-39.34-42.61
	C724.97,941.81,742.58,922.72,764.31,922.72z M374.94,978.91l13.04,15.47c-11.04,13.52-34.79,17.85-52.38,5.74
	c-11.1-7.64-18.09-20.58-17.51-35.26c0.53-13.57,6.94-27.1,17.22-34.88c18.09-13.94,41.35-7.18,53.94,6.9l-14.14,13.37
	c-16.98-19.07-35.17-3.12-34.98,13.31c0.14,11.22,3.48,21.54,17.39,22.9C364.83,987.17,371.46,983.82,374.94,978.91z M228.55,992.81
	l-13.26-17.21c-5.01,5.93-12.84,10.33-19.57,10.33c-14.28,0-24.15-16.24-23.6-34.26c0.55-18.03,9.35-33.54,23.63-33.54
	c5.98,0,14.94,3.52,19.41,8.31l13.7-14.56c-17.33-16.81-37.22-18.33-52.43-9.74c-15.2,8.59-25.72,27.3-27.18,49.53
	c-2.01,30.5,20.8,55.3,48.87,55.3C209.6,1006.96,219.29,1000.57,228.55,992.81z M892.47,902.85l22.12,0.04v23.85l16.8-0.01v20.78
	l-16.8,0.14v25.26c0,7.73,3.69,19.92,12.59,24.72l-17.63,10.52c-9.76-8.14-16.88-18.81-16.88-34.14v-26.49l-16.01,0.07l-0.33-20.99
	l16.14-0.17V902.85z M516.7,892.56c19.25-16.54,44.49-23.26,64.06-18.74c31.15,7.2,42.7,26.37,41.13,44.38
	c-1.28,14.67-11.28,28.57-26.51,34.59c18.59,7.82,31.01,18.9,32.3,35.9c1.4,18.41-6.32,40.99-38.13,52.55
	c-16.5,6-37.34,7.45-62.73,4.12l-1.61-33.16c15.21,3.08,27.45,4.29,37.12,3.83c32.71-1.55,41.87-32.86,15.51-41.05
	c-8.9-2.77-19.52-3.82-35.46-3.42l-0.39-30.93c10.3-0.06,23.16-0.68,31.34-3.58c16.96-6.01,18.27-26.42-1.52-31.4
	c-11.21-2.82-27.91-0.29-35.91,12.81L516.7,892.56z"/>
<path class="st1" d="M394.39,886.05h23.52v117.39h-23.52V886.05z M657.74,902.19h3.27h19.08h32.89v21.62h-32.89v17.63h30.15v21.62
	h-30.15v41.07h-22.35V902.19z M832.41,923.78l-18.11,9.48c9.26,7.9,11.49,15.81,11.5,25.27l0.01,46.34l21.68-0.4l-0.2-35.53
	c-0.1-18.2,14.61-22.25,23.91-24.36l-4.96-21.63c-8.45,0.74-17.78,5.94-24.4,11.64L832.41,923.78z M254.31,921.69l-21.79,7.04
	l28.21,69.52l-18.94,37.59l19.02,8.96l52.71-115.64l-20.15-7.19l-20.23,54.24L254.31,921.69z M465.89,943.17
	c9.08,0,16.44,9.92,16.44,22.16c0,12.24-7.36,22.16-16.44,22.16c-9.08,0-16.45-9.92-16.45-22.16
	C449.44,953.09,456.81,943.17,465.89,943.17z M465.89,922.72c21.72,0,39.34,19.08,39.34,42.61c0,23.53-17.62,42.61-39.34,42.61
	c-21.72,0-39.34-19.08-39.34-42.61C426.55,941.8,444.17,922.72,465.89,922.72z M764.31,943.17c9.08,0,16.45,9.92,16.45,22.16
	c0,12.24-7.36,22.16-16.45,22.16c-9.08,0-16.44-9.92-16.44-22.16C747.86,953.09,755.23,943.17,764.31,943.17z M764.31,922.72
	c21.72,0,39.34,19.08,39.34,42.61c0,23.53-17.62,42.61-39.34,42.61c-21.72,0-39.34-19.08-39.34-42.61
	C724.97,941.8,742.58,922.72,764.31,922.72z M374.94,978.91l13.04,15.47c-11.04,13.52-34.79,17.85-52.38,5.73
	c-11.1-7.64-18.09-20.58-17.51-35.26c0.53-13.57,6.94-27.1,17.22-34.88c18.09-13.94,41.35-7.18,53.94,6.9l-14.14,13.37
	c-16.98-19.07-35.17-3.12-34.98,13.31c0.14,11.22,3.48,21.54,17.39,22.9C364.83,987.17,371.46,983.82,374.94,978.91z M228.55,992.81
	l-13.26-17.21c-5.01,5.93-12.84,10.33-19.57,10.33c-14.28,0-24.15-16.24-23.6-34.26c0.55-18.03,9.35-33.54,23.63-33.54
	c5.98,0,14.94,3.52,19.41,8.31l13.7-14.56c-17.33-16.81-37.22-18.34-52.43-9.75c-15.2,8.59-25.72,27.3-27.18,49.53
	c-2.01,30.5,20.8,55.3,48.87,55.3C209.6,1006.96,219.29,1000.57,228.55,992.81z M892.47,902.85l22.12,0.04v23.85l16.8-0.01v20.78
	l-16.8,0.14v25.26c0,7.73,3.69,19.92,12.59,24.72l-17.63,10.52c-9.76-8.14-16.88-18.81-16.88-34.14v-26.49l-16.01,0.07l-0.33-20.99
	l16.14-0.17V902.85z M516.7,892.55c19.25-16.54,44.5-23.26,64.06-18.74c31.15,7.2,42.7,26.37,41.13,44.38
	c-1.28,14.67-11.28,28.57-26.51,34.59c18.59,7.82,31.01,18.9,32.3,35.9c1.4,18.41-6.32,40.99-38.13,52.55
	c-16.5,6-37.34,7.45-62.73,4.12l-1.61-33.16c15.21,3.08,27.45,4.29,37.12,3.83c32.71-1.55,41.87-32.86,15.51-41.05
	c-8.9-2.77-19.52-3.82-35.46-3.42l-0.39-30.93c10.3-0.06,23.16-0.68,31.34-3.57c16.96-6.01,18.27-26.42-1.52-31.4
	c-11.21-2.82-27.91-0.29-35.91,12.81L516.7,892.55z"/>
<path class="st1" d="M631.3,892.36V880.5h4.07c1.4,0,2.4,0.1,3.03,0.32c0.62,0.22,1.12,0.6,1.49,1.15c0.37,0.55,0.55,1.13,0.55,1.74
	c0,0.87-0.31,1.62-0.93,2.26c-0.62,0.64-1.44,1-2.46,1.08c0.42,0.17,0.76,0.38,1.01,0.63c0.48,0.47,1.06,1.25,1.75,2.35l1.45,2.32
	h-2.34l-1.05-1.87c-0.83-1.47-1.49-2.39-2-2.76c-0.35-0.27-0.86-0.41-1.54-0.41h-1.12v5.04H631.3z M633.22,885.69h2.32
	c1.11,0,1.86-0.17,2.27-0.5c0.4-0.33,0.61-0.77,0.61-1.32c0-0.35-0.1-0.66-0.29-0.94c-0.19-0.27-0.46-0.48-0.81-0.62
	c-0.35-0.14-0.99-0.2-1.92-0.2h-2.17V885.69z M636.14,877.06c-1.55,0-3.06,0.4-4.52,1.19c-1.47,0.79-2.61,1.93-3.44,3.4
	c-0.83,1.48-1.24,3.01-1.24,4.61c0,1.59,0.41,3.11,1.22,4.56c0.81,1.46,1.95,2.59,3.41,3.41c1.46,0.81,2.98,1.22,4.57,1.22
	c1.59,0,3.11-0.41,4.57-1.22c1.46-0.81,2.59-1.95,3.4-3.41c0.81-1.46,1.21-2.98,1.21-4.56c0-1.6-0.41-3.14-1.23-4.61
	c-0.82-1.47-1.97-2.61-3.44-3.4C639.18,877.46,637.68,877.06,636.14,877.06z M636.14,875.24c1.85,0,3.65,0.47,5.42,1.42
	c1.76,0.95,3.14,2.31,4.12,4.08c0.98,1.77,1.48,3.61,1.48,5.53c0,1.9-0.48,3.72-1.46,5.48c-0.97,1.75-2.33,3.12-4.07,4.08
	c-1.75,0.97-3.58,1.46-5.48,1.46c-1.91,0-3.74-0.48-5.48-1.46c-1.75-0.97-3.11-2.33-4.08-4.08c-0.98-1.75-1.46-3.58-1.46-5.48
	c0-1.92,0.49-3.76,1.48-5.53c0.99-1.77,2.36-3.13,4.13-4.08C632.48,875.71,634.29,875.24,636.14,875.24z"/>
</svg>
