<?xml version="1.0" encoding="utf-8"?>
<!-- Generator: Adobe Illustrator 23.1.1, SVG Export Plug-In . SVG Version: 6.00 Build 0)  -->
<svg version="1.1" id="Warstwa_1" xmlns="http://www.w3.org/2000/svg" xmlns:xlink="http://www.w3.org/1999/xlink" x="0px" y="0px"
	 viewBox="0 0 939.2 182.2" style="enable-background:new 0 0 939.2 182.2;" xml:space="preserve">
<style type="text/css">
	.st0{fill:none;stroke:#FFED00;stroke-width:2.2328;stroke-linecap:round;stroke-linejoin:round;stroke-miterlimit:22.9256;}
	.st1{fill-rule:evenodd;clip-rule:evenodd;fill:#EF7D00;}
</style>
<path class="st0" d="M253.6,18.7h23.5v117.4h-23.5V18.7z M517,34.8h3.3h19.1h32.9v21.6h-32.9v17.6h30.2v21.6h-30.2v41.1H517
	L517,34.8L517,34.8z M691.6,56.4l-18.1,9.5c9.3,7.9,11.5,15.8,11.5,25.3l0,46.3l21.7-0.4l-0.2-35.5c-0.1-18.2,14.6-22.2,23.9-24.4
	l-5-21.6c-8.5,0.7-17.8,5.9-24.4,11.6L691.6,56.4z M113.5,54.3l-21.8,7l28.2,69.5L101,168.5l19,9l52.7-115.6l-20.1-7.2l-20.2,54.2
	L113.5,54.3z M325.1,75.8c9.1,0,16.4,9.9,16.4,22.2s-7.4,22.2-16.4,22.2c-9.1,0-16.5-9.9-16.5-22.2C308.7,85.7,316,75.8,325.1,75.8z
	 M325.1,55.4c21.7,0,39.3,19.1,39.3,42.6c0,23.5-17.6,42.6-39.3,42.6s-39.3-19.1-39.3-42.6C285.8,74.4,303.4,55.4,325.1,55.4z
	 M623.5,75.8c9.1,0,16.4,9.9,16.4,22.2s-7.4,22.2-16.4,22.2s-16.4-9.9-16.4-22.2C607.1,85.7,614.5,75.8,623.5,75.8z M623.5,55.4
	c21.7,0,39.3,19.1,39.3,42.6c0,23.5-17.6,42.6-39.3,42.6c-21.7,0-39.3-19.1-39.3-42.6C584.2,74.4,601.8,55.4,623.5,55.4z
	 M234.2,111.5l13,15.5c-11,13.5-34.8,17.8-52.4,5.7c-11.1-7.6-18.1-20.6-17.5-35.3c0.5-13.6,6.9-27.1,17.2-34.9
	c18.1-13.9,41.4-7.2,53.9,6.9l-14.1,13.4c-17-19.1-35.2-3.1-35,13.3c0.1,11.2,3.5,21.5,17.4,22.9
	C224.1,119.8,230.7,116.5,234.2,111.5z M87.8,125.4l-13.3-17.2c-5,5.9-12.8,10.3-19.6,10.3c-14.3,0-24.1-16.2-23.6-34.3
	c0.6-18,9.4-33.5,23.6-33.5c6,0,14.9,3.5,19.4,8.3l13.7-14.6c-17.3-16.8-37.2-18.3-52.4-9.7C20.5,43.4,9.9,62.1,8.5,84.3
	c-2,30.5,20.8,55.3,48.9,55.3C68.8,139.6,78.5,133.2,87.8,125.4z M751.7,35.5l22.1,0v23.8l16.8,0v20.8l-16.8,0.1v25.3
	c0,7.7,3.7,19.9,12.6,24.7l-17.6,10.5c-9.8-8.1-16.9-18.8-16.9-34.1V80.2l-16,0.1l-0.3-21l16.1-0.2V35.5z M375.9,25.2
	C395.2,8.7,420.4,1.9,440,6.5c31.2,7.2,42.7,26.4,41.1,44.4c-1.3,14.7-11.3,28.6-26.5,34.6c18.6,7.8,31,18.9,32.3,35.9
	c1.4,18.4-6.3,41-38.1,52.6c-16.5,6-37.3,7.4-62.7,4.1l-1.6-33.2c15.2,3.1,27.5,4.3,37.1,3.8c32.7-1.5,41.9-32.9,15.5-41
	c-8.9-2.8-19.5-3.8-35.5-3.4l-0.4-30.9c10.3-0.1,23.2-0.7,31.3-3.6c17-6,18.3-26.4-1.5-31.4c-11.2-2.8-27.9-0.3-35.9,12.8
	L375.9,25.2z"/>
<path class="st1" d="M253.6,18.7h23.5v117.4h-23.5V18.7z M517,34.8h3.3h19.1h32.9v21.6h-32.9v17.6h30.2v21.6h-30.2v41.1H517
	L517,34.8L517,34.8z M691.6,56.4l-18.1,9.5c9.3,7.9,11.5,15.8,11.5,25.3l0,46.3l21.7-0.4l-0.2-35.5c-0.1-18.2,14.6-22.2,23.9-24.4
	l-5-21.6c-8.5,0.7-17.8,5.9-24.4,11.6L691.6,56.4z M113.5,54.3l-21.8,7l28.2,69.5L101,168.5l19,9l52.7-115.6l-20.1-7.2l-20.2,54.2
	L113.5,54.3z M325.1,75.8c9.1,0,16.4,9.9,16.4,22.2s-7.4,22.2-16.4,22.2c-9.1,0-16.5-9.9-16.5-22.2C308.7,85.7,316,75.8,325.1,75.8z
	 M325.1,55.4c21.7,0,39.3,19.1,39.3,42.6c0,23.5-17.6,42.6-39.3,42.6s-39.3-19.1-39.3-42.6C285.8,74.4,303.4,55.4,325.1,55.4z
	 M623.5,75.8c9.1,0,16.5,9.9,16.5,22.2s-7.4,22.2-16.5,22.2c-9.1,0-16.4-9.9-16.4-22.2C607.1,85.7,614.5,75.8,623.5,75.8z
	 M623.5,55.4c21.7,0,39.3,19.1,39.3,42.6c0,23.5-17.6,42.6-39.3,42.6c-21.7,0-39.3-19.1-39.3-42.6S601.8,55.4,623.5,55.4z
	 M234.2,111.5l13,15.5c-11,13.5-34.8,17.8-52.4,5.7c-11.1-7.6-18.1-20.6-17.5-35.3c0.5-13.6,6.9-27.1,17.2-34.9
	c18.1-13.9,41.4-7.2,53.9,6.9l-14.1,13.4c-17-19.1-35.2-3.1-35,13.3c0.1,11.2,3.5,21.5,17.4,22.9
	C224.1,119.8,230.7,116.5,234.2,111.5z M87.8,125.4l-13.3-17.2c-5,5.9-12.8,10.3-19.6,10.3c-14.3,0-24.1-16.2-23.6-34.3
	c0.6-18,9.4-33.5,23.6-33.5c6,0,14.9,3.5,19.4,8.3l13.7-14.6c-17.3-16.8-37.2-18.3-52.4-9.8C20.5,43.4,9.9,62.1,8.5,84.3
	c-2,30.5,20.8,55.3,48.9,55.3C68.8,139.6,78.5,133.2,87.8,125.4z M751.7,35.5l22.1,0v23.8l16.8,0v20.8l-16.8,0.1v25.3
	c0,7.7,3.7,19.9,12.6,24.7l-17.6,10.5c-9.8-8.1-16.9-18.8-16.9-34.1V80.2l-16,0.1l-0.3-21l16.1-0.2V35.5z M375.9,25.2
	C395.2,8.6,420.4,1.9,440,6.4c31.2,7.2,42.7,26.4,41.1,44.4c-1.3,14.7-11.3,28.6-26.5,34.6c18.6,7.8,31,18.9,32.3,35.9
	c1.4,18.4-6.3,41-38.1,52.6c-16.5,6-37.3,7.4-62.7,4.1l-1.6-33.2c15.2,3.1,27.5,4.3,37.1,3.8c32.7-1.5,41.9-32.9,15.5-41
	c-8.9-2.8-19.5-3.8-35.5-3.4l-0.4-30.9c10.3-0.1,23.2-0.7,31.3-3.6c17-6,18.3-26.4-1.5-31.4c-11.2-2.8-27.9-0.3-35.9,12.8
	L375.9,25.2z"/>
<path class="st1" d="M490.5,25V13.1h4.1c1.4,0,2.4,0.1,3,0.3c0.6,0.2,1.1,0.6,1.5,1.2c0.4,0.5,0.5,1.1,0.5,1.7
	c0,0.9-0.3,1.6-0.9,2.3s-1.4,1-2.5,1.1c0.4,0.2,0.8,0.4,1,0.6c0.5,0.5,1.1,1.2,1.8,2.3l1.5,2.3h-2.3l-1-1.9c-0.8-1.5-1.5-2.4-2-2.8
	c-0.3-0.3-0.9-0.4-1.5-0.4h-1.1v5L490.5,25L490.5,25z M492.5,18.3h2.3c1.1,0,1.9-0.2,2.3-0.5c0.4-0.3,0.6-0.8,0.6-1.3
	c0-0.3-0.1-0.7-0.3-0.9c-0.2-0.3-0.5-0.5-0.8-0.6s-1-0.2-1.9-0.2h-2.2L492.5,18.3L492.5,18.3z M495.4,9.7c-1.5,0-3.1,0.4-4.5,1.2
	c-1.5,0.8-2.6,1.9-3.4,3.4c-0.8,1.5-1.2,3-1.2,4.6c0,1.6,0.4,3.1,1.2,4.6c0.8,1.5,2,2.6,3.4,3.4c1.5,0.8,3,1.2,4.6,1.2
	s3.1-0.4,4.6-1.2s2.6-2,3.4-3.4c0.8-1.5,1.2-3,1.2-4.6c0-1.6-0.4-3.1-1.2-4.6s-2-2.6-3.4-3.4C498.4,10.1,496.9,9.7,495.4,9.7z
	 M495.4,7.9c1.8,0,3.7,0.5,5.4,1.4c1.8,1,3.1,2.3,4.1,4.1s1.5,3.6,1.5,5.5c0,1.9-0.5,3.7-1.5,5.5c-1,1.8-2.3,3.1-4.1,4.1
	c-1.8,1-3.6,1.5-5.5,1.5c-1.9,0-3.7-0.5-5.5-1.5c-1.8-1-3.1-2.3-4.1-4.1c-1-1.8-1.5-3.6-1.5-5.5c0-1.9,0.5-3.8,1.5-5.5
	s2.4-3.1,4.1-4.1C491.7,8.3,493.5,7.9,495.4,7.9z"/>
</svg>
