<?xml version="1.0" encoding="utf-8"?>
<!-- Generator: Adobe Illustrator 23.1.1, SVG Export Plug-In . SVG Version: 6.00 Build 0)  -->
<svg version="1.1" id="Warstwa_1" xmlns="http://www.w3.org/2000/svg" xmlns:xlink="http://www.w3.org/1999/xlink" x="0px" y="0px"
	 viewBox="0 0 1920 800" style="enable-background:new 0 0 1920 800;" xml:space="preserve">
<style type="text/css">
	.st0{fill-rule:evenodd;clip-rule:evenodd;fill:#096CB2;}
	.st1{fill:none;stroke:#096CB2;stroke-width:1.4173;stroke-linecap:round;stroke-linejoin:round;stroke-miterlimit:22.9256;}
	.st2{fill:#FFFFFF;}
	.st3{fill:#096CB2;}
	.st4{fill:#E30613;}
</style>
<g>
	<g>
		<defs>
			<rect id="SVGID_1_" x="526.9" y="99.3" width="802.4" height="638.9"/>
		</defs>
		<clipPath id="SVGID_2_">
			<use xlink:href="#SVGID_1_"  style="overflow:visible;"/>
		</clipPath>
		<g style="clip-path:url(#SVGID_2_);">
			
				<image style="overflow:visible;" width="676" height="538" xlink:href="F39E91B9A5FF09EF.png"  transform="matrix(1.187 0 0 1.1875 526.8745 99.3185)">
			</image>
		</g>
	</g>
	<path class="st0" d="M1153,50.9h526.5c12.4,0,22.6,10.2,22.6,22.6v30.9c0,12.4-10.2,22.6-22.6,22.6H1153V50.9z"/>
	<path class="st1" d="M1153,50.9h526.5c12.4,0,22.6,10.2,22.6,22.6v221.9c0,12.4-10.2,22.6-22.6,22.6H1153"/>
	<path class="st1" d="M767,50.9H240.6C228.2,50.9,218,61,218,73.5v221.9c0,12.4,10.2,22.6,22.6,22.6h336.6"/>
	<path class="st2" d="M1207.7,90.2c0-7.8-3.2-11.6-9.6-11.6h-1.3v23.3h1.1c3.1,0,5.6-1,7.3-3C1206.8,96.8,1207.7,94,1207.7,90.2
		 M1213.5,90.2c0,5.2-1.3,9.2-4,11.9c-2.7,2.8-6.6,4.1-11.7,4.1h-6.5V74.1h6.5c5.3,0,9.3,1.3,11.8,3.9
		C1212.2,80.7,1213.5,84.7,1213.5,90.2z"/>
	<polygon class="st2" points="1235.3,106.3 1216.8,106.3 1216.8,101 1229,78.8 1217.3,78.8 1217.3,74.1 1235,74.1 1235,79.1 
		1222.7,101.6 1235.3,101.6 	"/>
	<rect x="1239.8" y="74.1" class="st2" width="5.5" height="32.2"/>
	<path class="st2" d="M1265.3,94l-3.9-14.5l-4.2,14.5H1265.3z M1274.3,106.3h-5.8l-2-7.8h-10.7l-2.1,7.8h-5.4l10-32.2h6.3
		L1274.3,106.3z"/>
	<polygon class="st2" points="1293.1,106.3 1277.6,106.3 1277.6,92.7 1275.4,94.3 1275.4,89.4 1277.6,87.7 1277.6,74.1 1283.1,74.1 
		1283.1,84.7 1288.3,80.7 1288.3,85.7 1283.1,89.7 1283.1,101.6 1293.1,101.6 	"/>
	<path class="st2" d="M1311.5,94l-3.9-14.5l-4.2,14.5H1311.5z M1320.5,106.3h-5.8l-2-7.8h-10.7l-2.1,7.8h-5.4l10-32.2h6.3
		L1320.5,106.3z"/>
	<polygon class="st2" points="1345.3,106.3 1338.8,106.3 1328.5,81.5 1328.5,106.3 1323.7,106.3 1323.7,74.1 1330.1,74.1 
		1340.5,99.1 1340.5,74.1 1345.3,74.1 	"/>
	<rect x="1351.8" y="74.1" class="st2" width="5.5" height="32.2"/>
	<polygon class="st2" points="1380,106.3 1363.7,106.3 1363.7,74.1 1379.5,74.1 1379.5,78.6 1369.2,78.6 1369.2,87.6 1378.9,87.6 
		1378.9,92 1369.2,92 1369.2,101.9 1380,101.9 	"/>
	<path class="st2" d="M1409.2,83.8c0-1.9-0.4-3.3-1.3-4.1c-0.8-0.7-2.2-1.1-4-1.1h-1.8v10.7h2.1c1.8,0,3.1-0.4,3.8-1.3
		C1408.8,87.2,1409.2,85.8,1409.2,83.8 M1414.6,83.9c0,6.5-3.6,9.8-10.9,9.8h-1.7v12.6h-5.5V74.1h7c3.8,0,6.5,0.8,8.4,2.3
		C1413.7,78,1414.6,80.5,1414.6,83.9z"/>
	<path class="st2" d="M1435.9,90.2c0-8.1-2.1-12.1-6.3-12.1c-4.2,0-6.3,4-6.3,12.1c0,8.1,2.1,12.1,6.3,12.1
		C1433.8,102.3,1435.9,98.3,1435.9,90.2 M1441.8,90.2c0,5.3-1.1,9.4-3.2,12.3c-2.1,2.9-5.1,4.3-8.9,4.3c-3.8,0-6.8-1.4-8.9-4.3
		c-2.1-2.8-3.2-6.9-3.2-12.3c0-5.3,1.1-9.4,3.2-12.3c2.1-2.9,5.1-4.3,8.9-4.3c3.8,0,6.8,1.4,8.9,4.3
		C1440.7,80.8,1441.8,84.9,1441.8,90.2z"/>
	<path class="st2" d="M1462.7,97.1c0,2.9-0.9,5.2-2.8,7c-1.8,1.8-4.2,2.7-7.2,2.7c-2.5,0-4.8-0.5-6.9-1.5l0.4-5
		c2.1,1.3,4.2,1.9,6.3,1.9c1.5,0,2.6-0.4,3.5-1.1c0.8-0.8,1.3-1.8,1.3-3c0-1.5-0.5-2.7-1.5-3.6c-0.4-0.5-1.8-1.5-4.2-3.1
		c-2.1-1.4-3.6-2.7-4.5-3.9c-1-1.4-1.5-3.1-1.5-5c0-2.7,0.9-4.9,2.6-6.5c1.7-1.6,4.1-2.4,7.1-2.4c2,0,4,0.3,6,1l-0.3,4.9
		c-2-0.9-3.8-1.3-5.3-1.3c-3,0-4.5,1.3-4.5,3.8c0,1,0.4,1.9,1.2,2.8c0.6,0.6,1.7,1.5,3.5,2.7c2.6,1.8,4.3,3.1,5.1,3.9
		C1462.1,92.8,1462.7,94.7,1462.7,97.1 M1460.4,63.9l-4.8,7.1h-4l3.3-7.1H1460.4z"/>
	<path class="st2" d="M1480.6,83c0-1.7-0.5-2.9-1.5-3.5c-0.8-0.6-2.2-0.9-4.3-0.9h-1.7v9.5h1.5c2.1,0,3.6-0.4,4.5-1.1
		C1480.2,86.2,1480.6,84.9,1480.6,83 M1487.7,106.3h-5.8l-2.8-9.6c-0.5-1.6-1-2.7-1.5-3.2c-0.6-0.6-1.5-0.9-2.8-0.9h-1.7v13.8h-5.4
		V74.1h6.3c4.2,0,7.1,0.6,8.9,1.7c2.1,1.3,3.1,3.6,3.1,6.9c0,4.1-2,6.6-5.9,7.6c1.1,0.2,1.9,0.7,2.5,1.5c0.4,0.6,0.9,1.8,1.5,3.4
		L1487.7,106.3z"/>
	<polygon class="st2" points="1507.7,106.3 1491.4,106.3 1491.4,74.1 1507.2,74.1 1507.2,78.6 1496.9,78.6 1496.9,87.6 1506.6,87.6 
		1506.6,92 1496.9,92 1496.9,101.9 1507.7,101.9 	"/>
	<path class="st2" d="M1529.4,90.2c0-7.8-3.2-11.6-9.6-11.6h-1.3v23.3h1.1c3.1,0,5.6-1,7.3-3C1528.6,96.8,1529.4,94,1529.4,90.2
		 M1535.3,90.2c0,5.2-1.3,9.2-4,11.9c-2.7,2.8-6.6,4.1-11.7,4.1h-6.5V74.1h6.5c5.3,0,9.3,1.3,11.8,3.9
		C1534,80.7,1535.3,84.7,1535.3,90.2z"/>
	<polygon class="st2" points="1562.2,106.3 1555.7,106.3 1545.3,81.5 1545.3,106.3 1540.6,106.3 1540.6,74.1 1546.9,74.1 
		1557.4,99.1 1557.4,74.1 1562.2,74.1 	"/>
	<rect x="1568.6" y="74.1" class="st2" width="5.5" height="32.2"/>
	<polygon class="st2" points="1596.8,106.3 1580.6,106.3 1580.6,74.1 1596.4,74.1 1596.4,78.6 1586.1,78.6 1586.1,87.6 1595.8,87.6 
		1595.8,92 1586.1,92 1586.1,101.9 1596.8,101.9 	"/>
	<path class="st3" d="M1205.2,184.7c0,2.6-0.8,4.7-2.5,6.3c-1.6,1.6-3.8,2.4-6.5,2.4c-2.3,0-4.3-0.5-6.2-1.4l0.4-4.5
		c1.9,1.1,3.8,1.7,5.6,1.7c1.3,0,2.4-0.3,3.1-1c0.8-0.7,1.1-1.6,1.1-2.7c0-1.3-0.4-2.4-1.3-3.3c-0.4-0.4-1.7-1.3-3.8-2.8
		c-1.9-1.3-3.2-2.4-4-3.5c-0.9-1.3-1.3-2.8-1.3-4.5c0-2.4,0.8-4.4,2.3-5.8c1.6-1.4,3.7-2.2,6.4-2.2c1.8,0,3.6,0.3,5.4,0.9l-0.2,4.4
		c-1.8-0.8-3.4-1.2-4.8-1.2c-2.7,0-4,1.1-4,3.4c0,0.9,0.4,1.7,1.1,2.5c0.5,0.6,1.5,1.4,3.1,2.4c2.4,1.6,3.9,2.8,4.6,3.5
		C1204.7,180.8,1205.2,182.5,1205.2,184.7"/>
	<path class="st3" d="M1219,192.8c-1.2,0.3-2.3,0.5-3.4,0.5c-2.3,0-3.8-0.7-4.6-2c-0.6-1.1-0.9-3-0.9-5.7v-10.4h-3.2v-3.6h3.2v-4.4
		l4.7-1.5v5.9h4v3.6h-4v10.4c0,1.3,0.1,2.2,0.2,2.6c0.3,0.8,1,1.3,2.1,1.3c0.6,0,1.2-0.1,1.9-0.3V192.8z"/>
	<path class="st3" d="M1237.7,171.5l-6.7,23.4c-0.7,2.6-1.5,4.4-2.3,5.4c-1,1.3-2.5,1.9-4.4,1.9c-1,0-2-0.1-2.9-0.4l0.3-3.9
		c0.6,0.2,1.1,0.2,1.5,0.2c1.5,0,2.5-1,3-2.9l0.4-1.6l-6.7-22.1h5.1l4.1,16.5l4-16.5H1237.7z"/>
	<path class="st3" d="M1266.3,192.9h-4.8v-13.8c0-2.6-0.9-3.8-2.6-3.8c-2.1,0-3.1,1.7-3.1,5.1v12.5h-4.8v-13.8
		c0-2.6-0.9-3.8-2.6-3.8c-2.1,0-3.1,1.7-3.1,5.1v12.5h-4.8v-16.4c0-1.8-0.1-3.5-0.2-5h4.3c0.1,1.8,0.2,2.9,0.2,3.2
		c0.5-1.1,1.2-2,2.1-2.7c0.9-0.6,2-1,3.1-1c2.5,0,4.2,1.2,5.1,3.5c1.2-2.3,3-3.5,5.5-3.5c1.7,0,3.1,0.6,4,1.8c1,1.2,1.4,3,1.4,5.3
		V192.9z"/>
	<path class="st3" d="M1286.8,192.9h-4.3c-0.1-1-0.2-2.1-0.2-3.2c-1.1,2.4-2.9,3.6-5.5,3.6c-3.8,0-5.7-2.4-5.7-7.1v-14.8h4.8v13.8
		c0,2.6,0.9,3.8,2.7,3.8c2.3,0,3.4-1.7,3.4-5.2v-12.4h4.7V188C1286.6,190.1,1286.7,191.7,1286.8,192.9"/>
	<rect x="1291.7" y="161.7" class="st3" width="4.8" height="31.2"/>
	<path class="st3" d="M1317.2,192.9h-4.3c-0.1-1-0.2-2.1-0.2-3.2c-1.1,2.4-2.9,3.6-5.5,3.6c-3.8,0-5.7-2.4-5.7-7.1v-14.8h4.8v13.8
		c0,2.6,0.9,3.8,2.7,3.8c2.3,0,3.4-1.7,3.4-5.2v-12.4h4.7V188C1317,190.1,1317.1,191.7,1317.2,192.9"/>
	<path class="st3" d="M1326.9,194c0,2.8-0.4,4.9-1.1,6.1c-0.8,1.4-2.3,2.1-4.4,2.1c-0.8,0-1.6-0.1-2.5-0.4l0.1-3.7
		c0.4,0.1,0.8,0.2,1.1,0.2c0.9,0,1.5-0.4,1.7-1.2c0.2-0.6,0.3-1.9,0.3-3.9v-21.6h4.8V194z M1327,167.5h-4.9v-4.9h4.9V167.5z"/>
	<path class="st3" d="M1342.6,180.5v-0.4c0-3.7-1.1-5.5-3.3-5.5c-2.2,0-3.5,2-3.7,5.9H1342.6z M1347,181.8c0,0.5,0,1.1,0,1.8h-11.4
		c0.2,4,2,6,5.3,6c1.7,0,3.3-0.5,4.9-1.5v3.9c-1.7,0.9-3.6,1.4-5.7,1.4c-3,0-5.3-1-7-2.9c-1.6-1.9-2.5-4.6-2.5-8.2
		c0-3.4,0.8-6.2,2.3-8.2c1.5-2,3.6-3,6.2-3c2.3,0,4.1,1,5.5,2.9C1346.3,175.9,1347,178.5,1347,181.8z"/>
	<path class="st3" d="M1376.7,192.9h-4.3c-0.1-1-0.2-2.1-0.2-3.2c-1.1,2.4-2.9,3.6-5.5,3.6c-3.8,0-5.7-2.4-5.7-7.1v-14.8h4.8v13.8
		c0,2.6,0.9,3.8,2.7,3.8c2.3,0,3.4-1.7,3.4-5.2v-12.4h4.7V188C1376.6,190.1,1376.6,191.7,1376.7,192.9"/>
	<polygon class="st3" points="1408.3,171.5 1402.9,192.9 1397.7,192.9 1394,176 1390.4,192.9 1385.1,192.9 1379.8,171.5 
		1384.7,171.5 1388,188.4 1391.5,171.5 1396.8,171.5 1400.3,188.4 1403.7,171.5 	"/>
	<path class="st3" d="M1421.5,184v-1.4c-1-0.1-1.5-0.1-1.7-0.1c-3.5,0-5.3,1.3-5.3,4c0,2.2,1,3.3,3,3.3
		C1420.2,189.7,1421.5,187.8,1421.5,184 M1426.3,192.9h-4.4l-0.3-2.7c-1.5,2.1-3.4,3.1-5.7,3.1c-1.8,0-3.2-0.6-4.3-1.8
		c-1.1-1.2-1.6-2.8-1.6-4.8c0-4.8,3.2-7.2,9.5-7.2c0.7,0,1.3,0,1.9,0v-0.9c0-2.7-1.3-4-4-4c-2,0-3.7,0.7-5.1,2l-0.3-4
		c2.2-1.1,4.3-1.6,6.5-1.6c3,0,5.1,0.7,6.2,2.2c1.1,1.4,1.6,3.7,1.6,7v8.4C1426.2,190.5,1426.3,191.9,1426.3,192.9z"/>
	<rect x="1431" y="161.7" class="st3" width="4.8" height="31.2"/>
	<path class="st3" d="M1456.5,192.9h-4.8v-13.8c0-2.6-0.9-3.8-2.8-3.8c-1,0-1.8,0.4-2.4,1.3c-0.6,0.9-0.9,2.1-0.9,3.7v12.6h-4.8
		v-16.4c0-1.8-0.1-3.5-0.2-5h4.3c0.1,1.8,0.2,2.9,0.2,3.2c1.1-2.4,2.9-3.6,5.5-3.6c3.8,0,5.7,2.4,5.7,7.1V192.9z"/>
	<path class="st3" d="M1466.2,192.9h-4.8v-21.4h4.8V192.9z M1466.3,167.5h-4.9v-4.9h4.9V167.5z"/>
	<path class="st3" d="M1481.1,184v-1.4c-1-0.1-1.5-0.1-1.7-0.1c-3.5,0-5.3,1.3-5.3,4c0,2.2,1,3.3,3,3.3
		C1479.8,189.7,1481.1,187.8,1481.1,184 M1486,192.9h-4.4l-0.3-2.7c-1.5,2.1-3.4,3.1-5.7,3.1c-1.8,0-3.2-0.6-4.3-1.8
		c-1.1-1.2-1.6-2.8-1.6-4.8c0-4.8,3.2-7.2,9.5-7.2c0.7,0,1.3,0,1.9,0v-0.9c0-2.7-1.3-4-4-4c-2,0-3.7,0.7-5.1,2l-0.3-4
		c2.2-1.1,4.3-1.6,6.5-1.6c3,0,5.1,0.7,6.2,2.2c1.1,1.4,1.6,3.7,1.6,7v8.4C1485.9,190.5,1485.9,191.9,1486,192.9z"/>
	<path class="st3" d="M1506.3,192.9h-4.7v-13.8c0-2.6-0.9-3.8-2.8-3.8c-1,0-1.8,0.4-2.4,1.3c-0.6,0.9-0.9,2.1-0.9,3.7v12.6h-4.8
		v-16.4c0-1.8-0.1-3.5-0.2-5h4.3c0.1,1.8,0.2,2.9,0.2,3.2c1.1-2.4,2.9-3.6,5.5-3.6c3.8,0,5.7,2.4,5.7,7.1V192.9z"/>
	<path class="st3" d="M1516,192.9h-4.8v-21.4h4.8V192.9z M1516.1,167.5h-4.9v-4.9h4.9V167.5z"/>
	<path class="st3" d="M1531.7,180.5v-0.4c0-3.7-1.1-5.5-3.3-5.5c-2.2,0-3.5,2-3.7,5.9H1531.7z M1536.2,181.8c0,0.5,0,1.1,0,1.8
		h-11.4c0.2,4,2,6,5.3,6c1.7,0,3.3-0.5,4.9-1.5v3.9c-1.7,0.9-3.6,1.4-5.7,1.4c-3,0-5.3-1-7-2.9c-1.6-1.9-2.5-4.6-2.5-8.2
		c0-3.4,0.8-6.2,2.3-8.2c1.5-2,3.6-3,6.2-3c2.3,0,4.1,1,5.5,2.9C1535.5,175.9,1536.2,178.5,1536.2,181.8z"/>
	<path class="st3" d="M1206.2,238.4h-4.7v-13.8c0-2.6-0.9-3.8-2.8-3.8c-1,0-1.8,0.4-2.4,1.3c-0.6,0.9-0.9,2.1-0.9,3.7v12.6h-4.8V222
		c0-1.8-0.1-3.5-0.2-5h4.3c0.1,1.8,0.2,2.9,0.2,3.2c1.1-2.4,2.9-3.6,5.5-3.6c3.8,0,5.7,2.4,5.7,7.1V238.4z"/>
	<path class="st3" d="M1222.6,227.8c0-4.9-1.3-7.4-3.8-7.4c-2.5,0-3.8,2.5-3.8,7.4c0,4.9,1.3,7.3,3.8,7.3
		C1221.4,235.1,1222.6,232.7,1222.6,227.8 M1227.6,227.7c0,3.6-0.8,6.3-2.3,8.3c-1.5,1.9-3.7,2.9-6.5,2.9c-2.8,0-4.9-1-6.5-2.9
		c-1.5-1.9-2.3-4.7-2.3-8.2c0-3.6,0.8-6.3,2.3-8.3c1.5-1.9,3.7-2.9,6.5-2.9c2.8,0,5,1,6.5,2.9
		C1226.8,221.4,1227.6,224.1,1227.6,227.7z"/>
	<path class="st3" d="M1242,221.4c-0.8-0.1-1.9-0.1-3.3-0.1s-2.2,2-2.2,6v11.2h-4.8V222c0-1.8-0.1-3.5-0.2-5h4.3
		c0.1,1.4,0.2,2.4,0.2,3v0.6c1.1-2.7,2.9-4.1,5.4-4.1c0.2,0,0.4,0,0.6,0V221.4z"/>
	<path class="st3" d="M1254.5,229.5v-1.4c-1-0.1-1.5-0.1-1.7-0.1c-3.5,0-5.3,1.3-5.3,4c0,2.2,1,3.3,3,3.3
		C1253.2,235.2,1254.5,233.3,1254.5,229.5 M1259.4,238.4h-4.4l-0.3-2.7c-1.5,2.1-3.4,3.1-5.7,3.1c-1.8,0-3.2-0.6-4.3-1.8
		c-1.1-1.2-1.6-2.8-1.6-4.8c0-4.8,3.2-7.2,9.5-7.2c0.7,0,1.3,0,1.9,0v-0.9c0-2.7-1.3-4-4-4c-2,0-3.7,0.7-5.1,2l-0.3-4
		c2.2-1.1,4.3-1.6,6.5-1.6c3,0,5.1,0.7,6.2,2.2c1.1,1.4,1.6,3.7,1.6,7v8.4C1259.2,236,1259.3,237.5,1259.4,238.4z"/>
	<path class="st3" d="M1275.3,228.9v-2.2c0-2-0.3-3.5-1-4.6c-0.6-1.1-1.5-1.6-2.7-1.6c-2.4,0-3.6,2.4-3.6,7.3c0,4.8,1.2,7.2,3.6,7.2
		c1.1,0,2-0.5,2.7-1.6C1275,232.4,1275.3,230.9,1275.3,228.9 M1280,238.4h-4.4c-0.1-1.3-0.2-2.3-0.2-3.2c-1.3,2.4-3.1,3.7-5.4,3.7
		c-2.2,0-4-0.9-5.2-2.8c-1.2-1.9-1.8-4.6-1.8-8.2c0-7.5,2.4-11.2,7.1-11.2c2.2,0,3.9,1.1,5.1,3.3v-12.7h4.7V238.4z"/>
	<path class="st3" d="M1295.4,221.4c-0.8-0.1-1.9-0.1-3.3-0.1c-1.4,0-2.2,2-2.2,6v11.2h-4.8V222c0-1.8-0.1-3.5-0.2-5h4.3
		c0.1,1.4,0.2,2.4,0.2,3v0.6c1.1-2.7,2.9-4.1,5.4-4.1c0.2,0,0.4,0,0.6,0V221.4z"/>
	<path class="st3" d="M1308.7,226.1v-0.4c0-3.7-1.1-5.5-3.3-5.5c-2.2,0-3.5,2-3.7,5.9H1308.7z M1313.2,227.3c0,0.5,0,1.1,0,1.8
		h-11.4c0.2,4,2,6,5.3,6c1.7,0,3.3-0.5,4.9-1.5v3.9c-1.7,0.9-3.6,1.4-5.7,1.4c-3,0-5.3-1-7-2.9c-1.6-1.9-2.5-4.6-2.5-8.2
		c0-3.4,0.8-6.2,2.3-8.2c1.5-2,3.6-3,6.2-3c2.3,0,4.1,1,5.5,2.9C1312.4,221.4,1313.2,224,1313.2,227.3z"/>
	<path class="st3" d="M1332.8,238.4h-4.7v-13.8c0-2.6-0.9-3.8-2.8-3.8c-1,0-1.8,0.4-2.4,1.3c-0.6,0.9-0.9,2.1-0.9,3.7v12.6h-4.8V222
		c0-1.8-0.1-3.5-0.2-5h4.3c0.1,1.8,0.2,2.9,0.2,3.2c1.1-2.4,2.9-3.6,5.5-3.6c3.8,0,5.7,2.4,5.7,7.1V238.4z"/>
	<path class="st3" d="M1347.6,229.5v-1.4c-1-0.1-1.5-0.1-1.7-0.1c-3.5,0-5.3,1.3-5.3,4c0,2.2,1,3.3,3,3.3
		C1346.3,235.2,1347.6,233.3,1347.6,229.5 M1352.5,238.4h-4.4l-0.3-2.7c-1.5,2.1-3.4,3.1-5.7,3.1c-1.8,0-3.2-0.6-4.3-1.8
		c-1.1-1.2-1.6-2.8-1.6-4.8c0-4.8,3.2-7.2,9.5-7.2c0.7,0,1.3,0,1.9,0v-0.9c0-2.7-1.3-4-4-4c-2,0-3.7,0.7-5.1,2l-0.3-4
		c2.2-1.1,4.3-1.6,6.5-1.6c3,0,5.1,0.7,6.2,2.2c1.1,1.4,1.6,3.7,1.6,7v8.4C1352.3,236,1352.4,237.5,1352.5,238.4z"/>
	<rect x="1357.2" y="207.3" class="st3" width="4.8" height="31.2"/>
	<path class="st3" d="M1371.7,238.4h-4.8v-21.4h4.8V238.4z M1371.9,213h-4.9v-4.9h4.9V213z"/>
	<path class="st3" d="M1392.4,238.4h-4.7v-13.8c0-2.6-0.9-3.8-2.8-3.8c-1,0-1.8,0.4-2.4,1.3c-0.6,0.9-0.9,2.1-0.9,3.7v12.6h-4.8V222
		c0-1.8-0.1-3.5-0.2-5h4.3c0.1,1.8,0.2,2.9,0.2,3.2c1.1-2.4,2.9-3.6,5.5-3.6c3.8,0,5.7,2.4,5.7,7.1V238.4z"/>
	<path class="st3" d="M1413,217.1l-6.7,23.4c-0.7,2.6-1.5,4.4-2.3,5.4c-1,1.3-2.5,1.9-4.4,1.9c-1,0-2-0.1-2.9-0.4l0.3-3.9
		c0.6,0.2,1.1,0.3,1.5,0.3c1.5,0,2.5-1,3-2.9l0.4-1.6l-6.7-22.1h5.1l4.1,16.5l4-16.5H1413z"/>
	<polygon class="st3" points="1202.6,284 1189.2,284 1189.2,279.4 1197.5,266.5 1189.4,266.5 1189.4,262.6 1202.6,262.6 1202.6,267 
		1194.2,280.1 1202.6,280.1 	"/>
	<polygon class="st3" points="1228.7,284 1215.2,284 1215.2,279.4 1223.6,266.5 1215.4,266.5 1215.4,262.6 1228.6,262.6 1228.6,267 
		1220.2,280.1 1228.7,280.1 	"/>
	<path class="st3" d="M1242.5,275v-1.4c-1-0.1-1.5-0.1-1.7-0.1c-3.5,0-5.3,1.3-5.3,4c0,2.2,1,3.3,3,3.3
		C1241.2,280.8,1242.5,278.9,1242.5,275 M1247.3,284h-4.4l-0.3-2.7c-1.5,2.1-3.4,3.1-5.7,3.1c-1.8,0-3.2-0.6-4.3-1.8
		c-1.1-1.2-1.6-2.8-1.6-4.8c0-4.8,3.2-7.2,9.5-7.2c0.7,0,1.3,0,1.9,0v-0.9c0-2.7-1.3-4-4-4c-2,0-3.7,0.7-5.1,2l-0.3-4
		c2.2-1.1,4.3-1.6,6.5-1.6c3,0,5.1,0.7,6.2,2.2c1.1,1.4,1.6,3.7,1.6,7v8.4C1247.2,281.6,1247.2,283,1247.3,284z"/>
	<polygon class="st3" points="1268.4,284 1263.1,284 1256.7,273.6 1256.7,284 1252,284 1252,252.8 1256.7,252.8 1256.7,271.2 
		1262.8,262.6 1267.8,262.6 1260.9,272.2 	"/>
	<path class="st3" d="M1281.8,273.3c0-4.9-1.3-7.4-3.8-7.4c-2.5,0-3.8,2.5-3.8,7.4c0,4.9,1.3,7.3,3.8,7.3
		C1280.5,280.6,1281.8,278.2,1281.8,273.3 M1286.8,273.3c0,3.6-0.8,6.3-2.3,8.3c-1.5,1.9-3.7,2.9-6.5,2.9c-2.8,0-4.9-1-6.5-2.9
		c-1.5-1.9-2.3-4.7-2.3-8.2c0-3.6,0.8-6.3,2.3-8.2c1.5-1.9,3.7-2.9,6.5-2.9c2.8,0,5,1,6.5,2.9C1286,266.9,1286.8,269.7,1286.8,273.3
		z"/>
	<path class="st3" d="M1306.4,284h-4.8v-13.8c0-2.6-0.9-3.8-2.8-3.8c-1,0-1.8,0.4-2.4,1.3c-0.6,0.9-0.9,2.1-0.9,3.7V284h-4.8v-16.4
		c0-1.8-0.1-3.5-0.2-5h4.3c0.1,1.8,0.2,2.9,0.2,3.2c1.1-2.4,2.9-3.6,5.5-3.6c3.8,0,5.7,2.4,5.7,7.1V284z M1303.7,253.6l-4.3,6.4
		h-3.6l3-6.4H1303.7z"/>
	<path class="st3" d="M1324.4,283.4c-1.6,0.6-3.4,1-5.1,1c-2.7,0-4.9-1-6.5-3c-1.6-2-2.4-4.7-2.4-8c0-3.6,0.8-6.3,2.5-8.3
		c1.6-2,3.9-3,6.9-3c1.4,0,2.8,0.3,4.4,0.9l-0.2,4c-1.1-0.6-2.2-1-3.5-1c-3.4,0-5.1,2.3-5.1,6.8c0,2.4,0.4,4.2,1.3,5.5
		c0.9,1.3,2.2,1.9,3.8,1.9c1.3,0,2.5-0.3,3.7-1L1324.4,283.4z"/>
	<polygon class="st3" points="1339.4,284 1325.9,284 1325.9,279.4 1334.3,266.5 1326.1,266.5 1326.1,262.6 1339.4,262.6 1339.4,267 
		1330.9,280.1 1339.4,280.1 	"/>
	<path class="st3" d="M1353.9,271.6v-0.4c0-3.7-1.1-5.5-3.3-5.5c-2.2,0-3.5,2-3.7,5.9H1353.9z M1358.4,272.8c0,0.5,0,1.1,0,1.8H1347
		c0.2,4,2,6,5.3,6c1.7,0,3.3-0.5,4.9-1.5v3.9c-1.7,0.9-3.6,1.4-5.7,1.4c-3,0-5.3-1-7-2.9c-1.6-1.9-2.5-4.6-2.5-8.2
		c0-3.4,0.8-6.2,2.3-8.2c1.5-2,3.6-3,6.2-3c2.3,0,4.1,1,5.5,2.9C1357.7,266.9,1358.4,269.5,1358.4,272.8z"/>
	<path class="st3" d="M1378,284h-4.7v-13.8c0-2.6-0.9-3.8-2.8-3.8c-1,0-1.8,0.4-2.4,1.3c-0.6,0.9-0.9,2.1-0.9,3.7V284h-4.8v-16.4
		c0-1.8-0.1-3.5-0.2-5h4.3c0.1,1.8,0.2,2.9,0.2,3.2c1.1-2.4,2.9-3.6,5.5-3.6c3.8,0,5.7,2.4,5.7,7.1V284z M1375.3,253.6l-4.3,6.4
		h-3.6l3-6.4H1375.3z"/>
	<path class="st3" d="M1408.7,284h-4.8v-13.8c0-2.6-0.9-3.8-2.8-3.8c-1,0-1.8,0.4-2.4,1.3c-0.6,0.9-0.9,2.1-0.9,3.7V284h-4.8v-16.4
		c0-1.8-0.1-3.5-0.2-5h4.3c0.1,1.8,0.2,2.9,0.2,3.2c1.1-2.4,2.9-3.6,5.5-3.6c3.8,0,5.7,2.4,5.7,7.1V284z"/>
	<path class="st3" d="M1424.2,271.6v-0.4c0-3.7-1.1-5.5-3.3-5.5c-2.2,0-3.5,2-3.7,5.9H1424.2z M1428.7,272.8c0,0.5,0,1.1,0,1.8
		h-11.4c0.2,4,2,6,5.3,6c1.7,0,3.3-0.5,4.9-1.5v3.9c-1.7,0.9-3.6,1.4-5.7,1.4c-3,0-5.3-1-7-2.9c-1.6-1.9-2.5-4.6-2.5-8.2
		c0-3.4,0.8-6.2,2.3-8.2c1.5-2,3.6-3,6.2-3c2.3,0,4.1,1,5.5,2.9C1428,266.9,1428.7,269.5,1428.7,272.8z"/>
	<path class="st3" d="M1443,266.9c-0.8-0.1-1.9-0.1-3.3-0.1s-2.2,2-2.2,6V284h-4.8v-16.4c0-1.8-0.1-3.5-0.2-5h4.3
		c0.1,1.4,0.2,2.4,0.2,3v0.6c1.1-2.7,2.9-4.1,5.4-4.1c0.2,0,0.4,0,0.6,0V266.9z"/>
	<polygon class="st3" points="1473.6,262.6 1468.1,284 1462.9,284 1459.3,267 1455.6,284 1450.3,284 1445.1,262.6 1449.9,262.6 
		1453.2,279.4 1456.7,262.6 1462,262.6 1465.5,279.4 1468.9,262.6 	"/>
	<path class="st3" d="M1488.3,273.3c0-4.9-1.3-7.4-3.8-7.4c-2.5,0-3.8,2.5-3.8,7.4c0,4.9,1.3,7.3,3.8,7.3
		C1487.1,280.6,1488.3,278.2,1488.3,273.3 M1493.3,273.3c0,3.6-0.8,6.3-2.3,8.3c-1.5,1.9-3.7,2.9-6.5,2.9c-2.8,0-4.9-1-6.5-2.9
		c-1.5-1.9-2.3-4.7-2.3-8.2c0-3.6,0.8-6.3,2.3-8.2c1.5-1.9,3.7-2.9,6.5-2.9c2.8,0,5,1,6.5,2.9
		C1492.5,266.9,1493.3,269.7,1493.3,273.3z"/>
	<polygon class="st3" points="1524,262.6 1518.5,284 1513.4,284 1509.7,267 1506.1,284 1500.8,284 1495.5,262.6 1500.4,262.6 
		1503.6,279.4 1507.2,262.6 1512.5,262.6 1516,279.4 1519.4,262.6 	"/>
	<path class="st3" d="M1542.8,262.6l-6.7,23.4c-0.7,2.6-1.5,4.4-2.3,5.4c-1,1.3-2.5,1.9-4.4,1.9c-1,0-2-0.1-2.9-0.4l0.3-3.9
		c0.6,0.2,1.1,0.2,1.5,0.2c1.5,0,2.5-1,3-2.9l0.4-1.6l-6.7-22.1h5.1l4.1,16.5l4-16.5H1542.8z"/>
	<path class="st3" d="M1558.7,283.4c-1.6,0.6-3.4,1-5.1,1c-2.7,0-4.9-1-6.5-3c-1.6-2-2.4-4.7-2.4-8c0-3.6,0.8-6.3,2.5-8.3
		c1.6-2,3.9-3,6.9-3c1.4,0,2.8,0.3,4.4,0.9l-0.2,4c-1.1-0.6-2.2-1-3.5-1c-3.4,0-5.1,2.3-5.1,6.8c0,2.4,0.4,4.2,1.3,5.5
		c0.9,1.3,2.2,1.9,3.8,1.9c1.3,0,2.5-0.3,3.7-1L1558.7,283.4z"/>
	<path class="st3" d="M1577.3,284h-4.8v-13.8c0-2.6-0.9-3.8-2.8-3.8c-1,0-1.8,0.4-2.4,1.3c-0.6,0.9-0.9,2.1-0.9,3.7V284h-4.8v-31.2
		h4.8V265c1.2-1.9,3-2.9,5.3-2.9c1.7,0,3.1,0.6,4.1,1.8c1,1.2,1.5,3,1.5,5.3V284z"/>
	<path class="st0" d="M767,50.9H240.6C228.2,50.9,218,61,218,73.5v30.9c0,12.4,10.2,22.6,22.6,22.6H767V50.9z"/>
	<path class="st2" d="M274.8,90.2c0-7.8-3.2-11.6-9.6-11.6h-1.3v23.3h1.1c3.1,0,5.6-1,7.3-3C273.9,96.8,274.8,94,274.8,90.2
		 M280.6,90.2c0,5.2-1.3,9.2-4,11.9c-2.7,2.8-6.6,4.1-11.7,4.1h-6.5V74.1h6.5c5.3,0,9.3,1.3,11.8,3.9
		C279.3,80.7,280.6,84.7,280.6,90.2z"/>
	<polygon class="st2" points="302.4,106.3 283.9,106.3 283.9,101 296.1,78.8 284.4,78.8 284.4,74.1 302.2,74.1 302.2,79.1 
		289.8,101.6 302.4,101.6 	"/>
	<rect x="306.9" y="74.1" class="st2" width="5.5" height="32.2"/>
	<path class="st2" d="M332.4,94l-3.9-14.5L324.3,94H332.4z M341.4,106.3h-5.8l-2-7.8H323l-2.1,7.8h-5.4l10-32.2h6.3L341.4,106.3z"/>
	<polygon class="st2" points="360.3,106.3 344.7,106.3 344.7,92.7 342.5,94.3 342.5,89.4 344.7,87.7 344.7,74.1 350.3,74.1 
		350.3,84.7 355.5,80.7 355.5,85.7 350.3,89.7 350.3,101.6 360.3,101.6 	"/>
	<path class="st2" d="M378.7,94l-3.9-14.5L370.5,94H378.7z M387.6,106.3h-5.8l-2-7.8h-10.7l-2.1,7.8h-5.4l10-32.2h6.3L387.6,106.3z"
		/>
	<polygon class="st2" points="412.4,106.3 406,106.3 395.6,81.5 395.6,106.3 390.8,106.3 390.8,74.1 397.2,74.1 407.6,99.1 
		407.6,74.1 412.4,74.1 	"/>
	<rect x="418.9" y="74.1" class="st2" width="5.5" height="32.2"/>
	<polygon class="st2" points="447.1,106.3 430.9,106.3 430.9,74.1 446.6,74.1 446.6,78.6 436.4,78.6 436.4,87.6 446.1,87.6 
		446.1,92 436.4,92 436.4,101.9 447.1,101.9 	"/>
	<path class="st2" d="M476.7,96.9c0-1.8-0.4-3.1-1.3-3.9c-0.9-0.8-2.3-1.2-4.2-1.2H469v10h2.2C474.9,101.9,476.7,100.2,476.7,96.9
		 M476.1,83.1c0-1.6-0.4-2.8-1.3-3.5c-0.9-0.7-2.2-1-4.1-1H469v9.1h2.1C474.4,87.7,476.1,86.1,476.1,83.1z M482.1,97.4
		c0,6-3.7,8.9-11,8.9h-7.5V74.1h8.1c6.5,0,9.7,2.7,9.7,8.2c0,4-1.8,6.5-5.4,7.2C480.1,90.4,482.1,93,482.1,97.4z"/>
	<polygon class="st2" points="503.2,106.3 487,106.3 487,74.1 502.7,74.1 502.7,78.6 492.5,78.6 492.5,87.6 502.2,87.6 502.2,92 
		492.5,92 492.5,101.9 503.2,101.9 	"/>
	<polygon class="st2" points="525.1,106.3 506.6,106.3 506.6,101 518.8,78.8 507.1,78.8 507.1,74.1 524.8,74.1 524.8,79.1 
		512.5,101.6 525.1,101.6 	"/>
	<path class="st2" d="M542.2,83.8c0-1.9-0.4-3.3-1.3-4.1c-0.8-0.7-2.2-1.1-4-1.1h-1.8v10.7h2.1c1.8,0,3.1-0.4,3.8-1.3
		C541.8,87.2,542.2,85.8,542.2,83.8 M547.6,83.9c0,6.5-3.6,9.8-10.9,9.8h-1.7v12.6h-5.5V74.1h7c3.8,0,6.5,0.8,8.4,2.3
		C546.7,78,547.6,80.5,547.6,83.9z"/>
	<path class="st2" d="M568.9,90.2c0-8.1-2.1-12.1-6.3-12.1c-4.2,0-6.3,4-6.3,12.1c0,8.1,2.1,12.1,6.3,12.1
		C566.8,102.3,568.9,98.3,568.9,90.2 M574.8,90.2c0,5.3-1.1,9.4-3.2,12.3c-2.1,2.9-5.1,4.3-8.9,4.3c-3.8,0-6.8-1.4-8.9-4.3
		c-2.1-2.8-3.2-6.9-3.2-12.3c0-5.3,1.1-9.4,3.2-12.3c2.1-2.9,5.1-4.3,8.9-4.3c3.8,0,6.8,1.4,8.9,4.3
		C573.7,80.8,574.8,84.9,574.8,90.2z"/>
	<path class="st2" d="M595.7,97.1c0,2.9-0.9,5.2-2.8,7c-1.8,1.8-4.2,2.7-7.2,2.7c-2.5,0-4.8-0.5-6.9-1.5l0.4-5
		c2.1,1.3,4.2,1.9,6.3,1.9c1.5,0,2.6-0.4,3.5-1.1c0.8-0.8,1.3-1.8,1.3-3c0-1.5-0.5-2.7-1.5-3.6c-0.4-0.5-1.8-1.5-4.2-3.1
		c-2.1-1.4-3.6-2.7-4.5-3.9c-1-1.4-1.5-3.1-1.5-5c0-2.7,0.9-4.9,2.6-6.5c1.7-1.6,4.1-2.4,7.1-2.4c2,0,4,0.3,6,1l-0.3,4.9
		c-2-0.9-3.8-1.3-5.3-1.3c-3,0-4.5,1.3-4.5,3.8c0,1,0.4,1.9,1.2,2.8c0.6,0.6,1.7,1.5,3.5,2.7c2.6,1.8,4.3,3.1,5.1,3.9
		C595.1,92.8,595.7,94.7,595.7,97.1 M593.4,63.9l-4.8,7.1h-4l3.3-7.1H593.4z"/>
	<path class="st2" d="M613.7,83c0-1.7-0.5-2.9-1.5-3.5c-0.8-0.6-2.2-0.9-4.3-0.9h-1.7v9.5h1.5c2.1,0,3.6-0.4,4.5-1.1
		C613.2,86.2,613.7,84.9,613.7,83 M620.7,106.3H615l-2.8-9.6c-0.5-1.6-1-2.7-1.5-3.2c-0.6-0.6-1.5-0.9-2.8-0.9h-1.7v13.8h-5.4V74.1
		h6.3c4.2,0,7.1,0.6,8.9,1.7c2.1,1.3,3.1,3.6,3.1,6.9c0,4.1-2,6.6-5.9,7.6c1.1,0.2,1.9,0.7,2.5,1.5c0.4,0.6,0.9,1.8,1.5,3.4
		L620.7,106.3z"/>
	<polygon class="st2" points="640.7,106.3 624.4,106.3 624.4,74.1 640.2,74.1 640.2,78.6 629.9,78.6 629.9,87.6 639.6,87.6 
		639.6,92 629.9,92 629.9,101.9 640.7,101.9 	"/>
	<path class="st2" d="M662.4,90.2c0-7.8-3.2-11.6-9.6-11.6h-1.3v23.3h1.1c3.1,0,5.6-1,7.3-3C661.6,96.8,662.4,94,662.4,90.2
		 M668.3,90.2c0,5.2-1.3,9.2-4,11.9c-2.7,2.8-6.6,4.1-11.7,4.1h-6.5V74.1h6.5c5.3,0,9.3,1.3,11.8,3.9
		C667,80.7,668.3,84.7,668.3,90.2z"/>
	<polygon class="st2" points="695.2,106.3 688.7,106.3 678.4,81.5 678.4,106.3 673.6,106.3 673.6,74.1 680,74.1 690.4,99.1 
		690.4,74.1 695.2,74.1 	"/>
	<rect x="701.7" y="74.1" class="st2" width="5.5" height="32.2"/>
	<polygon class="st2" points="729.9,106.3 713.6,106.3 713.6,74.1 729.4,74.1 729.4,78.6 719.1,78.6 719.1,87.6 728.8,87.6 
		728.8,92 719.1,92 719.1,101.9 729.9,101.9 	"/>
	<path class="st3" d="M269.8,184.5c0-1.6-0.4-2.8-1.2-3.5c-0.8-0.7-2.1-1-3.8-1h-2v9h2C268.1,188.9,269.8,187.4,269.8,184.5
		 M269.2,172c0-1.5-0.4-2.5-1.2-3.1c-0.8-0.6-2-0.9-3.7-0.9h-1.6v8.2h1.9C267.7,176.2,269.2,174.8,269.2,172z M274.7,184.9
		c0,5.4-3.3,8-9.9,8h-6.7V164h7.3c5.8,0,8.7,2.4,8.7,7.3c0,3.6-1.6,5.8-4.8,6.5C272.9,178.6,274.7,180.9,274.7,184.9z"/>
	<path class="st3" d="M289.3,180.5v-0.4c0-3.7-1.1-5.5-3.3-5.5c-2.2,0-3.5,2-3.7,5.9H289.3z M293.7,181.8c0,0.5,0,1.1,0,1.8h-11.4
		c0.2,4,2,6,5.3,6c1.7,0,3.3-0.5,4.9-1.5v3.9c-1.7,0.9-3.6,1.4-5.7,1.4c-3,0-5.3-1-7-2.9c-1.6-1.9-2.5-4.6-2.5-8.2
		c0-3.4,0.8-6.2,2.3-8.2c1.5-2,3.6-3,6.2-3c2.3,0,4.1,1,5.5,2.9C293,175.9,293.7,178.5,293.7,181.8z"/>
	<polygon class="st3" points="309.8,192.9 296.4,192.9 296.4,188.4 304.7,175.4 296.6,175.4 296.6,171.5 309.8,171.5 309.8,176 
		301.4,189 309.8,189 	"/>
	<path class="st3" d="M325.7,182.2c0-4.8-1.2-7.2-3.6-7.2c-2.4,0-3.6,2-3.6,6.1v2.2c0,4.1,1.2,6.2,3.6,6.2
		C324.5,189.5,325.7,187,325.7,182.2 M330.7,182.2c0,7.4-2.4,11.2-7.1,11.2c-2.2,0-3.9-1.1-5.1-3.3v12h-4.8v-24.9c0-0.1,0-0.7,0-1.7
		c-0.1-1.4-0.1-2.6-0.1-3.8h4.5c0.1,1.3,0.2,2.4,0.2,3.2c1.3-2.4,3.1-3.7,5.4-3.7C328.4,171.1,330.7,174.8,330.7,182.2z"/>
	<path class="st3" d="M346.2,182.2c0-4.9-1.3-7.4-3.8-7.4c-2.5,0-3.8,2.5-3.8,7.4c0,4.9,1.3,7.3,3.8,7.3
		C345,189.6,346.2,187.1,346.2,182.2 M351.2,182.2c0,3.6-0.8,6.3-2.3,8.3c-1.5,1.9-3.7,2.9-6.5,2.9c-2.8,0-4.9-1-6.5-2.9
		c-1.5-1.9-2.3-4.7-2.3-8.2c0-3.6,0.8-6.3,2.3-8.3c1.5-1.9,3.7-2.9,6.5-2.9s5,1,6.5,2.9C350.5,175.9,351.2,178.6,351.2,182.2z"/>
	<path class="st3" d="M367.2,186.7c0,2-0.7,3.6-2,4.9c-1.3,1.2-3.2,1.9-5.5,1.9c-1.8,0-3.6-0.3-5.4-1l0.2-4.4
		c1.7,1.1,3.5,1.6,5.3,1.6c2.1,0,3.2-0.8,3.2-2.3c0-0.6-0.3-1.2-0.8-1.6c-0.3-0.2-1.1-0.7-2.3-1.3c-1.9-0.9-3.2-1.9-4-2.8
		c-0.9-1-1.3-2.3-1.3-4c0-1.9,0.6-3.5,1.9-4.8c1.3-1.2,2.9-1.8,4.9-1.8c1.7,0,3.4,0.3,4.9,0.8l-0.2,4c-1.3-0.7-2.7-1-4.2-1
		c-2,0-3,0.7-3,2.1c0,0.7,0.3,1.3,0.8,1.7c0.4,0.3,1.2,0.8,2.5,1.4c1.8,0.9,3.1,1.7,3.8,2.5C366.8,183.7,367.2,185,367.2,186.7
		 M366.4,162.6l-4.3,6.4h-3.6l3-6.4H366.4z"/>
	<path class="st3" d="M381.5,175.9c-0.8-0.1-1.9-0.1-3.3-0.1c-1.4,0-2.2,2-2.2,6v11.2h-4.8v-16.4c0-1.8-0.1-3.5-0.2-5h4.3
		c0.1,1.4,0.2,2.4,0.2,3v0.6c1.1-2.7,2.9-4.1,5.4-4.1c0.2,0,0.4,0,0.6,0V175.9z"/>
	<path class="st3" d="M394.8,180.5v-0.4c0-3.7-1.1-5.5-3.3-5.5c-2.2,0-3.5,2-3.7,5.9H394.8z M399.2,181.8c0,0.5,0,1.1,0,1.8h-11.4
		c0.2,4,2,6,5.3,6c1.7,0,3.3-0.5,4.9-1.5v3.9c-1.7,0.9-3.6,1.4-5.7,1.4c-3,0-5.3-1-7-2.9c-1.6-1.9-2.5-4.6-2.5-8.2
		c0-3.4,0.8-6.2,2.3-8.2c1.5-2,3.6-3,6.2-3c2.3,0,4.1,1,5.5,2.9C398.5,175.9,399.2,178.5,399.2,181.8z"/>
	<path class="st3" d="M414.4,183.3v-2.2c0-2-0.3-3.5-1-4.6c-0.6-1.1-1.5-1.6-2.7-1.6c-2.4,0-3.6,2.4-3.6,7.3c0,4.8,1.2,7.2,3.6,7.2
		c1.1,0,2-0.5,2.7-1.6C414.1,186.9,414.4,185.3,414.4,183.3 M419.2,192.9h-4.4c-0.1-1.3-0.2-2.3-0.2-3.2c-1.3,2.4-3.1,3.7-5.4,3.7
		c-2.2,0-4-0.9-5.2-2.8c-1.2-1.9-1.8-4.6-1.8-8.3c0-7.5,2.4-11.2,7.1-11.2c2.2,0,3.9,1.1,5.1,3.3v-12.7h4.7V192.9z"/>
	<path class="st3" d="M439.9,192.9h-4.7v-13.8c0-2.6-0.9-3.8-2.8-3.8c-1,0-1.8,0.4-2.4,1.3c-0.6,0.9-0.9,2.1-0.9,3.7v12.6h-4.8
		v-16.4c0-1.8-0.1-3.5-0.2-5h4.3c0.1,1.8,0.2,2.9,0.2,3.2c1.1-2.4,2.9-3.6,5.5-3.6c3.8,0,5.7,2.4,5.7,7.1V192.9z"/>
	<path class="st3" d="M449.6,192.9h-4.8v-21.4h4.8V192.9z M449.7,167.5h-4.9v-4.9h4.9V167.5z"/>
	<path class="st3" d="M466.1,182.2c0-4.9-1.3-7.4-3.8-7.4c-2.5,0-3.8,2.5-3.8,7.4c0,4.9,1.3,7.3,3.8,7.3
		C464.9,189.6,466.1,187.1,466.1,182.2 M471.1,182.2c0,3.6-0.8,6.3-2.3,8.3c-1.5,1.9-3.7,2.9-6.5,2.9c-2.8,0-4.9-1-6.5-2.9
		c-1.5-1.9-2.3-4.7-2.3-8.2c0-3.6,0.8-6.3,2.3-8.3c1.5-1.9,3.7-2.9,6.5-2.9s5,1,6.5,2.9C470.4,175.9,471.1,178.6,471.1,182.2z"/>
	<path class="st3" d="M497.3,182.2c0-4.8-1.2-7.2-3.6-7.2c-2.4,0-3.6,2-3.6,6.1v2.2c0,4.1,1.2,6.2,3.6,6.2
		C496.1,189.5,497.3,187,497.3,182.2 M502.3,182.2c0,7.4-2.4,11.2-7.1,11.2c-2.2,0-3.9-1.1-5.1-3.3v12h-4.8v-24.9c0-0.1,0-0.7,0-1.7
		c-0.1-1.4-0.1-2.6-0.1-3.8h4.5c0.1,1.3,0.2,2.4,0.2,3.2c1.3-2.4,3.1-3.7,5.4-3.7C499.9,171.1,502.3,174.8,502.3,182.2z"/>
	<path class="st3" d="M517.8,182.2c0-4.9-1.3-7.4-3.8-7.4c-2.5,0-3.8,2.5-3.8,7.4c0,4.9,1.3,7.3,3.8,7.3
		C516.5,189.6,517.8,187.1,517.8,182.2 M522.8,182.2c0,3.6-0.8,6.3-2.3,8.3c-1.5,1.9-3.7,2.9-6.5,2.9c-2.8,0-4.9-1-6.5-2.9
		c-1.5-1.9-2.3-4.7-2.3-8.2c0-3.6,0.8-6.3,2.3-8.3c1.5-1.9,3.7-2.9,6.5-2.9s5,1,6.5,2.9C522,175.9,522.8,178.6,522.8,182.2z"/>
	<path class="st3" d="M538.8,182.2c0-4.8-1.2-7.3-3.6-7.3c-2.4,0-3.6,2.1-3.6,6.2v2.2c0,4.1,1.2,6.2,3.6,6.2
		C537.6,189.5,538.8,187.1,538.8,182.2 M543.8,182.2c0,3.6-0.6,6.4-1.8,8.3c-1.2,1.9-3,2.9-5.2,2.9c-2.3,0-4.1-1.2-5.4-3.7
		c0,0.8-0.1,1.8-0.2,3.2h-4.4v-31.2h4.8v12.7c1.2-2.2,2.9-3.3,5.1-3.3C541.5,171.1,543.8,174.8,543.8,182.2z"/>
	<path class="st3" d="M563.4,192.9h-4.3c-0.1-1-0.2-2.1-0.2-3.2c-1.1,2.4-2.9,3.6-5.5,3.6c-3.8,0-5.7-2.4-5.7-7.1v-14.8h4.8v13.8
		c0,2.6,0.9,3.8,2.7,3.8c2.3,0,3.4-1.7,3.4-5.2v-12.4h4.7V188C563.3,190.1,563.3,191.7,563.4,192.9"/>
	<path class="st3" d="M579.6,183.3v-2.2c0-2-0.3-3.5-1-4.6c-0.6-1.1-1.5-1.6-2.7-1.6c-2.4,0-3.6,2.4-3.6,7.3c0,4.8,1.2,7.2,3.6,7.2
		c1.1,0,2-0.5,2.7-1.6C579.3,186.9,579.6,185.3,579.6,183.3 M584.3,192.9h-4.4c-0.1-1.3-0.2-2.3-0.2-3.2c-1.3,2.4-3.1,3.7-5.4,3.7
		c-2.2,0-4-0.9-5.2-2.8c-1.2-1.9-1.8-4.6-1.8-8.3c0-7.5,2.4-11.2,7.1-11.2c2.2,0,3.9,1.1,5.1,3.3v-12.7h4.7V192.9z"/>
	<polygon class="st3" points="601.5,192.9 588,192.9 588,188.4 596.4,175.4 588.2,175.4 588.2,171.5 601.4,171.5 601.4,176 593,189 
		601.5,189 	"/>
	<path class="st3" d="M615.3,184v-1.4c-1-0.1-1.5-0.1-1.7-0.1c-3.5,0-5.3,1.3-5.3,4c0,2.2,1,3.3,3,3.3
		C614,189.7,615.3,187.8,615.3,184 M620.1,192.9h-4.4l-0.3-2.7c-1.5,2.1-3.4,3.1-5.7,3.1c-1.8,0-3.2-0.6-4.3-1.8
		c-1.1-1.2-1.6-2.8-1.6-4.8c0-4.8,3.2-7.2,9.5-7.2c0.7,0,1.3,0,1.9,0v-0.9c0-2.7-1.3-4-4-4c-2,0-3.7,0.7-5.1,2l-0.3-4
		c2.2-1.1,4.3-1.6,6.5-1.6c3,0,5.1,0.7,6.2,2.2c1.1,1.4,1.6,3.7,1.6,7v8.4C620,190.5,620,191.9,620.1,192.9z"/>
	<path class="st3" d="M268,221.4c-0.8-0.1-1.9-0.1-3.3-0.1c-1.4,0-2.2,2-2.2,6v11.2h-4.8V222c0-1.8-0.1-3.5-0.2-5h4.3
		c0.1,1.4,0.2,2.4,0.2,3v0.6c1.1-2.7,2.9-4.1,5.4-4.1c0.2,0,0.4,0,0.6,0V221.4z"/>
	<path class="st3" d="M281.3,226.1v-0.4c0-3.7-1.1-5.5-3.3-5.5c-2.2,0-3.5,2-3.7,5.9H281.3z M285.8,227.3c0,0.5,0,1.1,0,1.8h-11.4
		c0.2,4,2,6,5.3,6c1.7,0,3.3-0.5,4.9-1.5v3.9c-1.7,0.9-3.6,1.4-5.7,1.4c-3,0-5.3-1-7-2.9c-1.6-1.9-2.5-4.6-2.5-8.2
		c0-3.4,0.8-6.2,2.3-8.2c1.5-2,3.6-3,6.2-3c2.3,0,4.1,1,5.5,2.9C285,221.4,285.8,224,285.8,227.3z"/>
	<path class="st3" d="M302.8,237.9c-1.6,0.6-3.4,1-5.1,1c-2.7,0-4.9-1-6.5-3c-1.6-2-2.4-4.7-2.4-8c0-3.6,0.8-6.3,2.5-8.3
		c1.6-2,3.9-3,6.9-3c1.4,0,2.8,0.3,4.4,0.9l-0.2,4c-1.1-0.6-2.2-1-3.5-1c-3.4,0-5.1,2.3-5.1,6.8c0,2.4,0.4,4.2,1.3,5.5
		c0.9,1.3,2.2,1.9,3.8,1.9c1.3,0,2.5-0.3,3.7-1L302.8,237.9z"/>
	<path class="st3" d="M316.4,226.1v-0.4c0-3.7-1.1-5.5-3.3-5.5c-2.2,0-3.5,2-3.7,5.9H316.4z M320.9,227.3c0,0.5,0,1.1,0,1.8h-11.4
		c0.2,4,2,6,5.3,6c1.7,0,3.3-0.5,4.9-1.5v3.9c-1.7,0.9-3.6,1.4-5.7,1.4c-3,0-5.3-1-7-2.9c-1.6-1.9-2.5-4.6-2.5-8.2
		c0-3.4,0.8-6.2,2.3-8.2c1.5-2,3.6-3,6.2-3c2.3,0,4.1,1,5.5,2.9C320.2,221.4,320.9,224,320.9,227.3z"/>
	<path class="st3" d="M336.9,227.7c0-4.8-1.2-7.2-3.6-7.2c-2.4,0-3.6,2-3.6,6.1v2.2c0,4.1,1.2,6.2,3.6,6.2
		C335.7,235,336.9,232.6,336.9,227.7 M341.9,227.7c0,7.4-2.4,11.2-7.1,11.2c-2.2,0-3.9-1.1-5.1-3.3v12h-4.8v-24.9c0-0.1,0-0.7,0-1.8
		c-0.1-1.4-0.1-2.6-0.1-3.8h4.5c0.1,1.3,0.2,2.4,0.2,3.2c1.3-2.4,3.1-3.7,5.4-3.7C339.5,216.6,341.9,220.3,341.9,227.7z"/>
	<path class="st3" d="M355.4,238.3c-1.2,0.3-2.3,0.5-3.4,0.5c-2.3,0-3.8-0.7-4.6-2c-0.6-1.1-0.9-3-0.9-5.7v-10.4h-3.2v-3.6h3.2v-4.4
		l4.7-1.5v5.9h4v3.6h-4v10.4c0,1.3,0.1,2.2,0.2,2.6c0.3,0.8,1,1.3,2.1,1.3c0.6,0,1.2-0.1,1.9-0.3V238.3z"/>
	<path class="st3" d="M370.1,227.8c0-4.9-1.3-7.4-3.8-7.4c-2.5,0-3.8,2.5-3.8,7.4c0,4.9,1.3,7.3,3.8,7.3
		C368.8,235.1,370.1,232.7,370.1,227.8 M375.1,227.7c0,3.6-0.8,6.3-2.3,8.3c-1.5,1.9-3.7,2.9-6.5,2.9c-2.8,0-4.9-1-6.5-2.9
		c-1.5-1.9-2.3-4.7-2.3-8.2c0-3.6,0.8-6.3,2.3-8.3c1.5-1.9,3.7-2.9,6.5-2.9c2.8,0,5,1,6.5,2.9C374.3,221.4,375.1,224.1,375.1,227.7z
		"/>
	<path class="st3" d="M389.4,221.4c-0.8-0.1-1.9-0.1-3.3-0.1c-1.4,0-2.2,2-2.2,6v11.2h-4.8V222c0-1.8-0.1-3.5-0.2-5h4.3
		c0.1,1.4,0.2,2.4,0.2,3v0.6c1.1-2.7,2.9-4.1,5.4-4.1c0.2,0,0.4,0,0.6,0V221.4z"/>
	<path class="st3" d="M409.1,217.1l-6.7,23.4c-0.7,2.6-1.5,4.4-2.3,5.4c-1,1.3-2.5,1.9-4.4,1.9c-1,0-2-0.1-2.9-0.4l0.3-3.9
		c0.6,0.2,1.1,0.3,1.5,0.3c1.5,0,2.5-1,3-2.9l0.4-1.6l-6.7-22.1h5.1l4.1,16.5l4-16.5H409.1z"/>
	<rect x="281" y="271" class="st3" width="9" height="4"/>
	<path class="st3" d="M303.9,275v-1.4c-1-0.1-1.5-0.1-1.7-0.1c-3.5,0-5.3,1.3-5.3,4c0,2.2,1,3.3,3,3.3
		C302.6,280.8,303.9,278.9,303.9,275 M308.8,284h-4.4l-0.3-2.7c-1.5,2.1-3.4,3.1-5.7,3.1c-1.8,0-3.2-0.6-4.3-1.8
		c-1.1-1.2-1.6-2.8-1.6-4.8c0-4.8,3.2-7.2,9.5-7.2c0.7,0,1.3,0,1.9,0v-0.9c0-2.7-1.3-4-4-4c-2,0-3.7,0.7-5.1,2l-0.3-4
		c2.2-1.1,4.3-1.6,6.5-1.6c3,0,5.1,0.7,6.2,2.2c1.1,1.4,1.6,3.7,1.6,7v8.4C308.7,281.6,308.7,283,308.8,284z"/>
	<path class="st3" d="M324.7,274.4v-2.2c0-2-0.3-3.5-1-4.6c-0.6-1.1-1.5-1.6-2.7-1.6c-2.4,0-3.6,2.4-3.6,7.3c0,4.8,1.2,7.2,3.6,7.2
		c1.1,0,2-0.5,2.7-1.6C324.4,277.9,324.7,276.4,324.7,274.4 M329.5,284h-4.4c-0.1-1.3-0.2-2.3-0.2-3.2c-1.3,2.4-3.1,3.7-5.4,3.7
		c-2.2,0-4-0.9-5.2-2.8c-1.2-1.9-1.8-4.6-1.8-8.3c0-7.5,2.4-11.2,7.1-11.2c2.2,0,3.9,1.1,5.1,3.3v-12.7h4.7V284z"/>
	<path class="st3" d="M344.9,266.9c-0.8-0.1-1.9-0.1-3.3-0.1c-1.4,0-2.2,2-2.2,6V284h-4.8v-16.4c0-1.8-0.1-3.5-0.2-5h4.3
		c0.1,1.4,0.2,2.4,0.2,3v0.6c1.1-2.7,2.9-4.1,5.4-4.1c0.2,0,0.4,0,0.6,0V266.9z"/>
	<path class="st3" d="M358.1,271.6v-0.4c0-3.7-1.1-5.5-3.3-5.5c-2.2,0-3.5,2-3.7,5.9H358.1z M362.6,272.8c0,0.5,0,1.1,0,1.8h-11.4
		c0.2,4,2,6,5.3,6c1.7,0,3.3-0.5,4.9-1.5v3.9c-1.7,0.9-3.6,1.4-5.7,1.4c-3,0-5.3-1-7-2.9c-1.6-1.9-2.5-4.6-2.5-8.2
		c0-3.4,0.8-6.2,2.3-8.2c1.5-2,3.6-3,6.2-3c2.3,0,4.1,1,5.5,2.9C361.9,266.9,362.6,269.5,362.6,272.8z"/>
	<path class="st3" d="M382.2,284h-4.8v-13.8c0-2.6-0.9-3.8-2.8-3.8c-1,0-1.8,0.4-2.4,1.3c-0.6,0.9-0.9,2.1-0.9,3.7V284h-4.8v-16.4
		c0-1.8-0.1-3.5-0.2-5h4.3c0.1,1.8,0.2,2.9,0.2,3.2c1.1-2.4,2.9-3.6,5.5-3.6c3.8,0,5.7,2.4,5.7,7.1V284z"/>
	<path class="st3" d="M397.8,271.6v-0.4c0-3.7-1.1-5.5-3.3-5.5c-2.2,0-3.5,2-3.7,5.9H397.8z M402.3,272.8c0,0.5,0,1.1,0,1.8h-11.4
		c0.2,4,2,6,5.3,6c1.7,0,3.3-0.5,4.9-1.5v3.9c-1.7,0.9-3.6,1.4-5.7,1.4c-3,0-5.3-1-7-2.9c-1.6-1.9-2.5-4.6-2.5-8.2
		c0-3.4,0.8-6.2,2.3-8.2c1.5-2,3.6-3,6.2-3c2.3,0,4.1,1,5.5,2.9C401.6,266.9,402.3,269.5,402.3,272.8z"/>
	<path class="st3" d="M416.6,266.9c-0.8-0.1-1.9-0.1-3.3-0.1c-1.4,0-2.2,2-2.2,6V284h-4.8v-16.4c0-1.8-0.1-3.5-0.2-5h4.3
		c0.1,1.4,0.2,2.4,0.2,3v0.6c1.1-2.7,2.9-4.1,5.4-4.1c0.2,0,0.4,0,0.6,0V266.9z"/>
	<path class="st3" d="M430.4,274.1V272c0-1.9-0.3-3.4-1-4.4c-0.7-1-1.5-1.5-2.7-1.5c-2.4,0-3.6,2.3-3.6,6.9c0,4.8,1.2,7.1,3.6,7.1
		C429.2,280,430.4,278.1,430.4,274.1 M435.3,262.6c-0.1,2.1-0.1,3.9-0.1,5.5v12.7c0,2.5-0.1,4.4-0.4,5.6c-0.3,1.7-1,3.1-2.1,4.2
		c-1.6,1.7-3.9,2.6-7.1,2.6c-2.5,0-4.7-0.4-6.7-1.2l0.3-4.3c1.8,1.1,3.7,1.6,5.7,1.6c1.9,0,3.3-0.6,4.2-1.8c0.8-1.2,1.3-3,1.3-5.5
		c0-0.6,0-1,0-1.3c-1.2,2.1-2.9,3.2-5.1,3.2c-4.7,0-7.1-3.7-7.1-11c0-3.5,0.6-6.2,1.9-8.1c1.2-1.9,3-2.8,5.2-2.8
		c2.3,0,4.1,1.2,5.4,3.7c0-0.7,0.1-1.8,0.2-3.2H435.3z"/>
	<path class="st3" d="M445,284h-4.8v-21.4h4.8V284z M445.1,258.5h-4.9v-4.9h4.9V258.5z"/>
	<path class="st3" d="M463.1,283.4c-1.6,0.6-3.4,1-5.1,1c-2.7,0-4.9-1-6.5-3c-1.6-2-2.4-4.7-2.4-8c0-3.6,0.8-6.3,2.5-8.3
		c1.6-2,3.9-3,6.9-3c1.4,0,2.8,0.3,4.4,0.9l-0.2,4c-1.1-0.6-2.2-1-3.5-1c-3.4,0-5.1,2.3-5.1,6.8c0,2.4,0.4,4.2,1.3,5.5
		c0.9,1.3,2.2,1.9,3.8,1.9c1.3,0,2.5-0.3,3.7-1L463.1,283.4z"/>
	<polygon class="st3" points="478.1,284 464.7,284 464.7,279.4 473,266.5 464.9,266.5 464.9,262.6 478.1,262.6 478.1,267 
		469.7,280.1 478.1,280.1 	"/>
	<path class="st3" d="M497.6,284h-4.8v-13.8c0-2.6-0.9-3.8-2.8-3.8c-1,0-1.8,0.4-2.4,1.3c-0.6,0.9-0.9,2.1-0.9,3.7V284h-4.8v-16.4
		c0-1.8-0.1-3.5-0.2-5h4.3c0.1,1.8,0.2,2.9,0.2,3.2c1.1-2.4,2.9-3.6,5.5-3.6c3.8,0,5.7,2.4,5.7,7.1V284z"/>
	<path class="st3" d="M513.2,271.6v-0.4c0-3.7-1.1-5.5-3.3-5.5c-2.2,0-3.5,2-3.7,5.9H513.2z M517.7,272.8c0,0.5,0,1.1,0,1.8h-11.4
		c0.2,4,2,6,5.3,6c1.7,0,3.3-0.5,4.9-1.5v3.9c-1.7,0.9-3.6,1.4-5.7,1.4c-3,0-5.3-1-7-2.9c-1.6-1.9-2.5-4.6-2.5-8.2
		c0-3.4,0.8-6.2,2.3-8.2c1.5-2,3.6-3,6.2-3c2.3,0,4.1,1,5.5,2.9C517,266.9,517.7,269.5,517.7,272.8z"/>
	<path class="st3" d="M262.2,273.2c0,2,0.4,3.6,1.2,4.9c0.8,1.2,1.9,1.9,3.1,1.9c1.2,0,2.2-0.5,3-1.6c0.8-1.1,1.2-2.8,1.2-5.1
		c0-2.2-0.4-3.9-1.3-5.1c-0.8-1.2-1.9-1.7-3-1.7c-1.2,0-2.3,0.6-3.1,1.8C262.6,269.4,262.2,271.1,262.2,273.2 M273.5,262.4h4.7
		c-0.7,1.6-1.3,3.6-1.8,6c-0.5,2.5-0.7,4.2-0.7,5.1c0,1.3,0.2,2.9,0.7,4.9c0.5,2,1,3.9,1.7,5.5h-4.6c-0.1-0.3-0.2-0.7-0.3-1.1
		c-0.3-0.8-0.5-1.6-0.7-2.4c-1.6,2.7-3.8,4.1-6.8,4.1c-2.8,0-4.9-1.2-6.5-3.5c-1.6-2.4-2.4-5.1-2.4-8.3c0-3,0.8-5.5,2.4-7.6
		c1.6-2.1,3.8-3.1,6.6-3.1c2.8,0,5,1.4,6.7,4.2C272.6,265.1,273,263.9,273.5,262.4z"/>
	<path class="st4" d="M750.9,241.5c0-1.2-0.3-2-0.8-2.5c-0.5-0.4-1.4-0.6-2.7-0.6h-1.2v6.1h1.1c1.2,0,2.1-0.2,2.7-0.7
		C750.6,243.3,750.9,242.6,750.9,241.5 M757,258.1h-5.3l-1.8-6.7c-0.3-1.1-0.6-1.9-0.9-2.2c-0.4-0.5-1-0.7-1.8-0.7h-1v9.7h-5v-23.6
		h5.3c0.3,0,0.5,0,0.8,0c0.3,0,0.4,0,0.5,0c2.8,0,4.9,0.5,6.2,1.5c1.3,1,2,2.6,2,4.9c0,3-1.4,4.8-4.2,5.6c0.8,0.2,1.3,0.6,1.7,1.2
		c0.3,0.5,0.7,1.3,1.1,2.6L757,258.1z"/>
	<path class="st4" d="M775.5,249c0,6.3-2.7,9.5-8.1,9.5c-2.8,0-4.8-0.8-6.1-2.3c-1.3-1.6-2-3.9-2-7.2v-14.5h5.2v15.1
		c0,1.7,0.2,3,0.6,3.7c0.5,0.8,1.3,1.2,2.4,1.2c1.2,0,2-0.4,2.4-1.2c0.4-0.7,0.6-2,0.6-3.7v-15.1h4.9V249z"/>
	<path class="st4" d="M792.9,251.1c0,2.2-0.7,4-2.1,5.4c-1.4,1.3-3.4,2-5.9,2c-1.7,0-3.6-0.3-5.7-1l0.4-4.3c1.9,1,3.6,1.4,5.1,1.4
		c2.2,0,3.3-0.9,3.3-2.8c0-0.9-0.3-1.6-1-2.2c-0.4-0.3-1.4-1-3.2-1.9c-1.7-0.9-2.8-1.7-3.5-2.5c-0.8-1-1.3-2.3-1.3-4
		c0-2.2,0.7-3.9,2.1-5.2c1.4-1.3,3.3-1.9,5.8-1.9c1.5,0,3.1,0.3,4.9,0.8l-0.3,4.3c-1.6-0.7-3.1-1.1-4.4-1.1c-2.1,0-3.1,0.8-3.1,2.4
		c0,0.8,0.3,1.4,0.8,1.9c0.5,0.4,1.3,1,2.7,1.6c2,1,3.4,1.9,4.1,2.7C792.4,247.8,792.9,249.2,792.9,251.1"/>
	<polygon class="st4" points="809.6,258.1 795.1,258.1 795.1,253.4 803.7,238.7 795.3,238.7 795.3,234.4 809.4,234.4 809.4,238.9 
		800.6,253.9 809.6,253.9 	"/>
	<path class="st4" d="M827.7,257.5c-1.6,0.7-3.4,1-5.3,1c-3.3,0-5.9-1.1-7.8-3.3c-1.9-2.2-2.9-5.2-2.9-8.9c0-3.7,1-6.7,2.9-8.9
		c1.9-2.2,4.5-3.3,7.6-3.3c1.8,0,3.5,0.4,5.3,1.1l-0.3,4.4c-1.3-0.8-2.7-1.3-4.3-1.3c-1.9,0-3.3,0.7-4.3,2c-1,1.4-1.5,3.3-1.5,5.9
		c0,2.6,0.5,4.6,1.6,6c1.1,1.4,2.5,2.1,4.5,2.1c1.4,0,2.8-0.5,4.2-1.4L827.7,257.5z"/>
	<polygon class="st4" points="844.1,258.1 829.5,258.1 829.5,253.4 838.1,238.7 829.8,238.7 829.8,234.4 843.8,234.4 843.8,238.9 
		835.1,253.9 844.1,253.9 	"/>
	<polygon class="st4" points="862.7,234.4 856,249.2 856,258.1 850.9,258.1 850.9,249 844.2,234.4 850.1,234.4 853.6,244.4 
		857.2,234.4 	"/>
	<polygon class="st4" points="881.2,258.1 875.1,258.1 869.3,247.2 869.3,258.1 864.1,258.1 864.1,234.4 869.3,234.4 869.3,244.2 
		874.9,234.4 880.6,234.4 873.8,245.4 	"/>
	<polygon class="st4" points="750.2,327.7 744.1,327.7 738.2,316.9 738.2,327.7 733.1,327.7 733.1,304.1 738.2,304.1 738.2,313.8 
		743.9,304.1 749.6,304.1 742.8,315.1 	"/>
	<path class="st4" d="M763.4,315.9c0-2.7-0.4-4.7-1.1-6.1c-0.7-1.4-1.7-2.1-3-2.1c-1.3,0-2.3,0.7-3,2.1c-0.7,1.4-1.1,3.5-1.1,6.1
		c0,2.7,0.4,4.7,1.1,6.1c0.7,1.4,1.7,2.1,3,2.1c1.3,0,2.3-0.7,3-2.1C763,320.6,763.4,318.6,763.4,315.9 M768.9,315.9
		c0,3.9-0.8,6.9-2.5,9c-1.7,2.1-4,3.2-7,3.2c-3,0-5.3-1.1-7-3.2c-1.7-2.1-2.5-5.1-2.5-9c0-3.9,0.8-6.9,2.5-9c1.7-2.1,4-3.2,7-3.2
		c3,0,5.3,1.1,7,3.2C768,309,768.9,312,768.9,315.9z"/>
	<polygon class="st4" points="784.8,327.7 772.3,327.7 772.3,304.1 777.4,304.1 777.4,323.4 784.8,323.4 	"/>
	<path class="st4" d="M802.2,327.1c-1.6,0.7-3.4,1-5.3,1c-3.3,0-5.9-1.1-7.8-3.3c-1.9-2.2-2.9-5.2-2.9-8.9c0-3.7,1-6.7,2.9-8.9
		c1.9-2.2,4.5-3.3,7.6-3.3c1.8,0,3.5,0.4,5.3,1.1l-0.3,4.4c-1.3-0.8-2.7-1.3-4.3-1.3c-1.9,0-3.3,0.7-4.3,2c-1,1.4-1.5,3.3-1.5,5.9
		c0,2.6,0.5,4.6,1.6,6c1.1,1.4,2.5,2.1,4.5,2.1c1.4,0,2.8-0.5,4.2-1.4L802.2,327.1z"/>
	<polygon class="st4" points="818.6,327.7 804,327.7 804,323 812.6,308.3 804.3,308.3 804.3,304.1 818.3,304.1 818.3,308.5 
		809.6,323.5 818.6,323.5 	"/>
	<path class="st4" d="M831.8,318.4l-2.4-9.6l-2.7,9.6H831.8z M839.4,327.7h-5.3l-1.3-5.3h-7.2l-1.4,5.3h-5l7.3-23.6h6L839.4,327.7z"
		/>
	<path class="st4" d="M854.4,320.8c0,2.2-0.7,4-2.1,5.4c-1.4,1.3-3.4,2-5.9,2c-1.7,0-3.6-0.3-5.7-1l0.4-4.3c1.9,1,3.6,1.4,5.1,1.4
		c2.2,0,3.3-0.9,3.3-2.8c0-0.9-0.3-1.6-1-2.2c-0.4-0.3-1.4-1-3.2-1.9c-1.7-0.9-2.8-1.7-3.5-2.5c-0.8-1-1.3-2.3-1.3-4
		c0-2.2,0.7-3.9,2.1-5.2c1.4-1.3,3.3-1.9,5.8-1.9c1.5,0,3.1,0.3,4.9,0.8l-0.3,4.3c-1.6-0.7-3.1-1.1-4.4-1.1c-2.1,0-3.1,0.8-3.1,2.4
		c0,0.8,0.3,1.4,0.8,1.9c0.5,0.4,1.3,1,2.7,1.6c2,1,3.4,1.9,4.1,2.7C854,317.4,854.4,318.9,854.4,320.8"/>
	<polygon class="st4" points="871.1,308.3 866.2,308.3 866.2,327.7 861,327.7 861,308.3 856.2,308.3 856.2,304.1 871.1,304.1 	"/>
	<polygon class="st4" points="889.4,304.1 882.7,318.8 882.7,327.7 877.6,327.7 877.6,318.6 870.9,304.1 876.7,304.1 880.3,314 
		883.9,304.1 	"/>
	<path class="st3" d="M793.9,743.7c0,2.1-0.7,3.8-2,5.1c-1.3,1.3-3.1,2-5.3,2c-1.9,0-3.5-0.4-5.1-1.1l0.3-3.6
		c1.6,0.9,3.1,1.4,4.6,1.4c1.1,0,1.9-0.3,2.5-0.8c0.6-0.6,0.9-1.3,0.9-2.2c0-1.1-0.4-2-1.1-2.7c-0.3-0.3-1.4-1.1-3.1-2.2
		c-1.6-1-2.7-2-3.3-2.9c-0.7-1-1.1-2.2-1.1-3.7c0-2,0.6-3.6,1.9-4.8c1.3-1.2,3-1.8,5.2-1.8c1.5,0,3,0.2,4.4,0.7l-0.2,3.6
		c-1.5-0.7-2.8-1-3.9-1c-2.2,0-3.3,0.9-3.3,2.8c0,0.7,0.3,1.4,0.9,2c0.4,0.5,1.3,1.1,2.6,2c1.9,1.3,3.2,2.3,3.7,2.9
		C793.5,740.5,793.9,742,793.9,743.7"/>
	<polygon class="st3" points="813.5,750.5 808.6,750.5 801.8,739.3 801.8,750.5 797.7,750.5 797.7,726.8 801.8,726.8 801.8,736.8 
		808.2,726.8 812.8,726.8 805.3,737.8 	"/>
	<path class="st3" d="M830.1,741.5c0,3.1-0.6,5.5-1.8,7c-1.2,1.5-3.1,2.3-5.7,2.3c-2.6,0-4.5-0.8-5.7-2.3c-1.2-1.5-1.8-3.9-1.8-7
		v-14.7h4V742c0,1.9,0.3,3.3,0.8,4.2c0.5,0.9,1.5,1.4,2.8,1.4c1.3,0,2.3-0.5,2.8-1.4c0.5-0.8,0.7-2.2,0.7-4.2v-15.2h3.9V741.5z"/>
	<path class="st3" d="M844.1,733.3c0-1.2-0.4-2.1-1.1-2.6c-0.6-0.4-1.7-0.6-3.1-0.6h-1.2v7h1.1c1.6,0,2.7-0.3,3.3-0.8
		C843.8,735.7,844.1,734.7,844.1,733.3 M849.4,750.5h-4.2l-2.1-7.1c-0.3-1.2-0.7-2-1.1-2.4c-0.4-0.5-1.1-0.7-2-0.7h-1.2v10.1h-4
		v-23.6h4.6c3.1,0,5.3,0.4,6.6,1.2c1.5,0.9,2.3,2.6,2.3,5.1c0,3-1.4,4.9-4.3,5.6c0.8,0.1,1.4,0.5,1.8,1.1c0.3,0.5,0.7,1.3,1.1,2.5
		L849.4,750.5z"/>
	<path class="st3" d="M866.1,749.9c-1.5,0.6-3.1,0.9-4.8,0.9c-3.1,0-5.5-1.1-7.4-3.3c-1.9-2.2-2.8-5.1-2.8-8.8c0-3.8,0.9-6.8,2.8-9
		s4.3-3.3,7.4-3.3c1.6,0,3.2,0.3,4.8,1l-0.2,3.7c-1.2-0.8-2.6-1.2-4.2-1.2c-1.9,0-3.5,0.7-4.6,2.2c-1.1,1.5-1.7,3.6-1.7,6.3
		c0,2.9,0.6,5.1,1.7,6.6c1.2,1.5,2.8,2.3,4.8,2.3c1.4,0,2.7-0.4,4-1.2L866.1,749.9z"/>
	<polygon class="st3" points="881.6,750.5 868,750.5 868,746.6 876.9,730.2 868.3,730.2 868.3,726.8 881.4,726.8 881.4,730.5 
		872.3,747 881.6,747 	"/>
</g>
</svg>
