<?xml version="1.0" encoding="utf-8"?>
<!-- Generator: Adobe Illustrator 23.1.1, SVG Export Plug-In . SVG Version: 6.00 Build 0)  -->
<svg version="1.1" id="Warstwa_1" xmlns="http://www.w3.org/2000/svg" xmlns:xlink="http://www.w3.org/1999/xlink" x="0px" y="0px"
	 viewBox="0 0 1366 1024" style="enable-background:new 0 0 1366 1024;" xml:space="preserve">
<style type="text/css">
	.st0{fill:#096CB2;}
	.st1{fill:#EE7D00;}
	.st2{fill:#FFDD00;}
</style>
<g>
	<polygon class="st0" points="136.7,585.7 115,585.7 115,545.1 91.7,545.1 91.7,585.7 70,585.7 70,490.3 91.7,490.3 91.7,527.9 
		115,527.9 115,490.3 136.7,490.3 	"/>
	<polygon class="st0" points="211.6,585.7 156,585.7 156,490.3 210,490.3 210,506.3 177.7,506.3 177.7,529.2 208.4,529.2 
		208.4,545.1 177.7,545.1 177.7,569.7 211.6,569.7 	"/>
	<path class="st0" d="M282.9,557.4c0,9-2.9,16.4-9,21.7c-6.1,5.3-14.3,8.2-25,8.2c-7,0-15.1-1.2-24.1-4.1l1.6-17.2
		c7.8,3.7,15.1,5.7,21.7,5.7c9.4,0,13.9-3.7,13.9-11.5c0-3.7-1.6-6.5-4.5-9c-1.6-1.2-6.1-3.7-13.9-7.8c-7-3.7-11.9-7-14.7-10.2
		c-3.7-4.1-5.3-9.4-5.3-16.4c0-9,2.9-16,9-20.9c5.7-5.3,13.9-7.8,24.6-7.8c6.1,0,13.1,1.2,20.5,3.3l-1.2,17.2
		c-7-2.9-13.1-4.5-18.8-4.5c-9,0-13.1,3.3-13.1,9.8c0,3.3,1.2,5.7,3.3,7.8c2,1.6,5.7,4.1,11.5,6.5c8.6,4.1,14.3,7.8,17.6,11.1
		C280.8,543.9,282.9,550,282.9,557.4"/>
	<path class="st0" d="M337.7,520.2c0-5.3-1.2-9-3.3-11.1c-2-2-5.7-3.3-11.1-3.3h-4.5v28.7h4.9c4.9,0,8.2-1.2,10.6-3.3
		C336.9,529.2,337.7,525.5,337.7,520.2 M359,521c0,20.1-11.5,29.9-34.8,29.9h-5.3v34.8h-21.7v-95.4h23.7c11.5,0,19.6,1.2,24.6,4.1
		C354.5,499.7,359,508.7,359,521z"/>
	<polygon class="st0" points="427.7,585.7 371.7,585.7 371.7,490.3 426.1,490.3 426.1,506.3 393.8,506.3 393.8,529.2 424.5,529.2 
		424.5,545.1 393.8,545.1 393.8,569.7 427.7,569.7 	"/>
	<path class="st0" d="M484.6,518.9c0-4.9-1.2-8.2-3.7-10.2c-2-1.6-6.1-2.5-11.5-2.5h-4.9v24.6h4.5c5.3,0,9-0.8,11.5-2.9
		C483.4,526.3,484.6,523,484.6,518.9 M510.8,585.7h-22.5l-7.4-27c-1.2-4.5-2.5-7.4-4.1-9c-1.6-2-4.1-2.9-7.8-2.9H465v38.9h-21.3
		v-95.4h22.5c1.2,0,2.5,0,3.7,0c1.2,0,1.6,0,2,0c11.9,0,20.9,2,26.2,6.1c5.7,4.1,8.6,10.6,8.6,19.6c0,11.9-6.1,19.6-18,22.5
		c3.3,0.8,5.7,2.5,7.4,4.9c1.6,2,2.9,5.3,4.5,10.2L510.8,585.7z"/>
	<polygon class="st0" points="587,490.3 558.7,549.6 558.7,585.7 536.6,585.7 536.6,548.8 508.4,490.3 533.3,490.3 548.5,530.4 
		563.6,490.3 	"/>
	<path class="st0" d="M645.1,538.2c0-21.3-9-31.9-27.4-31.9h-2.9v63.4h2.9C636.1,569.7,645.1,559,645.1,538.2 M668.4,538.2
		c0,15.6-4.5,27.4-13.1,35.6c-8.6,8.2-21.3,12.3-38.1,12.3h-24.1v-95.4h24.1c17.2,0,30.3,3.7,38.5,11.5
		C664.3,509.5,668.4,521.8,668.4,538.2z"/>
	<polygon class="st0" points="747,490.3 718.7,549.6 718.7,585.7 696.6,585.7 696.6,548.8 668.4,490.3 693.4,490.3 708.5,530.4 
		723.7,490.3 	"/>
	<polygon class="st0" points="825.6,585.7 800.6,585.7 771.5,516.1 771.5,585.7 753.1,585.7 753.1,490.3 778.5,490.3 807.2,559.9 
		807.2,490.3 825.6,490.3 	"/>
	<path class="st0" d="M887.4,548l-10.2-38.9L865.7,548H887.4z M919.7,585.7h-22.5l-5.3-21.3h-30.7l-5.7,21.3h-21.3l31.1-95.4h25.4
		L919.7,585.7z"/>
</g>
<g>
	<path class="st1" d="M110.6,142.7c0-4.7-1.2-7.9-3.5-9.8c-2.1-1.6-5.9-2.4-11.2-2.4h-4.8v23.9h4.6c5.1,0,8.9-0.9,11.3-2.7
		C109.4,149.9,110.6,146.9,110.6,142.7 M136,208.1h-22l-7.4-26.5c-1.3-4.4-2.6-7.3-3.9-8.9c-1.6-1.9-4.1-2.8-7.5-2.8h-4v38.2h-21
		v-93.2h22c1.1,0,2.2,0,3.5-0.1c1.2,0,1.8,0,1.9,0c11.6,0,20.2,2,25.7,5.9c5.5,3.9,8.3,10.3,8.3,19.2c0,11.7-5.8,19-17.5,21.9
		c3.1,0.7,5.6,2.3,7.3,4.7c1.4,1.9,2.9,5.2,4.4,10.1L136,208.1z"/>
	<path class="st1" d="M212.9,172.1c0,25-11.2,37.5-33.6,37.5c-11.5,0-19.9-3.1-25.3-9.2c-5.4-6.1-8.1-15.6-8.1-28.3v-57.2h21.5v59.7
		c0,6.9,0.8,11.7,2.4,14.5c1.9,3.2,5.2,4.8,10.1,4.8c4.8,0,8.2-1.6,10.1-4.7c1.7-2.9,2.6-7.7,2.6-14.6v-59.7h20.4V172.1z"/>
	<path class="st1" d="M285.2,180.6c0,8.9-2.9,15.9-8.7,21.2c-5.8,5.2-13.9,7.9-24.3,7.9c-7,0-14.9-1.3-23.8-4l1.6-16.8
		c7.8,3.8,14.9,5.6,21.2,5.6c9,0,13.6-3.7,13.6-11c0-3.6-1.4-6.5-4.3-8.7c-1.5-1.3-6-3.8-13.4-7.5c-6.9-3.5-11.7-6.8-14.4-9.9
		c-3.5-3.9-5.2-9.2-5.2-15.9c0-8.7,2.9-15.5,8.6-20.6c5.7-5,13.7-7.5,23.9-7.5c6.2,0,12.9,1,20.2,3.1l-1.2,16.8
		c-6.7-3-12.8-4.4-18.3-4.4c-8.6,0-12.9,3.2-12.9,9.5c0,3,1.1,5.6,3.4,7.7c1.9,1.7,5.6,3.9,11,6.4c8.4,4,14.1,7.6,17.1,10.7
		C283.1,167.4,285.2,173.2,285.2,180.6"/>
	<polygon class="st1" points="354.6,208.1 294.2,208.1 294.2,189.6 329.9,131.5 295.2,131.5 295.2,114.9 353.5,114.9 353.5,132.3 
		317.3,191.4 354.6,191.4 	"/>
	<path class="st1" d="M429.6,205.7c-6.6,2.6-13.9,3.9-21.9,3.9c-13.5,0-24.3-4.3-32.3-13c-8-8.6-12-20.4-12-35.3
		c0-14.7,4-26.4,12-35.1c8-8.7,18.5-13,31.7-13c7.3,0,14.7,1.5,22,4.4l-1.1,17.5c-5.4-3.3-11.3-5-17.7-5c-7.7,0-13.7,2.7-17.9,8.1
		c-4.3,5.4-6.4,13.1-6.4,23.1c0,10.2,2.2,18,6.6,23.5c4.4,5.5,10.6,8.2,18.5,8.2c5.8,0,11.7-1.8,17.6-5.4L429.6,205.7z"/>
	<polygon class="st1" points="497.7,208.1 437.2,208.1 437.2,189.6 473,131.5 438.3,131.5 438.3,114.9 496.6,114.9 496.6,132.3 
		460.4,191.4 497.7,191.4 	"/>
	<polygon class="st1" points="575,114.9 547.3,172.9 547.3,208.1 525.8,208.1 525.8,172.1 498.1,114.9 522.4,114.9 537.2,154 
		552.1,114.9 	"/>
	<polygon class="st1" points="651.7,208.1 626.4,208.1 602.2,165.2 602.2,208.1 580.9,208.1 580.9,114.9 602.2,114.9 602.2,153.2 
		625.6,114.9 649.3,114.9 621.1,158.3 	"/>
	<polygon class="st1" points="141,344.8 115.7,344.8 91.5,302 91.5,344.8 70.2,344.8 70.2,251.6 91.5,251.6 91.5,289.9 114.9,251.6 
		138.6,251.6 110.4,295 	"/>
	<path class="st1" d="M195.9,298.2c0-10.5-1.5-18.5-4.4-24.1c-3-5.6-7.1-8.4-12.4-8.4c-5.3,0-9.4,2.8-12.4,8.4
		c-3,5.6-4.4,13.6-4.4,24.1c0,10.5,1.5,18.5,4.4,24.1c3,5.6,7.1,8.3,12.4,8.3c5.3,0,9.4-2.8,12.4-8.3
		C194.5,316.7,195.9,308.7,195.9,298.2 M218.6,298.2c0,15.3-3.5,27.2-10.5,35.5c-7,8.4-16.7,12.6-29,12.6c-12.4,0-22-4.2-29-12.5
		c-7-8.3-10.5-20.2-10.5-35.6c0-15.3,3.5-27.2,10.5-35.6c7-8.4,16.7-12.6,29-12.6c12.3,0,21.9,4.2,29,12.6
		C215.1,271,218.6,282.9,218.6,298.2z"/>
	<polygon class="st1" points="284.8,344.8 232.9,344.8 232.9,251.6 254.3,251.6 254.3,327.9 284.8,327.9 	"/>
	<path class="st1" d="M356.9,342.4c-6.6,2.6-13.9,3.9-21.9,3.9c-13.5,0-24.3-4.3-32.3-13c-8-8.6-12-20.4-12-35.3
		c0-14.7,4-26.4,12-35.1c8-8.7,18.5-13,31.7-13c7.3,0,14.7,1.5,22,4.4l-1.1,17.5c-5.4-3.3-11.3-5-17.7-5c-7.7,0-13.7,2.7-17.9,8.1
		c-4.3,5.4-6.4,13.1-6.4,23.1c0,10.2,2.2,18,6.6,23.5c4.4,5.5,10.6,8.2,18.5,8.2c5.8,0,11.7-1.8,17.6-5.4L356.9,342.4z"/>
	<polygon class="st1" points="425,344.8 364.6,344.8 364.6,326.3 400.3,268.2 365.6,268.2 365.6,251.6 423.9,251.6 423.9,269 
		387.7,328.2 425,328.2 	"/>
	<path class="st1" d="M479.7,307.9l-9.9-37.9l-11.2,37.9H479.7z M511.4,344.8h-22.2l-5.4-20.8h-30l-5.6,20.8h-20.8l30.4-93.2h24.7
		L511.4,344.8z"/>
	<path class="st1" d="M573.9,317.3c0,8.9-2.9,15.9-8.7,21.2c-5.8,5.2-13.9,7.9-24.3,7.9c-7,0-14.9-1.3-23.8-4l1.6-16.8
		c7.8,3.8,14.9,5.6,21.2,5.6c9,0,13.6-3.7,13.6-11c0-3.6-1.4-6.5-4.3-8.7c-1.5-1.3-6-3.8-13.4-7.5c-6.9-3.5-11.7-6.8-14.4-9.9
		c-3.5-3.9-5.2-9.2-5.2-15.9c0-8.7,2.9-15.5,8.6-20.6c5.7-5,13.7-7.5,23.9-7.5c6.2,0,12.9,1,20.2,3.1l-1.2,16.8
		c-6.7-3-12.8-4.4-18.3-4.4c-8.6,0-12.9,3.2-12.9,9.5c0,3,1.1,5.6,3.4,7.7c1.9,1.7,5.6,3.9,11,6.5c8.4,4,14.1,7.6,17.1,10.7
		C571.9,304.1,573.9,309.9,573.9,317.3"/>
	<polygon class="st1" points="643.1,268.2 622.8,268.2 622.8,344.8 601.3,344.8 601.3,268.2 581,268.2 581,251.6 643.1,251.6 	"/>
	<polygon class="st1" points="719,251.6 691.3,309.6 691.3,344.8 669.8,344.8 669.8,308.8 642.1,251.6 666.5,251.6 681.2,290.7 
		696.2,251.6 	"/>
</g>
<g>
	<polygon class="st2" points="141.2,823.9 115.7,823.9 91.4,780.7 91.4,823.9 69.6,823.9 69.6,729.8 91.4,729.8 91.4,768.6 
		114.9,729.8 138.7,729.8 110.4,773.8 	"/>
	<polygon class="st2" points="256.3,729.8 238.5,823.9 213.1,823.9 200.6,748.8 189.2,823.9 163.4,823.9 144.4,729.8 165,729.8 
		177.5,801.7 188.4,729.8 213.9,729.8 225.6,801.7 237.7,729.8 	"/>
	<path class="st2" d="M308.1,786.8L298,748.4l-11.3,38.4H308.1z M340,823.9h-22.2l-5.3-21h-30.3l-5.7,21h-21l30.7-94.2h25.1
		L340,823.9z"/>
	<path class="st2" d="M403,796c0,8.9-2.8,16.2-8.9,21.4c-6.1,5.3-14.1,8.1-24.7,8.1c-6.9,0-15-1.2-23.8-4l1.6-17
		c7.7,3.6,15,5.7,21.4,5.7c9.3,0,13.7-3.6,13.7-11.3c0-3.6-1.6-6.5-4.4-8.9c-1.6-1.2-6.1-3.6-13.7-7.7c-6.9-3.6-11.7-6.9-14.5-10.1
		c-3.6-4-5.3-9.3-5.3-16.2c0-8.9,2.8-15.8,8.9-20.6c5.7-5.3,13.7-7.7,24.2-7.7c6.1,0,12.9,1.2,20.2,3.2l-1.2,17
		c-6.9-2.8-12.9-4.4-18.6-4.4c-8.9,0-12.9,3.2-12.9,9.7c0,3.2,1.2,5.7,3.2,7.7c2,1.6,5.7,4,11.3,6.5c8.5,4,14.1,7.7,17.4,10.9
		C401,783.1,403,788.8,403,796"/>
	<path class="st2" d="M111.6,925l-10.1-38.4L90.2,925H111.6z M144,962.1h-22.2l-5.3-21H85.8l-5.7,21h-21L89.8,868h25.1L144,962.1z"
		/>
	<path class="st2" d="M207,934.3c0,8.9-2.8,16.2-8.9,21.4c-6.1,5.3-14.1,8.1-24.7,8.1c-6.9,0-15-1.2-23.8-4l1.6-17
		c7.7,3.6,15,5.7,21.4,5.7c9.3,0,13.7-3.6,13.7-11.3c0-3.6-1.6-6.5-4.4-8.9c-1.6-1.2-6.1-3.6-13.7-7.7c-6.9-3.6-11.7-6.9-14.5-10.1
		c-3.6-4-5.3-9.3-5.3-16.2c0-8.9,2.8-15.8,8.9-20.6c5.7-5.3,13.7-7.7,24.2-7.7c6.1,0,12.9,1.2,20.2,3.2l-1.2,17
		c-6.9-2.8-12.9-4.4-18.6-4.4c-8.9,0-12.9,3.2-12.9,9.7c0,3.2,1.2,5.7,3.2,7.7c2,1.6,5.7,4,11.3,6.5c8.5,4,14.1,7.7,17.4,10.9
		C205,920.9,207,927,207,934.3"/>
	<polygon class="st2" points="292.7,962.1 267.2,962.1 243,918.9 243,962.1 221.2,962.1 221.2,868 243,868 243,906.8 266.4,868 
		290.3,868 262,912 	"/>
	<path class="st2" d="M348.5,915.3c0-10.5-1.6-18.6-4.4-24.2c-2.8-5.7-7.3-8.5-12.5-8.5s-9.7,2.8-12.5,8.5
		c-2.8,5.7-4.4,13.7-4.4,24.2s1.6,18.6,4.4,24.2c2.8,5.7,7.3,8.5,12.5,8.5s9.7-2.8,12.5-8.5C346.9,933.9,348.5,925.8,348.5,915.3
		 M371.5,915.3c0,15.4-3.6,27.5-10.5,36c-7.3,8.5-17,12.5-29.1,12.5c-12.5,0-22.2-4-29.5-12.5c-6.9-8.5-10.5-20.6-10.5-36
		c0-15.4,3.6-27.5,10.5-36c7.3-8.5,17-12.9,29.1-12.9c12.5,0,22.2,4.4,29.1,12.9C367.9,887.8,371.5,899.5,371.5,915.3z"/>
	<path class="st2" d="M426.5,896.3c0-4.8-1.2-8.1-3.6-10.1c-2-1.6-6.1-2.4-11.3-2.4h-4.8V908h4.4c5.3,0,8.9-0.8,11.3-2.8
		C425.3,903.5,426.5,900.3,426.5,896.3 M452.3,962.1h-22.2l-7.3-26.7c-1.2-4.4-2.4-7.3-4-8.9c-1.6-2-4-2.8-7.7-2.8h-4v38.4h-21V868
		h22.2c1.2,0,2.4,0,3.6,0c1.2,0,1.6,0,2,0c11.7,0,20.6,2,25.9,6.1c5.7,4,8.5,10.5,8.5,19.4c0,11.7-6.1,19.4-17.8,22.2
		c3.2,0.8,5.7,2.4,7.3,4.8c1.6,2,2.8,5.3,4.4,10.1L452.3,962.1z"/>
	<path class="st2" d="M503.7,933.9c0-4.4-1.2-7.7-3.6-9.7c-2.4-2-6.1-2.8-11.3-2.8h-5.3v25.1h5.3
		C498.8,946.4,503.7,942.3,503.7,933.9 M501.6,895.5c0-4.4-1.2-7.3-3.2-8.9s-5.7-2.8-10.5-2.8h-4.4v23h4.8
		C497.2,906.8,501.6,903.1,501.6,895.5z M524.7,936.7c0,17-11.3,25.9-33.9,25.9h-27.9v-94.2h29.1c20.6,0,31.1,8.1,31.1,23.8
		c0,12.1-5.7,19-17,21.4C518.2,915.7,524.7,923.3,524.7,936.7z"/>
	<path class="st2" d="M591,915.3c0-10.5-1.6-18.6-4.4-24.2c-2.8-5.7-7.3-8.5-12.5-8.5c-5.3,0-9.7,2.8-12.5,8.5
		c-2.8,5.7-4.4,13.7-4.4,24.2s1.6,18.6,4.4,24.2c2.8,5.7,7.3,8.5,12.5,8.5c5.3,0,9.7-2.8,12.5-8.5C589.7,933.9,591,925.8,591,915.3
		 M614,915.3c0,15.4-3.6,27.5-10.5,36c-7.3,8.5-17,12.5-29.1,12.5c-12.5,0-22.2-4-29.5-12.5c-6.9-8.5-10.5-20.6-10.5-36
		c0-15.4,3.6-27.5,10.5-36c7.3-8.5,17-12.9,29.1-12.9c12.5,0,22.2,4.4,29.1,12.9C610.4,887.8,614,899.5,614,915.3z"/>
	<polygon class="st2" points="733.2,868 715.4,962.1 690,962.1 677,886.6 665.7,962.1 640.3,962.1 621.3,868 641.5,868 654,939.5 
		664.9,868 690.4,868 702.1,939.5 714.2,868 	"/>
	<polygon class="st2" points="810,868 782.1,926.6 782.1,962.1 760.3,962.1 760.3,925.8 732.4,868 756.7,868 771.6,907.6 787,868 	
		"/>
</g>
</svg>
