<?xml version="1.0" encoding="utf-8"?>
<!-- Generator: Adobe Illustrator 23.1.1, SVG Export Plug-In . SVG Version: 6.00 Build 0)  -->
<svg version="1.1" id="Warstwa_1" xmlns="http://www.w3.org/2000/svg" xmlns:xlink="http://www.w3.org/1999/xlink" x="0px" y="0px"
	 viewBox="0 0 1366 1024" style="enable-background:new 0 0 1366 1024;" xml:space="preserve">
<style type="text/css">
	.st0{fill:#096CB2;}
</style>
<g>
	<polygon class="st0" points="166.1,580.5 134.9,580.5 134.9,522.1 101.3,522.1 101.3,580.5 70,580.5 70,443.1 101.3,443.1 
		101.3,497.4 134.9,497.4 134.9,443.1 166.1,443.1 	"/>
	<polygon class="st0" points="274,580.5 193.8,580.5 193.8,443.1 271.7,443.1 271.7,466.1 225.1,466.1 225.1,499.1 269.3,499.1 
		269.3,522.1 225.1,522.1 225.1,557.5 274,557.5 	"/>
	<path class="st0" d="M376.6,539.8c0,13-4.1,23.6-13,31.2c-8.8,7.7-20.6,11.8-36,11.8c-10,0-21.8-1.8-34.8-5.9l2.4-24.8
		c11.2,5.3,21.8,8.3,31.2,8.3c13.6,0,20-5.3,20-16.5c0-5.3-2.4-9.4-6.5-13c-2.4-1.8-8.8-5.3-20-11.2c-10-5.3-17.1-10-21.2-14.7
		c-5.3-5.9-7.7-13.6-7.7-23.6c0-13,4.1-23,13-30.1c8.3-7.7,20-11.2,35.4-11.2c8.8,0,18.9,1.8,29.5,4.7l-1.8,24.8
		c-10-4.1-18.9-6.5-27.1-6.5c-13,0-18.9,4.7-18.9,14.1c0,4.7,1.8,8.3,4.7,11.2c2.9,2.4,8.3,5.9,16.5,9.4
		c12.4,5.9,20.6,11.2,25.4,15.9C373.7,520.3,376.6,529.2,376.6,539.8"/>
	<path class="st0" d="M455.6,486.1c0-7.7-1.8-13-4.7-15.9c-2.9-2.9-8.3-4.7-15.9-4.7h-6.5v41.3h7.1c7.1,0,11.8-1.8,15.3-4.7
		C454.4,499.1,455.6,493.8,455.6,486.1 M486.3,487.3c0,28.9-16.5,43-50.1,43h-7.7v50.1h-31.2V443.1h34.2c16.5,0,28.3,1.8,35.4,5.9
		C479.8,456.7,486.3,469.6,486.3,487.3z"/>
	<polygon class="st0" points="585.3,580.5 504.5,580.5 504.5,443.1 583,443.1 583,466.1 536.4,466.1 536.4,499.1 580.6,499.1 
		580.6,522.1 536.4,522.1 536.4,557.5 585.3,557.5 	"/>
	<path class="st0" d="M667.3,484.4c0-7.1-1.8-11.8-5.3-14.7c-2.9-2.4-8.8-3.5-16.5-3.5h-7.1v35.4h6.5c7.7,0,13-1.2,16.5-4.1
		C665.5,495,667.3,490.3,667.3,484.4 M705,580.5h-32.4L662,541.6c-1.8-6.5-3.5-10.6-5.9-13c-2.4-2.9-5.9-4.1-11.2-4.1H639v56h-30.7
		V443.1h32.4c1.8,0,3.5,0,5.3,0c1.8,0,2.4,0,2.9,0c17.1,0,30.1,2.9,37.7,8.8c8.3,5.9,12.4,15.3,12.4,28.3c0,17.1-8.8,28.3-25.9,32.4
		c4.7,1.2,8.3,3.5,10.6,7.1c2.4,2.9,4.1,7.7,6.5,14.7L705,580.5z"/>
	<polygon class="st0" points="814.7,443.1 774,528.6 774,580.5 742.1,580.5 742.1,527.4 701.5,443.1 737.4,443.1 759.2,500.9 
		781,443.1 	"/>
	<path class="st0" d="M898.4,512.1c0-30.7-13-46-39.5-46h-4.1v91.4h4.1C885.4,557.5,898.4,542.2,898.4,512.1 M932,512.1
		c0,22.4-6.5,39.5-18.9,51.3c-12.4,11.8-30.7,17.7-54.8,17.7h-34.8V443.7h34.8c24.8,0,43.6,5.3,55.4,16.5
		C926.1,470.8,932,488.5,932,512.1z"/>
	<polygon class="st0" points="1045.2,443.1 1004.5,528.6 1004.5,580.5 972.7,580.5 972.7,527.4 932,443.1 967.9,443.1 989.8,500.9 
		1011.6,443.1 	"/>
	<polygon class="st0" points="1158.4,580.5 1122.4,580.5 1080.5,480.3 1080.5,580.5 1054,580.5 1054,443.1 1090.6,443.1 
		1131.8,543.3 1131.8,443.1 1158.4,443.1 	"/>
	<path class="st0" d="M1247.4,526.2l-14.7-56l-16.5,56H1247.4z M1294,580.5h-32.4l-7.7-30.7h-44.2l-8.3,30.7h-30.7l44.8-137.4h36.6
		L1294,580.5z"/>
</g>
</svg>
