<?xml version="1.0" encoding="utf-8"?>
<!-- Generator: Adobe Illustrator 23.1.1, SVG Export Plug-In . SVG Version: 6.00 Build 0)  -->
<svg version="1.1" id="Warstwa_1" xmlns="http://www.w3.org/2000/svg" xmlns:xlink="http://www.w3.org/1999/xlink" x="0px" y="0px"
	 viewBox="0 0 1366 1024" style="enable-background:new 0 0 1366 1024;" xml:space="preserve">
<style type="text/css">
	.st0{fill:#FFDD00;}
</style>
<g>
	<polygon class="st0" points="610.7,507 604.4,507 598.4,496.3 598.4,507 593,507 593,483.7 598.4,483.7 598.4,493.3 604.2,483.7 
		610.1,483.7 603.1,494.6 	"/>
	<polygon class="st0" points="639.2,483.7 634.8,507 628.5,507 625.4,488.4 622.6,507 616.2,507 611.5,483.7 616.6,483.7 
		619.7,501.5 622.4,483.7 628.7,483.7 631.6,501.5 634.6,483.7 	"/>
	<path class="st0" d="M652,497.8l-2.5-9.5l-2.8,9.5H652z M659.9,507h-5.5l-1.3-5.2h-7.5l-1.4,5.2h-5.2l7.6-23.3h6.2L659.9,507z"/>
	<path class="st0" d="M675.5,500.1c0,2.2-0.7,4-2.2,5.3c-1.5,1.3-3.5,2-6.1,2c-1.7,0-3.7-0.3-5.9-1l0.4-4.2c1.9,0.9,3.7,1.4,5.3,1.4
		c2.3,0,3.4-0.9,3.4-2.8c0-0.9-0.4-1.6-1.1-2.2c-0.4-0.3-1.5-0.9-3.4-1.9c-1.7-0.9-2.9-1.7-3.6-2.5c-0.9-1-1.3-2.3-1.3-4
		c0-2.2,0.7-3.9,2.2-5.1c1.4-1.3,3.4-1.9,6-1.9c1.5,0,3.2,0.3,5,0.8l-0.3,4.2c-1.7-0.7-3.2-1.1-4.6-1.1c-2.2,0-3.2,0.8-3.2,2.4
		c0,0.8,0.3,1.4,0.8,1.9c0.5,0.4,1.4,1,2.8,1.6c2.1,1,3.5,1.9,4.3,2.7C675,496.9,675.5,498.3,675.5,500.1"/>
	<path class="st0" d="M603.4,532l-2.5-9.5l-2.8,9.5H603.4z M611.4,541.2h-5.5l-1.3-5.2H597l-1.4,5.2h-5.2l7.6-23.3h6.2L611.4,541.2z
		"/>
	<path class="st0" d="M627,534.3c0,2.2-0.7,4-2.2,5.3c-1.5,1.3-3.5,2-6.1,2c-1.7,0-3.7-0.3-5.9-1l0.4-4.2c1.9,0.9,3.7,1.4,5.3,1.4
		c2.3,0,3.4-0.9,3.4-2.8c0-0.9-0.4-1.6-1.1-2.2c-0.4-0.3-1.5-0.9-3.4-1.9c-1.7-0.9-2.9-1.7-3.6-2.5c-0.9-1-1.3-2.3-1.3-4
		c0-2.2,0.7-3.9,2.2-5.1c1.4-1.3,3.4-1.9,6-1.9c1.5,0,3.2,0.3,5,0.8l-0.3,4.2c-1.7-0.7-3.2-1.1-4.6-1.1c-2.2,0-3.2,0.8-3.2,2.4
		c0,0.8,0.3,1.4,0.8,1.9c0.5,0.4,1.4,1,2.8,1.6c2.1,1,3.5,1.9,4.3,2.7C626.5,531,627,532.5,627,534.3"/>
	<polygon class="st0" points="648.2,541.2 641.9,541.2 635.9,530.5 635.9,541.2 630.5,541.2 630.5,517.9 635.9,517.9 635.9,527.5 
		641.7,517.9 647.6,517.9 640.6,528.8 	"/>
	<path class="st0" d="M662,529.6c0-2.6-0.4-4.6-1.1-6c-0.7-1.4-1.8-2.1-3.1-2.1c-1.3,0-2.4,0.7-3.1,2.1c-0.7,1.4-1.1,3.4-1.1,6
		c0,2.6,0.4,4.6,1.1,6c0.7,1.4,1.8,2.1,3.1,2.1c1.3,0,2.4-0.7,3.1-2.1C661.6,534.2,662,532.2,662,529.6 M667.7,529.6
		c0,3.8-0.9,6.8-2.6,8.9c-1.8,2.1-4.2,3.1-7.2,3.1c-3.1,0-5.5-1-7.3-3.1c-1.7-2.1-2.6-5.1-2.6-8.9c0-3.8,0.9-6.8,2.6-8.9
		c1.8-2.1,4.2-3.2,7.2-3.2c3.1,0,5.5,1.1,7.2,3.2C666.8,522.8,667.7,525.7,667.7,529.6z"/>
	<path class="st0" d="M681.3,524.9c0-1.2-0.3-2-0.9-2.5c-0.5-0.4-1.5-0.6-2.8-0.6h-1.2v6h1.1c1.3,0,2.2-0.2,2.8-0.7
		C681,526.7,681.3,525.9,681.3,524.9 M687.7,541.2h-5.5l-1.8-6.6c-0.3-1.1-0.6-1.8-1-2.2c-0.4-0.5-1-0.7-1.9-0.7h-1v9.5h-5.2v-23.3
		h5.5c0.3,0,0.6,0,0.9,0c0.3,0,0.4,0,0.5,0c2.9,0,5.1,0.5,6.4,1.5c1.4,1,2.1,2.6,2.1,4.8c0,2.9-1.5,4.8-4.4,5.5
		c0.8,0.2,1.4,0.6,1.8,1.2c0.4,0.5,0.7,1.3,1.1,2.5L687.7,541.2z"/>
	<path class="st0" d="M700.4,534.2c0-1.1-0.3-1.9-0.9-2.4c-0.6-0.5-1.5-0.7-2.8-0.7h-1.3v6.2h1.3
		C699.2,537.3,700.4,536.3,700.4,534.2 M699.9,524.7c0-1.1-0.3-1.8-0.8-2.2c-0.5-0.4-1.4-0.7-2.6-0.7h-1.1v5.7h1.2
		C698.8,527.5,699.9,526.6,699.9,524.7z M705.6,534.9c0,4.2-2.8,6.4-8.4,6.4h-6.9v-23.3h7.2c5.1,0,7.7,2,7.7,5.9
		c0,3-1.4,4.7-4.2,5.3C704,529.7,705.6,531.6,705.6,534.9z"/>
	<path class="st0" d="M722,529.6c0-2.6-0.4-4.6-1.1-6c-0.7-1.4-1.8-2.1-3.1-2.1c-1.3,0-2.4,0.7-3.1,2.1c-0.7,1.4-1.1,3.4-1.1,6
		c0,2.6,0.4,4.6,1.1,6c0.7,1.4,1.8,2.1,3.1,2.1c1.3,0,2.4-0.7,3.1-2.1C721.7,534.2,722,532.2,722,529.6 M727.7,529.6
		c0,3.8-0.9,6.8-2.6,8.9c-1.8,2.1-4.2,3.1-7.2,3.1c-3.1,0-5.5-1-7.3-3.1c-1.7-2.1-2.6-5.1-2.6-8.9c0-3.8,0.9-6.8,2.6-8.9
		c1.8-2.1,4.2-3.2,7.2-3.2c3.1,0,5.5,1.1,7.2,3.2C726.8,522.8,727.7,525.7,727.7,529.6z"/>
	<polygon class="st0" points="757.2,517.9 752.8,541.2 746.5,541.2 743.3,522.5 740.5,541.2 734.2,541.2 729.5,517.9 734.5,517.9 
		737.6,535.6 740.3,517.9 746.6,517.9 749.5,535.6 752.5,517.9 	"/>
	<polygon class="st0" points="776.2,517.9 769.3,532.4 769.3,541.2 763.9,541.2 763.9,532.2 757,517.9 763,517.9 766.7,527.7 
		770.5,517.9 	"/>
</g>
</svg>
