<svg id="Warstwa_1" data-name="Warstwa 1" xmlns="http://www.w3.org/2000/svg" viewBox="0 0 465 122.21"><defs><style>.cls-1{fill:#e30613;}.cls-2{fill:#096cb2;}</style></defs><title>nasilajacy</title><polygon class="cls-1" points="425.35 46.42 458.35 62.92 425.35 79.42 425.35 46.42"/><path class="cls-2" d="M170.15,47.82h-5.6V32.42c0-2.9-1.1-4.3-3.3-4.3a3.22,3.22,0,0,0-2.8,1.5,7.11,7.11,0,0,0-1.1,4.1v14.1h-5.6V29.42c0-2.1-.1-3.9-.2-5.6h5.1a34.59,34.59,0,0,1,.2,3.5,6.59,6.59,0,0,1,6.5-4.1c4.5,0,6.7,2.6,6.7,7.9l.1,16.7Z"/><path class="cls-2" d="M187.55,37.82v-1.5c-1.1-.1-1.8-.1-2-.1-4.1,0-6.2,1.5-6.2,4.4q0,3.6,3.6,3.6c3.1,0,4.6-2.1,4.6-6.4m5.8,10h-5.2l-.3-3a8.13,8.13,0,0,1-6.8,3.5,6.55,6.55,0,0,1-5-2,7.19,7.19,0,0,1-1.9-5.3c0-5.4,3.7-8.1,11.2-8.1h2.3v-1q0-4.5-4.8-4.5a9.26,9.26,0,0,0-6.1,2.3l-.4-4.5a18,18,0,0,1,7.6-1.8c3.5,0,6,.8,7.3,2.5,1.2,1.5,1.9,4.1,1.9,7.8v9.4C193.15,45.12,193.25,46.72,193.35,47.82Z"/><path class="cls-2" d="M213,40.82a6.85,6.85,0,0,1-2.4,5.4,9.31,9.31,0,0,1-6.4,2.1,18.12,18.12,0,0,1-6.4-1.2l.2-4.9a12.25,12.25,0,0,0,6.2,1.8c2.5,0,3.8-.9,3.8-2.6a2.12,2.12,0,0,0-1-1.8,11.21,11.21,0,0,0-2.8-1.4,18.93,18.93,0,0,1-4.8-3.1,6.13,6.13,0,0,1-1.6-4.4,6.8,6.8,0,0,1,2.2-5.3,8.11,8.11,0,0,1,5.8-2.1,17,17,0,0,1,5.7.9l-.2,4.5a10.74,10.74,0,0,0-4.9-1.2c-2.3,0-3.5.8-3.5,2.4a2.52,2.52,0,0,0,.9,2,12.81,12.81,0,0,0,2.9,1.6,16,16,0,0,1,4.5,2.8,6,6,0,0,1,1.8,4.5"/><path class="cls-2" d="M223.25,47.82h-5.6V23.92h5.6Zm.1-28.5h-5.8v-5.5h5.8Z"/><rect class="cls-2" x="229.15" y="12.92" width="5.6" height="34.9"/><path class="cls-2" d="M252.35,37.82v-1.5c-1.1-.1-1.8-.1-2-.1-4.1,0-6.2,1.5-6.2,4.4q0,3.6,3.6,3.6c3.1,0,4.6-2.1,4.6-6.4m5.8,10H253l-.3-3a8.13,8.13,0,0,1-6.8,3.5,6.55,6.55,0,0,1-5-2A7.19,7.19,0,0,1,239,41c0-5.4,3.7-8.1,11.2-8.1h2.3v-1q0-4.5-4.8-4.5a9.26,9.26,0,0,0-6.1,2.3l-.4-4.5a18,18,0,0,1,7.6-1.8c3.5,0,6,.8,7.3,2.5,1.2,1.5,1.9,4.1,1.9,7.8v9.4C258,45.12,258.05,46.72,258.15,47.82Z"/><path class="cls-2" d="M269.25,49c0,3.2-.5,5.5-1.4,6.9-1,1.6-2.7,2.3-5.2,2.3a9.67,9.67,0,0,1-2.9-.4l.1-4.1a6.75,6.75,0,0,0,1.4.2,2,2,0,0,0,2.1-1.4,19.09,19.09,0,0,0,.3-4.3V24h5.6V49Zm.2-29.7h-5.8v-5.5h5.8Z"/><path class="cls-2" d="M287,37.82v-1.5c-1.1-.1-1.8-.1-2-.1-4.1,0-6.2,1.5-6.2,4.4q0,3.6,3.6,3.6c3,0,4.6-2.1,4.6-6.4M294,57a8.51,8.51,0,0,1-2.6.5c-3.6,0-5.5-1.5-5.5-4.4,0-1.9,1-3.6,3-5.3h-1.4l-.3-3a8.13,8.13,0,0,1-6.8,3.5,6.55,6.55,0,0,1-5-2,7.19,7.19,0,0,1-1.9-5.3c0-5.4,3.7-8.1,11.2-8.1H287v-1q0-4.5-4.8-4.5a9.26,9.26,0,0,0-6.1,2.3l-.4-4.5a18,18,0,0,1,7.6-1.8c3.5,0,6,.8,7.3,2.5,1.2,1.5,1.9,4.1,1.9,7.8v9.4c0,2.1,0,3.7.1,4.8a3.76,3.76,0,0,0-1.8,1.5,3.89,3.89,0,0,0-.7,2.3,2.27,2.27,0,0,0,.6,1.6,1.75,1.75,0,0,0,1.4.7,3.81,3.81,0,0,0,1.9-.4V57Z"/><path class="cls-2" d="M313.55,47.22a17.39,17.39,0,0,1-6.1,1.1,9.36,9.36,0,0,1-7.6-3.3c-1.9-2.2-2.8-5.2-2.8-9,0-4,1-7.1,2.9-9.3s4.6-3.3,8.1-3.3a14.48,14.48,0,0,1,5.2,1l-.3,4.5a8.39,8.39,0,0,0-4.1-1.1c-4,0-6,2.5-6,7.6a10.17,10.17,0,0,0,1.6,6.2,5.29,5.29,0,0,0,4.5,2.1,8.83,8.83,0,0,0,4.4-1.2Z"/><path class="cls-2" d="M335.45,23.92l-7.9,26.2a19,19,0,0,1-2.7,6,6.35,6.35,0,0,1-5.1,2.1,12.7,12.7,0,0,1-3.4-.5l.4-4.3a6.72,6.72,0,0,0,1.8.3c1.7,0,2.9-1.1,3.5-3.3l.5-1.8-7.9-24.7h6l4.8,18.4,4.7-18.4Z"/><path class="cls-2" d="M364.75,40.82a6.85,6.85,0,0,1-2.4,5.4,9.31,9.31,0,0,1-6.4,2.1,18.12,18.12,0,0,1-6.4-1.2l.2-4.9A12.25,12.25,0,0,0,356,44c2.5,0,3.8-.9,3.8-2.6a2.12,2.12,0,0,0-1-1.8,11.21,11.21,0,0,0-2.8-1.4,18.93,18.93,0,0,1-4.8-3.1,6.13,6.13,0,0,1-1.6-4.4,6.8,6.8,0,0,1,2.2-5.3,8.11,8.11,0,0,1,5.8-2.1,17,17,0,0,1,5.7.9l-.2,4.5a10.74,10.74,0,0,0-4.9-1.2c-2.3,0-3.5.8-3.5,2.4a2.52,2.52,0,0,0,.9,2,12.81,12.81,0,0,0,2.9,1.6,16,16,0,0,1,4.5,2.8,5.61,5.61,0,0,1,1.8,4.5"/><path class="cls-2" d="M375.05,47.82h-5.6V23.92h5.6Zm.1-28.5h-5.8v-5.5h5.8Z"/><path class="cls-2" d="M393.55,33.92v-.4c0-4.1-1.3-6.2-3.9-6.2s-4.1,2.2-4.4,6.6Zm5.2,1.4v2h-13.4c.2,4.5,2.3,6.8,6.3,6.8a11.43,11.43,0,0,0,5.8-1.7v4.3a14.36,14.36,0,0,1-1.6.7c-1.6.7-2.3,2.1-2.3,4.2a2.27,2.27,0,0,0,.6,1.6,1.75,1.75,0,0,0,1.4.7,3.81,3.81,0,0,0,1.9-.4v3.6a8.51,8.51,0,0,1-2.6.5c-3.6,0-5.5-1.5-5.5-4.4a6.71,6.71,0,0,1,2.5-4.9h-1.1c-3.5,0-6.3-1.1-8.2-3.2s-2.9-5.2-2.9-9.1.9-6.9,2.7-9.2a8.7,8.7,0,0,1,7.3-3.4,7.83,7.83,0,0,1,6.5,3.2C398,28.72,398.75,31.62,398.75,35.32Z"/><path class="cls-2" d="M20.85,88q0-8.1-4.2-8.1t-4.2,6.9v2.5q0,6.9,4.2,6.9c2.8-.1,4.2-2.8,4.2-8.2m5.9,0c0,8.3-2.8,12.5-8.4,12.5a6.52,6.52,0,0,1-6-3.7v13.4H6.75V80.32c-.1-1.5-.1-2.9-.1-4.2H12c.1,1.5.2,2.7.2,3.6,1.5-2.7,3.6-4.1,6.3-4.1C24.05,75.52,26.75,79.72,26.75,88Z"/><path class="cls-2" d="M45.05,88c0-5.5-1.5-8.3-4.4-8.3s-4.5,2.8-4.5,8.3,1.5,8.2,4.5,8.2,4.4-2.7,4.4-8.2M51,88c0,4-.9,7.1-2.7,9.2a9.59,9.59,0,0,1-7.6,3.2,9.45,9.45,0,0,1-7.6-3.2c-1.8-2.2-2.7-5.2-2.7-9.2s.9-7.1,2.7-9.2a9.45,9.45,0,0,1,7.6-3.2,9.45,9.45,0,0,1,7.6,3.2C50.05,80.92,51,84,51,88Z"/><path class="cls-2" d="M69,89.22v-2.4a10.16,10.16,0,0,0-1.1-5.1,3.56,3.56,0,0,0-3.1-1.8q-4.2,0-4.2,8.1t4.2,8.1a3.45,3.45,0,0,0,3.1-1.8,9.65,9.65,0,0,0,1.1-5.1m5.6,10.8h-5.2c-.1-1.4-.2-2.6-.2-3.6-1.5,2.7-3.6,4.1-6.3,4.1a7,7,0,0,1-6.1-3.2c-1.4-2.1-2.2-5.2-2.2-9.2,0-8.4,2.8-12.5,8.3-12.5a6.77,6.77,0,0,1,6.1,3.7V65.12h5.6V100Z"/><polygon class="cls-2" points="123.75 76.02 117.35 100.02 111.25 100.02 106.95 81.02 102.65 100.02 96.35 100.02 90.15 76.02 95.95 76.02 99.75 94.92 103.95 76.02 110.15 76.02 114.25 94.92 118.25 76.02 123.75 76.02"/><path class="cls-2" d="M141.75,88q0-8.1-4.2-8.1t-4.2,6.9v2.5q0,6.9,4.2,6.9c2.7-.1,4.2-2.8,4.2-8.2m5.9,0c0,8.3-2.8,12.5-8.4,12.5a6.52,6.52,0,0,1-6-3.7v13.4h-5.6V80.32c-.1-1.5-.1-2.9-.1-4.2h5.3c.1,1.5.2,2.7.2,3.6,1.5-2.7,3.6-4.1,6.3-4.1C144.85,75.52,147.65,79.72,147.65,88Z"/><polygon class="cls-2" points="161.05 76.62 157.85 79.02 157.85 100.02 152.75 100.02 152.75 81.72 149.55 84.02 149.55 79.52 152.75 77.22 152.75 65.12 157.85 65.12 157.85 74.52 161.05 72.22 161.05 76.62"/><path class="cls-2" d="M182.65,76l-7.9,26.2a19,19,0,0,1-2.7,6,6.35,6.35,0,0,1-5.1,2.1,12.7,12.7,0,0,1-3.4-.5l.4-4.3a6.72,6.72,0,0,0,1.8.3c1.7,0,2.9-1.1,3.5-3.3l.5-1.8L161.85,76h6l4.8,18.4,4.7-18.4Z"/><polygon class="cls-2" points="217.45 76.02 210.95 100.02 204.95 100.02 200.55 81.02 196.25 100.02 190.05 100.02 183.85 76.02 189.55 76.02 193.45 94.92 197.55 76.02 203.85 76.02 207.95 94.92 211.95 76.02 217.45 76.02"/><path class="cls-2" d="M233.75,86.12v-.4c0-4.1-1.3-6.2-3.9-6.2s-4.1,2.2-4.4,6.6Zm5.3,1.4v2h-13.4c.2,4.5,2.3,6.8,6.3,6.8a11.43,11.43,0,0,0,5.8-1.7v4.3a15.28,15.28,0,0,1-6.7,1.5c-3.5,0-6.3-1.1-8.2-3.2S220,92,220,88.12s.9-6.9,2.7-9.2a8.7,8.7,0,0,1,7.3-3.4,7.83,7.83,0,0,1,6.5,3.2C238.25,80.92,239.05,83.82,239.05,87.52Z"/><path class="cls-2" d="M274.05,100h-5.6V84.62c0-2.9-1-4.3-3.1-4.3q-3.6,0-3.6,5.7v14h-5.6V84.62c0-2.9-1-4.3-3.1-4.3q-3.6,0-3.6,5.7v14h-5.6V81.62c0-2.1-.1-3.9-.2-5.6h5.1a34.59,34.59,0,0,1,.2,3.5,6.71,6.71,0,0,1,6.2-4.1,6,6,0,0,1,6.1,3.9,6.85,6.85,0,0,1,6.5-3.9,5.9,5.9,0,0,1,4.7,2,9.21,9.21,0,0,1,1.7,5.9l-.1,16.7Z"/><path class="cls-2" d="M307.05,99.42a17.39,17.39,0,0,1-6.1,1.1,9.36,9.36,0,0,1-7.6-3.3c-1.9-2.2-2.8-5.2-2.8-9,0-4,1-7.1,2.9-9.3s4.6-3.3,8.1-3.3a14.48,14.48,0,0,1,5.2,1l-.3,4.5a8.39,8.39,0,0,0-4.1-1.1c-4,0-6,2.5-6,7.6a10.17,10.17,0,0,0,1.6,6.2,5.29,5.29,0,0,0,4.5,2.1,8.83,8.83,0,0,0,4.4-1.2Z"/><path class="cls-2" d="M316.15,100h-5.6V76h5.6Zm.2-28.5h-5.8V66h5.8Z"/><path class="cls-2" d="M334.65,86.12v-.4c0-4.1-1.3-6.2-3.9-6.2s-4.1,2.2-4.4,6.6Zm5.3,1.4v2h-13.4c.2,4.5,2.3,6.8,6.3,6.8a11.43,11.43,0,0,0,5.8-1.7v4.3a15.28,15.28,0,0,1-6.7,1.5c-3.5,0-6.3-1.1-8.2-3.2s-2.9-5.2-2.9-9.1.9-6.9,2.7-9.2a8.7,8.7,0,0,1,7.3-3.4,7.83,7.83,0,0,1,6.5,3.2C339.15,80.92,340,83.82,340,87.52Z"/><path class="cls-2" d="M358.85,88q0-8.1-4.2-8.1t-4.2,6.9v2.5q0,6.9,4.2,6.9c2.7-.1,4.2-2.8,4.2-8.2m5.9,0c0,8.3-2.8,12.5-8.4,12.5a6.52,6.52,0,0,1-6-3.7v13.4h-5.6V80.32c-.1-1.5-.1-2.9-.1-4.2H350c.1,1.5.2,2.7.2,3.6,1.5-2.7,3.6-4.1,6.3-4.1C362,75.52,364.75,79.72,364.75,88Z"/><polygon class="cls-2" points="378.15 76.62 374.95 79.02 374.95 100.02 369.85 100.02 369.85 81.72 366.65 84.02 366.65 79.52 369.85 77.22 369.85 65.12 374.95 65.12 374.95 74.52 378.15 72.22 378.15 76.62"/><path class="cls-2" d="M393.05,90v-1.5c-1.1-.1-1.8-.1-2-.1-4.1,0-6.2,1.5-6.2,4.4q0,3.6,3.6,3.6c3,0,4.6-2.2,4.6-6.4m5.7,10h-5.2l-.3-3a8.13,8.13,0,0,1-6.8,3.5,6.55,6.55,0,0,1-5-2,7.19,7.19,0,0,1-1.9-5.3c0-5.4,3.7-8.1,11.2-8.1h2.3v-1q0-4.5-4.8-4.5a9.26,9.26,0,0,0-6.1,2.3l-.4-4.5a18,18,0,0,1,7.6-1.8c3.5,0,6,.8,7.3,2.5,1.2,1.5,1.9,4.1,1.9,7.8v9.4C398.65,97.32,398.65,98.92,398.75,100Z"/></svg>