<?xml version="1.0" encoding="utf-8"?>
<!-- Generator: Adobe Illustrator 23.1.1, SVG Export Plug-In . SVG Version: 6.00 Build 0)  -->
<svg version="1.1" id="Warstwa_1" xmlns="http://www.w3.org/2000/svg" xmlns:xlink="http://www.w3.org/1999/xlink" x="0px" y="0px"
	 viewBox="0 0 1080 1920" style="enable-background:new 0 0 1080 1920;" xml:space="preserve">
<style type="text/css">
	.st0{fill-rule:evenodd;clip-rule:evenodd;fill:#00A75D;}
	.st1{fill:none;stroke:#FFFFFF;stroke-width:1.9843;stroke-linecap:round;stroke-linejoin:round;stroke-miterlimit:22.9256;}
	.st2{fill:#FFFFFF;}
</style>
<g>
	<path class="st0" d="M148.2,691.3c192.3-212.5,520.5-228.8,732.9-36.6c212.5,192.3,228.8,520.5,36.6,733
		c-192.3,212.5-520.5,228.8-732.9,36.6C-27.7,1232-44,903.8,148.2,691.3"/>
	<path class="st0" d="M180.2,720.3c176.3-194.7,477.1-209.8,671.9-33.6c194.7,176.3,209.8,477.2,33.6,671.9
		c-176.3,194.8-477.1,209.8-671.9,33.6C19,1215.9,4,915,180.2,720.3z"/>
	<path class="st1" d="M180.2,720.3c176.3-194.7,477.1-209.8,671.9-33.6c194.7,176.3,209.8,477.2,33.6,671.9
		c-176.3,194.8-477.1,209.8-671.9,33.6C19,1215.9,4,915,180.2,720.3z"/>
	<path class="st2" d="M233,921.6c0-6.6-1.4-11.3-4.2-13.9c-2.8-2.6-7.4-3.9-13.8-3.9h-5.7V940h6.5c6.2,0,10.6-1.4,13.3-4.2
		C231.7,932.9,233,928.2,233,921.6 M260.1,922.2c0,25.4-14.8,38.1-44.2,38.1h-6.6v44.4h-27.8V883.4h30.2c14.8,0,25.2,1.7,31.1,5.2
		C254.4,895.5,260.1,906.7,260.1,922.2z"/>
	<path class="st2" d="M328.8,919.6c0-6-1.5-10.3-4.6-12.7c-2.8-2.1-7.6-3.1-14.5-3.1h-6.3v31.1h6c6.6,0,11.6-1.2,14.7-3.5
		C327.2,929,328.8,925.1,328.8,919.6 M361.8,1004.7h-28.6l-9.6-34.5c-1.6-5.7-3.3-9.5-5.1-11.6c-2.1-2.5-5.4-3.6-9.8-3.6h-5.2v49.7
		h-27.3V883.4h28.6c1.4,0,2.9-0.1,4.6-0.1c1.5,0,2.3,0,2.5,0c15.1,0,26.3,2.5,33.4,7.7c7.2,5.2,10.8,13.4,10.8,25
		c0,15.3-7.6,24.8-22.8,28.5c4.1,0.9,7.2,3,9.4,6.1c1.9,2.5,3.8,6.8,5.7,13.1L361.8,1004.7z"/>
	<path class="st2" d="M442.9,944.1c0-13.7-1.9-24.1-5.7-31.4c-3.9-7.3-9.2-10.9-16.1-10.9c-6.9,0-12.2,3.6-16.1,10.9
		c-3.9,7.3-5.7,17.7-5.7,31.4s1.9,24.1,5.7,31.3c3.9,7.2,9.2,10.8,16.1,10.8c6.9,0,12.2-3.6,16.1-10.8
		C441,968.2,442.9,957.7,442.9,944.1 M472.4,944.1c0,19.9-4.6,35.3-13.7,46.2c-9.2,10.9-21.7,16.4-37.7,16.4
		c-16.1,0-28.6-5.5-37.7-16.3c-9.1-10.8-13.7-26.2-13.7-46.3c0-19.9,4.6-35.3,13.7-46.3c9.2-11,21.7-16.4,37.7-16.4
		c16,0,28.5,5.5,37.7,16.4C467.9,908.7,472.4,924.2,472.4,944.1z"/>
	<path class="st2" d="M557.2,944.1c0-26.9-11.6-40.3-34.7-40.3h-3.6v80.5h3.6C545.6,984.3,557.2,970.9,557.2,944.1 M586.6,944.1
		c0,19.7-5.5,34.7-16.5,45.1c-11,10.4-27,15.6-48.1,15.6h-31V883.4h31c22,0,38.3,4.9,48.8,14.7C581.3,907.9,586.6,923.3,586.6,944.1
		z"/>
	<path class="st2" d="M693,957.9c0,32.5-14.5,48.8-43.7,48.8c-14.9,0-25.9-4-32.9-12c-7.1-8-10.5-20.2-10.5-36.8v-74.4h28v77.6
		c0,8.9,1,15.3,3.1,18.9c2.5,4.2,6.8,6.3,13.1,6.3c6.3,0,10.7-2,13.1-6.1c2.2-3.7,3.3-10.1,3.3-19v-77.6H693L693,957.9L693,957.9z"
		/>
	<polygon class="st2" points="808.5,1004.7 775.6,1004.7 744.2,949 744.2,1004.7 716.4,1004.7 716.4,883.5 744.2,883.5 744.2,933.3 
		774.6,883.5 805.4,883.5 768.7,939.9 	"/>
	<polygon class="st2" points="893.8,905.2 867.4,905.2 867.4,1004.7 839.5,1004.7 839.5,905.2 813.1,905.2 813.1,883.5 893.8,883.5 
			"/>
	<polygon class="st2" points="211.1,1169.5 143.6,1169.5 143.6,1048.2 171.4,1048.2 171.4,1147.5 211.1,1147.5 	"/>
	<polygon class="st2" points="295.3,1169.5 224.3,1169.5 224.3,1048.2 293.4,1048.2 293.4,1068.5 252.2,1068.5 252.2,1097.5 
		291.2,1097.5 291.2,1117.8 252.2,1117.8 252.2,1149 295.3,1149 	"/>
	<path class="st2" d="M395.8,1166.3c-8.7,3.3-18.1,5.1-28.5,5.1c-17.6,0-31.6-5.6-42-16.9c-10.4-11.3-15.6-26.5-15.6-45.9
		c0-19.1,5.2-34.3,15.6-45.6c10.4-11.3,24.1-16.9,41.2-16.9c9.5,0,19.1,1.9,28.6,5.7l-1.4,22.8c-7-4.3-14.7-6.5-23-6.5
		c-10,0-17.8,3.5-23.3,10.5s-8.3,17-8.3,30.1c0,13.3,2.8,23.5,8.6,30.6c5.7,7.1,13.7,10.7,24.1,10.7c7.6,0,15.2-2.3,22.9-7
		L395.8,1166.3z"/>
	<polygon class="st2" points="484.4,1169.5 405.8,1169.5 405.8,1145.4 452.2,1069.9 407.2,1069.9 407.2,1048.2 483,1048.2 483,1071 
		435.8,1147.8 484.4,1147.8 	"/>
	<polygon class="st2" points="593.6,1169.5 561.6,1169.5 524.9,1080.9 524.9,1169.5 501.4,1169.5 501.4,1048.2 533.4,1048.2 
		569.8,1136.7 569.8,1048.2 593.6,1048.2 	"/>
	<rect x="617.6" y="1048.2" class="st2" width="27.8" height="121.3"/>
	<path class="st2" d="M750,1166.3c-8.7,3.3-18.1,5.1-28.5,5.1c-17.6,0-31.6-5.6-42-16.9c-10.4-11.3-15.6-26.5-15.6-45.9
		c0-19.1,5.2-34.3,15.6-45.6c10.4-11.3,24.1-16.9,41.2-16.9c9.5,0,19.1,1.9,28.6,5.7l-1.4,22.8c-7-4.3-14.7-6.5-23-6.5
		c-10,0-17.8,3.5-23.3,10.5c-5.5,7-8.3,17-8.3,30.1c0,13.3,2.8,23.5,8.6,30.6c5.7,7.1,13.7,10.7,24.1,10.7c7.6,0,15.2-2.3,22.9-7
		L750,1166.3z"/>
	<polygon class="st2" points="838.7,1169.5 760,1169.5 760,1145.4 806.5,1069.9 761.4,1069.9 761.4,1048.2 837.3,1048.2 837.3,1071 
		790.1,1147.8 838.7,1147.8 	"/>
	<polygon class="st2" points="939.1,1048.2 903.1,1123.7 903.1,1169.5 875.2,1169.5 875.2,1122.7 839.2,1048.2 870.8,1048.2 
		890,1099.1 909.5,1048.2 	"/>
</g>
</svg>
