<?xml version="1.0" encoding="utf-8"?>
<!-- Generator: Adobe Illustrator 23.1.1, SVG Export Plug-In . SVG Version: 6.00 Build 0)  -->
<svg version="1.1" id="Warstwa_1" xmlns="http://www.w3.org/2000/svg" xmlns:xlink="http://www.w3.org/1999/xlink" x="0px" y="0px"
	 viewBox="0 0 1366 1024" style="enable-background:new 0 0 1366 1024;" xml:space="preserve">
<style type="text/css">
	.st0{fill:#EE7D00;}
</style>
<g>
	<path class="st0" d="M262.8,383.4c0-6.9-1.7-11.7-5.2-14.5c-3.2-2.4-8.7-3.6-16.5-3.6h-7.2v35.4h6.8c7.6,0,13.1-1.3,16.7-4
		C261,394.1,262.8,389.7,262.8,383.4 M300.3,480.3h-32.6l-10.9-39.2c-1.9-6.5-3.8-10.9-5.8-13.1c-2.4-2.8-6.1-4.2-11.1-4.2h-6v56.5
		h-31v-138h32.6c1.6,0,3.3-0.1,5.2-0.2c1.7,0,2.7,0,2.8,0c17.2,0,29.9,2.9,38.1,8.7c8.2,5.8,12.2,15.3,12.2,28.4
		c0,17.4-8.6,28.2-25.8,32.4c4.6,1.1,8.2,3.4,10.7,7c2.1,2.8,4.3,7.8,6.6,14.9L300.3,480.3z"/>
	<path class="st0" d="M414.1,427c0,37-16.6,55.5-49.7,55.5c-17,0-29.5-4.5-37.5-13.6c-8-9.1-12-23-12-41.8v-84.7h31.8v88.3
		c0,10.2,1.2,17.4,3.6,21.5c2.8,4.8,7.8,7.2,14.9,7.2c7.2,0,12.1-2.3,14.9-7c2.5-4.2,3.8-11.5,3.8-21.7v-88.3h30.2V427z"/>
	<path class="st0" d="M521,439.5c0,13.1-4.3,23.6-12.9,31.3c-8.6,7.8-20.6,11.6-36,11.6c-10.3,0-22.1-2-35.2-6l2.4-24.9
		c11.5,5.6,22,8.3,31.4,8.3c13.4,0,20.1-5.4,20.1-16.3c0-5.3-2.1-9.6-6.4-12.9c-2.3-1.9-8.9-5.6-19.9-11.1
		c-10.2-5.2-17.3-10.1-21.3-14.7c-5.2-5.8-7.8-13.7-7.8-23.5c0-12.9,4.2-23,12.7-30.4c8.5-7.4,20.3-11.1,35.4-11.1
		c9.1,0,19.1,1.5,29.8,4.6l-1.8,24.8c-9.9-4.4-19-6.6-27-6.6c-12.7,0-19.1,4.7-19.1,14.1c0,4.5,1.7,8.3,5,11.3
		c2.8,2.5,8.2,5.7,16.3,9.5c12.5,6,20.9,11.3,25.2,15.9C518,420,521,428.6,521,439.5"/>
	<polygon class="st0" points="623.8,480.3 534.3,480.3 534.3,452.8 587.2,366.9 535.9,366.9 535.9,342.3 622.2,342.3 622.2,368.1 
		568.5,455.6 623.8,455.6 	"/>
	<path class="st0" d="M734.7,476.7c-9.8,3.8-20.6,5.8-32.4,5.8c-20,0-35.9-6.4-47.8-19.2c-11.9-12.8-17.8-30.2-17.8-52.2
		c0-21.7,5.9-39,17.7-51.9c11.8-12.9,27.4-19.3,46.9-19.3c10.9,0,21.7,2.2,32.6,6.6l-1.6,25.8c-8-4.9-16.7-7.4-26.2-7.4
		c-11.4,0-20.2,4-26.5,11.9c-6.3,8-9.4,19.4-9.4,34.2c0,15.1,3.2,26.7,9.7,34.8c6.5,8.1,15.6,12.1,27.4,12.1c8.6,0,17.3-2.7,26-8
		L734.7,476.7z"/>
	<polygon class="st0" points="835.5,480.3 746.1,480.3 746.1,452.8 798.9,366.9 747.6,366.9 747.6,342.3 833.9,342.3 833.9,368.1 
		780.2,455.6 835.5,455.6 	"/>
	<polygon class="st0" points="949.8,342.3 908.9,428.2 908.9,480.3 877.1,480.3 877.1,427 836.1,342.3 872.1,342.3 894,400.1 
		916,342.3 	"/>
	<polygon class="st0" points="1063.3,480.3 1026,480.3 990.2,416.8 990.2,480.3 958.6,480.3 958.6,342.3 990.2,342.3 990.2,399 
		1024.8,342.3 1059.8,342.3 1018,406.5 	"/>
	<polygon class="st0" points="307.7,682.6 270.3,682.6 234.5,619.1 234.5,682.6 202.9,682.6 202.9,544.6 234.5,544.6 234.5,601.3 
		269.1,544.6 304.1,544.6 262.4,608.8 	"/>
	<path class="st0" d="M389,613.6c0-15.5-2.2-27.4-6.6-35.7c-4.4-8.3-10.5-12.4-18.3-12.4s-13.9,4.1-18.3,12.4
		c-4.4,8.3-6.6,20.2-6.6,35.7c0,15.5,2.2,27.4,6.6,35.6c4.4,8.2,10.5,12.3,18.3,12.3s13.9-4.1,18.3-12.3
		C386.8,640.9,389,629.1,389,613.6 M422.6,613.6c0,22.7-5.2,40.2-15.6,52.6c-10.4,12.4-24.7,18.6-42.8,18.6
		c-18.3,0-32.6-6.2-42.9-18.5c-10.3-12.3-15.5-29.9-15.5-52.7c0-22.7,5.2-40.2,15.6-52.7c10.4-12.5,24.7-18.7,42.8-18.7
		s32.4,6.2,42.8,18.7C417.4,573.4,422.6,590.9,422.6,613.6z"/>
	<polygon class="st0" points="520.4,682.6 443.7,682.6 443.7,544.6 475.3,544.6 475.3,657.5 520.4,657.5 	"/>
	<path class="st0" d="M627.2,679c-9.8,3.8-20.6,5.8-32.4,5.8c-20,0-35.9-6.4-47.8-19.2c-11.9-12.8-17.8-30.2-17.8-52.2
		c0-21.7,5.9-39,17.7-51.9c11.8-12.9,27.4-19.3,46.9-19.3c10.9,0,21.7,2.2,32.6,6.6l-1.6,25.8c-8-4.9-16.7-7.4-26.2-7.4
		c-11.4,0-20.2,4-26.5,11.9c-6.3,8-9.4,19.4-9.4,34.2c0,15.1,3.2,26.7,9.7,34.8c6.5,8.1,15.6,12.1,27.4,12.1c8.6,0,17.3-2.7,26-8
		L627.2,679z"/>
	<polygon class="st0" points="728,682.6 638.5,682.6 638.5,655.1 691.4,569.2 640.1,569.2 640.1,544.6 726.4,544.6 726.4,570.4 
		672.7,657.9 728,657.9 	"/>
	<path class="st0" d="M808.9,627.9l-14.7-56.1l-16.5,56.1H808.9z M855.8,682.6H823l-8-30.8h-44.3l-8.3,30.8h-30.8l44.9-138H813
		L855.8,682.6z"/>
	<path class="st0" d="M948.2,641.8c0,13.1-4.3,23.6-12.9,31.3c-8.6,7.8-20.6,11.6-36,11.6c-10.3,0-22.1-2-35.2-6l2.4-24.9
		c11.5,5.6,22,8.3,31.4,8.3c13.4,0,20.1-5.4,20.1-16.3c0-5.3-2.1-9.6-6.4-12.9c-2.3-1.9-8.9-5.6-19.9-11.1
		c-10.2-5.2-17.3-10.1-21.3-14.7c-5.2-5.8-7.8-13.7-7.8-23.5c0-12.9,4.2-23,12.7-30.4c8.5-7.4,20.3-11.1,35.4-11.1
		c9.1,0,19.1,1.5,29.8,4.6l-1.8,24.8c-9.9-4.4-19-6.6-27-6.6c-12.7,0-19.1,4.7-19.1,14.1c0,4.5,1.7,8.3,5,11.3
		c2.8,2.5,8.2,5.7,16.3,9.5c12.5,6,20.9,11.3,25.2,15.9C945.2,622.3,948.2,630.9,948.2,641.8"/>
	<polygon class="st0" points="1050.6,569.2 1020.6,569.2 1020.6,682.6 988.8,682.6 988.8,569.2 958.8,569.2 958.8,544.6 
		1050.6,544.6 	"/>
	<polygon class="st0" points="1162.9,544.6 1122,630.5 1122,682.6 1090.2,682.6 1090.2,629.3 1049.2,544.6 1085.2,544.6 
		1107.1,602.4 1129.1,544.6 	"/>
</g>
</svg>
