<?xml version="1.0" encoding="utf-8"?>
<!-- Generator: Adobe Illustrator 23.1.1, SVG Export Plug-In . SVG Version: 6.00 Build 0)  -->
<svg version="1.1" id="Warstwa_1" xmlns="http://www.w3.org/2000/svg" xmlns:xlink="http://www.w3.org/1999/xlink" x="0px" y="0px"
	 viewBox="0 0 1366 1024" style="enable-background:new 0 0 1366 1024;" xml:space="preserve">
<style type="text/css">
	.st0{fill:#EDF1F4;}
	.st1{fill-rule:evenodd;clip-rule:evenodd;fill:#096CB2;}
	.st2{fill:none;stroke:#FFED00;stroke-width:2.4495;stroke-linecap:round;stroke-linejoin:round;stroke-miterlimit:22.9256;}
	.st3{fill-rule:evenodd;clip-rule:evenodd;fill:#EF7D00;}
	.st4{display:none;fill:#EF7D00;}
	.st5{fill:#096CB2;}
	.st6{fill:#FFFFFF;}
	.st7{fill:#F9B104;}
	.st8{fill:url(#SVGID_1_);}
	.st9{fill:#F07E07;}
	.st10{fill:#F1D300;}
	.st11{opacity:0.51;}
	.st12{fill:#F1FFFF;}
	.st13{opacity:0.38;fill:url(#SVGID_2_);enable-background:new    ;}
	.st14{opacity:0.39;}
	.st15{opacity:0.38;fill:url(#SVGID_3_);enable-background:new    ;}
	.st16{fill:url(#SVGID_4_);}
	.st17{opacity:0.38;fill:url(#SVGID_5_);enable-background:new    ;}
	.st18{opacity:0.38;fill:url(#SVGID_6_);enable-background:new    ;}
	.st19{opacity:0.38;fill:url(#SVGID_7_);enable-background:new    ;}
	.st20{opacity:0.38;fill:url(#SVGID_8_);enable-background:new    ;}
</style>
<g>
	<rect class="st0" width="1366" height="1024"/>
</g>
<g>
	<g>
		<g>
			<g>
				<g>
					<path class="st1" d="M1282.5,45.8H569.9H79.1c-19,0-34.6,15.5-34.6,34.6v125.7c0,19,15.5,34.6,34.6,34.6H570h712.5
						c19,0,34.6-15.5,34.6-34.6V80.4C1317,61.4,1301.5,45.8,1282.5,45.8"/>
					<path class="st2" d="M570.5,87.5h17.8v88.7h-17.8V87.5z M769.5,99.7h2.5h14.4h24.9V116h-24.9v13.3h22.8v16.3h-22.8v31h-16.9
						V99.7z M901.5,116l-13.7,7.2c7,6,8.7,11.9,8.7,19.1v35l16.4-0.3l-0.2-26.8c-0.1-13.8,11-16.8,18.1-18.4l-3.7-16.3
						c-6.4,0.6-13.4,4.5-18.4,8.8L901.5,116z M464.7,114.4l-16.5,5.3l21.3,52.5l-14.3,28.4l14.4,6.8l39.8-87.4l-15.2-5.4l-15.3,41
						L464.7,114.4z M624.6,130.7c6.9,0,12.4,7.5,12.4,16.7s-5.6,16.7-12.4,16.7c-6.9,0-12.4-7.5-12.4-16.7
						C612.1,138.2,617.7,130.7,624.6,130.7z M624.6,115.2c16.4,0,29.7,14.4,29.7,32.2s-13.3,32.2-29.7,32.2s-29.7-14.4-29.7-32.2
						C594.8,129.6,608.1,115.2,624.6,115.2z M850.1,130.7c6.9,0,12.4,7.5,12.4,16.7s-5.6,16.7-12.4,16.7c-6.9,0-12.4-7.5-12.4-16.7
						C837.6,138.2,843.2,130.7,850.1,130.7z M850.1,115.2c16.4,0,29.7,14.4,29.7,32.2s-13.3,32.2-29.7,32.2s-29.7-14.4-29.7-32.2
						C820.3,129.6,833.6,115.2,850.1,115.2z M555.8,157.7l9.9,11.7c-8.3,10.2-26.3,13.5-39.6,4.3c-8.4-5.8-13.7-15.6-13.2-26.6
						c0.4-10.3,5.2-20.5,13-26.4c13.7-10.5,31.2-5.4,40.8,5.2L556,136c-12.8-14.4-26.6-2.4-26.4,10.1c0.1,8.5,2.6,16.3,13.1,17.3
						C548.2,163.9,553.2,161.4,555.8,157.7z M445.2,168.2l-10-13c-3.8,4.5-9.7,7.8-14.8,7.8c-10.8,0-18.3-12.3-17.8-25.9
						c0.4-13.6,7.1-25.3,17.9-25.3c4.5,0,11.3,2.7,14.7,6.3l10.4-11c-13.1-12.7-28.1-13.9-39.6-7.4s-19.4,20.6-20.5,37.4
						c-1.5,23.1,15.7,41.8,36.9,41.8C430.9,178.9,438.2,174.1,445.2,168.2z M946.9,100.2h16.7v18h12.7V134l-12.7,0.1v19.1
						c0,5.8,2.8,15.1,9.5,18.7l-13.3,7.9c-7.4-6.1-12.8-14.2-12.8-25.8v-20h-12l-0.2-15.9L947,118L946.9,100.2L946.9,100.2z
						 M663,92.4c14.5-12.5,33.6-17.6,48.4-14.2c23.5,5.4,32.3,19.9,31.1,33.5c-1,11.1-8.5,21.6-20,26.1c14,5.9,23.4,14.3,24.4,27.1
						c1.1,13.9-4.8,31-28.8,39.7c-12.5,4.5-28.2,5.6-47.4,3.1l-1.2-25.1c11.5,2.3,20.7,3.2,28,2.9c24.7-1.2,31.6-24.8,11.7-31
						c-6.7-2.1-14.7-2.9-26.8-2.6l-0.3-23.4c7.8,0,17.5-0.5,23.7-2.7c12.8-4.5,13.8-20-1.1-23.7c-8.5-2.1-21.1-0.2-27.1,9.7
						L663,92.4z"/>
					<path class="st3" d="M570.5,87.5h17.8v88.7h-17.8V87.5z M769.5,99.7h2.5h14.4h24.9V116h-24.9v13.3h22.8v16.3h-22.8v31h-16.9
						V99.7z M901.5,116l-13.7,7.2c7,6,8.7,11.9,8.7,19.1v35l16.4-0.3l-0.2-26.8c-0.1-13.8,11-16.8,18.1-18.4l-3.7-16.3
						c-6.4,0.6-13.4,4.5-18.4,8.8L901.5,116z M464.7,114.4l-16.5,5.3l21.3,52.5l-14.3,28.4l14.4,6.8l39.8-87.4l-15.2-5.4l-15.3,41
						L464.7,114.4z M624.6,130.7c6.9,0,12.4,7.5,12.4,16.7s-5.6,16.7-12.4,16.7c-6.9,0-12.4-7.5-12.4-16.7
						C612.1,138.2,617.7,130.7,624.6,130.7z M624.6,115.2c16.4,0,29.7,14.4,29.7,32.2s-13.3,32.2-29.7,32.2s-29.7-14.4-29.7-32.2
						C594.8,129.7,608.1,115.2,624.6,115.2z M850.1,130.7c6.9,0,12.4,7.5,12.4,16.7s-5.6,16.7-12.4,16.7s-12.4-7.5-12.4-16.7
						C837.6,138.2,843.2,130.7,850.1,130.7z M850.1,115.2c16.4,0,29.7,14.4,29.7,32.2s-13.3,32.2-29.7,32.2s-29.7-14.4-29.7-32.2
						C820.3,129.7,833.6,115.2,850.1,115.2z M555.8,157.7l9.9,11.7c-8.3,10.2-26.3,13.5-39.6,4.3c-8.4-5.8-13.7-15.6-13.2-26.6
						c0.4-10.3,5.2-20.5,13-26.4c13.7-10.5,31.2-5.4,40.8,5.2L556,136c-12.8-14.4-26.6-2.4-26.4,10.1c0.1,8.5,2.6,16.3,13.1,17.3
						C548.2,163.9,553.2,161.4,555.8,157.7z M445.2,168.2l-10-13c-3.8,4.5-9.7,7.8-14.8,7.8c-10.8,0-18.3-12.3-17.8-25.9
						c0.4-13.6,7.1-25.3,17.9-25.3c4.5,0,11.3,2.7,14.7,6.3l10.4-11c-13.1-12.7-28.1-13.9-39.6-7.4s-19.4,20.6-20.5,37.4
						c-1.5,23.1,15.7,41.8,36.9,41.8C430.9,178.9,438.2,174.1,445.2,168.2z M946.9,100.2h16.7v18h12.7V134l-12.7,0.1v19.1
						c0,5.8,2.8,15.1,9.5,18.7l-13.3,7.9c-7.4-6.1-12.8-14.2-12.8-25.8v-20h-12l-0.2-15.9L947,118L946.9,100.2L946.9,100.2z
						 M663,92.4c14.5-12.5,33.6-17.6,48.4-14.2c23.5,5.4,32.3,19.9,31.1,33.5c-1,11.1-8.5,21.6-20,26.1c14,5.9,23.4,14.3,24.4,27.1
						c1.1,13.9-4.8,31-28.8,39.7c-12.5,4.5-28.2,5.6-47.4,3.1l-1.2-25.1c11.5,2.3,20.7,3.2,28,2.9c24.7-1.2,31.6-24.8,11.7-31
						c-6.7-2.1-14.7-2.9-26.8-2.6l-0.3-23.4c7.8,0,17.5-0.5,23.7-2.7c12.8-4.5,13.8-20-1.1-23.7c-8.5-2.1-21.1-0.2-27.1,9.7
						L663,92.4z"/>
					<path class="st3" d="M749.6,92.3v-9h3.1c1.1,0,1.8,0.1,2.3,0.2c0.5,0.2,0.8,0.5,1.1,0.9s0.4,0.9,0.4,1.3c0,0.7-0.2,1.2-0.7,1.7
						s-1.1,0.8-1.9,0.8c0.3,0.1,0.6,0.3,0.8,0.5c0.4,0.4,0.8,0.9,1.3,1.8l1.1,1.8h-1.8l-0.8-1.4c-0.6-1.1-1.1-1.8-1.5-2.1
						c-0.3-0.2-0.7-0.3-1.2-0.3H751v3.8C751,92.3,749.6,92.3,749.6,92.3z M751,87.2h1.8c0.8,0,1.4-0.1,1.7-0.4
						c0.3-0.2,0.5-0.6,0.5-1c0-0.3-0.1-0.5-0.2-0.7c-0.1-0.2-0.3-0.4-0.6-0.5s-0.7-0.2-1.5-0.2H751V87.2z M753.2,80.7
						c-1.2,0-2.3,0.3-3.4,0.9c-1.1,0.6-2,1.5-2.6,2.6s-0.9,2.3-0.9,3.5s0.3,2.3,0.9,3.4c0.6,1.1,1.5,2,2.6,2.6s2.3,0.9,3.5,0.9
						s2.4-0.3,3.5-0.9s2-1.5,2.6-2.6s0.9-2.2,0.9-3.4c0-1.2-0.3-2.4-0.9-3.5c-0.6-1.1-1.5-2-2.6-2.6C755.5,81,754.4,80.7,753.2,80.7
						z M753.2,79.3c1.4,0,2.8,0.4,4.1,1.1s2.4,1.7,3.1,3.1c0.7,1.3,1.1,2.7,1.1,4.2c0,1.4-0.4,2.8-1.1,4.1c-0.7,1.3-1.8,2.4-3.1,3.1
						s-2.7,1.1-4.1,1.1c-1.4,0-2.8-0.4-4.1-1.1s-2.4-1.8-3.1-3.1c-0.7-1.3-1.1-2.7-1.1-4.1c0-1.5,0.4-2.8,1.1-4.2
						c0.7-1.3,1.8-2.4,3.1-3.1C750.4,79.7,751.8,79.3,753.2,79.3z"/>
					<path class="st4" d="M424.8,741.3h-62.9v-16.6c14.1-14.8,24.4-27.1,30.8-36.8c7-10.5,10.5-19.6,10.5-27.1
						c0-5.1-1.5-9.1-4.4-12.2c-2.9-3.1-6.8-4.6-11.8-4.6c-6.9,0-14,2.6-21.3,7.7l-1.8-17.3c8.1-4.6,16.9-6.9,26.5-6.9
						c9.7,0,17.5,2.8,23.3,8.5c5.9,5.6,8.8,13,8.8,22c0,17.6-13.1,40.1-39.2,67.4h41.5V741.3z"/>
					<rect x="442.9" y="690.9" class="st4" width="36.8" height="15.5"/>
					<path class="st4" d="M556.6,709.2c0,10.1-3.5,18.3-10.4,24.5s-16.1,9.4-27.5,9.4c-9.9,0-18.7-1.5-26.5-4.5l1.1-16.8
						c7.4,3.5,14.8,5.3,22.1,5.3c13.6,0,20.3-6.3,20.3-19c0-11.4-7.4-17.1-22.3-17.1c-2.3,0-4.7,0.1-7.3,0.3v-15.5
						c1.5,0.1,3.8,0.2,6.8,0.2c14.8,0,22.3-5.5,22.3-16.6c0-10.9-5.8-16.3-17.4-16.3c-7.1,0-14.3,2-21.5,6.1l-1.5-16.3
						c9.3-3.5,18.1-5.3,26.5-5.3c10.5,0,18.8,2.7,24.8,8.1c6,5.4,9,12.5,9,21.5c0,6.5-1.9,11.9-5.7,16.5c-3.8,4.5-9.2,7.6-16.1,9.2
						c7.2,1.1,12.9,3.9,16.9,8.6C554.6,695.9,556.6,701.8,556.6,709.2"/>
					<polygon class="st4" points="138.4,855.4 124.4,855.4 107.6,829.3 107.6,855.4 95.1,855.4 95.1,777.2 107.6,777.2 107.6,823.3 
						123.6,801.7 136.8,801.7 118.5,825.9 					"/>
					<path class="st4" d="M169.4,833v-3.5c-2.5-0.2-4-0.3-4.5-0.3c-9.3,0-13.9,3.3-13.9,9.9c0,5.4,2.7,8.2,8.1,8.2
						C166,847.3,169.4,842.6,169.4,833 M182.3,855.4h-11.7l-0.7-6.7c-3.8,5.2-8.9,7.8-15.2,7.8c-4.7,0-8.4-1.5-11.3-4.5
						c-2.9-3-4.3-7-4.3-11.9c0-12.1,8.4-18.2,25.2-18.2c1.8,0,3.5,0,5.1,0.1v-2.3c0-6.7-3.6-10-10.7-10c-5.2,0-9.7,1.7-13.6,5.1
						l-0.8-10.1c5.8-2.7,11.5-4.1,17-4.1c7.9,0,13.4,1.8,16.4,5.5c2.8,3.4,4.2,9.2,4.2,17.5v21.1C182,849.4,182.1,852.9,182.3,855.4
						z"/>
					<path class="st4" d="M226.4,828.5c0-12.1-3.2-18.2-9.5-18.2s-9.5,5.1-9.5,15.4v5.5c0,10.3,3.2,15.5,9.5,15.5
						C223.3,846.7,226.4,840.6,226.4,828.5 M239.7,828.5c0,18.7-6.3,28-18.8,28c-5.9,0-10.4-2.8-13.5-8.4v30h-12.5v-62.5
						c0-0.3,0-1.8-0.1-4.4c-0.1-3.4-0.2-6.6-0.3-9.5h11.9c0.3,3.3,0.4,6,0.4,8.1c3.3-6.1,8.1-9.2,14.2-9.2
						C233.5,800.6,239.7,809.9,239.7,828.5z"/>
					<path class="st4" d="M281.9,839.7c0,5-1.8,9.1-5.3,12.2c-3.6,3.1-8.4,4.7-14.4,4.7c-4.8,0-9.6-0.9-14.3-2.6l0.4-11
						c4.6,2.7,9.3,4.1,14,4.1c5.6,0,8.5-1.9,8.5-5.8c0-1.6-0.7-2.9-2.2-4c-0.8-0.6-2.8-1.7-6.2-3.2c-5-2.4-8.6-4.7-10.7-6.9
						c-2.4-2.6-3.6-5.9-3.6-9.9c0-4.9,1.7-8.9,5-11.9c3.3-3.1,7.7-4.6,13-4.6c4.6,0,8.9,0.7,12.9,2l-0.4,10.1
						c-3.6-1.7-7.3-2.6-11.1-2.6c-5.2,0-7.8,1.8-7.8,5.3c0,1.8,0.7,3.3,2.1,4.4c1,0.8,3.1,2,6.5,3.6c4.9,2.3,8.2,4.4,10,6.3
						C280.6,832.2,281.9,835.5,281.9,839.7"/>
					<path class="st4" d="M333.5,855.4h-11.4c-0.3-2.6-0.4-5.2-0.4-7.9c-2.8,6.1-7.7,9.1-14.6,9.1c-10,0-15.1-5.9-15.1-17.8v-37
						h12.5v34.5c0,6.4,2.3,9.6,7,9.6c6,0,9-4.3,9-13v-31.2H333v41.2C333.1,848.3,333.2,852.5,333.5,855.4"/>
					<polygon class="st4" points="366.1,803.1 358.9,808.3 358.9,855.4 347.4,855.4 347.4,814.5 340.4,819.6 340.4,809.6 
						347.4,804.4 347.4,777.2 358.9,777.2 358.9,798.2 366.1,793.1 					"/>
					<polygon class="st4" points="416.6,855.4 402.5,855.4 385.8,829.3 385.8,855.4 373.3,855.4 373.3,777.2 385.8,777.2 
						385.8,823.3 401.8,801.7 415,801.7 396.7,825.9 					"/>
					<path class="st4" d="M434,855.4h-12.5v-53.6H434V855.4z M434.3,791.5h-13.1v-12.2h13.1V791.5z"/>
					<path class="st4" d="M503.7,831.3v-5.4c0-5-0.9-8.9-2.6-11.5s-4.1-4-7.1-4c-6.3,0-9.5,6.1-9.5,18.2c0,12.1,3.2,18.2,9.5,18.2
						c3,0,5.4-1.3,7.1-4C502.8,840.2,503.7,836.3,503.7,831.3 M516.2,855.4h-11.6c-0.3-3.2-0.4-5.9-0.4-8.1
						c-3.3,6.1-8.1,9.2-14.2,9.2c-5.9,0-10.5-2.4-13.8-7.1c-3.2-4.7-4.9-11.6-4.9-20.7c0-18.8,6.2-28.1,18.7-28.1
						c5.8,0,10.3,2.8,13.6,8.4v-31.8h12.5L516.2,855.4L516.2,855.4z"/>
					<polygon class="st4" points="561.5,855.4 525.9,855.4 525.9,844 548,811.5 526.5,811.5 526.5,801.7 561.4,801.7 561.4,812.8 
						539.1,845.7 561.5,845.7 					"/>
					<path class="st4" d="M584.3,855.4h-12.5v-53.6h12.5V855.4z M584.6,791.5h-13.1v-12.2h13.1V791.5z"/>
					<path class="st4" d="M625.8,824.3v-0.9c0-9.2-2.9-13.8-8.7-13.8c-5.9,0-9.2,4.9-9.8,14.7H625.8z M637.6,827.5
						c0,1.3,0,2.8-0.1,4.5h-30c0.6,10.1,5.3,15.2,14.1,15.2c4.5,0,8.8-1.3,13.1-3.9v9.7c-4.6,2.3-9.6,3.5-15,3.5
						c-7.9,0-14.1-2.4-18.4-7.2c-4.3-4.8-6.5-11.6-6.5-20.5c0-8.6,2-15.5,6-20.6s9.5-7.6,16.5-7.6c6,0,10.9,2.4,14.6,7.2
						C635.8,812.6,637.6,819.2,637.6,827.5z"/>
					<path class="st4" d="M689.5,855.4H677v-34.5c0-6.4-2.4-9.6-7.3-9.6c-2.6,0-4.7,1.1-6.3,3.3s-2.4,5.3-2.4,9.3v31.6h-12.5v-41.2
						c0-4.6-0.2-8.7-0.5-12.4h11.4c0.3,4.5,0.5,7.2,0.5,7.9c2.8-6.1,7.7-9.1,14.6-9.1c10,0,15.1,5.9,15.1,17.8L689.5,855.4
						L689.5,855.4z"/>
					<path class="st4" d="M743.8,855.4h-12.5v-34.5c0-6.4-2.4-9.6-7.3-9.6c-2.6,0-4.7,1.1-6.3,3.3s-2.4,5.3-2.4,9.3v31.6h-12.5
						v-41.2c0-4.6-0.2-8.7-0.5-12.4h11.4c0.3,4.5,0.5,7.2,0.5,7.9c2.8-6.1,7.7-9.1,14.6-9.1c10,0,15.1,5.9,15.1,17.8L743.8,855.4
						L743.8,855.4z"/>
					<path class="st4" d="M769.3,855.4h-12.5v-53.6h12.5V855.4z M769.6,791.5h-13.1v-12.2h13.1V791.5z"/>
					<path class="st4" d="M810.8,824.3v-0.9c0-9.2-2.9-13.8-8.7-13.8c-5.9,0-9.2,4.9-9.8,14.7H810.8z M822.6,827.5
						c0,1.3,0,2.8-0.1,4.5h-30c0.6,10.1,5.3,15.2,14.1,15.2c4.5,0,8.8-1.3,13.1-3.9v9.7c-4.6,2.3-9.6,3.5-15,3.5
						c-7.9,0-14.1-2.4-18.4-7.2c-4.3-4.8-6.5-11.6-6.5-20.5c0-8.6,2-15.5,6-20.6s9.5-7.6,16.5-7.6c6,0,10.9,2.4,14.6,7.2
						C820.8,812.6,822.6,819.2,822.6,827.5z"/>
				</g>
			</g>
		</g>
		<g id="Warstwa_4">
		</g>
	</g>
	<g>
		<path class="st5" d="M334,272.2c0,0-25.8,0-25.8,25.8v139.3c0,0,0,25.8,25.8,25.8h686.3c0,0,25.8,0,25.8-25.8V298
			c0,0,0-25.8-25.8-25.8L334,272.2L334,272.2z"/>
		<path class="st6" d="M525.7,321.1c0-3.2-0.4-5.6-1.3-7.3c-0.9-1.7-2.1-2.5-3.7-2.5c-1.6,0-2.8,0.8-3.7,2.5s-1.3,4.1-1.3,7.3
			c0,3.2,0.4,5.6,1.3,7.3c0.9,1.7,2.1,2.5,3.7,2.5c1.6,0,2.8-0.8,3.7-2.5C525.3,326.7,525.7,324.3,525.7,321.1 M532.6,321.1
			c0,4.6-1.1,8.2-3.2,10.8c-2.1,2.5-5.1,3.8-8.8,3.8s-6.7-1.3-8.8-3.8c-2.1-2.5-3.2-6.1-3.2-10.8c0-4.6,1.1-8.2,3.2-10.8
			c2.1-2.5,5.1-3.8,8.8-3.8s6.6,1.3,8.8,3.8C531.5,312.9,532.6,316.5,532.6,321.1z"/>
		<path class="st6" d="M549.2,326.8c0-1.4-0.4-2.3-1.1-2.9c-0.7-0.6-1.9-0.9-3.4-0.9h-1.6v7.5h1.6
			C547.7,330.5,549.2,329.3,549.2,326.8 M548.6,315.2c0-1.3-0.3-2.2-1-2.7s-1.7-0.8-3.2-0.8h-1.3v6.9h1.5
			C547.3,318.6,548.6,317.5,548.6,315.2z M555.5,327.6c0,5.1-3.4,7.7-10.2,7.7h-8.4v-28.2h8.7c6.2,0,9.3,2.4,9.3,7.2
			c0,3.6-1.7,5.7-5.1,6.4C553.6,321.2,555.5,323.6,555.5,327.6z"/>
		<path class="st6" d="M569.7,324.8c0,3.8-0.6,6.5-1.7,8.2c-1.2,1.8-3.3,2.7-6.3,2.7c-1.4,0-2.8-0.3-4.3-0.8l0.3-5.2
			c0.8,0.3,1.5,0.4,2.1,0.4c2.3,0,3.4-1.3,3.4-3.9V307h6.5V324.8z"/>
		<path class="st6" d="M587.8,324.1l-3-11.5l-3.4,11.5H587.8z M597.4,335.2h-6.7l-1.6-6.3H580l-1.7,6.3H572l9.2-28.2h7.5
			L597.4,335.2z"/>
		<polygon class="st6" points="631.2,307 625.9,335.2 618.3,335.2 614.5,312.6 611.1,335.2 603.4,335.2 597.7,307 603.9,307 
			607.6,328.5 610.8,307 618.5,307 622,328.5 625.6,307 		"/>
		<polygon class="st6" points="654.3,307 645.9,324.6 645.9,335.2 639.4,335.2 639.4,324.3 631,307 638.4,307 642.8,318.8 
			647.3,307 		"/>
		<polygon class="st6" points="683.5,335.2 665.2,335.2 665.2,329.6 676,312.1 665.5,312.1 665.5,307 683.2,307 683.2,312.3 
			672.2,330.2 683.5,330.2 		"/>
		<polygon class="st6" points="718.8,307 713.5,335.2 705.9,335.2 702.1,312.6 698.6,335.2 691,335.2 685.3,307 691.4,307 
			695.2,328.5 698.4,307 706,307 709.6,328.5 713.1,307 		"/>
		<rect x="722.4" y="307" class="st6" width="6.5" height="28.2"/>
		<path class="st6" d="M747.1,324.1l-3-11.5l-3.4,11.5H747.1z M757.5,343.3c-1.2,0.5-2.3,0.7-3.4,0.7c-1.4,0-2.5-0.3-3.4-1
			s-1.4-1.8-1.4-3.2c0-1.8,1.2-3.3,3.5-4.6H750l-1.6-6.3h-9.1l-1.7,6.3h-6.3l9.2-28.2h7.5l8.7,28.2c-0.9,0-1.6,0.3-2.1,0.8
			s-0.8,1.1-0.8,1.9c0,1.6,0.7,2.4,2,2.4c0.6,0,1.1-0.1,1.7-0.4L757.5,343.3L757.5,343.3z"/>
		<polygon class="st6" points="775.9,335.2 757.6,335.2 757.6,329.6 768.4,312.1 758,312.1 758,307 775.6,307 775.6,312.3 
			764.6,330.2 775.9,330.2 		"/>
		<path class="st6" d="M792.5,324.1l-3-11.5l-3.4,11.5H792.5z M802.1,335.2h-6.7l-1.6-6.3h-9.1l-1.7,6.3h-6.3l9.2-28.2h7.5
			L802.1,335.2z"/>
		<polygon class="st6" points="826.1,335.2 818.6,335.2 810.1,314.6 810.1,335.2 804.6,335.2 804.6,307 812,307 820.5,327.6 
			820.5,307 826.1,307 		"/>
		<polygon class="st6" points="848.2,335.2 831.6,335.2 831.6,307 847.7,307 847.7,311.7 838.1,311.7 838.1,318.5 847.2,318.5 
			847.2,323.2 838.1,323.2 838.1,330.5 848.2,330.5 		"/>
		<polygon class="st6" points="360.3,382.5 342,382.5 342,376.9 352.8,359.3 342.3,359.3 342.3,354.2 359.9,354.2 359.9,359.5 
			349,377.4 360.3,377.4 		"/>
		<polygon class="st6" points="396.4,382.5 389,382.5 380.4,361.9 380.4,382.5 374.9,382.5 374.9,354.2 382.4,354.2 390.9,374.8 
			390.9,354.2 396.4,354.2 		"/>
		<rect x="402" y="354.2" class="st6" width="6.5" height="28.2"/>
		<polygon class="st6" points="430.6,382.5 414.1,382.5 414.1,354.2 430.1,354.2 430.1,359 420.5,359 420.5,365.7 429.6,365.7 
			429.6,370.4 420.5,370.4 420.5,377.7 430.6,377.7 		"/>
		<polygon class="st6" points="466.6,354.2 461.2,382.5 453.6,382.5 449.8,359.9 446.4,382.5 438.7,382.5 433,354.2 439.2,354.2 
			442.9,375.7 446.1,354.2 453.8,354.2 457.3,375.7 460.9,354.2 		"/>
		<polygon class="st6" points="489.6,354.2 481.2,371.8 481.2,382.5 474.7,382.5 474.7,371.6 466.3,354.2 473.7,354.2 478.2,366.1 
			482.7,354.2 		"/>
		<path class="st6" d="M506.8,368.4c0-6.3-2.7-9.4-8.1-9.4h-0.9v18.8h0.9C504.1,377.7,506.8,374.6,506.8,368.4 M513.6,368.4
			c0,4.6-1.3,8.1-3.8,10.5c-2.6,2.4-6.3,3.6-11.2,3.6h-7.2v-28.2h7.2c5.1,0,8.9,1.1,11.4,3.4C512.4,359.9,513.6,363.5,513.6,368.4z"
			/>
		<path class="st6" d="M534,368.4c0-3.2-0.4-5.6-1.3-7.3c-0.9-1.7-2.1-2.5-3.7-2.5c-1.6,0-2.8,0.8-3.7,2.5s-1.3,4.1-1.3,7.3
			c0,3.2,0.4,5.6,1.3,7.3c0.9,1.7,2.1,2.5,3.7,2.5c1.6,0,2.8-0.8,3.7-2.5C533.6,374,534,371.5,534,368.4 M540.9,368.4
			c0,4.6-1.1,8.2-3.2,10.8c-2.1,2.5-5.1,3.8-8.8,3.8s-6.7-1.3-8.8-3.8s-3.2-6.1-3.2-10.8c0-4.6,1.1-8.2,3.2-10.8
			c2.1-2.5,5.1-3.8,8.8-3.8s6.6,1.3,8.8,3.8C539.8,360.1,540.9,363.7,540.9,368.4z"/>
		<polygon class="st6" points="560.9,382.5 545.2,382.5 545.2,354.2 551.7,354.2 551.7,377.4 560.9,377.4 		"/>
		<polygon class="st6" points="585.5,382.5 578.1,382.5 569.5,361.9 569.5,382.5 564,382.5 564,354.2 571.5,354.2 580,374.8 
			580,354.2 585.5,354.2 		"/>
		<path class="st6" d="M606.8,368.4c0-3.2-0.4-5.6-1.3-7.3c-0.9-1.7-2.1-2.5-3.7-2.5c-1.6,0-2.8,0.8-3.7,2.5s-1.3,4.1-1.3,7.3
			c0,3.2,0.4,5.6,1.3,7.3c0.9,1.7,2.1,2.5,3.7,2.5c1.6,0,2.8-0.8,3.7-2.5C606.4,374,606.8,371.5,606.8,368.4 M613.7,368.4
			c0,4.6-1.1,8.2-3.2,10.8c-2.1,2.5-5.1,3.8-8.8,3.8s-6.7-1.3-8.8-3.8s-3.2-6.1-3.2-10.8c0-4.6,1.1-8.2,3.2-10.8
			c2.1-2.5,5.1-3.8,8.8-3.8s6.6,1.3,8.8,3.8C612.6,360.1,613.7,363.7,613.7,368.4z"/>
		<path class="st6" d="M634.5,374.1c0,2.7-0.9,4.8-2.6,6.4c-1.8,1.6-4.2,2.4-7.4,2.4c-2.1,0-4.5-0.4-7.2-1.2l0.5-5.1
			c2.4,1.1,4.5,1.7,6.4,1.7c2.7,0,4.1-1.1,4.1-3.3c0-1.1-0.4-2-1.3-2.6c-0.5-0.4-1.8-1.1-4.1-2.3c-2.1-1.1-3.5-2.1-4.4-3
			c-1.1-1.2-1.6-2.8-1.6-4.8c0-2.6,0.9-4.7,2.6-6.2c1.7-1.5,4.2-2.3,7.2-2.3c1.9,0,3.9,0.3,6.1,0.9l-0.4,5.1c-2-0.9-3.9-1.3-5.5-1.3
			c-2.6,0-3.9,1-3.9,2.9c0,0.9,0.3,1.7,1,2.3c0.6,0.5,1.7,1.2,3.3,2c2.5,1.2,4.3,2.3,5.2,3.3C633.8,370.2,634.5,371.9,634.5,374.1
			 M631.7,344.9l-4.2,6.5h-4.1l2.2-6.5H631.7z"/>
		<path class="st6" d="M657.5,381.8c-2,0.8-4.2,1.2-6.6,1.2c-4.1,0-7.4-1.3-9.8-3.9c-2.4-2.6-3.6-6.2-3.6-10.7c0-4.4,1.2-8,3.6-10.6
			c2.4-2.6,5.6-3.9,9.6-3.9c2.2,0,4.4,0.4,6.7,1.3l-0.3,5.3c-1.6-1-3.4-1.5-5.4-1.5c-2.3,0-4.1,0.8-5.4,2.4c-1.3,1.6-1.9,4-1.9,7
			c0,3.1,0.7,5.5,2,7.1c1.3,1.7,3.2,2.5,5.6,2.5c1.8,0,3.5-0.5,5.3-1.6L657.5,381.8z"/>
		<rect x="661.3" y="354.2" class="st6" width="6.5" height="28.2"/>
		<path class="st6" d="M686,371.3l-3-11.5l-3.4,11.5H686z M696.4,390.5c-1.2,0.5-2.3,0.7-3.4,0.7c-1.4,0-2.5-0.3-3.4-1
			s-1.4-1.8-1.4-3.2c0-1.8,1.2-3.3,3.5-4.6h-2.8l-1.6-6.3h-9.1l-1.7,6.3h-6.3l9.2-28.2h7.5l8.7,28.2c-0.9,0-1.6,0.3-2.1,0.8
			s-0.8,1.1-0.8,1.9c0,1.6,0.7,2.4,2,2.4c0.6,0,1.1-0.1,1.7-0.4L696.4,390.5L696.4,390.5z"/>
		<polygon class="st6" points="730.3,382.5 722.9,382.5 714.3,361.9 714.3,382.5 708.8,382.5 708.8,354.2 716.3,354.2 724.8,374.8 
			724.8,354.2 730.3,354.2 		"/>
		<path class="st6" d="M748.5,371.3l-3-11.5l-3.4,11.5H748.5z M758.1,382.5h-6.7l-1.6-6.3h-9.1l-1.7,6.3h-6.3l9.2-28.2h7.5
			L758.1,382.5z"/>
		<path class="st6" d="M779.4,381.8c-2,0.8-4.2,1.2-6.6,1.2c-4.1,0-7.4-1.3-9.8-3.9c-2.4-2.6-3.6-6.2-3.6-10.7c0-4.4,1.2-8,3.6-10.6
			c2.4-2.6,5.6-3.9,9.6-3.9c2.2,0,4.4,0.4,6.7,1.3l-0.3,5.3c-1.6-1-3.4-1.5-5.4-1.5c-2.3,0-4.1,0.8-5.4,2.4c-1.3,1.6-1.9,4-1.9,7
			c0,3.1,0.7,5.5,2,7.1c1.3,1.7,3.2,2.5,5.6,2.5c1.8,0,3.5-0.5,5.3-1.6L779.4,381.8z"/>
		<polygon class="st6" points="800,382.5 781.7,382.5 781.7,376.9 792.5,359.3 782,359.3 782,354.2 799.7,354.2 799.7,359.5 
			788.7,377.4 800,377.4 		"/>
		<polygon class="st6" points="823.4,354.2 815,371.8 815,382.5 808.5,382.5 808.5,371.6 800.1,354.2 807.5,354.2 811.9,366.1 
			816.5,354.2 		"/>
		<path class="st6" d="M846.7,382.5h-7.4l-8.5-20.6v20.6h-5.5v-28.2h7.4l8.5,20.6v-20.6h5.5V382.5z M842.1,344.9l-4.2,6.5h-4.1
			l2.2-6.5H842.1z"/>
		<path class="st6" d="M879.7,382.5h-18.3v-5.6l10.8-17.6h-10.5v-5h17.7v5.3l-11,17.9h11.3V382.5z M873.7,350.4h-6.3v-5.5h6.3V350.4
			z"/>
		<polygon class="st6" points="903.1,354.2 894.7,371.8 894.7,382.5 888.2,382.5 888.2,371.6 879.8,354.2 887.2,354.2 891.7,366.1 
			896.2,354.2 		"/>
		<polygon class="st6" points="920.6,382.5 904.9,382.5 904.9,354.2 911.4,354.2 911.4,377.4 920.6,377.4 		"/>
		<polygon class="st6" points="945.2,382.5 937.7,382.5 929.2,361.9 929.2,382.5 923.7,382.5 923.7,354.2 931.1,354.2 939.6,374.8 
			939.6,354.2 945.2,354.2 		"/>
		<polygon class="st6" points="970.2,354.2 961.8,371.8 961.8,382.5 955.3,382.5 955.3,371.6 946.9,354.2 954.3,354.2 958.8,366.1 
			963.3,354.2 		"/>
		<path class="st6" d="M990,381.8c-2,0.8-4.2,1.2-6.6,1.2c-4.1,0-7.4-1.3-9.8-3.9c-2.4-2.6-3.6-6.2-3.6-10.7c0-4.4,1.2-8,3.6-10.6
			c2.4-2.6,5.6-3.9,9.6-3.9c2.2,0,4.4,0.4,6.7,1.3l-0.3,5.3c-1.6-1-3.4-1.5-5.4-1.5c-2.3,0-4.1,0.8-5.4,2.4c-1.3,1.6-1.9,4-1.9,7
			c0,3.1,0.7,5.5,2,7.1c1.3,1.7,3.2,2.5,5.6,2.5c1.8,0,3.5-0.5,5.3-1.6L990,381.8z"/>
		<polygon class="st6" points="1013.7,382.5 1007.2,382.5 1007.2,370.5 1000.3,370.5 1000.3,382.5 993.8,382.5 993.8,354.2 
			1000.3,354.2 1000.3,365.4 1007.2,365.4 1007.2,354.2 1013.7,354.2 		"/>
		<path class="st6" d="M510.6,429.7h-16.9v-5.1c3.5-3.4,6-6.2,7.6-8.5c1.7-2.4,2.6-4.5,2.6-6.3c0-1.1-0.3-2-1-2.7s-1.6-1-2.8-1
			c-1.7,0-3.6,0.6-5.5,1.9l-0.4-5.3c2.3-1.1,4.7-1.7,7.2-1.7c2.7,0,4.8,0.7,6.4,2.1s2.4,3.3,2.4,5.7c0,4.4-3.2,9.8-9.6,16.1h10.1
			v4.8H510.6z"/>
		<rect x="514.7" y="416.5" class="st6" width="9.9" height="4.7"/>
		<path class="st6" d="M544.8,421.7c0,2.6-0.9,4.6-2.7,6.2c-1.8,1.5-4.3,2.3-7.4,2.3c-2.8,0-5.2-0.4-7.2-1.2l0.3-5
			c1.8,0.9,3.7,1.4,5.7,1.4c3.2,0,4.8-1.3,4.8-4c0-2.6-1.8-3.9-5.5-3.9h-0.4c-0.1,0-0.4,0-1.1,0.1v-4.8c0.1,0,0.3,0,0.4,0
			c0.2,0,0.4,0,0.4,0c2.1,0,3.6-0.2,4.5-0.7c1-0.5,1.5-1.5,1.5-2.9c0-2.4-1.5-3.6-4.4-3.6c-1.7,0-3.5,0.5-5.2,1.5l-0.4-4.9
			c2.2-0.9,4.7-1.3,7.5-1.3s5,0.6,6.5,1.9c1.5,1.2,2.3,3,2.3,5.4c0,1.7-0.5,3.2-1.5,4.4c-1,1.2-2.4,2-4.2,2.3
			C542.8,415.5,544.8,417.8,544.8,421.7"/>
		<polygon class="st6" points="579,429.7 572.1,429.7 566.7,419.8 566.7,429.7 560.5,429.7 560.5,399.2 566.7,399.2 566.7,417.2 
			572.1,408.6 578.4,408.6 572,418.3 		"/>
		<path class="st6" d="M591.9,421v-1.2c-0.5-0.1-1.1-0.1-1.8-0.1c-3,0-4.5,1.1-4.5,3.3c0,1.9,0.9,2.8,2.8,2.8
			C590.7,425.9,591.9,424.3,591.9,421 M598.2,429.7h-5.8l-0.2-2.7c-1.6,2.1-3.7,3.2-6.2,3.2c-1.8,0-3.3-0.6-4.4-1.8
			c-1.1-1.2-1.7-2.7-1.7-4.7c0-2.3,0.9-4.1,2.6-5.4c1.7-1.3,4.2-1.9,7.4-1.9h2.1v-0.6c0-2.3-1.4-3.4-4.1-3.4c-2,0-3.8,0.7-5.5,2
			l-0.3-4.7c2.6-1,5-1.5,7.3-1.5c3.4,0,5.7,0.7,6.9,2.2c1.1,1.4,1.7,3.8,1.7,7.2v7.8C597.9,427.1,598,428.6,598.2,429.7z"/>
		<path class="st6" d="M615.3,419.2c0-4.2-1.1-6.3-3.2-6.3c-2.1,0-3.2,1.8-3.2,5.4v1.9c0,3.6,1.1,5.4,3.2,5.4
			C614.2,425.5,615.3,423.4,615.3,419.2 M621.8,419.2c0,7.3-2.5,11-7.5,11c-2.3,0-4-1.1-5.4-3.3v11.8h-6.2v-24.5
			c0-0.1-0.1-1.9-0.2-5.5h6c0.1,0.7,0.1,1.7,0.2,3.3c1.3-2.5,3.2-3.7,5.7-3.7c2.4,0,4.2,0.9,5.5,2.8
			C621.1,412.9,621.8,415.6,621.8,419.2z"/>
		<path class="st6" d="M639.2,423.4c0,2.1-0.7,3.8-2.2,5s-3.6,1.8-6.4,1.8c-1.7,0-3.6-0.3-5.7-1v-5c1.9,1.2,3.8,1.7,5.7,1.7
			c2.1,0,3.1-0.7,3.1-2.1c0-0.6-0.3-1.1-1-1.5c-0.2-0.1-1.1-0.5-2.8-1.2c-1.8-0.7-3.2-1.5-4-2.4s-1.2-2.1-1.2-3.6
			c0-2.2,0.7-3.9,2.1-5.1c1.4-1.2,3.3-1.9,5.8-1.9c1.8,0,3.7,0.3,5.5,0.9l-0.1,4.6c-1.6-0.8-3.2-1.3-4.7-1.3c-1.9,0-2.8,0.7-2.8,2
			c0,0.6,0.2,1,0.7,1.3c0.3,0.2,1.1,0.6,2.3,1.1c2.2,0.9,3.6,1.6,4.3,2.3C638.7,420.1,639.2,421.5,639.2,423.4"/>
		<path class="st6" d="M660.6,429.7H655c-0.1-1.2-0.2-2.2-0.2-3.2c-1,2.4-3,3.6-5.9,3.6c-4,0-6-2.4-6-7.1v-14.4h6.2v13
			c0,2.2,0.8,3.3,2.4,3.3c1.9,0,2.8-1.5,2.8-4.4v-12h6.2v16.6C660.4,427.2,660.5,428.7,660.6,429.7"/>
		<polygon class="st6" points="674.3,409.9 671.6,411.8 671.6,429.7 665.8,429.7 665.8,414.9 663.1,416.7 663.1,411.8 665.8,409.9 
			665.8,399.2 671.6,399.2 671.6,406.8 674.3,405 		"/>
		<polygon class="st6" points="695.4,429.7 688.6,429.7 683.1,419.8 683.1,429.7 677,429.7 677,399.2 683.1,399.2 683.1,417.2 
			688.6,408.6 694.8,408.6 688.5,418.3 		"/>
		<path class="st6" d="M703.2,429.7h-6.1v-21.1h6.1V429.7z M703.3,405.1H697v-5.5h6.3V405.1z"/>
		<path class="st6" d="M730.7,420.2v-1.9c0-3.6-1.1-5.4-3.2-5.4c-2.1,0-3.2,2.1-3.2,6.3c0,4.2,1.1,6.3,3.2,6.3
			C729.6,425.5,730.7,423.7,730.7,420.2 M736.9,429.7h-5.8c-0.1-0.9-0.1-2-0.1-3.3c-1.3,2.5-3.2,3.7-5.7,3.7c-2.4,0-4.2-0.9-5.5-2.8
			s-1.9-4.6-1.9-8.2c0-7.3,2.5-11,7.5-11c2.2,0,4,1.1,5.4,3.4v-12.3h6.2v30.5L736.9,429.7L736.9,429.7z"/>
		<polygon class="st6" points="755.2,429.7 740.6,429.7 740.6,424.3 748.6,413.4 740.7,413.4 740.7,408.6 755.2,408.6 755.2,413.9 
			747.1,425 755.2,425 		"/>
		<path class="st6" d="M765.3,429.7h-6.1v-21.1h6.1V429.7z M765.3,405.1H759v-5.5h6.3V405.1z"/>
		<path class="st6" d="M781.5,416.5c0-2.7-1-4.1-3-4.1c-2.1,0-3.2,1.7-3.4,5h6.3c0-0.2,0-0.4,0-0.6
			C781.5,416.6,781.5,416.5,781.5,416.5 M787.2,419.5c0,0.6,0,1.1,0,1.4h-11.9c0.3,3.3,2,5,5.1,5c1.8,0,3.7-0.5,5.5-1.6l0.2,4.5
			c-2.1,0.9-4.3,1.4-6.6,1.4c-3.3,0-5.9-0.9-7.7-2.8s-2.7-4.6-2.7-8c0-3.3,0.8-6,2.5-8.1c1.7-2,3.8-3.1,6.5-3.1c2.9,0,5.1,1,6.7,2.9
			C786.4,413.1,787.2,415.9,787.2,419.5z"/>
		<path class="st6" d="M808.7,429.7h-6.2v-13c0-2.2-0.8-3.3-2.4-3.3c-1.9,0-2.8,1.5-2.8,4.4v12h-6.2v-16.5c0-2-0.1-3.5-0.2-4.6h5.7
			c0.1,1.2,0.2,2.3,0.2,3.2c1-2.4,3-3.7,5.9-3.7c4,0,6,2.4,6,7.1V429.7z"/>
		<path class="st6" d="M831,429.7h-6.2v-13c0-2.2-0.8-3.3-2.4-3.3c-1.9,0-2.8,1.5-2.8,4.4v12h-6.2v-16.5c0-2-0.1-3.5-0.2-4.6h5.7
			c0.1,1.2,0.2,2.3,0.2,3.2c1-2.4,3-3.7,5.9-3.7c4,0,6,2.4,6,7.1V429.7z"/>
		<path class="st6" d="M841.9,429.7h-6.1v-21.1h6.1V429.7z M842,405.1h-6.3v-5.5h6.3V405.1z"/>
		<path class="st6" d="M858.2,416.5c0-2.7-1-4.1-3-4.1c-2.1,0-3.2,1.7-3.4,5h6.3c0-0.2,0-0.4,0-0.6
			C858.2,416.6,858.2,416.5,858.2,416.5 M863.9,419.5c0,0.6,0,1.1,0,1.4H852c0.3,3.3,2,5,5.1,5c1.8,0,3.7-0.5,5.5-1.6l0.2,4.5
			c-2.1,0.9-4.3,1.4-6.6,1.4c-3.3,0-5.9-0.9-7.7-2.8s-2.7-4.6-2.7-8c0-3.3,0.8-6,2.5-8.1c1.7-2,3.8-3.1,6.5-3.1c2.9,0,5.1,1,6.7,2.9
			C863.1,413.1,863.9,415.9,863.9,419.5z"/>
		<path class="st7" d="M331.5,494.4c0,0-26,0-26,26v140.2c0,0,0,26,26,26h690.8c0,0,26,0,26-26V520.4c0,0,0-26-26-26H331.5z"/>
		<path class="st6" d="M446.9,536.3c0-1.6-0.3-2.6-1-3.3s-1.7-0.9-3.2-0.9h-1.4v8.5h1.5c1.4,0,2.5-0.3,3.1-1
			C446.6,539,446.9,537.9,446.9,536.3 M453.2,536.5c0,6-3.5,8.9-10.4,8.9h-1.6v10.4h-6.5v-28.4h7.1c3.5,0,5.9,0.4,7.3,1.2
			C451.9,530.2,453.2,532.8,453.2,536.5z"/>
		<path class="st6" d="M472.8,541.6c0-3.2-0.5-5.6-1.4-7.3s-2.2-2.6-3.8-2.6c-1.6,0-2.9,0.9-3.8,2.6c-0.9,1.7-1.4,4.2-1.4,7.3
			c0,3.2,0.4,5.6,1.4,7.3c0.9,1.7,2.2,2.5,3.8,2.5c1.6,0,2.9-0.8,3.8-2.5C472.4,547.2,472.8,544.8,472.8,541.6 M479.8,541.6
			c0,4.7-1.1,8.3-3.2,10.8c-2.1,2.6-5.1,3.8-8.8,3.8c-3.8,0-6.7-1.3-8.8-3.8c-2.1-2.5-3.2-6.2-3.2-10.8c0-4.7,1.1-8.3,3.2-10.9
			c2.1-2.6,5.1-3.8,8.8-3.8c3.7,0,6.7,1.3,8.8,3.8C478.7,533.3,479.8,536.9,479.8,541.6z"/>
		<polygon class="st6" points="512.8,555.8 507,555.8 507,532.2 500.4,555.8 496.3,555.8 489.6,532.2 489.6,555.8 484.1,555.8 
			484.1,527.4 493.3,527.4 498.4,546.4 503.5,527.4 512.8,527.4 		"/>
		<path class="st6" d="M534.2,541.6c0-3.2-0.5-5.6-1.4-7.3s-2.2-2.6-3.8-2.6s-2.9,0.9-3.8,2.6c-0.9,1.7-1.4,4.2-1.4,7.3
			c0,3.2,0.5,5.6,1.4,7.3s2.2,2.5,3.8,2.5s2.9-0.8,3.8-2.5C533.8,547.2,534.2,544.8,534.2,541.6 M541.1,541.6
			c0,4.7-1.1,8.3-3.2,10.8c-2.1,2.6-5.1,3.8-8.8,3.8c-3.8,0-6.7-1.3-8.8-3.8s-3.2-6.2-3.2-10.8c0-4.7,1.1-8.3,3.2-10.9
			c2.1-2.6,5.1-3.8,8.8-3.8s6.7,1.3,8.8,3.8C540.1,533.3,541.1,536.9,541.1,541.6z"/>
		<path class="st6" d="M564.4,555.1c-2,0.8-4.2,1.2-6.7,1.2c-4.1,0-7.4-1.3-9.8-4c-2.4-2.6-3.7-6.2-3.7-10.7s1.2-8,3.6-10.7
			c2.4-2.6,5.7-4,9.7-4c2.2,0,4.5,0.5,6.7,1.4l-0.3,5.3c-1.6-1-3.4-1.5-5.4-1.5c-2.3,0-4.2,0.8-5.5,2.5c-1.3,1.6-1.9,4-1.9,7
			c0,3.1,0.7,5.5,2,7.2s3.2,2.5,5.6,2.5c1.8,0,3.6-0.5,5.4-1.6L564.4,555.1z"/>
		<polygon class="st6" points="589.9,555.8 582.4,555.8 573.8,535.1 573.8,555.8 568.2,555.8 568.2,527.4 575.7,527.4 584.3,548.1 
			584.3,527.4 589.9,527.4 		"/>
		<rect x="595.5" y="527.4" class="st6" width="6.5" height="28.4"/>
		<path class="st6" d="M626.5,555.1c-2,0.8-4.2,1.2-6.7,1.2c-4.1,0-7.4-1.3-9.8-4c-2.4-2.6-3.7-6.2-3.7-10.7s1.2-8,3.6-10.7
			c2.4-2.6,5.7-4,9.7-4c2.2,0,4.5,0.5,6.7,1.4l-0.3,5.3c-1.6-1-3.4-1.5-5.4-1.5c-2.3,0-4.2,0.8-5.5,2.5c-1.3,1.6-1.9,4-1.9,7
			c0,3.1,0.7,5.5,2,7.2s3.2,2.5,5.7,2.5c1.8,0,3.6-0.5,5.4-1.6L626.5,555.1z"/>
		<polygon class="st6" points="647.3,555.8 628.8,555.8 628.8,550.2 639.7,532.5 629.2,532.5 629.2,527.4 646.9,527.4 646.9,532.7 
			635.9,550.7 647.3,550.7 		"/>
		<path class="st6" d="M667.1,541.6c0-3.2-0.5-5.6-1.4-7.3s-2.2-2.6-3.8-2.6s-2.9,0.9-3.8,2.6c-0.9,1.7-1.4,4.2-1.4,7.3
			c0,3.2,0.5,5.6,1.4,7.3s2.2,2.5,3.8,2.5s2.9-0.8,3.8-2.5C666.6,547.2,667.1,544.8,667.1,541.6 M674,541.6c0,4.7-1.1,8.3-3.2,10.8
			c-2.1,2.6-5.1,3.8-8.8,3.8c-3.8,0-6.7-1.3-8.8-3.8s-3.2-6.2-3.2-10.8c0-4.7,1.1-8.3,3.2-10.9c2.1-2.6,5.1-3.8,8.8-3.8
			s6.7,1.3,8.8,3.8C672.9,533.3,674,536.9,674,541.6z"/>
		<polygon class="st6" points="720.6,527.4 715.3,555.8 707.6,555.8 703.8,533 700.3,555.8 692.6,555.8 686.9,527.4 693.1,527.4 
			696.8,549 700.1,527.4 707.8,527.4 711.3,549 714.9,527.4 		"/>
		<path class="st6" d="M753.9,555.1c-2,0.8-4.2,1.2-6.7,1.2c-4.1,0-7.4-1.3-9.8-4c-2.4-2.6-3.7-6.2-3.7-10.7s1.2-8,3.6-10.7
			c2.4-2.6,5.7-4,9.7-4c2.2,0,4.5,0.5,6.7,1.4l-0.3,5.3c-1.6-1-3.4-1.5-5.4-1.5c-2.3,0-4.2,0.8-5.5,2.5c-1.3,1.6-1.9,4-1.9,7
			c0,3.1,0.7,5.5,2,7.2s3.2,2.5,5.6,2.5c1.8,0,3.6-0.5,5.4-1.6L753.9,555.1z"/>
		<polygon class="st6" points="777.7,555.8 771.2,555.8 771.2,543.7 764.3,543.7 764.3,555.8 757.8,555.8 757.8,527.4 764.3,527.4 
			764.3,538.6 771.2,538.6 771.2,527.4 777.7,527.4 		"/>
		<path class="st6" d="M799.2,541.6c0-3.2-0.5-5.6-1.4-7.3s-2.2-2.6-3.8-2.6s-2.9,0.9-3.8,2.6c-0.9,1.7-1.4,4.2-1.4,7.3
			c0,3.2,0.5,5.6,1.4,7.3s2.2,2.5,3.8,2.5s2.9-0.8,3.8-2.5C798.8,547.2,799.2,544.8,799.2,541.6 M806.1,541.6
			c0,4.7-1.1,8.3-3.2,10.8c-2.1,2.6-5.1,3.8-8.8,3.8c-3.8,0-6.7-1.3-8.8-3.8s-3.2-6.2-3.2-10.8c0-4.7,1.1-8.3,3.2-10.9
			c2.1-2.6,5.1-3.8,8.8-3.8s6.7,1.3,8.8,3.8C805.1,533.3,806.1,536.9,806.1,541.6z"/>
		<path class="st6" d="M822.8,535.9c0-1.4-0.4-2.4-1.1-3c-0.7-0.5-1.8-0.7-3.4-0.7h-1.5v7.3h1.4c1.6,0,2.7-0.3,3.4-0.8
			C822.4,538.1,822.8,537.2,822.8,535.9 M830.5,555.8h-6.7l-2.3-8.1c-0.4-1.3-0.8-2.2-1.2-2.7c-0.5-0.6-1.3-0.9-2.3-0.9h-1.2v11.7
			h-6.4v-28.4h6.7c0.3,0,0.7,0,1.1,0c0.4,0,0.5,0,0.6,0c3.5,0,6.2,0.6,7.8,1.8c1.7,1.2,2.5,3.2,2.5,5.9c0,3.6-1.8,5.8-5.3,6.7
			c1,0.2,1.7,0.7,2.2,1.4c0.4,0.6,0.9,1.6,1.4,3.1L830.5,555.8z"/>
		<path class="st6" d="M849.5,541.6c0-3.2-0.5-5.6-1.4-7.3s-2.2-2.6-3.8-2.6s-2.9,0.9-3.8,2.6c-0.9,1.7-1.4,4.2-1.4,7.3
			c0,3.2,0.5,5.6,1.4,7.3s2.2,2.5,3.8,2.5s2.9-0.8,3.8-2.5C849.1,547.2,849.5,544.8,849.5,541.6 M856.4,541.6
			c0,4.7-1.1,8.3-3.2,10.8c-2.1,2.6-5.1,3.8-8.8,3.8c-3.8,0-6.7-1.3-8.8-3.8s-3.2-6.2-3.2-10.8c0-4.7,1.1-8.3,3.2-10.9
			c2.1-2.6,5.1-3.8,8.8-3.8s6.7,1.3,8.8,3.8C855.4,533.3,856.4,536.9,856.4,541.6z"/>
		<path class="st6" d="M873.2,547.3c0-1.4-0.4-2.3-1.1-2.9c-0.7-0.6-1.9-0.9-3.5-0.9H867v7.6h1.6C871.6,551,873.2,549.8,873.2,547.3
			 M872.6,535.7c0-1.3-0.3-2.2-1-2.7s-1.7-0.8-3.2-0.8H867v6.9h1.5C871.2,539.1,872.6,537.9,872.6,535.7z M879.5,548.1
			c0,5.2-3.4,7.7-10.2,7.7h-8.4v-28.4h8.7c6.2,0,9.3,2.4,9.3,7.2c0,3.6-1.7,5.7-5.2,6.4C877.5,541.7,879.5,544.1,879.5,548.1z"/>
		<rect x="883.7" y="527.4" class="st6" width="6.5" height="28.4"/>
		<polygon class="st6" points="912.5,555.8 895.8,555.8 895.8,527.4 912,527.4 912,532.1 902.3,532.1 902.3,538.9 911.5,538.9 
			911.5,543.7 902.3,543.7 902.3,551 912.5,551 		"/>
		<polygon class="st6" points="543,603.3 536.5,603.3 536.5,591.3 529.6,591.3 529.6,603.3 523.1,603.3 523.1,574.9 529.6,574.9 
			529.6,586.1 536.5,586.1 536.5,574.9 543,574.9 		"/>
		<polygon class="st6" points="565.3,603.3 548.7,603.3 548.7,574.9 564.9,574.9 564.9,579.7 555.2,579.7 555.2,586.5 564.3,586.5 
			564.3,591.2 555.2,591.2 555.2,598.5 565.3,598.5 		"/>
		<polygon class="st6" points="598.6,603.3 592.9,603.3 592.9,579.7 586.2,603.3 582.2,603.3 575.5,579.8 575.5,603.3 570,603.3 
			570,574.9 579.2,574.9 584.2,594 589.4,574.9 598.6,574.9 		"/>
		<path class="st6" d="M620.1,589.1c0-3.2-0.5-5.6-1.4-7.3s-2.2-2.6-3.8-2.6s-2.9,0.9-3.8,2.6c-0.9,1.7-1.4,4.2-1.4,7.3
			c0,3.2,0.4,5.6,1.4,7.3c0.9,1.7,2.2,2.5,3.8,2.5s2.9-0.8,3.8-2.5C619.6,594.8,620.1,592.3,620.1,589.1 M627,589.1
			c0,4.7-1.1,8.3-3.2,10.8c-2.1,2.6-5.1,3.8-8.8,3.8c-3.8,0-6.7-1.3-8.8-3.8s-3.2-6.2-3.2-10.8c0-4.7,1.1-8.3,3.2-10.9
			c2.1-2.6,5.1-3.8,8.8-3.8s6.7,1.3,8.8,3.8C625.9,580.8,627,584.5,627,589.1z"/>
		<path class="st6" d="M643.7,583.4c0-1.4-0.4-2.4-1.1-3c-0.7-0.5-1.8-0.7-3.4-0.7h-1.5v7.3h1.4c1.6,0,2.7-0.3,3.4-0.8
			C643.3,585.6,643.7,584.7,643.7,583.4 M651.4,603.3h-6.7l-2.3-8.1c-0.4-1.3-0.8-2.2-1.2-2.7c-0.5-0.6-1.3-0.9-2.3-0.9h-1.2v11.6
			h-6.4v-28.4h6.7c0.3,0,0.7,0,1.1,0c0.4,0,0.5,0,0.6,0c3.5,0,6.2,0.6,7.8,1.8c1.7,1.2,2.5,3.2,2.5,5.9c0,3.6-1.8,5.8-5.3,6.7
			c1,0.2,1.7,0.7,2.2,1.4c0.4,0.6,0.9,1.6,1.4,3.1L651.4,603.3z"/>
		<path class="st6" d="M670.4,589.1c0-3.2-0.5-5.6-1.4-7.3s-2.2-2.6-3.8-2.6s-2.9,0.9-3.8,2.6c-0.9,1.7-1.4,4.2-1.4,7.3
			c0,3.2,0.4,5.6,1.4,7.3c0.9,1.7,2.2,2.5,3.8,2.5s2.9-0.8,3.8-2.5C670,594.8,670.4,592.3,670.4,589.1 M677.3,589.1
			c0,4.7-1.1,8.3-3.2,10.8c-2.1,2.6-5.1,3.8-8.8,3.8c-3.8,0-6.7-1.3-8.8-3.8s-3.2-6.2-3.2-10.8c0-4.7,1.1-8.3,3.2-10.9
			c2.1-2.6,5.1-3.8,8.8-3.8s6.7,1.3,8.8,3.8C676.3,580.8,677.3,584.5,677.3,589.1z"/>
		<rect x="681.7" y="574.9" class="st6" width="6.5" height="28.4"/>
		<path class="st6" d="M709.4,589.1c0-6.3-2.7-9.5-8.1-9.5h-0.9v18.9h0.9C706.6,598.5,709.4,595.4,709.4,589.1 M716.2,589.1
			c0,4.6-1.3,8.1-3.9,10.6c-2.6,2.4-6.3,3.6-11.3,3.6h-7.2v-28.4h7.2c5.2,0,9,1.1,11.4,3.4C715,580.7,716.2,584.2,716.2,589.1z"/>
		<path class="st6" d="M733.6,592.1l-3-11.5l-3.4,11.5H733.6z M743.3,603.3h-6.8l-1.6-6.3h-9.1l-1.7,6.3h-6.3l9.3-28.4h7.5
			L743.3,603.3z"/>
		<polygon class="st6" points="761.6,603.3 745.8,603.3 745.8,574.9 752.3,574.9 752.3,598.2 761.6,598.2 		"/>
		<polygon class="st6" points="786.3,603.3 778.8,603.3 770.2,582.6 770.2,603.3 764.7,603.3 764.7,574.9 772.2,574.9 780.7,595.6 
			780.7,574.9 786.3,574.9 		"/>
		<polygon class="st6" points="808.5,603.3 791.9,603.3 791.9,574.9 808.1,574.9 808.1,579.7 798.4,579.7 798.4,586.5 807.5,586.5 
			807.5,591.2 798.4,591.2 798.4,598.5 808.5,598.5 		"/>
		<path class="st6" d="M823.3,592.8c0,3.8-0.6,6.5-1.7,8.2c-1.3,1.8-3.4,2.7-6.3,2.7c-1.4,0-2.8-0.3-4.3-0.8l0.3-5.2
			c0.8,0.3,1.5,0.5,2.1,0.5c2.3,0,3.4-1.3,3.4-3.9v-19.4h6.6L823.3,592.8L823.3,592.8z"/>
		<path class="st6" d="M492.2,640.8v-11.7l-6.2,11.7H492.2z M500.9,645.3h-3v5.6H492v-5.6h-10.4v-5.6l9.4-17.2h6.8v18.3h3v4.5H500.9
			z"/>
		<rect x="503.3" y="637.6" class="st6" width="9.9" height="4.7"/>
		<path class="st6" d="M534.1,641.4c0,2.9-1,5.3-2.9,7.2c-1.9,1.8-4.5,2.7-7.6,2.7c-2.3,0-4.5-0.4-6.6-1.1l0.3-5.1
			c1.6,0.9,3.4,1.3,5.4,1.3c1.6,0,2.8-0.4,3.7-1.2s1.3-1.9,1.3-3.4c0-3.4-1.9-5.1-5.6-5.1c-1.4,0-2.9,0.3-4.6,0.8v-15h15.3v4.6H523
			v5.4c0.7-0.1,1.4-0.2,2.3-0.2c2.8,0,4.9,0.8,6.5,2.5C533.3,636.5,534.1,638.7,534.1,641.4"/>
		<polygon class="st6" points="568,650.9 561.1,650.9 555.6,640.9 555.6,650.9 549.4,650.9 549.4,620.2 555.6,620.2 555.6,638.3 
			561.1,629.7 567.4,629.7 561,639.3 		"/>
		<path class="st6" d="M581,642.1v-1.2c-0.5-0.1-1.1-0.1-1.8-0.1c-3,0-4.5,1.1-4.5,3.4c0,1.9,0.9,2.8,2.8,2.8
			C579.8,647,581,645.4,581,642.1 M587.3,650.9h-5.8l-0.2-2.7c-1.6,2.1-3.7,3.2-6.3,3.2c-1.8,0-3.3-0.6-4.4-1.8
			c-1.1-1.2-1.7-2.8-1.7-4.7c0-2.3,0.9-4.2,2.6-5.4c1.7-1.3,4.2-1.9,7.5-1.9h2.1V637c0-2.3-1.4-3.4-4.1-3.4c-2,0-3.8,0.7-5.5,2
			l-0.3-4.7c2.6-1,5.1-1.5,7.3-1.5c3.4,0,5.7,0.8,7,2.3c1.1,1.4,1.7,3.8,1.7,7.2v7.8C587.1,648.3,587.1,649.7,587.3,650.9z"/>
		<path class="st6" d="M604.5,640.3c0-4.3-1.1-6.4-3.2-6.4c-2.1,0-3.2,1.8-3.2,5.4v1.9c0,3.6,1.1,5.4,3.2,5.4
			C603.4,646.6,604.5,644.5,604.5,640.3 M611.1,640.3c0,7.4-2.5,11.1-7.5,11.1c-2.3,0-4.1-1.1-5.4-3.4v11.8H592v-24.6
			c0-0.1-0.1-1.9-0.2-5.5h6c0.1,0.7,0.1,1.7,0.2,3.3c1.3-2.5,3.2-3.7,5.7-3.7c2.4,0,4.2,0.9,5.5,2.8
			C610.4,633.9,611.1,636.7,611.1,640.3z"/>
		<path class="st6" d="M628.6,644.5c0,2.2-0.7,3.8-2.2,5s-3.6,1.8-6.4,1.8c-1.7,0-3.6-0.3-5.8-1v-5c1.9,1.2,3.8,1.8,5.7,1.8
			c2.1,0,3.1-0.7,3.1-2.1c0-0.6-0.3-1.1-1-1.5c-0.2-0.1-1.1-0.5-2.8-1.2c-1.9-0.7-3.2-1.5-4-2.4s-1.2-2.1-1.2-3.6
			c0-2.2,0.7-3.9,2.1-5.1c1.4-1.2,3.3-1.9,5.8-1.9c1.9,0,3.7,0.3,5.5,0.9l-0.1,4.6c-1.6-0.8-3.2-1.3-4.7-1.3c-1.9,0-2.9,0.7-2.9,2
			c0,0.6,0.2,1,0.7,1.4c0.3,0.2,1.1,0.6,2.3,1.1c2.2,0.9,3.6,1.7,4.3,2.3C628.1,641.2,628.6,642.6,628.6,644.5"/>
		<path class="st6" d="M650.2,650.9h-5.7c-0.1-1.2-0.2-2.2-0.2-3.2c-1,2.4-3,3.6-5.9,3.6c-4,0-6-2.4-6-7.1v-14.5h6.2v13.1
			c0,2.2,0.8,3.4,2.4,3.4c1.9,0,2.8-1.5,2.8-4.4v-12.1h6.2v16.7C649.9,648.4,650,649.9,650.2,650.9"/>
		<polygon class="st6" points="663.9,630.9 661.2,632.8 661.2,650.9 655.4,650.9 655.4,635.9 652.6,637.8 652.6,632.8 655.4,630.9 
			655.4,620.2 661.2,620.2 661.2,627.8 663.9,626 		"/>
		<path class="st6" d="M678,637.6c0-2.8-1-4.1-3-4.1c-2.1,0-3.2,1.7-3.4,5.1h6.3c0-0.2,0-0.4,0-0.6C678,637.7,678,637.6,678,637.6
			 M683.7,640.6c0,0.6,0,1.1,0,1.4h-12c0.3,3.4,2,5,5.2,5c1.8,0,3.7-0.5,5.6-1.6l0.2,4.5c-2.2,1-4.4,1.4-6.6,1.4
			c-3.3,0-5.9-1-7.8-2.9c-1.8-1.9-2.8-4.6-2.8-8.1c0-3.4,0.8-6.1,2.5-8.1s3.9-3.1,6.6-3.1c2.9,0,5.1,1,6.7,2.9
			C682.9,634.1,683.7,636.9,683.7,640.6z"/>
		<polygon class="st6" points="706.2,650.9 699.3,650.9 693.8,640.9 693.8,650.9 687.6,650.9 687.6,620.2 693.8,620.2 693.8,638.3 
			699.3,629.7 705.6,629.7 699.2,639.3 		"/>
		<path class="st6" d="M730.5,641.2v-1.9c0-3.6-1.1-5.4-3.2-5.4c-2.1,0-3.2,2.1-3.2,6.3s1.1,6.3,3.2,6.3
			C729.5,646.7,730.5,644.9,730.5,641.2 M736.7,650.9h-5.9c-0.1-1-0.1-2-0.1-3.3c-1.3,2.5-3.2,3.7-5.7,3.7c-2.4,0-4.2-0.9-5.5-2.8
			c-1.3-1.9-1.9-4.6-1.9-8.2c0-7.4,2.5-11.1,7.5-11.1c2.2,0,4,1.1,5.4,3.4v-12.4h6.2V650.9z"/>
		<polygon class="st6" points="755.2,650.9 740.5,650.9 740.5,645.4 748.5,634.4 740.6,634.4 740.6,629.7 755.2,629.7 755.2,635 
			747,646.1 755.2,646.1 		"/>
		<path class="st6" d="M765.3,650.9h-6.2v-21.2h6.2V650.9z M765.4,626.1H759v-5.5h6.3v5.5H765.4z"/>
		<path class="st6" d="M781.7,637.6c0-2.8-1-4.1-3-4.1c-2.1,0-3.2,1.7-3.4,5.1h6.3c0-0.2,0-0.4,0-0.6
			C781.7,637.7,781.7,637.6,781.7,637.6 M787.4,640.6c0,0.6,0,1.1,0,1.4h-12c0.3,3.4,2,5,5.2,5c1.8,0,3.7-0.5,5.6-1.6l0.2,4.5
			c-2.2,1-4.4,1.4-6.6,1.4c-3.3,0-5.9-1-7.8-2.9c-1.8-1.9-2.8-4.6-2.8-8.1c0-3.4,0.8-6.1,2.5-8.1s3.9-3.1,6.6-3.1
			c2.9,0,5.1,1,6.7,2.9C786.6,634.1,787.4,636.9,787.4,640.6z"/>
		<path class="st6" d="M809,650.9h-6.2v-13.1c0-2.2-0.8-3.4-2.4-3.4c-1.9,0-2.8,1.5-2.8,4.4v12.1h-6.2v-16.6c0-2-0.1-3.5-0.2-4.6
			h5.7c0.1,1.2,0.2,2.3,0.2,3.2c1-2.5,3-3.7,5.9-3.7c4,0,6,2.4,6,7.2V650.9z"/>
		<path class="st6" d="M831.4,650.9h-6.2v-13.1c0-2.2-0.8-3.4-2.4-3.4c-1.9,0-2.8,1.5-2.8,4.4v12.1h-6.2v-16.6c0-2-0.1-3.5-0.2-4.6
			h5.7c0.1,1.2,0.2,2.3,0.2,3.2c1-2.5,3-3.7,5.9-3.7c4,0,6,2.4,6,7.2V650.9z"/>
		<path class="st6" d="M842.4,650.9h-6.2v-21.2h6.2V650.9z M842.5,626.1h-6.3v-5.5h6.3V626.1z"/>
		<path class="st6" d="M858.8,637.6c0-2.8-1-4.1-3-4.1c-2.1,0-3.2,1.7-3.4,5.1h6.3c0-0.2,0-0.4,0-0.6
			C858.8,637.7,858.8,637.6,858.8,637.6 M864.5,640.6c0,0.6,0,1.1,0,1.4h-12c0.3,3.4,2,5,5.2,5c1.8,0,3.7-0.5,5.6-1.6l0.2,4.5
			c-2.2,1-4.4,1.4-6.6,1.4c-3.3,0-5.9-1-7.8-2.9c-1.8-1.9-2.8-4.6-2.8-8.1c0-3.4,0.8-6.1,2.5-8.1s3.9-3.1,6.6-3.1
			c2.9,0,5.1,1,6.7,2.9C863.7,634.1,864.5,636.9,864.5,640.6z"/>
		<g>
			<g>
				<g>
					
						<linearGradient id="SVGID_1_" gradientUnits="userSpaceOnUse" x1="104.9875" y1="526.2515" x2="240.7937" y2="390.4452" gradientTransform="matrix(1 0 0 1 0 -87)">
						<stop  offset="0" style="stop-color:#F07E07"/>
						<stop  offset="1" style="stop-color:#007CC1"/>
					</linearGradient>
					<path class="st8" d="M172.9,293.5c42.9,0,77.8,34.9,77.8,77.8s-34.9,77.8-77.8,77.8s-77.8-34.9-77.8-77.8
						S129.9,293.5,172.9,293.5 M172.9,275.3c-53.1,0-96,42.9-96,96s42.9,96,96,96s96-42.9,96-96S225.9,275.3,172.9,275.3
						L172.9,275.3z"/>
				</g>
			</g>
			<g id="Warstwa_3">
				<path class="st9" d="M231.7,379.2l-50.5,17.5c-8.4,2.9-17.5-1.5-20.4-9.9l0,0c-2.9-8.4,1.5-17.5,9.9-20.4l50.5-17.5
					c8.4-2.9,17.5,1.5,20.4,9.9l0,0C244.5,367.3,240,376.4,231.7,379.2z"/>
				<path class="st10" d="M233.6,378.6l-27.1,9.4c4.3-8-2.5-27.4-10.5-30.2l27.1-9.4c7.3-2.5,15.6,2.2,18.5,10.6l0,0
					C244.5,367.3,240.8,376,233.6,378.6z"/>
				<g class="st11">
					<g>
						
							<ellipse transform="matrix(0.9451 -0.3268 0.3268 0.9451 -113.8262 77.5936)" class="st12" cx="174" cy="377.5" rx="6.9" ry="4.5"/>
					</g>
				</g>
				
					<linearGradient id="SVGID_2_" gradientUnits="userSpaceOnUse" x1="206.8384" y1="475.3303" x2="195.6033" y2="444.4621" gradientTransform="matrix(1 0 0 1 0 -87)">
					<stop  offset="0" style="stop-color:#000000"/>
					<stop  offset="0.5114" style="stop-color:#FFFFFF"/>
				</linearGradient>
				<path class="st13" d="M231.7,379.2l-50.5,17.5c-8.4,2.9-17.5-1.5-20.4-9.9l0,0c-2.9-8.4,1.5-17.5,9.9-20.4l50.5-17.5
					c8.4-2.9,17.5,1.5,20.4,9.9l0,0C244.5,367.3,240,376.4,231.7,379.2z"/>
			</g>
			<g id="Warstwa_3_kopia">
				<path class="st9" d="M176.6,346l-29.7,44.4c-4.9,7.4-14.8,9.4-22.2,4.5l0,0c-7.4-4.9-9.4-14.8-4.5-22.2l29.7-44.4
					c4.9-7.4,14.8-9.4,22.2-4.5l0,0C179.6,328.7,181.5,338.6,176.6,346z"/>
				<path class="st10" d="M177.8,344.4l-15.9,23.8c-1.4-8.9-18.5-20.3-26.6-17.7l15.9-23.8c4.3-6.5,13.7-7.6,21.1-2.8l0,0
					C179.6,328.7,182.1,337.9,177.8,344.4z"/>
				<g class="st14">
					<g>
						
							<ellipse transform="matrix(0.555 -0.8319 0.8319 0.555 -257.938 276.74)" class="st12" cx="129.7" cy="379.4" rx="6.9" ry="4.5"/>
					</g>
				</g>
				
					<linearGradient id="SVGID_3_" gradientUnits="userSpaceOnUse" x1="785.1111" y1="-114.1048" x2="773.8759" y2="-144.9729" gradientTransform="matrix(0.7964 -0.6048 0.6048 0.7964 -393.9237 934.0686)">
					<stop  offset="0" style="stop-color:#000000"/>
					<stop  offset="0.5114" style="stop-color:#FFFFFF"/>
				</linearGradient>
				<path class="st15" d="M176.6,346l-29.7,44.4c-4.9,7.4-14.8,9.4-22.2,4.5l0,0c-7.4-4.9-9.4-14.8-4.5-22.2l29.7-44.4
					c4.9-7.4,14.8-9.4,22.2-4.5l0,0C179.6,328.7,181.5,338.6,176.6,346z"/>
			</g>
		</g>
		<g id="Warstwa_3_1_">
			<g>
				<g>
					
						<linearGradient id="SVGID_4_" gradientUnits="userSpaceOnUse" x1="104.9875" y1="744.3515" x2="240.7937" y2="608.5452" gradientTransform="matrix(1 0 0 1 0 -87)">
						<stop  offset="0" style="stop-color:#F07E07"/>
						<stop  offset="1" style="stop-color:#007CC1"/>
					</linearGradient>
					<path class="st16" d="M172.9,511.6c42.9,0,77.8,34.9,77.8,77.8s-34.9,77.8-77.8,77.8s-77.8-34.9-77.8-77.8
						S129.9,511.6,172.9,511.6 M172.9,493.4c-53.1,0-96,42.9-96,96s42.9,96,96,96s96-42.9,96-96S225.9,493.4,172.9,493.4
						L172.9,493.4z"/>
				</g>
			</g>
			<g id="Warstwa_3_3_">
				<path class="st9" d="M221.8,634.5l-44,7.2c-7.3,1.2-14.2-3.7-15.4-11.1l0,0c-1.2-7.3,3.7-14.2,11.1-15.4l44-7.2
					c7.3-1.2,14.2,3.7,15.4,11.1l0,0C234,626.6,229.1,633.4,221.8,634.5z"/>
				<path class="st10" d="M223.5,634.3l-23.7,3.8c4.6-6,1.9-22.8-4.3-26.4l23.7-3.8c6.4-1.1,12.5,4,13.6,11.3l0,0
					C234,626.6,229.8,633.2,223.5,634.3z"/>
				<g class="st11">
					<g>
						
							<ellipse transform="matrix(0.9871 -0.1604 0.1604 0.9871 -97.9802 36.0973)" class="st12" cx="174.6" cy="625" rx="5.7" ry="3.8"/>
					</g>
				</g>
				
					<linearGradient id="SVGID_5_" gradientUnits="userSpaceOnUse" x1="176.6045" y1="932.7533" x2="167.2229" y2="906.9777" gradientTransform="matrix(0.9853 0.1709 -0.1709 0.9853 185.4771 -310.7865)">
					<stop  offset="0" style="stop-color:#000000"/>
					<stop  offset="0.5114" style="stop-color:#FFFFFF"/>
				</linearGradient>
				<path class="st17" d="M221.8,634.5l-44,7.2c-7.3,1.2-14.2-3.7-15.4-11.1l0,0c-1.2-7.3,3.7-14.2,11.1-15.4l44-7.2
					c7.3-1.2,14.2,3.7,15.4,11.1l0,0C234,626.6,229.1,633.4,221.8,634.5z"/>
			</g>
			<g id="Warstwa_3_kopia_2_">
				<path class="st9" d="M189.7,545.6L173.2,587c-2.7,6.9-10.5,10.2-17.4,7.5l0,0c-6.9-2.7-10.2-10.5-7.5-17.4l16.6-41.4
					c2.7-6.9,10.5-10.2,17.4-7.5l0,0C189.2,530.9,192.4,538.8,189.7,545.6z"/>
				<path class="st10" d="M190.4,544l-8.9,22.2c-2.6-7-18.6-13.4-24.8-9.9l8.8-22.1c2.4-6,9.9-8.6,16.7-6l0,0
					C189.2,530.9,192.8,538,190.4,544z"/>
				<g class="st14">
					<g>
						
							<ellipse transform="matrix(0.3702 -0.929 0.929 0.3702 -440.8357 512.133)" class="st12" cx="157.3" cy="581.2" rx="5.7" ry="3.8"/>
					</g>
				</g>
				
					<linearGradient id="SVGID_6_" gradientUnits="userSpaceOnUse" x1="887.8557" y1="-85.4425" x2="878.4714" y2="-111.2259" gradientTransform="matrix(0.6535 -0.757 0.757 0.6535 -333.5855 1294.2329)">
					<stop  offset="0" style="stop-color:#000000"/>
					<stop  offset="0.5114" style="stop-color:#FFFFFF"/>
				</linearGradient>
				<path class="st18" d="M189.7,545.6L173.2,587c-2.7,6.9-10.5,10.2-17.4,7.5l0,0c-6.9-2.7-10.2-10.5-7.5-17.4l16.6-41.4
					c2.7-6.9,10.5-10.2,17.4-7.5l0,0C189.2,530.9,192.4,538.8,189.7,545.6z"/>
			</g>
			<g id="Warstwa_3_kopia_1_">
				<path class="st9" d="M162.1,544l-27.9,34.8c-4.6,5.7-13,6.7-18.8,2.1l0,0c-5.7-4.6-6.7-13-2.1-18.8l27.9-34.8
					c4.6-5.7,13-6.7,18.8-2.1l0,0C165.9,529.8,166.8,538.1,162.1,544z"/>
				<path class="st10" d="M163.2,542.7l-15,18.7c-0.5-7.6-13.8-18.2-20.8-16.7l15-18.7c4-5.1,12-5.4,17.7-0.8l0,0
					C165.9,529.8,167.2,537.6,163.2,542.7z"/>
				<g class="st14">
					<g>
						
							<ellipse transform="matrix(0.6262 -0.7796 0.7796 0.6262 -398.013 306.4056)" class="st12" cx="120.6" cy="568.3" rx="5.7" ry="3.8"/>
					</g>
				</g>
				
					<linearGradient id="SVGID_7_" gradientUnits="userSpaceOnUse" x1="580.7695" y1="105.0762" x2="571.389" y2="79.3038" gradientTransform="matrix(0.8467 -0.5321 0.5321 0.8467 -399.0443 781.6228)">
					<stop  offset="0" style="stop-color:#000000"/>
					<stop  offset="0.5114" style="stop-color:#FFFFFF"/>
				</linearGradient>
				<path class="st19" d="M162.1,544l-27.9,34.8c-4.6,5.7-13,6.7-18.8,2.1l0,0c-5.7-4.6-6.7-13-2.1-18.8l27.9-34.8
					c4.6-5.7,13-6.7,18.8-2.1l0,0C165.9,529.8,166.8,538.1,162.1,544z"/>
			</g>
			<g id="Warstwa_3_2_">
				<path class="st9" d="M223,598l-42.1,14.6c-7,2.5-14.6-1.3-17-8.3l0,0c-2.5-7,1.3-14.6,8.3-17l42.1-14.6c7-2.5,14.6,1.3,17,8.3
					l0,0C233.8,588.1,230,595.6,223,598z"/>
				<path class="st10" d="M224.7,597.5l-22.7,7.8c3.5-6.6-2.1-22.8-8.7-25.2l22.7-7.8c6.1-2.1,13,1.8,15.5,8.8l0,0
					C233.8,588.1,230.7,595.4,224.7,597.5z"/>
				<g class="st11">
					<g>
						
							<ellipse transform="matrix(0.9451 -0.3268 0.3268 0.9451 -185.3778 89.9161)" class="st12" cx="174.9" cy="596.6" rx="5.7" ry="3.8"/>
					</g>
				</g>
				
					<linearGradient id="SVGID_8_" gradientUnits="userSpaceOnUse" x1="202.3172" y1="692.6494" x2="192.9341" y2="666.8696" gradientTransform="matrix(1 0 0 1 0 -87)">
					<stop  offset="0" style="stop-color:#000000"/>
					<stop  offset="0.5114" style="stop-color:#FFFFFF"/>
				</linearGradient>
				<path class="st20" d="M223,598l-42.1,14.6c-7,2.5-14.6-1.3-17-8.3l0,0c-2.5-7,1.3-14.6,8.3-17l42.1-14.6c7-2.5,14.6,1.3,17,8.3
					l0,0C233.8,588.1,230,595.6,223,598z"/>
			</g>
		</g>
	</g>
</g>
</svg>
