<?xml version="1.0" encoding="utf-8"?>
<!-- Generator: Adobe Illustrator 23.1.1, SVG Export Plug-In . SVG Version: 6.00 Build 0)  -->
<svg version="1.1" xmlns="http://www.w3.org/2000/svg" xmlns:xlink="http://www.w3.org/1999/xlink" x="0px" y="0px"
	 viewBox="0 0 1366 1024" style="enable-background:new 0 0 1366 1024;" xml:space="preserve">
<style type="text/css">
	.st0{fill-rule:evenodd;clip-rule:evenodd;fill:#096CB2;}
	.st1{fill:none;stroke:#FFED00;stroke-width:1.282;stroke-linecap:round;stroke-linejoin:round;stroke-miterlimit:22.9256;}
	.st2{fill-rule:evenodd;clip-rule:evenodd;fill:#EF7D00;}
	.st3{fill:#FFFFFF;}
	.st4{fill:#096CB2;}
</style>
<g id="Warstwa_1">
	<g>
		<g>
			<g>
				
					<image style="overflow:visible;enable-background:new    ;" width="854" height="640" xlink:href="4EAE986CD4A0B087.jpg"  transform="matrix(1.5995 0 0 1.6 0 0)">
				</image>
			</g>
		</g>
		<path class="st0" d="M76.9,38h718.4h494.9c19.2,0,34.8,15.7,34.8,34.8v126.7c0,19.2-15.7,34.8-34.8,34.8h-495H76.9
			c-19.2,0-34.8-15.7-34.8-34.8V72.8C42,53.7,57.7,38,76.9,38"/>
		<path class="st1" d="M206.6,106.8h9.4v46.8h-9.4V106.8z M311.6,113.2h1.3h7.6h13.1v8.6h-13.1v7h12v8.6h-12v16.4h-8.9V113.2z
			 M381.3,121.8l-7.2,3.8c3.7,3.2,4.6,6.3,4.6,10.1v18.5l8.6-0.2l-0.1-14.2c0-7.3,5.8-8.9,9.5-9.7l-2-8.6c-3.4,0.3-7.1,2.4-9.7,4.6
			L381.3,121.8z M150.8,121l-8.7,2.8l11.3,27.7l-7.6,15l7.6,3.6l21-46.1l-8-2.9l-8.1,21.6L150.8,121z M235.1,129.5
			c3.6,0,6.6,4,6.6,8.8c0,4.9-2.9,8.8-6.6,8.8c-3.6,0-6.6-4-6.6-8.8C228.6,133.5,231.5,129.5,235.1,129.5z M235.1,121.4
			c8.7,0,15.7,7.6,15.7,17s-7,17-15.7,17s-15.7-7.6-15.7-17C219.4,129,226.5,121.4,235.1,121.4z M354.1,129.5c3.6,0,6.6,4,6.6,8.8
			c0,4.9-2.9,8.8-6.6,8.8c-3.6,0-6.6-4-6.6-8.8C347.6,133.5,350.5,129.5,354.1,129.5z M354.1,121.4c8.7,0,15.7,7.6,15.7,17
			s-7,17-15.7,17s-15.7-7.6-15.7-17S345.5,121.4,354.1,121.4z M198.9,143.8l5.2,6.2c-4.4,5.4-13.9,7.1-20.9,2.3
			c-4.4-3-7.2-8.2-7-14.1c0.2-5.4,2.8-10.8,6.9-13.9c7.2-5.6,16.5-2.9,21.5,2.7l-5.6,5.3c-6.8-7.6-14-1.2-13.9,5.3
			c0.1,4.5,1.4,8.6,6.9,9.1C194.8,147.1,197.5,145.7,198.9,143.8z M140.5,149.3l-5.3-6.9c-2,2.4-5.1,4.1-7.8,4.1
			c-5.7,0-9.6-6.5-9.4-13.7s3.7-13.4,9.4-13.4c2.4,0,6,1.4,7.7,3.3l5.5-5.8c-6.9-6.7-14.8-7.3-20.9-3.9s-10.3,10.9-10.8,19.8
			c-0.8,12.2,8.3,22.1,19.5,22.1C132.9,155,136.8,152.4,140.5,149.3z M405.2,113.5h8.8v9.5h6.7v8.3l-6.7,0.1v10.1
			c0,3.1,1.5,7.9,5,9.9l-7,4.2c-3.9-3.2-6.7-7.5-6.7-13.6v-10.6h-6.4l-0.1-8.4l6.4-0.1L405.2,113.5L405.2,113.5z M255.4,109.4
			c7.7-6.6,17.7-9.3,25.5-7.5c12.4,2.9,17,10.5,16.4,17.7c-0.5,5.9-4.5,11.4-10.6,13.8c7.4,3.1,12.4,7.5,12.9,14.3
			c0.6,7.3-2.5,16.3-15.2,21c-6.6,2.4-14.9,3-25,1.6l-0.6-13.2c6.1,1.2,10.9,1.7,14.8,1.5c13-0.6,16.7-13.1,6.2-16.4
			c-3.5-1.1-7.8-1.5-14.1-1.4l-0.2-12.3c4.1,0,9.2-0.3,12.5-1.4c6.8-2.4,7.3-10.5-0.6-12.5c-4.5-1.1-11.1-0.1-14.3,5.1L255.4,109.4z
			"/>
		<path class="st2" d="M206.6,106.8h9.4v46.8h-9.4V106.8z M311.6,113.2h1.3h7.6h13.1v8.6h-13.1v7h12v8.6h-12v16.4h-8.9V113.2z
			 M381.3,121.8l-7.2,3.8c3.7,3.2,4.6,6.3,4.6,10.1v18.5l8.6-0.2l-0.1-14.2c0-7.3,5.8-8.9,9.5-9.7l-2-8.6c-3.4,0.3-7.1,2.4-9.7,4.6
			L381.3,121.8z M150.8,121l-8.7,2.8l11.3,27.7l-7.6,15l7.6,3.6l21-46.1l-8-2.9l-8.1,21.6L150.8,121z M235.1,129.6
			c3.6,0,6.6,4,6.6,8.8c0,4.9-2.9,8.8-6.6,8.8c-3.6,0-6.6-4-6.6-8.8C228.6,133.5,231.5,129.6,235.1,129.6z M235.1,121.4
			c8.7,0,15.7,7.6,15.7,17s-7,17-15.7,17s-15.7-7.6-15.7-17C219.4,129,226.5,121.4,235.1,121.4z M354.1,129.6c3.6,0,6.6,4,6.6,8.8
			c0,4.9-2.9,8.8-6.6,8.8c-3.6,0-6.6-4-6.6-8.8C347.6,133.5,350.5,129.6,354.1,129.6z M354.1,121.4c8.7,0,15.7,7.6,15.7,17
			s-7,17-15.7,17s-15.7-7.6-15.7-17S345.5,121.4,354.1,121.4z M198.9,143.8l5.2,6.2c-4.4,5.4-13.9,7.1-20.9,2.3
			c-4.4-3-7.2-8.2-7-14.1c0.2-5.4,2.8-10.8,6.9-13.9c7.2-5.6,16.5-2.9,21.5,2.7l-5.6,5.3c-6.8-7.6-14-1.2-13.9,5.3
			c0.1,4.5,1.4,8.6,6.9,9.1C194.8,147.1,197.5,145.8,198.9,143.8z M140.5,149.3l-5.3-6.9c-2,2.4-5.1,4.1-7.8,4.1
			c-5.7,0-9.6-6.5-9.4-13.7s3.7-13.4,9.4-13.4c2.4,0,6,1.4,7.7,3.3l5.5-5.8c-6.9-6.7-14.8-7.3-20.9-3.9s-10.3,10.9-10.8,19.8
			c-0.8,12.2,8.3,22.1,19.5,22.1C132.9,155,136.8,152.4,140.5,149.3z M405.2,113.5h8.8v9.5h6.7v8.3l-6.7,0.1v10.1
			c0,3.1,1.5,7.9,5,9.9l-7,4.2c-3.9-3.2-6.7-7.5-6.7-13.6v-10.6h-6.4l-0.1-8.4l6.4-0.1L405.2,113.5L405.2,113.5z M255.4,109.4
			c7.7-6.6,17.7-9.3,25.5-7.5c12.4,2.9,17,10.5,16.4,17.7c-0.5,5.9-4.5,11.4-10.6,13.8c7.4,3.1,12.4,7.5,12.9,14.3
			c0.6,7.3-2.5,16.3-15.2,21c-6.6,2.4-14.9,3-25,1.6l-0.6-13.2c6.1,1.2,10.9,1.7,14.8,1.5c13-0.6,16.7-13.1,6.2-16.4
			c-3.5-1.1-7.8-1.5-14.1-1.4l-0.2-12.3c4.1,0,9.2-0.3,12.5-1.4c6.8-2.4,7.3-10.5-0.6-12.5c-4.5-1.1-11.1-0.1-14.3,5.1L255.4,109.4z
			"/>
		<path class="st2" d="M301.1,109.3v-4.7h1.6c0.6,0,1,0,1.2,0.1s0.4,0.2,0.6,0.5c0.1,0.2,0.2,0.4,0.2,0.7c0,0.3-0.1,0.6-0.4,0.9
			c-0.2,0.3-0.6,0.4-1,0.4c0.2,0.1,0.3,0.2,0.4,0.3c0.2,0.2,0.4,0.5,0.7,0.9l0.6,0.9h-0.9l-0.4-0.7c-0.3-0.6-0.6-1-0.8-1.1
			c-0.1-0.1-0.3-0.2-0.6-0.2h-0.4v2L301.1,109.3L301.1,109.3z M301.8,106.6h0.9c0.4,0,0.7-0.1,0.9-0.2c0.2-0.1,0.2-0.3,0.2-0.5
			c0-0.1,0-0.3-0.1-0.4s-0.2-0.2-0.3-0.2c-0.1-0.1-0.4-0.1-0.8-0.1h-0.9L301.8,106.6L301.8,106.6z M303,103.2
			c-0.6,0-1.2,0.2-1.8,0.5c-0.6,0.3-1,0.8-1.4,1.4c-0.3,0.6-0.5,1.2-0.5,1.8c0,0.6,0.2,1.2,0.5,1.8c0.3,0.6,0.8,1,1.4,1.4
			c0.6,0.3,1.2,0.5,1.8,0.5c0.6,0,1.2-0.2,1.8-0.5c0.6-0.3,1-0.8,1.4-1.4c0.3-0.6,0.5-1.2,0.5-1.8c0-0.6-0.2-1.3-0.5-1.8
			c-0.3-0.6-0.8-1-1.4-1.4C304.2,103.4,303.6,103.2,303,103.2z M303,102.5c0.7,0,1.5,0.2,2.2,0.6s1.3,0.9,1.6,1.6
			c0.4,0.7,0.6,1.4,0.6,2.2c0,0.8-0.2,1.5-0.6,2.2s-0.9,1.2-1.6,1.6s-1.4,0.6-2.2,0.6c-0.8,0-1.5-0.2-2.2-0.6s-1.2-0.9-1.6-1.6
			s-0.6-1.4-0.6-2.2c0-0.8,0.2-1.5,0.6-2.2s0.9-1.2,1.6-1.6C301.6,102.7,302.3,102.5,303,102.5z"/>
		<path class="st3" d="M833.4,94.8c0-1.9-0.4-3.3-1.2-4c-0.8-0.8-2.1-1.1-4-1.1h-1.7v10.5h1.9c1.8,0,3.1-0.4,3.8-1.2
			C833.1,98.1,833.4,96.7,833.4,94.8 M841.3,95c0,7.4-4.3,11-12.8,11h-1.9v12.9h-8.1V83.8h8.8c4.3,0,7.3,0.5,9,1.5
			C839.6,87.3,841.3,90.5,841.3,95z"/>
		<path class="st3" d="M865.5,101.3c0-3.9-0.6-7-1.7-9.1c-1.1-2.1-2.7-3.2-4.7-3.2s-3.5,1.1-4.7,3.2c-1.1,2.1-1.7,5.1-1.7,9.1
			c0,3.9,0.6,7,1.7,9.1c1.1,2.1,2.7,3.1,4.7,3.1s3.5-1,4.7-3.1S865.5,105.3,865.5,101.3 M874.1,101.3c0,5.8-1.3,10.2-4,13.4
			c-2.6,3.2-6.3,4.7-10.9,4.7c-4.7,0-8.3-1.6-10.9-4.7c-2.6-3.1-3.9-7.6-3.9-13.4s1.3-10.2,4-13.4c2.6-3.2,6.3-4.8,10.9-4.8
			c4.6,0,8.3,1.6,10.9,4.8C872.8,91.1,874.1,95.6,874.1,101.3z"/>
		<path class="st3" d="M894.4,94.8c0-1.9-0.4-3.3-1.2-4c-0.8-0.8-2.1-1.1-4-1.1h-1.7v10.5h1.9c1.8,0,3.1-0.4,3.8-1.2
			C894,98.1,894.4,96.7,894.4,94.8 M902.3,95c0,7.4-4.3,11-12.8,11h-1.9v12.9h-8.1V83.8h8.8c4.3,0,7.3,0.5,9,1.5
			C900.6,87.3,902.3,90.5,902.3,95z"/>
		<path class="st3" d="M922.2,94.3c0-1.8-0.4-3-1.3-3.7c-0.8-0.6-2.2-0.9-4.2-0.9h-1.8v9h1.7c1.9,0,3.3-0.3,4.3-1
			C921.7,97,922.2,95.8,922.2,94.3 M931.7,118.9h-8.3l-2.8-10c-0.5-1.7-1-2.8-1.5-3.3c-0.6-0.7-1.6-1.1-2.8-1.1h-1.5v14.4h-7.9V83.8
			h8.3c0.4,0,0.8,0,1.3-0.1c0.4,0,0.7,0,0.7,0c4.4,0,7.6,0.7,9.7,2.2c2.1,1.5,3.1,3.9,3.1,7.2c0,4.4-2.2,7.2-6.6,8.3
			c1.2,0.3,2.1,0.9,2.7,1.8c0.5,0.7,1.1,2,1.7,3.8L931.7,118.9z"/>
		<path class="st3" d="M953.5,105l-3.7-14.3l-4.2,14.3H953.5z M965.4,118.9H957l-2-7.8h-11.3l-2.1,7.8h-7.8l11.4-35.1h9.3
			L965.4,118.9z"/>
		<polygon class="st3" points="1007.5,83.8 1000.8,118.9 991.4,118.9 986.7,90.8 982.4,118.9 972.8,118.9 965.8,83.8 973.4,83.8 
			978.1,110.5 982.1,83.8 991.6,83.8 996,110.5 1000.4,83.8 		"/>
		<path class="st3" d="M1026.7,105l-3.7-14.3l-4.2,14.3H1026.7z M1038.6,118.9h-8.4l-2-7.8h-11.3l-2.1,7.8h-7.8l11.4-35.1h9.3
			L1038.6,118.9z"/>
		<polygon class="st3" points="1081.8,118.9 1072.5,118.9 1061.9,93.2 1061.9,118.9 1055,118.9 1055,83.8 1064.3,83.8 1074.9,109.4 
			1074.9,83.8 1081.8,83.8 		"/>
		<path class="st3" d="M1104.4,105l-3.7-14.3l-4.2,14.3H1104.4z M1116.3,118.9h-8.4l-2-7.8h-11.3l-2.1,7.8h-7.8l11.4-35.1h9.3
			L1116.3,118.9z"/>
		<path class="st3" d="M1134.4,94.8c0-1.9-0.4-3.3-1.2-4c-0.8-0.8-2.1-1.1-4-1.1h-1.7v10.5h1.9c1.8,0,3.1-0.4,3.8-1.2
			C1134,98.1,1134.4,96.7,1134.4,94.8 M1142.2,95c0,7.4-4.3,11-12.8,11h-1.9v12.9h-8.1V83.8h8.8c4.3,0,7.3,0.5,9,1.5
			C1140.6,87.3,1142.2,90.5,1142.2,95z"/>
		<rect x="1146.9" y="83.8" class="st3" width="8.1" height="35.1"/>
		<path class="st3" d="M1182.5,118.9h-2.9c-0.8,0-1.5,0.3-2.1,1s-0.8,1.4-0.8,2.3c0,2,0.8,2.9,2.4,2.9c0.7,0,1.4-0.2,2.1-0.5v4.3
			c-1.5,0.6-2.9,0.9-4.2,0.9c-1.8,0-3.2-0.4-4.2-1.3c-1.1-0.9-1.7-2.2-1.7-3.9c0-2.2,1.4-4.1,4.3-5.7h-13.5V83.8h20v5.9H1170v8.4
			h11.3v5.9H1170v9.1h12.5V118.9z"/>
		<path class="st3" d="M1211.6,118c-2.5,1-5.2,1.5-8.3,1.5c-5.1,0-9.2-1.6-12.2-4.9s-4.5-7.7-4.5-13.3c0-5.5,1.5-9.9,4.5-13.2
			c3-3.3,7-4.9,12-4.9c2.8,0,5.5,0.6,8.3,1.7l-0.4,6.6c-2-1.2-4.3-1.9-6.7-1.9c-2.9,0-5.2,1-6.8,3c-1.6,2-2.4,4.9-2.4,8.7
			c0,3.8,0.8,6.8,2.5,8.9s4,3.1,7,3.1c2.2,0,4.4-0.7,6.6-2L1211.6,118z"/>
		<rect x="1216.4" y="83.8" class="st3" width="8.1" height="35.1"/>
		<path class="st3" d="M1247.1,105l-3.7-14.3l-4.2,14.3H1247.1z M1259.1,118.9h-8.4l-2-7.8h-11.3l-2.1,7.8h-7.8l11.4-35.1h9.3
			L1259.1,118.9z"/>
		<path class="st3" d="M749.6,170.4c0,3.3-1.1,6-3.3,8s-5.2,3-9.2,3c-2.6,0-5.6-0.5-9-1.5l0.6-6.3c2.9,1.4,5.6,2.1,8,2.1
			c3.4,0,5.1-1.4,5.1-4.2c0-1.4-0.5-2.4-1.6-3.3c-0.6-0.5-2.3-1.4-5.1-2.8c-2.6-1.3-4.4-2.6-5.4-3.7c-1.3-1.5-2-3.5-2-6
			c0-3.3,1.1-5.9,3.2-7.7c2.2-1.9,5.2-2.8,9-2.8c2.3,0,4.9,0.4,7.6,1.2l-0.5,6.3c-2.5-1.1-4.8-1.7-6.9-1.7c-3.2,0-4.9,1.2-4.9,3.6
			c0,1.1,0.4,2.1,1.3,2.9c0.7,0.6,2.1,1.5,4.2,2.4c3.2,1.5,5.3,2.9,6.4,4.1C748.9,165.4,749.6,167.6,749.6,170.4 M746.3,134
			l-5.3,8.1h-5.1l2.7-8.1H746.3z"/>
		<path class="st3" d="M778.3,179.9c-2.5,1-5.2,1.5-8.3,1.5c-5.1,0-9.2-1.6-12.2-4.9c-3-3.3-4.5-7.7-4.5-13.3
			c0-5.5,1.5-9.9,4.5-13.2s7-4.9,12-4.9c2.8,0,5.5,0.6,8.3,1.7l-0.4,6.6c-2-1.2-4.3-1.9-6.7-1.9c-2.9,0-5.2,1-6.8,3
			s-2.4,4.9-2.4,8.7s0.8,6.8,2.5,8.9c1.7,2.1,4,3.1,7,3.1c2.2,0,4.4-0.7,6.6-2L778.3,179.9z"/>
		<rect x="783.1" y="145.7" class="st3" width="8.1" height="35.1"/>
		<path class="st3" d="M813.9,166.9l-3.7-14.3l-4.2,14.3H813.9z M825.8,180.8h-8.4l-2-7.8h-11.3l-2.1,7.8h-7.8l11.4-35.1h9.3
			L825.8,180.8z"/>
		<polygon class="st3" points="855.6,180.8 846.4,180.8 835.7,155.1 835.7,180.8 828.9,180.8 828.9,145.7 838.2,145.7 848.7,171.3 
			848.7,145.7 855.6,145.7 		"/>
		<polygon class="st3" points="902.6,180.8 893.3,180.8 882.7,155.1 882.7,180.8 875.9,180.8 875.9,145.7 885.1,145.7 895.7,171.3 
			895.7,145.7 902.6,145.7 		"/>
		<path class="st3" d="M925.2,166.9l-3.7-14.3l-4.2,14.3H925.2z M937.2,180.8h-8.4l-2-7.8h-11.3l-2.1,7.8h-7.8l11.4-35.1h9.3
			L937.2,180.8z"/>
		<path class="st3" d="M963.6,179.9c-2.5,1-5.2,1.5-8.3,1.5c-5.1,0-9.2-1.6-12.2-4.9c-3-3.3-4.5-7.7-4.5-13.3
			c0-5.5,1.5-9.9,4.5-13.2s7-4.9,12-4.9c2.8,0,5.5,0.6,8.3,1.7l-0.4,6.6c-2-1.2-4.3-1.9-6.7-1.9c-2.9,0-5.2,1-6.8,3
			s-2.4,4.9-2.4,8.7s0.8,6.8,2.5,8.9c1.7,2.1,4,3.1,7,3.1c2.2,0,4.4-0.7,6.6-2L963.6,179.9z"/>
		<polygon class="st3" points="989.3,180.8 966.5,180.8 966.5,173.8 980,151.9 966.9,151.9 966.9,145.7 988.9,145.7 988.9,152.2 
			975.2,174.5 989.3,174.5 		"/>
		<polygon class="st3" points="1018.4,145.7 1008,167.5 1008,180.8 999.9,180.8 999.9,167.2 989.5,145.7 998.6,145.7 1004.2,160.4 
			1009.8,145.7 		"/>
		<path class="st3" d="M1047.4,180.8h-9.3l-10.6-25.7v25.7h-6.8v-35.1h9.3l10.6,25.6v-25.6h6.9L1047.4,180.8L1047.4,180.8z
			 M1041.8,134l-5.3,8.1h-5.1l2.7-8.1H1041.8z"/>
		<path class="st3" d="M1088.5,180.8h-22.8v-7l13.5-21.9h-13.1v-6.3h22v6.6l-13.7,22.3h14.1V180.8z M1081.1,140.8h-7.8V134h7.8
			V140.8z"/>
		<polygon class="st3" points="1117.6,145.7 1107.2,167.5 1107.2,180.8 1099.1,180.8 1099.1,167.2 1088.7,145.7 1097.8,145.7 
			1103.4,160.4 1109,145.7 		"/>
		<polygon class="st3" points="1139.4,180.8 1119.8,180.8 1119.8,145.7 1127.9,145.7 1127.9,174.4 1139.4,174.4 		"/>
		<polygon class="st3" points="1170,180.8 1160.7,180.8 1150.1,155.1 1150.1,180.8 1143.2,180.8 1143.2,145.7 1152.5,145.7 
			1163.1,171.3 1163.1,145.7 1170,145.7 		"/>
		<polygon class="st3" points="1201.1,145.7 1190.7,167.5 1190.7,180.8 1182.6,180.8 1182.6,167.2 1172.1,145.7 1181.3,145.7 
			1186.9,160.4 1192.5,145.7 		"/>
		<path class="st3" d="M1225.7,179.9c-2.5,1-5.2,1.5-8.3,1.5c-5.1,0-9.2-1.6-12.2-4.9c-3-3.3-4.5-7.7-4.5-13.3
			c0-5.5,1.5-9.9,4.5-13.2s7-4.9,12-4.9c2.8,0,5.5,0.6,8.3,1.7l-0.4,6.6c-2-1.2-4.3-1.9-6.7-1.9c-2.9,0-5.2,1-6.8,3
			c-1.6,2-2.4,4.9-2.4,8.7s0.8,6.8,2.5,8.9c1.7,2.1,4,3.1,7,3.1c2.2,0,4.4-0.7,6.6-2L1225.7,179.9z"/>
		<polygon class="st3" points="1255.2,180.8 1247.1,180.8 1247.1,165.9 1238.6,165.9 1238.6,180.8 1230.5,180.8 1230.5,145.7 
			1238.6,145.7 1238.6,159.5 1247.1,159.5 1247.1,145.7 1255.2,145.7 		"/>
		<path class="st4" d="M298,300.8c0.3-1.9,0-3.3-1-4c-0.9-0.7-2.5-1-4.9-1h-2l-2,10.8h1.8c2.5,0,4.4-0.4,5.6-1.3
			C296.8,304.5,297.6,303,298,300.8 M301.7,327.4h-6.9l-1.4-11c-0.2-1.8-0.6-3-1.1-3.6c-0.6-0.7-1.6-1.1-3.1-1.1h-2l-2.8,15.7h-6.5
			l6.6-36.6h7.5c5,0,8.4,0.6,10.4,1.9c2.2,1.4,3,4.1,2.3,7.9c-0.8,4.7-3.7,7.5-8.6,8.6c1.2,0.2,2.1,0.8,2.7,1.7c0.4,0.7,0.7,2,1,3.8
			L301.7,327.4z"/>
		<path class="st4" d="M326.3,327.4h-5.7c0.1-1.3,0.3-2.6,0.5-4c-2,3.1-4.7,4.6-8.2,4.6c-5.1,0-7.1-3-6-9l3.4-18.7h6.3l-3.1,17.4
			c-0.6,3.2,0.3,4.8,2.7,4.8c3,0,4.9-2.2,5.7-6.5l2.8-15.7h6.3l-3.8,20.8C326.8,323.8,326.5,325.9,326.3,327.4"/>
		<path class="st4" d="M350.3,319.5c-0.5,2.5-1.7,4.6-3.8,6.1c-2.1,1.6-4.6,2.3-7.7,2.3c-2.4,0-4.8-0.4-7-1.3l1.2-5.5
			c2.1,1.4,4.3,2.1,6.7,2.1c2.8,0,4.4-1,4.8-2.9c0.1-0.8-0.1-1.5-0.7-2c-0.3-0.3-1.3-0.9-2.8-1.6c-2.3-1.2-3.9-2.4-4.7-3.5
			c-1-1.3-1.3-3-0.9-5c0.4-2.5,1.7-4.5,3.6-6c2-1.5,4.3-2.3,7-2.3c2.3,0,4.4,0.3,6.3,1l-1.1,5.1c-1.6-0.9-3.4-1.3-5.4-1.3
			c-2.6,0-4.1,0.9-4.4,2.7c-0.2,0.9,0.1,1.7,0.7,2.2c0.4,0.4,1.4,1,2.9,1.8c2.2,1.2,3.7,2.2,4.5,3.2
			C350.4,315.7,350.7,317.3,350.3,319.5"/>
		<path class="st4" d="M371.6,326.7c-2.3,0.8-4.7,1.2-7.1,1.2c-3.6,0-6.3-1.3-8-3.8s-2.1-5.9-1.4-10.1c0.8-4.5,2.5-8,5.2-10.5
			c2.6-2.5,5.9-3.7,9.8-3.7c1.8,0,3.7,0.4,5.7,1.2l-1.2,5.1c-1.3-0.8-2.8-1.2-4.4-1.2c-4.5,0-7.3,2.9-8.3,8.6c-0.5,3-0.4,5.3,0.5,7
			c0.9,1.6,2.4,2.4,4.6,2.4c1.7,0,3.5-0.4,5.2-1.3L371.6,326.7z"/>
		<path class="st4" d="M396.2,327.4h-5.7c0.1-1.3,0.3-2.6,0.5-4c-2,3.1-4.7,4.6-8.2,4.6c-5.1,0-7.1-3-6-9l3.4-18.7h6.3l-3.1,17.4
			c-0.6,3.2,0.3,4.8,2.7,4.8c3,0,4.9-2.2,5.7-6.5l2.8-15.7h6.3l-3.8,20.8C396.6,323.8,396.3,325.9,396.2,327.4"/>
		<path class="st4" d="M420.1,319.5c-0.5,2.5-1.7,4.6-3.8,6.1c-2.1,1.6-4.6,2.3-7.7,2.3c-2.4,0-4.8-0.4-7-1.3l1.2-5.5
			c2.1,1.4,4.3,2.1,6.7,2.1c2.8,0,4.4-1,4.8-2.9c0.1-0.8-0.1-1.5-0.7-2c-0.3-0.3-1.3-0.9-2.8-1.6c-2.3-1.2-3.9-2.4-4.7-3.5
			c-1-1.3-1.3-3-0.9-5c0.4-2.5,1.7-4.5,3.6-6c2-1.5,4.3-2.3,7-2.3c2.3,0,4.4,0.3,6.3,1L421,306c-1.6-0.9-3.4-1.3-5.4-1.3
			c-2.6,0-4.1,0.9-4.4,2.7c-0.2,0.9,0.1,1.7,0.7,2.2c0.4,0.4,1.4,1,2.9,1.8c2.2,1.2,3.7,2.2,4.5,3.2
			C420.2,315.7,420.5,317.3,420.1,319.5"/>
		<path class="st4" d="M452.6,316.1l0.3-1.7c-1.2-0.1-2-0.2-2.2-0.2c-4.7,0-7.3,1.7-7.9,5c-0.5,2.7,0.6,4.1,3.3,4.1
			C449.6,323.3,451.8,320.9,452.6,316.1 M457.1,327.4h-5.9l0.2-3.4c-2.4,2.6-5.2,4-8.4,4c-2.4,0-4.1-0.8-5.3-2.3
			c-1.2-1.5-1.5-3.5-1.1-6c1.1-6.1,5.9-9.2,14.4-9.2c0.9,0,1.8,0,2.6,0.1l0.2-1.2c0.6-3.4-0.9-5.1-4.5-5.1c-2.6,0-5,0.9-7.3,2.6
			l0.5-5.1c3.2-1.4,6.2-2.1,9-2.1c4,0,6.6,0.9,7.8,2.8c1.1,1.7,1.3,4.7,0.5,8.8l-1.9,10.6C457.5,324.3,457.2,326.1,457.1,327.4z"/>
		<path class="st4" d="M480.8,326.7c-2.3,0.8-4.7,1.2-7.1,1.2c-3.6,0-6.3-1.3-8-3.8s-2.1-5.9-1.4-10.1c0.8-4.5,2.5-8,5.2-10.5
			c2.6-2.5,5.9-3.7,9.8-3.7c1.8,0,3.7,0.4,5.7,1.2l-1.2,5.1c-1.3-0.8-2.8-1.2-4.4-1.2c-4.5,0-7.3,2.9-8.3,8.6c-0.5,3-0.4,5.3,0.5,7
			c0.9,1.6,2.4,2.4,4.6,2.4c1.7,0,3.5-0.4,5.2-1.3L480.8,326.7z"/>
		<path class="st4" d="M505.4,327.4h-5.7c0.1-1.3,0.3-2.6,0.5-4c-2,3.1-4.7,4.6-8.2,4.6c-5.1,0-7.1-3-6-9l3.4-18.7h6.3l-3.1,17.4
			c-0.6,3.2,0.3,4.8,2.7,4.8c3,0,4.9-2.2,5.7-6.5l2.8-15.7h6.3l-3.8,20.8C505.9,323.8,505.6,325.9,505.4,327.4"/>
		<polygon class="st4" points="518.3,327.4 512,327.4 519.1,287.9 525.5,287.9 		"/>
		<path class="st4" d="M542.1,311.7l0.1-0.5c0.8-4.6-0.2-7-3.1-7c-3,0-5.1,2.5-6.3,7.4h9.3V311.7z M547.8,313.3
			c-0.1,0.7-0.3,1.4-0.5,2.3h-15.1c-0.6,5.1,1.3,7.6,5.7,7.6c2.2,0,4.6-0.7,6.9-2l-0.9,4.9c-2.5,1.2-5.1,1.7-7.9,1.7
			c-4,0-6.9-1.2-8.6-3.6c-1.7-2.4-2.2-5.9-1.4-10.3s2.4-7.8,4.9-10.4c2.5-2.5,5.5-3.8,9-3.8c3,0,5.3,1.2,6.7,3.6
			C548.2,305.8,548.5,309.1,547.8,313.3z"/>
		<path class="st4" d="M565.8,316.1l0.3-1.7c-1.2-0.1-2-0.2-2.2-0.2c-4.7,0-7.3,1.7-7.9,5c-0.5,2.7,0.6,4.1,3.3,4.1
			C562.7,323.3,564.9,320.9,565.8,316.1 M570.2,327.4h-5.9l0.2-3.4c-2.4,2.6-5.2,4-8.4,4c-2.4,0-4.1-0.8-5.3-2.3s-1.5-3.5-1.1-6
			c1.1-6.1,5.9-9.2,14.4-9.2c0.9,0,1.8,0,2.6,0.1l0.2-1.2c0.6-3.4-0.9-5.1-4.5-5.1c-2.6,0-5,0.9-7.3,2.6l0.5-5.1
			c3.2-1.4,6.2-2.1,9-2.1c4,0,6.6,0.9,7.8,2.8c1.1,1.7,1.3,4.7,0.5,8.8L571,322C570.6,324.3,570.3,326.1,570.2,327.4z"/>
		<path class="st4" d="M589.2,327.2c-1.7,0.4-3.2,0.6-4.6,0.6c-3.1,0-4.9-0.8-5.7-2.5c-0.6-1.3-0.6-3.7,0-7.2l2.4-13.2H577l0.8-4.6
			h4.3l1-5.5l6.7-1.9l-1.3,7.4h5.3l-0.8,4.6h-5.3l-2.4,13.1c-0.3,1.7-0.4,2.8-0.3,3.3c0.2,1.1,1,1.6,2.5,1.6c0.7,0,1.6-0.1,2.6-0.4
			L589.2,327.2z"/>
		<path class="st4" d="M614.1,327.4h-5.7c0.1-1.3,0.3-2.6,0.5-4c-2,3.1-4.7,4.6-8.2,4.6c-5.1,0-7.1-3-6-9l3.4-18.7h6.3l-3.1,17.4
			c-0.6,3.2,0.3,4.8,2.7,4.8c3,0,4.9-2.2,5.7-6.5l2.8-15.7h6.3l-3.8,20.8C614.6,323.8,614.3,325.9,614.1,327.4"/>
		<path class="st4" d="M638.1,319.5c-0.5,2.5-1.7,4.6-3.8,6.1c-2.1,1.6-4.6,2.3-7.7,2.3c-2.4,0-4.8-0.4-7-1.3l1.2-5.5
			c2.1,1.4,4.3,2.1,6.7,2.1c2.8,0,4.4-1,4.8-2.9c0.1-0.8-0.1-1.5-0.7-2c-0.3-0.3-1.3-0.9-2.8-1.6c-2.3-1.2-3.9-2.4-4.7-3.5
			c-1-1.3-1.3-3-0.9-5c0.4-2.5,1.7-4.5,3.6-6c2-1.5,4.3-2.3,7-2.3c2.3,0,4.4,0.3,6.3,1L639,306c-1.6-0.9-3.4-1.3-5.4-1.3
			c-2.6,0-4.1,0.9-4.4,2.7c-0.2,0.9,0.1,1.7,0.7,2.2c0.4,0.4,1.4,1,2.9,1.8c2.2,1.2,3.7,2.2,4.5,3.2
			C638.1,315.7,638.4,317.3,638.1,319.5"/>
		<polygon class="st4" points="114.8,290.8 107.4,327.4 99.6,327.4 93.8,296.7 88.2,327.4 80.4,327.4 72.8,290.8 79.2,290.8 
			84.6,320.2 90,290.8 97.9,290.8 103.4,320.1 108.9,290.8 		"/>
		<path class="st4" d="M139.2,300.3l-8.9,29.6c-1,3.3-2,5.6-3.1,6.8c-1.3,1.6-3.3,2.4-5.8,2.4c-1.4,0-2.7-0.2-3.8-0.5l0.4-4.9
			c0.8,0.2,1.4,0.3,2,0.3c2,0,3.3-1.2,4-3.7l0.6-2l-9-27.9h6.7l5.4,20.8l5.3-20.8L139.2,300.3L139.2,300.3z"/>
		<path class="st4" d="M160.3,326.7c-2.2,0.8-4.5,1.2-6.9,1.2c-3.6,0-6.5-1.3-8.6-3.8s-3.2-5.9-3.2-10.1c0-4.5,1.1-8,3.3-10.5
			s5.2-3.7,9.1-3.7c1.8,0,3.8,0.4,5.9,1.2l-0.3,5.1c-1.4-0.8-3-1.2-4.6-1.2c-4.5,0-6.7,2.9-6.7,8.6c0,3,0.6,5.3,1.8,7
			c1.2,1.6,2.9,2.4,5.1,2.4c1.7,0,3.4-0.4,5-1.3L160.3,326.7z"/>
		<path class="st4" d="M170.6,327.4h-6.3v-27h6.3V327.4z M170.8,295.2h-6.6V289h6.6V295.2z"/>
		<path class="st4" d="M190.5,316.1v-1.7c-1.3-0.1-2-0.2-2.3-0.2c-4.7,0-7,1.7-7,5c0,2.7,1.4,4.1,4.1,4.1
			C188.8,323.3,190.5,320.9,190.5,316.1 M198.6,337.8c-1.1,0.4-2,0.5-3,0.5c-4.1,0-6.2-1.7-6.2-5c0-2.1,1.1-4.1,3.4-6h-1.7l-0.4-3.4
			c-1.9,2.6-4.5,4-7.6,4c-2.4,0-4.3-0.8-5.7-2.3s-2.2-3.5-2.2-6c0-6.1,4.2-9.2,12.7-9.2c0.9,0,1.8,0,2.6,0.1v-1.2
			c0-3.4-1.8-5.1-5.4-5.1c-2.6,0-4.9,0.9-6.9,2.6l-0.4-5.1c2.9-1.4,5.8-2.1,8.6-2.1c4,0,6.7,0.9,8.3,2.8c1.4,1.7,2.1,4.7,2.1,8.8
			V322c0,2.4,0.1,4.1,0.2,5.4c-0.8,0.3-1.5,0.9-2.1,1.7c-0.5,0.8-0.8,1.7-0.8,2.6c0,0.7,0.2,1.3,0.6,1.8c0.4,0.5,1,0.8,1.6,0.8
			c0.8,0,1.5-0.2,2.2-0.5L198.6,337.8L198.6,337.8z"/>
		<path class="st4" d="M218.2,314.9v-2.7c0-2.5-0.4-4.3-1.3-5.6c-0.9-1.3-2.1-1.9-3.5-1.9c-3.2,0-4.8,2.9-4.8,8.8c0,6,1.6,9,4.7,9
			C216.6,322.4,218.2,319.9,218.2,314.9 M224.8,300.3c-0.1,2.6-0.2,4.9-0.2,7v16c0,3.2-0.2,5.5-0.5,7.1c-0.5,2.1-1.4,3.9-2.7,5.3
			c-2.1,2.2-5.3,3.3-9.4,3.3c-3.3,0-6.3-0.5-8.9-1.5l0.4-5.4c2.4,1.4,4.9,2.1,7.6,2.1c2.6,0,4.4-0.7,5.5-2.2s1.7-3.8,1.7-7
			c0-0.7,0-1.3-0.1-1.7c-1.6,2.7-3.9,4.1-6.9,4.1c-6.3,0-9.4-4.6-9.4-13.9c0-4.4,0.8-7.8,2.5-10.2c1.7-2.4,4-3.6,6.9-3.6
			c3.1,0,5.5,1.5,7.2,4.6c0-0.9,0.1-2.2,0.2-4.1h6.1L224.8,300.3L224.8,300.3z"/>
		<polygon class="st4" points="260.8,327.4 242.9,327.4 242.9,321.6 254,305.2 243.2,305.2 243.2,300.3 260.8,300.3 260.8,305.9 
			249.5,322.5 260.8,322.5 		"/>
		<rect x="654.4" y="310.9" class="st4" width="12" height="5.1"/>
		<path class="st4" d="M698.5,316.1v-1.7c-1.3-0.1-2-0.2-2.3-0.2c-4.7,0-7,1.7-7,5c0,2.7,1.4,4.1,4.1,4.1
			C696.7,323.3,698.5,320.9,698.5,316.1 M705,327.4h-6l-0.4-3.4c-1.9,2.6-4.5,4-7.6,4c-2.4,0-4.3-0.8-5.7-2.3s-2.2-3.5-2.2-6
			c0-6.1,4.2-9.2,12.7-9.2c0.9,0,1.8,0,2.6,0.1v-1.2c0-3.4-1.8-5.1-5.4-5.1c-2.6,0-4.9,0.9-6.9,2.6l-0.4-5.1
			c2.9-1.4,5.8-2.1,8.6-2.1c4,0,6.7,0.9,8.3,2.8c1.4,1.7,2.1,4.7,2.1,8.8V322C704.8,324.3,704.8,326.1,705,327.4z"/>
		<path class="st4" d="M726.1,314.9v-2.7c0-2.5-0.4-4.3-1.3-5.6c-0.9-1.3-2.1-1.9-3.5-1.9c-3.2,0-4.8,2.9-4.8,8.8c0,6,1.6,9,4.7,9
			C724.5,322.4,726.1,319.9,726.1,314.9 M732.7,300.3c-0.1,2.6-0.2,4.9-0.2,7v16c0,3.2-0.2,5.5-0.5,7.1c-0.5,2.1-1.4,3.9-2.7,5.3
			c-2.1,2.2-5.3,3.3-9.4,3.3c-3.3,0-6.3-0.5-8.9-1.5l0.4-5.4c2.4,1.4,4.9,2.1,7.6,2.1c2.6,0,4.4-0.7,5.5-2.2s1.7-3.8,1.7-7
			c0-0.7,0-1.3-0.1-1.7c-1.6,2.7-3.9,4.1-6.9,4.1c-6.3,0-9.4-4.6-9.4-13.9c0-4.4,0.8-7.8,2.5-10.2c1.7-2.4,4-3.6,6.9-3.6
			c3.1,0,5.5,1.5,7.2,4.6c0-0.9,0.1-2.2,0.2-4.1h6.1L732.7,300.3L732.7,300.3z"/>
		<path class="st4" d="M754.6,313.9c0-6.3-1.7-9.4-5-9.4c-3.4,0-5.1,3.1-5.1,9.4c0,6.2,1.7,9.3,5.1,9.3
			C752.9,323.1,754.6,320.1,754.6,313.9 M761.2,313.8c0,4.5-1,8-3.1,10.4c-2,2.4-4.9,3.6-8.6,3.6c-3.7,0-6.6-1.2-8.6-3.7
			c-2-2.4-3.1-5.9-3.1-10.4s1-8,3-10.4s4.9-3.6,8.6-3.6c3.7,0,6.6,1.2,8.6,3.6C760.2,305.8,761.2,309.3,761.2,313.8z"/>
		<path class="st4" d="M787.4,327.4h-6.3V310c0-3.2-1.2-4.8-3.7-4.8c-1.3,0-2.4,0.6-3.2,1.7s-1.2,2.7-1.2,4.7v15.9h-6.3v-20.8
			c0-2.3-0.1-4.4-0.3-6.3h5.7c0.2,2.3,0.3,3.6,0.3,4c1.4-3.1,3.9-4.6,7.4-4.6c5.1,0,7.6,3,7.6,9V327.4z"/>
		<path class="st4" d="M800.3,327.4H794v-27h6.3V327.4z M800.4,295.2h-6.6V289h6.6V295.2z"/>
		<path class="st4" d="M822.9,319.5c0,2.5-0.9,4.6-2.7,6.1c-1.8,1.6-4.2,2.3-7.3,2.3c-2.4,0-4.8-0.4-7.2-1.3l0.2-5.5
			c2.3,1.4,4.7,2.1,7.1,2.1c2.8,0,4.3-1,4.3-2.9c0-0.8-0.4-1.5-1.1-2c-0.4-0.3-1.4-0.9-3.1-1.6c-2.5-1.2-4.3-2.4-5.4-3.5
			c-1.2-1.3-1.8-3-1.8-5c0-2.5,0.8-4.5,2.5-6s3.9-2.3,6.5-2.3c2.3,0,4.5,0.3,6.5,1l-0.2,5.1c-1.8-0.9-3.7-1.3-5.6-1.3
			c-2.6,0-4,0.9-4,2.7c0,0.9,0.4,1.7,1.1,2.2c0.5,0.4,1.6,1,3.3,1.8c2.5,1.2,4.1,2.2,5.1,3.2C822.3,315.7,822.9,317.3,822.9,319.5"
			/>
		<path class="st4" d="M840.9,327.2c-1.6,0.4-3.1,0.6-4.5,0.6c-3.1,0-5.1-0.8-6.1-2.5c-0.8-1.3-1.3-3.7-1.3-7.2v-13.2h-4.3v-4.6h4.3
			v-5.5l6.3-1.9v7.4h5.3v4.6h-5.3V318c0,1.7,0.1,2.8,0.3,3.3c0.4,1.1,1.3,1.6,2.7,1.6c0.7,0,1.6-0.1,2.5-0.4L840.9,327.2
			L840.9,327.2z"/>
		<path class="st4" d="M858.3,316.1v-1.7c-1.3-0.1-2-0.2-2.3-0.2c-4.7,0-7,1.7-7,5c0,2.7,1.4,4.1,4.1,4.1
			C856.5,323.3,858.3,320.9,858.3,316.1 M864.7,327.4h-5.9l-0.4-3.4c-1.9,2.6-4.5,4-7.6,4c-2.4,0-4.3-0.8-5.7-2.3s-2.2-3.5-2.2-6
			c0-6.1,4.2-9.2,12.7-9.2c0.9,0,1.8,0,2.6,0.1v-1.2c0-3.4-1.8-5.1-5.4-5.1c-2.6,0-4.9,0.9-6.9,2.6l-0.4-5.1
			c2.9-1.4,5.8-2.1,8.6-2.1c4,0,6.7,0.9,8.3,2.8c1.4,1.7,2.1,4.7,2.1,8.8V322C864.6,324.3,864.6,326.1,864.7,327.4z"/>
		<path class="st4" d="M898.2,305.8c-1.1-0.1-2.5-0.2-4.5-0.2c-1.9,0-2.9,2.5-2.9,7.6v14.1h-6.3v-20.8c0-2.3-0.1-4.4-0.3-6.3h5.7
			c0.1,1.8,0.2,3,0.2,3.8v0.8c1.4-3.4,3.8-5.2,7.2-5.2c0.3,0,0.6,0.1,0.8,0.1L898.2,305.8L898.2,305.8z"/>
		<path class="st4" d="M915.9,311.7v-0.5c0-4.6-1.5-7-4.4-7c-3,0-4.6,2.5-5,7.4h9.4V311.7z M921.8,313.3c0,0.7,0,1.4-0.1,2.3h-15.1
			c0.3,5.1,2.7,7.6,7.1,7.6c2.2,0,4.4-0.7,6.6-2v4.9c-2.3,1.2-4.8,1.7-7.5,1.7c-4,0-7.1-1.2-9.3-3.6s-3.3-5.9-3.3-10.3s1-7.8,3-10.4
			c2-2.5,4.8-3.8,8.3-3.8c3,0,5.5,1.2,7.4,3.6C920.9,305.8,921.8,309.1,921.8,313.3z"/>
		<path class="st4" d="M944.5,326.7c-2.2,0.8-4.5,1.2-6.9,1.2c-3.6,0-6.5-1.3-8.6-3.8s-3.2-5.9-3.2-10.1c0-4.5,1.1-8,3.3-10.5
			s5.2-3.7,9.1-3.7c1.8,0,3.8,0.4,5.9,1.2l-0.3,5.1c-1.4-0.8-3-1.2-4.6-1.2c-4.5,0-6.7,2.9-6.7,8.6c0,3,0.6,5.3,1.8,7
			c1.2,1.6,2.9,2.4,5.1,2.4c1.7,0,3.4-0.4,5-1.3L944.5,326.7z"/>
		<path class="st4" d="M962.6,311.7v-0.5c0-4.6-1.5-7-4.4-7c-3,0-4.6,2.5-5,7.4h9.4V311.7z M968.6,313.3c0,0.7,0,1.4-0.1,2.3h-15.1
			c0.3,5.1,2.7,7.6,7.1,7.6c2.2,0,4.4-0.7,6.6-2v4.9c-2.3,1.2-4.8,1.7-7.5,1.7c-4,0-7.1-1.2-9.3-3.6s-3.3-5.9-3.3-10.3s1-7.8,3-10.4
			c2-2.5,4.8-3.8,8.3-3.8c3,0,5.5,1.2,7.4,3.6C967.6,305.8,968.6,309.1,968.6,313.3z"/>
		<path class="st4" d="M989.9,313.8c0-6.1-1.6-9.2-4.8-9.2s-4.8,2.6-4.8,7.7v2.8c0,5.2,1.6,7.8,4.8,7.8
			C988.3,323,989.9,319.9,989.9,313.8 M996.6,313.8c0,9.4-3.2,14.1-9.5,14.1c-3,0-5.2-1.4-6.8-4.2v15.1H974v-31.5
			c0-0.2,0-0.9-0.1-2.2c-0.1-1.7-0.1-3.3-0.2-4.8h6c0.1,1.7,0.2,3,0.2,4.1c1.7-3.1,4.1-4.6,7.2-4.6
			C993.4,299.7,996.6,304.4,996.6,313.8z"/>
		<path class="st4" d="M1014.6,327.2c-1.6,0.4-3.1,0.6-4.5,0.6c-3.1,0-5.1-0.8-6.1-2.5c-0.8-1.3-1.3-3.7-1.3-7.2v-13.2h-4.3v-4.6
			h4.3v-5.5l6.3-1.9v7.4h5.3v4.6h-5.3V318c0,1.7,0.1,2.8,0.3,3.3c0.4,1.1,1.3,1.6,2.7,1.6c0.7,0,1.6-0.1,2.5-0.4L1014.6,327.2
			L1014.6,327.2z"/>
		<path class="st4" d="M1034.1,313.9c0-6.3-1.7-9.4-5-9.4c-3.4,0-5.1,3.1-5.1,9.4c0,6.2,1.7,9.3,5.1,9.3
			C1032.4,323.1,1034.1,320.1,1034.1,313.9 M1040.8,313.8c0,4.5-1,8-3.1,10.4c-2,2.4-4.9,3.6-8.6,3.6s-6.6-1.2-8.6-3.7
			c-2-2.4-3.1-5.9-3.1-10.4s1-8,3-10.4s4.9-3.6,8.6-3.6s6.6,1.2,8.6,3.6C1039.7,305.8,1040.8,309.3,1040.8,313.8z"/>
		<path class="st4" d="M1059.9,305.8c-1.1-0.1-2.5-0.2-4.5-0.2c-1.9,0-2.9,2.5-2.9,7.6v14.1h-6.3v-20.8c0-2.3-0.1-4.4-0.3-6.3h5.7
			c0.1,1.8,0.2,3,0.2,3.8v0.8c1.4-3.4,3.8-5.2,7.2-5.2c0.3,0,0.6,0.1,0.8,0.1v6.1H1059.9z"/>
		<path class="st4" d="M1078.7,313.9c0-6.3-1.7-9.4-5-9.4c-3.4,0-5.1,3.1-5.1,9.4c0,6.2,1.7,9.3,5.1,9.3
			C1077,323.1,1078.7,320.1,1078.7,313.9 M1085.4,313.8c0,4.5-1,8-3.1,10.4c-2,2.4-4.9,3.6-8.6,3.6s-6.6-1.2-8.6-3.7
			c-2-2.4-3.1-5.9-3.1-10.4s1-8,3-10.4s4.9-3.6,8.6-3.6s6.6,1.2,8.6,3.6C1084.3,305.8,1085.4,309.3,1085.4,313.8z M1080.9,289
			l-5.7,8.1h-4.8l4-8.1H1080.9z"/>
		<polygon class="st4" points="1126.2,300.3 1118.9,327.4 1112.1,327.4 1107.2,306 1102.3,327.4 1095.3,327.4 1088.3,300.3 
			1094.7,300.3 1099.1,321.6 1103.8,300.3 1110.9,300.3 1115.5,321.6 1120,300.3 		"/>
		<polygon class="st4" points="1190.5,327.4 1184.5,327.4 1184.5,298.3 1179.8,303.1 1176.7,298.5 1185.5,290.8 1190.5,290.8 		"/>
		<path class="st4" d="M1223,327.4h-6.3v-27h6.3V327.4z M1223.2,295.2h-6.6V289h6.6V295.2z"/>
		<path class="st4" d="M1295.2,327.4h-20.6V322c4.6-4.8,8-8.9,10.1-12c2.3-3.4,3.4-6.4,3.4-8.9c0-1.7-0.5-3-1.4-4s-2.2-1.5-3.8-1.5
			c-2.2,0-4.6,0.8-7,2.5l-0.6-5.6c2.6-1.5,5.5-2.3,8.6-2.3c3.2,0,5.7,0.9,7.6,2.8c1.9,1.8,2.9,4.2,2.9,7.2c0,5.8-4.3,13.1-12.8,22
			h13.5v5.2L1295.2,327.4L1295.2,327.4z"/>
		<path class="st4" d="M1150,313.8c0,2.5,0.5,4.6,1.6,6.1c1.1,1.6,2.5,2.4,4.2,2.4s3-0.7,4-2.1c1.1-1.4,1.6-3.5,1.6-6.4
			c0-2.8-0.6-5-1.7-6.4c-1.1-1.5-2.5-2.2-4-2.2c-1.7,0-3,0.8-4.1,2.3C1150.6,308.9,1150,311,1150,313.8 M1165.1,300h6.2
			c-1,2-1.8,4.5-2.5,7.6s-1,5.3-1,6.5c0,1.6,0.3,3.7,0.9,6.3c0.6,2.6,1.4,4.9,2.3,7h-6.1c-0.1-0.3-0.2-0.8-0.5-1.4
			c-0.4-1-0.7-2.1-0.9-3.1c-2.1,3.4-5.1,5.1-9,5.1c-3.7,0-6.6-1.5-8.7-4.5s-3.2-6.5-3.2-10.5c0-3.8,1.1-7,3.2-9.6s5-4,8.8-4
			c3.7,0,6.7,1.8,9,5.3C1163.9,303.5,1164.4,301.9,1165.1,300z"/>
		<path class="st4" d="M1249.3,313.8c0,2.5,0.5,4.6,1.6,6.1c1.1,1.6,2.5,2.4,4.2,2.4s3-0.7,4-2.1c1.1-1.4,1.6-3.5,1.6-6.4
			c0-2.8-0.6-5-1.7-6.4c-1.1-1.5-2.5-2.2-4-2.2c-1.7,0-3,0.8-4.1,2.3C1249.8,308.9,1249.3,311,1249.3,313.8 M1264.3,300h6.2
			c-1,2-1.8,4.5-2.5,7.6s-1,5.3-1,6.5c0,1.6,0.3,3.7,0.9,6.3c0.6,2.6,1.4,4.9,2.3,7h-6.1c-0.1-0.3-0.2-0.8-0.5-1.4
			c-0.4-1-0.7-2.1-0.9-3.1c-2.1,3.4-5.1,5.1-9,5.1c-3.7,0-6.6-1.5-8.7-4.5s-3.2-6.5-3.2-10.5c0-3.8,1.1-7,3.2-9.6s5-4,8.8-4
			c3.7,0,6.7,1.8,9,5.3C1263.1,303.5,1263.6,301.9,1264.3,300z"/>
		<polygon class="st3" points="1268,154.6 1265.6,154.6 1265.6,143.1 1263.8,145 1262.6,143.2 1266,140.1 1268,140.1 		"/>
		
			<image style="overflow:visible;enable-background:new    ;" width="1600" height="608" xlink:href="zyla.png"  transform="matrix(0.7964 0 0 0.7964 42.0995 457.2999)">
		</image>
	</g>
</g>
<g id="Warstwa_2">
</g>
</svg>
