<?xml version="1.0" encoding="utf-8"?>
<!-- Generator: Adobe Illustrator 23.1.1, SVG Export Plug-In . SVG Version: 6.00 Build 0)  -->
<svg version="1.1" id="Warstwa_1" xmlns="http://www.w3.org/2000/svg" xmlns:xlink="http://www.w3.org/1999/xlink" x="0px" y="0px"
	 viewBox="0 0 1366 1024" style="enable-background:new 0 0 1366 1024;" xml:space="preserve">
<style type="text/css">
	.st0{fill:#EDF1F4;}
	.st1{display:none;}
	.st2{display:inline;}
	.st3{fill-rule:evenodd;clip-rule:evenodd;fill:#096CB2;}
	.st4{fill:none;stroke:#FFED00;stroke-width:2.4495;stroke-linecap:round;stroke-linejoin:round;stroke-miterlimit:22.9256;}
	.st5{fill-rule:evenodd;clip-rule:evenodd;fill:#EF7D00;}
	.st6{fill:#096CB2;}
	.st7{fill-rule:evenodd;clip-rule:evenodd;fill:#E30613;}
	.st8{fill:#EF7D00;}
	.st9{fill:none;stroke:#FFED00;stroke-width:1.282;stroke-linecap:round;stroke-linejoin:round;stroke-miterlimit:22.9256;}
	.st10{fill:#FFFFFF;}
	.st11{fill:#E30613;}
</style>
<g>
	<rect class="st0" width="1366" height="1024"/>
</g>
<g class="st1">
	<g class="st2">
		<path class="st3" d="M1282.5,45.8H569.9H79.1c-19,0-34.6,15.5-34.6,34.6v125.7c0,19,15.5,34.6,34.6,34.6H570h712.5
			c19,0,34.6-15.5,34.6-34.6V80.4C1317,61.4,1301.5,45.8,1282.5,45.8"/>
		<path class="st4" d="M570.5,87.5h17.8v88.7h-17.8V87.5z M769.5,99.7h2.5h14.4h24.9V116h-24.9v13.3h22.8v16.3h-22.8v31h-16.9V99.7z
			 M901.5,116l-13.7,7.2c7,6,8.7,11.9,8.7,19.1v35l16.4-0.3l-0.2-26.8c-0.1-13.8,11-16.8,18.1-18.4l-3.7-16.3
			c-6.4,0.6-13.4,4.5-18.4,8.8L901.5,116z M464.7,114.4l-16.5,5.3l21.3,52.5l-14.3,28.4l14.4,6.8l39.8-87.4l-15.2-5.4l-15.3,41
			L464.7,114.4z M624.6,130.7c6.9,0,12.4,7.5,12.4,16.7s-5.6,16.7-12.4,16.7c-6.9,0-12.4-7.5-12.4-16.7
			C612.1,138.2,617.7,130.7,624.6,130.7z M624.6,115.2c16.4,0,29.7,14.4,29.7,32.2s-13.3,32.2-29.7,32.2s-29.7-14.4-29.7-32.2
			C594.8,129.6,608.1,115.2,624.6,115.2z M850.1,130.7c6.9,0,12.4,7.5,12.4,16.7s-5.6,16.7-12.4,16.7c-6.9,0-12.4-7.5-12.4-16.7
			C837.6,138.2,843.2,130.7,850.1,130.7z M850.1,115.2c16.4,0,29.7,14.4,29.7,32.2s-13.3,32.2-29.7,32.2s-29.7-14.4-29.7-32.2
			C820.3,129.6,833.6,115.2,850.1,115.2z M555.8,157.7l9.9,11.7c-8.3,10.2-26.3,13.5-39.6,4.3c-8.4-5.8-13.7-15.6-13.2-26.6
			c0.4-10.3,5.2-20.5,13-26.4c13.7-10.5,31.2-5.4,40.8,5.2L556,136c-12.8-14.4-26.6-2.4-26.4,10.1c0.1,8.5,2.6,16.3,13.1,17.3
			C548.2,163.9,553.2,161.4,555.8,157.7z M445.2,168.2l-10-13c-3.8,4.5-9.7,7.8-14.8,7.8c-10.8,0-18.3-12.3-17.8-25.9
			c0.4-13.6,7.1-25.3,17.9-25.3c4.5,0,11.3,2.7,14.7,6.3l10.4-11c-13.1-12.7-28.1-13.9-39.6-7.4s-19.4,20.6-20.5,37.4
			c-1.5,23.1,15.7,41.8,36.9,41.8C430.9,178.9,438.2,174.1,445.2,168.2z M946.9,100.2h16.7v18h12.7V134l-12.7,0.1v19.1
			c0,5.8,2.8,15.1,9.5,18.7l-13.3,7.9c-7.4-6.1-12.8-14.2-12.8-25.8v-20h-12l-0.2-15.9L947,118L946.9,100.2L946.9,100.2z M663,92.4
			c14.5-12.5,33.6-17.6,48.4-14.2c23.5,5.4,32.3,19.9,31.1,33.5c-1,11.1-8.5,21.6-20,26.1c14,5.9,23.4,14.3,24.4,27.1
			c1.1,13.9-4.8,31-28.8,39.7c-12.5,4.5-28.2,5.6-47.4,3.1l-1.2-25.1c11.5,2.3,20.7,3.2,28,2.9c24.7-1.2,31.6-24.8,11.7-31
			c-6.7-2.1-14.7-2.9-26.8-2.6l-0.3-23.4c7.8,0,17.5-0.5,23.7-2.7c12.8-4.5,13.8-20-1.1-23.7c-8.5-2.1-21.1-0.2-27.1,9.7L663,92.4z"
			/>
		<path class="st5" d="M570.5,87.5h17.8v88.7h-17.8V87.5z M769.5,99.7h2.5h14.4h24.9V116h-24.9v13.3h22.8v16.3h-22.8v31h-16.9V99.7z
			 M901.5,116l-13.7,7.2c7,6,8.7,11.9,8.7,19.1v35l16.4-0.3l-0.2-26.8c-0.1-13.8,11-16.8,18.1-18.4l-3.7-16.3
			c-6.4,0.6-13.4,4.5-18.4,8.8L901.5,116z M464.7,114.4l-16.5,5.3l21.3,52.5l-14.3,28.4l14.4,6.8l39.8-87.4l-15.2-5.4l-15.3,41
			L464.7,114.4z M624.6,130.7c6.9,0,12.4,7.5,12.4,16.7s-5.6,16.7-12.4,16.7c-6.9,0-12.4-7.5-12.4-16.7
			C612.1,138.2,617.7,130.7,624.6,130.7z M624.6,115.2c16.4,0,29.7,14.4,29.7,32.2s-13.3,32.2-29.7,32.2s-29.7-14.4-29.7-32.2
			C594.8,129.7,608.1,115.2,624.6,115.2z M850.1,130.7c6.9,0,12.4,7.5,12.4,16.7s-5.6,16.7-12.4,16.7s-12.4-7.5-12.4-16.7
			C837.6,138.2,843.2,130.7,850.1,130.7z M850.1,115.2c16.4,0,29.7,14.4,29.7,32.2s-13.3,32.2-29.7,32.2s-29.7-14.4-29.7-32.2
			C820.3,129.7,833.6,115.2,850.1,115.2z M555.8,157.7l9.9,11.7c-8.3,10.2-26.3,13.5-39.6,4.3c-8.4-5.8-13.7-15.6-13.2-26.6
			c0.4-10.3,5.2-20.5,13-26.4c13.7-10.5,31.2-5.4,40.8,5.2L556,136c-12.8-14.4-26.6-2.4-26.4,10.1c0.1,8.5,2.6,16.3,13.1,17.3
			C548.2,163.9,553.2,161.4,555.8,157.7z M445.2,168.2l-10-13c-3.8,4.5-9.7,7.8-14.8,7.8c-10.8,0-18.3-12.3-17.8-25.9
			c0.4-13.6,7.1-25.3,17.9-25.3c4.5,0,11.3,2.7,14.7,6.3l10.4-11c-13.1-12.7-28.1-13.9-39.6-7.4s-19.4,20.6-20.5,37.4
			c-1.5,23.1,15.7,41.8,36.9,41.8C430.9,178.9,438.2,174.1,445.2,168.2z M946.9,100.2h16.7v18h12.7V134l-12.7,0.1v19.1
			c0,5.8,2.8,15.1,9.5,18.7l-13.3,7.9c-7.4-6.1-12.8-14.2-12.8-25.8v-20h-12l-0.2-15.9L947,118L946.9,100.2L946.9,100.2z M663,92.4
			c14.5-12.5,33.6-17.6,48.4-14.2c23.5,5.4,32.3,19.9,31.1,33.5c-1,11.1-8.5,21.6-20,26.1c14,5.9,23.4,14.3,24.4,27.1
			c1.1,13.9-4.8,31-28.8,39.7c-12.5,4.5-28.2,5.6-47.4,3.1l-1.2-25.1c11.5,2.3,20.7,3.2,28,2.9c24.7-1.2,31.6-24.8,11.7-31
			c-6.7-2.1-14.7-2.9-26.8-2.6l-0.3-23.4c7.8,0,17.5-0.5,23.7-2.7c12.8-4.5,13.8-20-1.1-23.7c-8.5-2.1-21.1-0.2-27.1,9.7L663,92.4z"
			/>
		<path class="st5" d="M749.6,92.3v-9h3.1c1.1,0,1.8,0.1,2.3,0.2c0.5,0.2,0.8,0.5,1.1,0.9s0.4,0.9,0.4,1.3c0,0.7-0.2,1.2-0.7,1.7
			s-1.1,0.8-1.9,0.8c0.3,0.1,0.6,0.3,0.8,0.5c0.4,0.4,0.8,0.9,1.3,1.8l1.1,1.8h-1.8l-0.8-1.4c-0.6-1.1-1.1-1.8-1.5-2.1
			c-0.3-0.2-0.7-0.3-1.2-0.3H751v3.8C751,92.3,749.6,92.3,749.6,92.3z M751,87.2h1.8c0.8,0,1.4-0.1,1.7-0.4c0.3-0.2,0.5-0.6,0.5-1
			c0-0.3-0.1-0.5-0.2-0.7c-0.1-0.2-0.3-0.4-0.6-0.5s-0.7-0.2-1.5-0.2H751V87.2z M753.2,80.7c-1.2,0-2.3,0.3-3.4,0.9
			c-1.1,0.6-2,1.5-2.6,2.6s-0.9,2.3-0.9,3.5s0.3,2.3,0.9,3.4c0.6,1.1,1.5,2,2.6,2.6s2.3,0.9,3.5,0.9s2.4-0.3,3.5-0.9s2-1.5,2.6-2.6
			s0.9-2.2,0.9-3.4c0-1.2-0.3-2.4-0.9-3.5c-0.6-1.1-1.5-2-2.6-2.6C755.5,81,754.4,80.7,753.2,80.7z M753.2,79.3
			c1.4,0,2.8,0.4,4.1,1.1s2.4,1.7,3.1,3.1c0.7,1.3,1.1,2.7,1.1,4.2c0,1.4-0.4,2.8-1.1,4.1c-0.7,1.3-1.8,2.4-3.1,3.1
			s-2.7,1.1-4.1,1.1c-1.4,0-2.8-0.4-4.1-1.1s-2.4-1.8-3.1-3.1c-0.7-1.3-1.1-2.7-1.1-4.1c0-1.5,0.4-2.8,1.1-4.2
			c0.7-1.3,1.8-2.4,3.1-3.1C750.4,79.7,751.8,79.3,753.2,79.3z"/>
		<polygon class="st6" points="201.7,330.6 181.3,330.6 181.3,290.4 188.5,290.4 188.5,324.7 201.7,324.7 		"/>
		<path class="st6" d="M221.3,313.4v-0.5c0-5.1-1.6-7.7-4.8-7.7c-3.3,0-5.1,2.7-5.4,8.2H221.3z M227.8,315.2c0,0.7,0,1.6-0.1,2.5
			h-16.6c0.3,5.6,2.9,8.4,7.8,8.4c2.5,0,4.9-0.7,7.2-2.1v5.4c-2.6,1.3-5.3,1.9-8.3,1.9c-4.4,0-7.8-1.3-10.2-4s-3.6-6.5-3.6-11.4
			c0-4.8,1.1-8.6,3.3-11.4s5.3-4.2,9.1-4.2c3.3,0,6,1.3,8.1,4C226.8,306.9,227.8,310.6,227.8,315.2z"/>
		<path class="st6" d="M252.8,329.9c-2.4,0.9-4.9,1.3-7.5,1.3c-4,0-7.1-1.4-9.5-4.1c-2.4-2.8-3.5-6.5-3.5-11.2
			c0-4.9,1.2-8.8,3.6-11.5c2.4-2.7,5.8-4.1,10.1-4.1c2,0,4.2,0.4,6.5,1.3l-0.3,5.6c-1.6-0.9-3.3-1.3-5.1-1.3c-4.9,0-7.4,3.2-7.4,9.5
			c0,3.3,0.7,5.9,2,7.7c1.3,1.8,3.2,2.7,5.6,2.7c1.9,0,3.7-0.5,5.4-1.4L252.8,329.9z"/>
		<polygon class="st6" points="274.8,330.6 255.1,330.6 255.1,324.3 267.3,306.3 255.4,306.3 255.4,300.9 274.7,300.9 274.7,307 
			262.4,325.2 274.8,325.2 		"/>
		<path class="st6" d="M296.1,313.4v-0.5c0-5.1-1.6-7.7-4.8-7.7c-3.3,0-5.1,2.7-5.4,8.2H296.1z M302.6,315.2c0,0.7,0,1.6-0.1,2.5
			h-16.6c0.3,5.6,2.9,8.4,7.8,8.4c2.5,0,4.9-0.7,7.2-2.1v5.4c-2.6,1.3-5.3,1.9-8.3,1.9c-4.4,0-7.8-1.3-10.2-4
			c-2.4-2.7-3.6-6.5-3.6-11.4c0-4.8,1.1-8.6,3.3-11.4c2.2-2.8,5.3-4.2,9.1-4.2c3.3,0,6,1.3,8.1,4
			C301.6,306.9,302.6,310.6,302.6,315.2z"/>
		<path class="st6" d="M331.4,330.6h-7v-19.1c0-3.6-1.4-5.3-4.1-5.3c-1.4,0-2.6,0.6-3.5,1.8c-0.9,1.2-1.3,2.9-1.3,5.1v17.5h-7v-22.8
			c0-2.6-0.1-4.9-0.3-6.9h6.3c0.2,2.5,0.3,4,0.3,4.4c1.5-3.4,4.3-5,8.1-5c5.6,0,8.3,3.3,8.3,9.9v20.4H331.4z"/>
		<path class="st6" d="M345.5,330.6h-7v-29.7h7V330.6z M345.7,295.2h-7.2v-6.8h7.2V295.2z"/>
		<path class="st6" d="M368.5,313.4v-0.5c0-5.1-1.6-7.7-4.8-7.7c-3.3,0-5.1,2.7-5.4,8.2H368.5z M375.1,315.2c0,0.7,0,1.6-0.1,2.5
			h-16.6c0.3,5.6,2.9,8.4,7.8,8.4c2.5,0,4.9-0.7,7.2-2.1v5.4c-2.6,1.3-5.3,1.9-8.3,1.9c-4.4,0-7.8-1.3-10.2-4
			c-2.4-2.7-3.6-6.5-3.6-11.4c0-4.8,1.1-8.6,3.3-11.4c2.2-2.8,5.3-4.2,9.1-4.2c3.3,0,6,1.3,8.1,4
			C374.1,306.9,375.1,310.6,375.1,315.2z"/>
		<path class="st6" d="M412.6,315.8c0-6.9-1.8-10.3-5.5-10.3s-5.6,3.4-5.6,10.3c0,6.8,1.9,10.2,5.6,10.2
			C410.8,326,412.6,322.6,412.6,315.8 M419.9,315.7c0,5-1.1,8.8-3.4,11.5c-2.2,2.7-5.4,4-9.5,4s-7.2-1.3-9.4-4
			c-2.2-2.7-3.4-6.5-3.4-11.4c0-5,1.1-8.8,3.3-11.5c2.2-2.7,5.4-4,9.5-4s7.3,1.3,9.5,4C418.8,306.9,419.9,310.8,419.9,315.7z"/>
		<path class="st6" d="M443.4,315.8c0-6.7-1.8-10.1-5.3-10.1s-5.3,2.9-5.3,8.6v3c0,5.7,1.8,8.6,5.3,8.6S443.4,322.5,443.4,315.8
			 M450.8,315.7c0,5.1-0.9,8.9-2.7,11.6c-1.8,2.6-4.4,4-7.7,4c-3.4,0-6.1-1.7-7.9-5.1c0,1-0.1,2.5-0.2,4.5h-6.4v-43.4h7v17.6
			c1.7-3.1,4.2-4.6,7.5-4.6C447.3,300.3,450.8,305.4,450.8,315.7z"/>
		<path class="st6" d="M463.6,332.1c0,3.9-0.6,6.8-1.7,8.5c-1.2,1.9-3.4,2.9-6.4,2.9c-1.2,0-2.4-0.2-3.7-0.5l0.2-5.1
			c0.6,0.2,1.2,0.2,1.7,0.2c1.4,0,2.2-0.6,2.6-1.7c0.3-0.9,0.4-2.6,0.4-5.4v-30.1h7v31.2H463.6z M463.7,295.2h-7.2v-6.8h7.2V295.2z"
			/>
		<path class="st6" d="M485.5,318.2v-1.9c-1.4-0.1-2.2-0.2-2.5-0.2c-5.1,0-7.7,1.8-7.7,5.5c0,3,1.5,4.5,4.5,4.5
			C483.6,326.2,485.5,323.5,485.5,318.2 M492.6,330.6h-6.5l-0.4-3.7c-2.1,2.9-4.9,4.3-8.4,4.3c-2.6,0-4.7-0.8-6.3-2.5
			c-1.6-1.7-2.4-3.9-2.4-6.6c0-6.7,4.7-10.1,14-10.1c1,0,2,0,2.8,0.1v-1.3c0-3.7-2-5.6-5.9-5.6c-2.9,0-5.4,0.9-7.5,2.8l-0.5-5.6
			c3.2-1.5,6.4-2.3,9.4-2.3c4.4,0,7.4,1,9.1,3.1c1.5,1.9,2.3,5.1,2.3,9.7v11.7C492.4,327.3,492.5,329.3,492.6,330.6z"/>
		<polygon class="st6" points="538.5,300.9 530.5,330.6 523,330.6 517.6,307.1 512.3,330.6 504.5,330.6 496.8,300.9 503.9,300.9 
			508.7,324.3 513.9,300.9 521.7,300.9 526.8,324.3 531.7,300.9 		"/>
		<path class="st6" d="M560.1,315.8c0-6.9-1.8-10.3-5.5-10.3s-5.6,3.4-5.6,10.3c0,6.8,1.9,10.2,5.6,10.2
			C558.3,326,560.1,322.6,560.1,315.8 M567.4,315.7c0,5-1.1,8.8-3.4,11.5c-2.2,2.7-5.4,4-9.5,4s-7.2-1.3-9.4-4s-3.4-6.5-3.4-11.4
			c0-5,1.1-8.8,3.3-11.5s5.4-4,9.5-4s7.3,1.3,9.5,4C566.3,306.9,567.4,310.8,567.4,315.7z M562.6,288.4l-6.3,8.9H551l4.3-8.9H562.6z
			"/>
		<polygon class="st6" points="612.4,300.9 604.4,330.6 596.8,330.6 591.4,307.1 586.1,330.6 578.3,330.6 570.6,300.9 577.8,300.9 
			582.6,324.3 587.7,300.9 595.5,300.9 600.6,324.3 605.6,300.9 		"/>
		<polygon class="st6" points="649.6,330.6 629.9,330.6 629.9,324.3 642.1,306.3 630.2,306.3 630.2,300.9 649.5,300.9 649.5,307 
			637.2,325.2 649.6,325.2 		"/>
		<polygon class="st6" points="694.3,300.9 686.3,330.6 678.8,330.6 673.4,307.1 668,330.6 660.3,330.6 652.6,300.9 659.7,300.9 
			664.5,324.3 669.7,300.9 677.4,300.9 682.5,324.3 687.5,300.9 		"/>
		<path class="st6" d="M706,330.6h-7v-29.7h7V330.6z M706.2,295.2H699v-6.8h7.2V295.2z"/>
		<path class="st6" d="M727.9,318.2v-1.9c-1.4-0.1-2.2-0.2-2.5-0.2c-5.1,0-7.7,1.8-7.7,5.5c0,3,1.5,4.5,4.5,4.5
			C726,326.2,727.9,323.5,727.9,318.2 M736.7,342.1c-1.2,0.4-2.2,0.6-3.2,0.6c-4.5,0-6.8-1.8-6.8-5.5c0-2.3,1.2-4.5,3.7-6.6h-1.9
			l-0.4-3.7c-2.1,2.9-4.9,4.3-8.4,4.3c-2.6,0-4.7-0.8-6.3-2.5s-2.4-3.9-2.4-6.6c0-6.7,4.7-10.1,14-10.1c1,0,2,0,2.8,0.1v-1.3
			c0-3.7-2-5.6-5.9-5.6c-2.9,0-5.4,0.9-7.5,2.8l-0.5-5.6c3.2-1.5,6.4-2.3,9.4-2.3c4.4,0,7.4,1,9.1,3.1c1.5,1.9,2.3,5.1,2.3,9.7v11.7
			c0,2.6,0.1,4.6,0.2,5.9c-0.9,0.3-1.7,1-2.3,1.9s-0.9,1.8-0.9,2.8c0,0.8,0.2,1.4,0.7,2s1.1,0.8,1.8,0.8c0.9,0,1.7-0.2,2.4-0.5v4.6
			L736.7,342.1L736.7,342.1z"/>
		<polygon class="st6" points="759.6,330.6 739.9,330.6 739.9,324.3 752.1,306.3 740.2,306.3 740.2,300.9 759.6,300.9 759.6,307 
			747.2,325.2 759.6,325.2 		"/>
		<path class="st6" d="M779.8,318.2v-1.9c-1.4-0.1-2.2-0.2-2.5-0.2c-5.1,0-7.7,1.8-7.7,5.5c0,3,1.5,4.5,4.5,4.5
			C777.9,326.2,779.8,323.5,779.8,318.2 M786.9,330.6h-6.5l-0.4-3.7c-2.1,2.9-4.9,4.3-8.4,4.3c-2.6,0-4.7-0.8-6.3-2.5
			s-2.4-3.9-2.4-6.6c0-6.7,4.7-10.1,14-10.1c1,0,2,0,2.8,0.1v-1.3c0-3.7-2-5.6-5.9-5.6c-2.9,0-5.4,0.9-7.5,2.8l-0.5-5.6
			c3.2-1.5,6.4-2.3,9.4-2.3c4.4,0,7.4,1,9.1,3.1c1.5,1.9,2.3,5.1,2.3,9.7v11.7C786.8,327.3,786.8,329.3,786.9,330.6z"/>
		<path class="st6" d="M816.7,330.6h-7v-19.1c0-3.6-1.4-5.3-4.1-5.3c-1.4,0-2.6,0.6-3.5,1.8c-0.9,1.2-1.3,2.9-1.3,5.1v17.5h-7v-22.8
			c0-2.6-0.1-4.9-0.3-6.9h6.3c0.2,2.5,0.3,4,0.3,4.4c1.5-3.4,4.3-5,8.1-5c5.6,0,8.3,3.3,8.3,9.9v20.4H816.7z"/>
		<path class="st6" d="M846.8,300.9l-9.8,32.5c-1.1,3.6-2.2,6.1-3.4,7.5c-1.5,1.7-3.6,2.6-6.4,2.6c-1.5,0-2.9-0.2-4.2-0.6l0.5-5.4
			c0.9,0.2,1.6,0.3,2.2,0.3c2.2,0,3.6-1.4,4.4-4.1l0.6-2.2l-9.9-30.7h7.4l6,22.9l5.8-22.9h6.8L846.8,300.9L846.8,300.9z"/>
		<path class="st6" d="M870,329.9c-2.4,0.9-4.9,1.3-7.5,1.3c-4,0-7.1-1.4-9.5-4.1c-2.4-2.8-3.5-6.5-3.5-11.2c0-4.9,1.2-8.8,3.6-11.5
			c2.4-2.7,5.8-4.1,10.1-4.1c2,0,4.2,0.4,6.5,1.3l-0.3,5.6c-1.6-0.9-3.3-1.3-5.1-1.3c-4.9,0-7.4,3.2-7.4,9.5c0,3.3,0.7,5.9,2,7.7
			c1.3,1.8,3.2,2.7,5.6,2.7c1.9,0,3.7-0.5,5.4-1.4L870,329.9z"/>
		<path class="st6" d="M897.3,330.6h-7v-19.1c0-3.6-1.4-5.3-4.1-5.3c-1.4,0-2.6,0.6-3.5,1.8c-0.9,1.2-1.3,2.9-1.3,5.1v17.5h-7v-43.4
			h7v17c1.8-2.7,4.3-4,7.7-4c2.5,0,4.5,0.8,5.9,2.5s2.2,4.1,2.2,7.3L897.3,330.6L897.3,330.6z"/>
		<polygon class="st6" points="198.4,401 178.7,401 178.7,394.7 190.9,376.7 179,376.7 179,371.3 198.3,371.3 198.3,377.4 
			186,395.6 198.4,395.6 		"/>
		<path class="st6" d="M241.8,401h-7v-19.1c0-3.6-1.4-5.3-4.1-5.3c-1.4,0-2.6,0.6-3.5,1.8c-0.9,1.2-1.3,2.9-1.3,5.1V401h-7v-22.8
			c0-2.6-0.1-4.9-0.3-6.9h6.3c0.2,2.5,0.3,4,0.3,4.4c1.5-3.4,4.3-5,8.1-5c5.6,0,8.3,3.3,8.3,9.9V401H241.8z"/>
		<path class="st6" d="M255.9,401h-7v-29.7h7V401z M256.1,365.6h-7.2v-6.8h7.2V365.6z"/>
		<path class="st6" d="M278.9,383.8v-0.5c0-5.1-1.6-7.7-4.8-7.7c-3.3,0-5.1,2.7-5.4,8.2H278.9z M285.5,385.5c0,0.7,0,1.6-0.1,2.5
			h-16.6c0.3,5.6,2.9,8.4,7.8,8.4c2.5,0,4.9-0.7,7.2-2.1v5.4c-2.6,1.3-5.3,1.9-8.3,1.9c-4.4,0-7.8-1.3-10.2-4
			c-2.4-2.7-3.6-6.5-3.6-11.4c0-4.8,1.1-8.6,3.3-11.4c2.2-2.8,5.3-4.2,9.1-4.2c3.3,0,6,1.3,8.1,4
			C284.4,377.3,285.5,380.9,285.5,385.5z"/>
		<polygon class="st6" points="330.3,371.3 322.3,401 314.8,401 309.4,377.5 304.1,401 296.3,401 288.6,371.3 295.7,371.3 
			300.5,394.7 305.7,371.3 313.5,371.3 318.6,394.7 323.6,371.3 		"/>
		<path class="st6" d="M357.9,371.3l-9.8,32.5c-1.1,3.6-2.2,6.1-3.4,7.5c-1.5,1.7-3.6,2.6-6.4,2.6c-1.5,0-2.9-0.2-4.2-0.6l0.5-5.4
			c0.9,0.2,1.6,0.3,2.2,0.3c2.2,0,3.6-1.4,4.4-4.1l0.6-2.2l-9.9-30.7h7.4l6,22.9l5.8-22.9h6.8V371.3z"/>
		<path class="st6" d="M378.5,387.7v-3c0-2.8-0.5-4.9-1.4-6.4s-2.3-2.2-3.9-2.2c-3.5,0-5.3,3.4-5.3,10.1s1.8,10.1,5.3,10.1
			c1.7,0,3-0.7,3.9-2.2S378.5,390.5,378.5,387.7 M385.5,401H379c-0.2-1.8-0.2-3.3-0.2-4.5c-1.9,3.4-4.5,5.1-7.9,5.1
			c-3.3,0-5.8-1.3-7.6-3.9c-1.8-2.6-2.7-6.5-2.7-11.5c0-10.4,3.5-15.6,10.4-15.6c3.2,0,5.7,1.5,7.5,4.6v-17.6h7L385.5,401L385.5,401
			z"/>
		<path class="st6" d="M409.8,386.2c0-6.9-1.8-10.3-5.5-10.3s-5.6,3.4-5.6,10.3c0,6.8,1.9,10.2,5.6,10.2
			C407.9,396.4,409.8,393,409.8,386.2 M417.1,386.1c0,5-1.1,8.8-3.4,11.5c-2.2,2.7-5.4,4-9.5,4s-7.2-1.3-9.4-4
			c-2.2-2.7-3.4-6.5-3.4-11.4c0-5,1.1-8.8,3.3-11.5c2.2-2.7,5.4-4,9.5-4s7.3,1.3,9.5,4C415.9,377.3,417.1,381.1,417.1,386.1z"/>
		<rect x="423" y="357.7" class="st6" width="7" height="43.4"/>
		<path class="st6" d="M460.3,401h-7v-19.1c0-3.6-1.4-5.3-4.1-5.3c-1.4,0-2.6,0.6-3.5,1.8c-0.9,1.2-1.3,2.9-1.3,5.1V401h-7v-22.8
			c0-2.6-0.1-4.9-0.3-6.9h6.3c0.2,2.5,0.3,4,0.3,4.4c1.5-3.4,4.3-5,8.1-5c5.6,0,8.3,3.3,8.3,9.9V401H460.3z"/>
		<path class="st6" d="M484.3,386.2c0-6.9-1.8-10.3-5.5-10.3s-5.6,3.4-5.6,10.3c0,6.8,1.9,10.2,5.6,10.2
			C482.5,396.4,484.3,393,484.3,386.2 M491.6,386.1c0,5-1.1,8.8-3.4,11.5c-2.2,2.7-5.4,4-9.5,4s-7.2-1.3-9.4-4
			c-2.2-2.7-3.4-6.5-3.4-11.4c0-5,1.1-8.8,3.3-11.5c2.2-2.7,5.4-4,9.5-4s7.3,1.3,9.5,4C490.5,377.3,491.6,381.1,491.6,386.1z"/>
		<path class="st6" d="M515,392.3c0,2.8-1,5-3,6.8c-2,1.7-4.6,2.6-8,2.6c-2.7,0-5.3-0.5-7.9-1.4l0.2-6.1c2.6,1.5,5.1,2.3,7.8,2.3
			c3.1,0,4.7-1.1,4.7-3.2c0-0.9-0.4-1.6-1.2-2.2c-0.4-0.3-1.6-0.9-3.4-1.8c-2.8-1.3-4.8-2.6-5.9-3.8c-1.3-1.4-2-3.3-2-5.5
			c0-2.7,0.9-4.9,2.8-6.6s4.3-2.6,7.2-2.6c2.6,0,4.9,0.4,7.1,1.1l-0.2,5.6c-2-1-4-1.4-6.1-1.4c-2.9,0-4.3,1-4.3,3
			c0,1,0.4,1.8,1.2,2.4c0.5,0.5,1.7,1.1,3.6,2c2.7,1.3,4.6,2.4,5.6,3.5C514.4,388.2,515,390,515,392.3 M513.9,358.8l-6.3,8.9h-5.3
			l4.3-8.9H513.9z"/>
		<path class="st6" d="M539.9,400.3c-2.4,0.9-4.9,1.3-7.5,1.3c-4,0-7.1-1.4-9.5-4.1c-2.4-2.8-3.5-6.5-3.5-11.2
			c0-4.9,1.2-8.8,3.6-11.5c2.4-2.7,5.8-4.1,10.1-4.1c2,0,4.2,0.4,6.5,1.3l-0.3,5.6c-1.6-0.9-3.3-1.3-5.1-1.3c-4.9,0-7.4,3.2-7.4,9.5
			c0,3.3,0.7,5.9,2,7.7c1.3,1.8,3.2,2.7,5.6,2.7c1.9,0,3.7-0.5,5.4-1.4L539.9,400.3z"/>
		<path class="st6" d="M551.2,401h-7v-29.7h7V401z M551.4,365.6h-7.2v-6.8h7.2V365.6z"/>
		<path class="st6" d="M573.1,388.6v-1.9c-1.4-0.1-2.2-0.2-2.5-0.2c-5.1,0-7.7,1.8-7.7,5.5c0,3,1.5,4.5,4.5,4.5
			C571.2,396.6,573.1,393.9,573.1,388.6 M581.9,412.5c-1.2,0.4-2.2,0.6-3.2,0.6c-4.5,0-6.8-1.8-6.8-5.5c0-2.3,1.2-4.5,3.7-6.6h-1.9
			l-0.4-3.7c-2.1,2.9-4.9,4.3-8.4,4.3c-2.6,0-4.7-0.8-6.3-2.5s-2.4-3.9-2.4-6.6c0-6.7,4.7-10.1,14-10.1c1,0,2,0,2.8,0.1v-1.3
			c0-3.7-2-5.6-5.9-5.6c-2.9,0-5.4,0.9-7.5,2.8l-0.5-5.6c3.2-1.5,6.4-2.3,9.4-2.3c4.4,0,7.4,1,9.1,3.1c1.5,1.9,2.3,5.1,2.3,9.7V395
			c0,2.6,0.1,4.6,0.2,5.9c-0.9,0.3-1.7,1-2.3,1.9s-0.9,1.8-0.9,2.8c0,0.8,0.2,1.4,0.7,2s1.1,0.8,1.8,0.8c0.9,0,1.7-0.2,2.4-0.5v4.6
			L581.9,412.5L581.9,412.5z"/>
		<path class="st6" d="M624.8,401h-7v-19.1c0-3.6-1.4-5.3-4.1-5.3c-1.4,0-2.6,0.6-3.5,1.8c-0.9,1.2-1.3,2.9-1.3,5.1V401h-7v-22.8
			c0-2.6-0.1-4.9-0.3-6.9h6.3c0.2,2.5,0.3,4,0.3,4.4c1.5-3.4,4.3-5,8.1-5c5.6,0,8.3,3.3,8.3,9.9V401H624.8z"/>
		<path class="st6" d="M646.5,388.6v-1.9c-1.4-0.1-2.2-0.2-2.5-0.2c-5.1,0-7.7,1.8-7.7,5.5c0,3,1.5,4.5,4.5,4.5
			C644.6,396.6,646.5,393.9,646.5,388.6 M653.7,401h-6.5l-0.4-3.7c-2.1,2.9-4.9,4.3-8.4,4.3c-2.6,0-4.7-0.8-6.3-2.5
			s-2.4-3.9-2.4-6.6c0-6.7,4.7-10.1,14-10.1c1,0,2,0,2.8,0.1v-1.3c0-3.7-2-5.6-5.9-5.6c-2.9,0-5.4,0.9-7.5,2.8l-0.5-5.6
			c3.2-1.5,6.4-2.3,9.4-2.3c4.4,0,7.4,1,9.1,3.1c1.5,1.9,2.3,5.1,2.3,9.7V395C653.5,397.7,653.5,399.7,653.7,401z"/>
		<path class="st6" d="M679.6,400.3c-2.4,0.9-4.9,1.3-7.5,1.3c-4,0-7.1-1.4-9.5-4.1c-2.4-2.8-3.5-6.5-3.5-11.2
			c0-4.9,1.2-8.8,3.6-11.5c2.4-2.7,5.8-4.1,10.1-4.1c2,0,4.2,0.4,6.5,1.3l-0.3,5.6c-1.6-0.9-3.3-1.3-5.1-1.3c-4.9,0-7.4,3.2-7.4,9.5
			c0,3.3,0.7,5.9,2,7.7c1.3,1.8,3.2,2.7,5.6,2.7c1.9,0,3.7-0.5,5.4-1.4L679.6,400.3z"/>
		<polygon class="st6" points="701.7,401 681.9,401 681.9,394.7 694.2,376.7 682.2,376.7 682.2,371.3 701.6,371.3 701.6,377.4 
			689.2,395.6 701.7,395.6 		"/>
		<path class="st6" d="M730.2,371.3l-9.8,32.5c-1.1,3.6-2.2,6.1-3.4,7.5c-1.5,1.7-3.6,2.6-6.4,2.6c-1.5,0-2.9-0.2-4.2-0.6l0.5-5.4
			c0.8,0.2,1.6,0.3,2.2,0.3c2.2,0,3.6-1.4,4.4-4.1l0.6-2.2l-9.9-30.7h7.4l6,22.9l5.8-22.9h6.8L730.2,371.3L730.2,371.3z"/>
		<path class="st6" d="M757.3,401h-7v-19.1c0-3.6-1.4-5.3-4.1-5.3c-1.4,0-2.6,0.6-3.5,1.8c-0.9,1.2-1.3,2.9-1.3,5.1V401h-7v-22.8
			c0-2.6-0.1-4.9-0.3-6.9h6.3c0.2,2.5,0.3,4,0.3,4.4c1.5-3.4,4.3-5,8.1-5c5.6,0,8.3,3.3,8.3,9.9V401H757.3z M753.2,358.8l-6.3,8.9
			h-5.3l4.3-8.9H753.2z"/>
		<path class="st6" d="M796.9,401h-19.7v-6.3l12.2-18h-11.9v-5.4h19.4v6.1l-12.3,18.2H797L796.9,401L796.9,401L796.9,401z
			 M791,365.6h-7.2v-6.8h7.2V365.6z"/>
		<path class="st6" d="M825.4,371.3l-9.8,32.5c-1.1,3.6-2.2,6.1-3.4,7.5c-1.5,1.7-3.6,2.6-6.4,2.6c-1.5,0-2.9-0.2-4.2-0.6l0.5-5.4
			c0.9,0.2,1.6,0.3,2.2,0.3c2.2,0,3.6-1.4,4.4-4.1l0.6-2.2l-9.9-30.7h7.4l6,22.9l5.8-22.9h6.8L825.4,371.3L825.4,371.3z"/>
		<rect x="829.6" y="357.7" class="st6" width="7" height="43.4"/>
		<path class="st6" d="M866.9,401h-7v-19.1c0-3.6-1.4-5.3-4.1-5.3c-1.4,0-2.6,0.6-3.5,1.8c-0.9,1.2-1.3,2.9-1.3,5.1V401h-7v-22.8
			c0-2.6-0.1-4.9-0.3-6.9h6.3c0.2,2.5,0.3,4,0.3,4.4c1.5-3.4,4.3-5,8.1-5c5.6,0,8.3,3.3,8.3,9.9V401H866.9z"/>
		<path class="st6" d="M896.9,371.3l-9.8,32.5c-1.1,3.6-2.2,6.1-3.4,7.5c-1.5,1.7-3.6,2.6-6.4,2.6c-1.5,0-2.9-0.2-4.2-0.6l0.5-5.4
			c0.9,0.2,1.6,0.3,2.2,0.3c2.2,0,3.6-1.4,4.4-4.1l0.6-2.2l-9.9-30.7h7.4l6,22.9l5.8-22.9h6.8L896.9,371.3L896.9,371.3z"/>
		<path class="st6" d="M920.2,400.3c-2.4,0.9-4.9,1.3-7.5,1.3c-4,0-7.1-1.4-9.5-4.1c-2.4-2.8-3.5-6.5-3.5-11.2
			c0-4.9,1.2-8.8,3.6-11.5c2.4-2.7,5.8-4.1,10.1-4.1c2,0,4.2,0.4,6.5,1.3l-0.3,5.6c-1.6-0.9-3.3-1.3-5.1-1.3c-4.9,0-7.4,3.2-7.4,9.5
			c0,3.3,0.7,5.9,2,7.7c1.3,1.8,3.2,2.7,5.6,2.7c1.9,0,3.7-0.5,5.4-1.4L920.2,400.3z"/>
		<path class="st6" d="M947.4,401h-7v-19.1c0-3.6-1.4-5.3-4.1-5.3c-1.4,0-2.6,0.6-3.5,1.8c-0.9,1.2-1.3,2.9-1.3,5.1V401h-7v-43.4h7
			v17c1.8-2.7,4.3-4,7.7-4c2.5,0,4.5,0.8,5.9,2.5s2.2,4.1,2.2,7.3L947.4,401L947.4,401z"/>
		<polygon class="st7" points="88.5,382.3 88.5,329.3 140.3,355.8 		"/>
		<path class="st8" d="M424.8,741.3h-62.9v-16.6c14.1-14.8,24.4-27.1,30.8-36.8c7-10.5,10.5-19.6,10.5-27.1c0-5.1-1.5-9.1-4.4-12.2
			c-2.9-3.1-6.8-4.6-11.8-4.6c-6.9,0-14,2.6-21.3,7.7l-1.8-17.3c8.1-4.6,16.9-6.9,26.5-6.9c9.7,0,17.5,2.8,23.3,8.5
			c5.9,5.6,8.8,13,8.8,22c0,17.6-13.1,40.1-39.2,67.4h41.5V741.3z"/>
		<rect x="442.9" y="690.9" class="st8" width="36.8" height="15.5"/>
		<path class="st8" d="M556.6,709.2c0,10.1-3.5,18.3-10.4,24.5s-16.1,9.4-27.5,9.4c-9.9,0-18.7-1.5-26.5-4.5l1.1-16.8
			c7.4,3.5,14.8,5.3,22.1,5.3c13.6,0,20.3-6.3,20.3-19c0-11.4-7.4-17.1-22.3-17.1c-2.3,0-4.7,0.1-7.3,0.3v-15.5
			c1.5,0.1,3.8,0.2,6.8,0.2c14.8,0,22.3-5.5,22.3-16.6c0-10.9-5.8-16.3-17.4-16.3c-7.1,0-14.3,2-21.5,6.1l-1.5-16.3
			c9.3-3.5,18.1-5.3,26.5-5.3c10.5,0,18.8,2.7,24.8,8.1c6,5.4,9,12.5,9,21.5c0,6.5-1.9,11.9-5.7,16.5c-3.8,4.5-9.2,7.6-16.1,9.2
			c7.2,1.1,12.9,3.9,16.9,8.6C554.6,695.9,556.6,701.8,556.6,709.2"/>
		<polygon class="st8" points="138.4,855.4 124.4,855.4 107.6,829.3 107.6,855.4 95.1,855.4 95.1,777.2 107.6,777.2 107.6,823.3 
			123.6,801.7 136.8,801.7 118.5,825.9 		"/>
		<path class="st8" d="M169.4,833v-3.5c-2.5-0.2-4-0.3-4.5-0.3c-9.3,0-13.9,3.3-13.9,9.9c0,5.4,2.7,8.2,8.1,8.2
			C166,847.3,169.4,842.6,169.4,833 M182.3,855.4h-11.7l-0.7-6.7c-3.8,5.2-8.9,7.8-15.2,7.8c-4.7,0-8.4-1.5-11.3-4.5
			c-2.9-3-4.3-7-4.3-11.9c0-12.1,8.4-18.2,25.2-18.2c1.8,0,3.5,0,5.1,0.1v-2.3c0-6.7-3.6-10-10.7-10c-5.2,0-9.7,1.7-13.6,5.1
			l-0.8-10.1c5.8-2.7,11.5-4.1,17-4.1c7.9,0,13.4,1.8,16.4,5.5c2.8,3.4,4.2,9.2,4.2,17.5v21.1C182,849.4,182.1,852.9,182.3,855.4z"
			/>
		<path class="st8" d="M226.4,828.5c0-12.1-3.2-18.2-9.5-18.2s-9.5,5.1-9.5,15.4v5.5c0,10.3,3.2,15.5,9.5,15.5
			C223.3,846.7,226.4,840.6,226.4,828.5 M239.7,828.5c0,18.7-6.3,28-18.8,28c-5.9,0-10.4-2.8-13.5-8.4v30h-12.5v-62.5
			c0-0.3,0-1.8-0.1-4.4c-0.1-3.4-0.2-6.6-0.3-9.5h11.9c0.3,3.3,0.4,6,0.4,8.1c3.3-6.1,8.1-9.2,14.2-9.2
			C233.5,800.6,239.7,809.9,239.7,828.5z"/>
		<path class="st8" d="M281.9,839.7c0,5-1.8,9.1-5.3,12.2c-3.6,3.1-8.4,4.7-14.4,4.7c-4.8,0-9.6-0.9-14.3-2.6l0.4-11
			c4.6,2.7,9.3,4.1,14,4.1c5.6,0,8.5-1.9,8.5-5.8c0-1.6-0.7-2.9-2.2-4c-0.8-0.6-2.8-1.7-6.2-3.2c-5-2.4-8.6-4.7-10.7-6.9
			c-2.4-2.6-3.6-5.9-3.6-9.9c0-4.9,1.7-8.9,5-11.9c3.3-3.1,7.7-4.6,13-4.6c4.6,0,8.9,0.7,12.9,2l-0.4,10.1
			c-3.6-1.7-7.3-2.6-11.1-2.6c-5.2,0-7.8,1.8-7.8,5.3c0,1.8,0.7,3.3,2.1,4.4c1,0.8,3.1,2,6.5,3.6c4.9,2.3,8.2,4.4,10,6.3
			C280.6,832.2,281.9,835.5,281.9,839.7"/>
		<path class="st8" d="M333.5,855.4h-11.4c-0.3-2.6-0.4-5.2-0.4-7.9c-2.8,6.1-7.7,9.1-14.6,9.1c-10,0-15.1-5.9-15.1-17.8v-37h12.5
			v34.5c0,6.4,2.3,9.6,7,9.6c6,0,9-4.3,9-13v-31.2H333v41.2C333.1,848.3,333.2,852.5,333.5,855.4"/>
		<polygon class="st8" points="366.1,803.1 358.9,808.3 358.9,855.4 347.4,855.4 347.4,814.5 340.4,819.6 340.4,809.6 347.4,804.4 
			347.4,777.2 358.9,777.2 358.9,798.2 366.1,793.1 		"/>
		<polygon class="st8" points="416.6,855.4 402.5,855.4 385.8,829.3 385.8,855.4 373.3,855.4 373.3,777.2 385.8,777.2 385.8,823.3 
			401.8,801.7 415,801.7 396.7,825.9 		"/>
		<path class="st8" d="M434,855.4h-12.5v-53.6H434V855.4z M434.3,791.5h-13.1v-12.2h13.1V791.5z"/>
		<path class="st8" d="M503.7,831.3v-5.4c0-5-0.9-8.9-2.6-11.5s-4.1-4-7.1-4c-6.3,0-9.5,6.1-9.5,18.2c0,12.1,3.2,18.2,9.5,18.2
			c3,0,5.4-1.3,7.1-4C502.8,840.2,503.7,836.3,503.7,831.3 M516.2,855.4h-11.6c-0.3-3.2-0.4-5.9-0.4-8.1c-3.3,6.1-8.1,9.2-14.2,9.2
			c-5.9,0-10.5-2.4-13.8-7.1c-3.2-4.7-4.9-11.6-4.9-20.7c0-18.8,6.2-28.1,18.7-28.1c5.8,0,10.3,2.8,13.6,8.4v-31.8h12.5L516.2,855.4
			L516.2,855.4z"/>
		<polygon class="st8" points="561.5,855.4 525.9,855.4 525.9,844 548,811.5 526.5,811.5 526.5,801.7 561.4,801.7 561.4,812.8 
			539.1,845.7 561.5,845.7 		"/>
		<path class="st8" d="M584.3,855.4h-12.5v-53.6h12.5V855.4z M584.6,791.5h-13.1v-12.2h13.1V791.5z"/>
		<path class="st8" d="M625.8,824.3v-0.9c0-9.2-2.9-13.8-8.7-13.8c-5.9,0-9.2,4.9-9.8,14.7H625.8z M637.6,827.5c0,1.3,0,2.8-0.1,4.5
			h-30c0.6,10.1,5.3,15.2,14.1,15.2c4.5,0,8.8-1.3,13.1-3.9v9.7c-4.6,2.3-9.6,3.5-15,3.5c-7.9,0-14.1-2.4-18.4-7.2
			c-4.3-4.8-6.5-11.6-6.5-20.5c0-8.6,2-15.5,6-20.6s9.5-7.6,16.5-7.6c6,0,10.9,2.4,14.6,7.2C635.8,812.6,637.6,819.2,637.6,827.5z"
			/>
		<path class="st8" d="M689.5,855.4H677v-34.5c0-6.4-2.4-9.6-7.3-9.6c-2.6,0-4.7,1.1-6.3,3.3s-2.4,5.3-2.4,9.3v31.6h-12.5v-41.2
			c0-4.6-0.2-8.7-0.5-12.4h11.4c0.3,4.5,0.5,7.2,0.5,7.9c2.8-6.1,7.7-9.1,14.6-9.1c10,0,15.1,5.9,15.1,17.8L689.5,855.4L689.5,855.4
			z"/>
		<path class="st8" d="M743.8,855.4h-12.5v-34.5c0-6.4-2.4-9.6-7.3-9.6c-2.6,0-4.7,1.1-6.3,3.3s-2.4,5.3-2.4,9.3v31.6h-12.5v-41.2
			c0-4.6-0.2-8.7-0.5-12.4h11.4c0.3,4.5,0.5,7.2,0.5,7.9c2.8-6.1,7.7-9.1,14.6-9.1c10,0,15.1,5.9,15.1,17.8L743.8,855.4L743.8,855.4
			z"/>
		<path class="st8" d="M769.3,855.4h-12.5v-53.6h12.5V855.4z M769.6,791.5h-13.1v-12.2h13.1V791.5z"/>
		<path class="st8" d="M810.8,824.3v-0.9c0-9.2-2.9-13.8-8.7-13.8c-5.9,0-9.2,4.9-9.8,14.7H810.8z M822.6,827.5c0,1.3,0,2.8-0.1,4.5
			h-30c0.6,10.1,5.3,15.2,14.1,15.2c4.5,0,8.8-1.3,13.1-3.9v9.7c-4.6,2.3-9.6,3.5-15,3.5c-7.9,0-14.1-2.4-18.4-7.2
			c-4.3-4.8-6.5-11.6-6.5-20.5c0-8.6,2-15.5,6-20.6s9.5-7.6,16.5-7.6c6,0,10.9,2.4,14.6,7.2C820.8,812.6,822.6,819.2,822.6,827.5z"
			/>
		<path class="st6" d="M182.2,479.2h-3.7c-3.9-6.6-5.8-12.8-5.8-18.6c0-5.9,1.9-12.1,5.8-18.7h3.7c-3.3,6.1-4.9,12.3-4.9,18.7
			C177.3,466.9,178.9,473.1,182.2,479.2"/>
		<path class="st6" d="M201.9,473.7h-4.6c-0.1-1-0.2-2.1-0.2-3.2c-1.1,2.4-3.1,3.7-5.9,3.7c-4,0-6.1-2.4-6.1-7.2v-14.9h5V466
			c0,2.6,0.9,3.9,2.8,3.9c2.4,0,3.6-1.7,3.6-5.2v-12.5h5v16.6C201.7,470.8,201.8,472.5,201.9,473.7"/>
		<path class="st6" d="M221,473.1c-1.7,0.6-3.6,1-5.5,1c-2.9,0-5.2-1-6.9-3s-2.6-4.7-2.6-8.1c0-3.6,0.9-6.4,2.6-8.4
			c1.8-2,4.2-3,7.3-3c1.5,0,3,0.3,4.7,0.9l-0.3,4.1c-1.2-0.6-2.4-1-3.7-1c-3.6,0-5.4,2.3-5.4,6.9c0,2.4,0.5,4.3,1.4,5.6
			c1,1.3,2.3,1.9,4,1.9c1.4,0,2.7-0.4,4-1.1L221,473.1z"/>
		<polygon class="st6" points="237,473.7 222.7,473.7 222.7,469.1 231.5,456 222.9,456 222.9,452.1 236.9,452.1 236.9,456.6 
			228,469.8 237,469.8 		"/>
		<path class="st6" d="M257.7,473.7h-4.6c-0.1-1-0.2-2.1-0.2-3.2c-1.1,2.4-3.1,3.7-5.9,3.7c-4,0-6.1-2.4-6.1-7.2v-14.9h5V466
			c0,2.6,0.9,3.9,2.8,3.9c2.4,0,3.6-1.7,3.6-5.2v-12.5h5v16.6C257.5,470.8,257.6,472.5,257.7,473.7"/>
		<path class="st6" d="M276.8,473.1c-1.7,0.6-3.6,1-5.5,1c-2.9,0-5.2-1-6.9-3c-1.7-2-2.6-4.7-2.6-8.1c0-3.6,0.9-6.4,2.6-8.4
			c1.8-2,4.2-3,7.3-3c1.5,0,3,0.3,4.7,0.9l-0.3,4.1c-1.2-0.6-2.4-1-3.7-1c-3.6,0-5.4,2.3-5.4,6.9c0,2.4,0.5,4.3,1.4,5.6
			c1,1.3,2.3,1.9,4,1.9c1.4,0,2.7-0.4,4-1.1L276.8,473.1z"/>
		<path class="st6" d="M285,473.7h-5v-21.6h5V473.7z M285.1,448h-5.3v-4.9h5.3V448z"/>
		<path class="st6" d="M301.7,461.2v-0.4c0-3.7-1.2-5.6-3.5-5.6c-2.4,0-3.7,2-4,5.9h7.5V461.2z M306.4,462.4c0,0.5,0,1.1,0,1.8
			h-12.1c0.2,4.1,2.1,6.1,5.7,6.1c1.8,0,3.5-0.5,5.3-1.6v3.9c-1.9,0.9-3.9,1.4-6,1.4c-3.2,0-5.7-1-7.4-2.9c-1.7-1.9-2.6-4.7-2.6-8.2
			s0.8-6.2,2.4-8.3c1.6-2,3.8-3.1,6.6-3.1c2.4,0,4.4,1,5.9,2.9C305.7,456.5,306.4,459.1,306.4,462.4z"/>
		<path class="st6" d="M335.3,473.1c-1.7,0.6-3.6,1-5.5,1c-2.9,0-5.2-1-6.9-3c-1.7-2-2.6-4.7-2.6-8.1c0-3.6,0.9-6.4,2.6-8.4
			c1.8-2,4.2-3,7.3-3c1.5,0,3,0.3,4.7,0.9l-0.3,4.1c-1.2-0.6-2.4-1-3.7-1c-3.6,0-5.4,2.3-5.4,6.9c0,2.4,0.5,4.3,1.4,5.6
			c1,1.3,2.3,1.9,4,1.9c1.4,0,2.7-0.4,4-1.1L335.3,473.1z"/>
		<path class="st6" d="M343.5,473.7h-5v-21.6h5V473.7z M343.6,448h-5.3v-4.9h5.3V448z"/>
		<polygon class="st6" points="403.5,473.7 397.9,473.7 391.1,463.2 391.1,473.7 386.1,473.7 386.1,442.2 391.1,442.2 391.1,460.8 
			397.6,452.1 402.9,452.1 395.5,461.8 		"/>
		<path class="st6" d="M417.7,462.9c0-5-1.3-7.5-4-7.5s-4,2.5-4,7.5c0,4.9,1.3,7.4,4,7.4C416.4,470.3,417.7,467.8,417.7,462.9
			 M423,462.9c0,3.6-0.8,6.4-2.4,8.3s-3.9,2.9-6.9,2.9c-2.9,0-5.2-1-6.9-2.9c-1.6-1.9-2.4-4.7-2.4-8.3c0-3.6,0.8-6.4,2.4-8.3
			s3.9-2.9,6.9-2.9s5.3,1,6.9,2.9S423,459.2,423,462.9z"/>
		<path class="st6" d="M458.1,473.1c-1.7,0.6-3.6,1-5.5,1c-2.9,0-5.2-1-6.9-3c-1.7-2-2.6-4.7-2.6-8.1c0-3.6,0.9-6.4,2.6-8.4
			c1.8-2,4.2-3,7.3-3c1.5,0,3,0.3,4.7,0.9l-0.3,4.1c-1.2-0.6-2.4-1-3.7-1c-3.6,0-5.4,2.3-5.4,6.9c0,2.4,0.5,4.3,1.4,5.6
			c1,1.3,2.3,1.9,4,1.9c1.4,0,2.7-0.4,4-1.1L458.1,473.1z"/>
		<path class="st6" d="M466.3,473.7h-5v-21.6h5V473.7z M466.4,448h-5.3v-4.9h5.3V448z"/>
		<polygon class="st6" points="510.7,452.1 504.9,473.7 499.4,473.7 495.5,456.6 491.6,473.7 486,473.7 480.4,452.1 485.6,452.1 
			489.1,469.1 492.8,452.1 498.5,452.1 502.2,469.1 505.8,452.1 		"/>
		<polygon class="st6" points="542.3,473.7 536.6,473.7 529.9,463.2 529.9,473.7 524.8,473.7 524.8,442.2 529.9,442.2 529.9,460.8 
			536.3,452.1 541.6,452.1 534.3,461.8 		"/>
		<path class="st6" d="M556.5,462.9c0-5-1.3-7.5-4-7.5s-4,2.5-4,7.5c0,4.9,1.3,7.4,4,7.4C555.1,470.3,556.5,467.8,556.5,462.9
			 M561.8,462.9c0,3.6-0.8,6.4-2.4,8.3c-1.6,1.9-3.9,2.9-6.9,2.9c-2.9,0-5.2-1-6.9-2.9c-1.6-1.9-2.4-4.7-2.4-8.3
			c0-3.6,0.8-6.4,2.4-8.3c1.6-1.9,3.9-2.9,6.9-2.9s5.3,1,6.9,2.9S561.8,459.2,561.8,462.9z"/>
		<path class="st6" d="M601.8,473.1c-1.7,0.6-3.6,1-5.5,1c-2.9,0-5.2-1-6.9-3s-2.6-4.7-2.6-8.1c0-3.6,0.9-6.4,2.6-8.4
			c1.8-2,4.2-3,7.3-3c1.5,0,3,0.3,4.7,0.9l-0.3,4.1c-1.2-0.6-2.4-1-3.7-1c-3.6,0-5.4,2.3-5.4,6.9c0,2.4,0.5,4.3,1.4,5.6
			c1,1.3,2.3,1.9,4,1.9c1.4,0,2.7-0.4,4-1.1L601.8,473.1z"/>
		<polygon class="st6" points="617.7,473.7 603.4,473.7 603.4,469.1 612.3,456 603.6,456 603.6,452.1 617.7,452.1 617.7,456.6 
			608.7,469.8 617.7,469.8 		"/>
		<path class="st6" d="M638.4,452.1l-7.1,23.6c-0.8,2.6-1.6,4.4-2.4,5.4c-1.1,1.3-2.6,1.9-4.6,1.9c-1.1,0-2.1-0.1-3.1-0.4l0.3-3.9
			c0.6,0.2,1.1,0.3,1.6,0.3c1.6,0,2.6-1,3.2-2.9l0.5-1.6l-7.2-22.3h5.4l4.3,16.6l4.2-16.6h4.9L638.4,452.1L638.4,452.1z"/>
		<path class="st6" d="M658.1,473.7h-5v-13.9c0-2.6-1-3.9-2.9-3.9c-1,0-1.9,0.4-2.5,1.3s-1,2.1-1,3.7v12.7h-5V457
			c0-1.9-0.1-3.5-0.2-5h4.6c0.1,1.8,0.2,2.9,0.2,3.2c1.1-2.4,3.1-3.7,5.9-3.7c4,0,6.1,2.4,6.1,7.2v15H658.1z"/>
		<path class="st6" d="M673.8,464.7v-1.4c-1-0.1-1.6-0.1-1.8-0.1c-3.7,0-5.6,1.3-5.6,4c0,2.2,1.1,3.3,3.2,3.3
			C672.4,470.4,673.8,468.5,673.8,464.7 M679,473.7h-4.7L674,471c-1.5,2.1-3.6,3.2-6.1,3.2c-1.9,0-3.4-0.6-4.5-1.8s-1.7-2.8-1.7-4.8
			c0-4.9,3.4-7.3,10.1-7.3c0.7,0,1.4,0,2.1,0v-0.9c0-2.7-1.4-4-4.3-4c-2.1,0-3.9,0.7-5.5,2.1l-0.3-4.1c2.3-1.1,4.6-1.6,6.9-1.6
			c3.2,0,5.4,0.7,6.6,2.2c1.1,1.4,1.7,3.7,1.7,7v8.5C678.9,471.3,678.9,472.7,679,473.7z"/>
		<path class="st6" d="M697.8,473.1c-1.7,0.6-3.6,1-5.5,1c-2.9,0-5.2-1-6.9-3s-2.6-4.7-2.6-8.1c0-3.6,0.9-6.4,2.6-8.4
			c1.8-2,4.2-3,7.3-3c1.5,0,3,0.3,4.7,0.9l-0.3,4.1c-1.2-0.6-2.4-1-3.7-1c-3.6,0-5.4,2.3-5.4,6.9c0,2.4,0.5,4.3,1.4,5.6
			c1,1.3,2.3,1.9,4,1.9c1.4,0,2.7-0.4,4-1.1L697.8,473.1z"/>
		<path class="st6" d="M717.6,473.7h-5v-13.9c0-2.6-1-3.9-2.9-3.9c-1,0-1.9,0.4-2.5,1.3s-1,2.1-1,3.7v12.7h-5v-31.5h5v12.3
			c1.3-1.9,3.2-2.9,5.6-2.9c1.8,0,3.3,0.6,4.3,1.8c1.1,1.2,1.6,3,1.6,5.3L717.6,473.7L717.6,473.7z"/>
		<path class="st6" d="M745.5,464v-2.2c0-2-0.3-3.6-1-4.6c-0.7-1.1-1.6-1.6-2.8-1.6c-2.6,0-3.8,2.4-3.8,7.3s1.3,7.3,3.8,7.3
			c1.2,0,2.2-0.5,2.8-1.6C745.1,467.6,745.5,466,745.5,464 M750.5,473.7h-4.7c-0.1-1.3-0.2-2.4-0.2-3.2c-1.3,2.5-3.3,3.7-5.7,3.7
			s-4.2-1-5.5-2.9s-2-4.7-2-8.3c0-7.5,2.5-11.3,7.5-11.3c2.3,0,4.2,1.1,5.5,3.4v-12.8h5v31.4L750.5,473.7L750.5,473.7z"/>
		<path class="st6" d="M768.2,462.9c0-5-1.3-7.5-4-7.5s-4,2.5-4,7.5c0,4.9,1.3,7.4,4,7.4C766.8,470.3,768.2,467.8,768.2,462.9
			 M773.5,462.9c0,3.6-0.8,6.4-2.4,8.3c-1.6,1.9-3.9,2.9-6.9,2.9c-2.9,0-5.2-1-6.9-2.9c-1.6-1.9-2.4-4.7-2.4-8.3
			c0-3.6,0.8-6.4,2.4-8.3c1.6-1.9,3.9-2.9,6.9-2.9s5.3,1,6.9,2.9C772.6,456.5,773.5,459.2,773.5,462.9z"/>
		<rect x="777.7" y="442.2" class="st6" width="5" height="31.5"/>
		<path class="st6" d="M804.8,473.7h-5v-13.9c0-2.6-1-3.9-2.9-3.9c-1,0-1.9,0.4-2.5,1.3s-1,2.1-1,3.7v12.7h-5V457
			c0-1.9-0.1-3.5-0.2-5h4.6c0.1,1.8,0.2,2.9,0.2,3.2c1.1-2.4,3.1-3.7,5.9-3.7c4,0,6.1,2.4,6.1,7.2v15H804.8z"/>
		<path class="st6" d="M826.6,452.1l-7.1,23.6c-0.8,2.6-1.6,4.4-2.4,5.4c-1.1,1.3-2.6,1.9-4.6,1.9c-1.1,0-2.1-0.1-3.1-0.4l0.3-3.9
			c0.6,0.2,1.1,0.3,1.6,0.3c1.6,0,2.6-1,3.2-2.9l0.5-1.6l-7.2-22.3h5.4l4.3,16.6l4.2-16.6h4.9L826.6,452.1L826.6,452.1z"/>
		<path class="st6" d="M843.5,473.1c-1.7,0.6-3.6,1-5.5,1c-2.9,0-5.2-1-6.9-3s-2.6-4.7-2.6-8.1c0-3.6,0.9-6.4,2.6-8.4
			c1.8-2,4.2-3,7.3-3c1.5,0,3,0.3,4.7,0.9l-0.3,4.1c-1.2-0.6-2.4-1-3.7-1c-3.6,0-5.4,2.3-5.4,6.9c0,2.4,0.5,4.3,1.4,5.6
			c1,1.3,2.3,1.9,4,1.9c1.4,0,2.7-0.4,4-1.1L843.5,473.1z"/>
		<path class="st6" d="M863.2,473.7h-5v-13.9c0-2.6-1-3.9-2.9-3.9c-1,0-1.9,0.4-2.5,1.3s-1,2.1-1,3.7v12.7h-5v-31.5h5v12.3
			c1.3-1.9,3.2-2.9,5.6-2.9c1.8,0,3.3,0.6,4.3,1.8c1.1,1.2,1.6,3,1.6,5.3L863.2,473.7L863.2,473.7z"/>
		<polygon class="st6" points="873.9,468.2 870.9,478.6 866.9,478.6 869.1,468.2 		"/>
		<path class="st6" d="M902.7,462.9c0-4.9-1.3-7.3-3.8-7.3c-2.6,0-3.8,2.1-3.8,6.2v2.2c0,4.2,1.3,6.2,3.8,6.2
			C901.4,470.2,902.7,467.8,902.7,462.9 M908,462.9c0,3.7-0.7,6.5-2,8.4s-3.2,2.9-5.6,2.9c-2.5,0-4.4-1.2-5.7-3.7
			c0,0.8-0.1,1.8-0.2,3.2H890v-31.5h5V455c1.3-2.2,3.1-3.4,5.4-3.4C905.5,451.6,908,455.4,908,462.9z"/>
		<path class="st6" d="M924.5,462.9c0-5-1.3-7.5-4-7.5s-4,2.5-4,7.5c0,4.9,1.3,7.4,4,7.4S924.5,467.8,924.5,462.9 M929.8,462.9
			c0,3.6-0.8,6.4-2.4,8.3c-1.6,1.9-3.9,2.9-6.9,2.9c-2.9,0-5.2-1-6.9-2.9c-1.6-1.9-2.4-4.7-2.4-8.3c0-3.6,0.8-6.4,2.4-8.3
			c1.6-1.9,3.9-2.9,6.9-2.9s5.3,1,6.9,2.9S929.8,459.2,929.8,462.9z M926.3,443.1l-4.5,6.4H918l3.2-6.4H926.3z"/>
		<rect x="934.1" y="442.2" class="st6" width="5" height="31.5"/>
		<path class="st6" d="M951.8,460.6c0,5.8-1.9,12-5.8,18.6h-3.7c3.3-6.2,5-12.4,5-18.6s-1.7-12.5-5-18.7h3.7
			C949.9,448.6,951.8,454.8,951.8,460.6"/>
		<path class="st6" d="M360.2,461.2v-0.4c0-3.7-1.2-5.6-3.5-5.6c-2.4,0-3.7,2-4,5.9h7.5V461.2z M364.9,462.4c0,0.5,0,1.1,0,1.8
			h-12.1c0.2,4.1,2.1,6.1,5.7,6.1c1.8,0,3.5-0.5,5.3-1.6v3.9c-0.3,0.1-0.8,0.4-1.4,0.6c-1.4,0.6-2.1,1.9-2.1,3.7
			c0,0.6,0.2,1,0.5,1.5c0.3,0.4,0.8,0.6,1.3,0.6c0.6,0,1.2-0.1,1.7-0.4v3.2c-0.8,0.3-1.6,0.4-2.4,0.4c-3.3,0-4.9-1.3-4.9-4
			c0-1.5,0.7-3,2.2-4.4c-0.3,0-0.6,0-1,0c-3.2,0-5.7-1-7.4-2.9c-1.7-1.9-2.6-4.7-2.6-8.2s0.8-6.2,2.4-8.3c1.6-2,3.8-3.1,6.6-3.1
			c2.4,0,4.4,1,5.9,2.9C364.2,456.5,364.9,459.1,364.9,462.4z"/>
		<path class="st6" d="M382,473.7h-14.3v-4.6l8.9-13.1h-8.7v-3.9H382v4.5l-9,13.2h9V473.7z M377.7,448h-5.3v-4.9h5.3V448z"/>
		<path class="st6" d="M440,467.4c0,2-0.7,3.7-2.1,4.9c-1.4,1.2-3.4,1.9-5.8,1.9c-1.9,0-3.9-0.4-5.8-1.1l0.2-4.4
			c1.9,1.1,3.7,1.6,5.6,1.6c2.3,0,3.4-0.8,3.4-2.3c0-0.6-0.3-1.2-0.9-1.6c-0.3-0.3-1.1-0.7-2.5-1.3c-2-1-3.4-1.9-4.3-2.8
			c-1-1-1.4-2.4-1.4-4c0-2,0.7-3.6,2-4.8c1.3-1.2,3.1-1.9,5.2-1.9c1.9,0,3.6,0.3,5.2,0.8l-0.2,4.1c-1.4-0.7-2.9-1.1-4.5-1.1
			c-2.1,0-3.2,0.7-3.2,2.1c0,0.7,0.3,1.3,0.8,1.8c0.4,0.3,1.3,0.8,2.6,1.4c2,0.9,3.3,1.8,4,2.5C439.5,464.4,440,465.7,440,467.4
			 M439.2,443.1l-4.5,6.4h-3.8l3.2-6.4H439.2z"/>
		<path class="st6" d="M582.7,473.7h-5v-13.9c0-2.6-1-3.9-2.9-3.9c-1,0-1.9,0.4-2.5,1.3s-1,2.1-1,3.7v12.7h-5V457
			c0-1.9-0.1-3.5-0.2-5h4.6c0.1,1.8,0.2,2.9,0.2,3.2c1.1-2.4,3.1-3.7,5.9-3.7c4,0,6.1,2.4,6.1,7.2v15H582.7z M579.7,443.1l-4.5,6.4
			h-3.8l3.2-6.4H579.7z"/>
		<polygon class="st6" points="962.4,446.7 959.2,446.7 959.2,431.1 956.7,433.7 955.1,431.3 959.8,427.1 962.4,427.1 		"/>
	</g>
</g>
<g id="Warstwa_4">
	<path class="st3" d="M79.9,47.1h709.7h488.9c18.9,0,34.4,15.6,34.4,34.6v125.9c0,19-15.5,34.6-34.4,34.6H789.6H79.9
		c-18.9,0-34.4-15.6-34.4-34.6V81.7C45.5,62.6,61,47.1,79.9,47.1"/>
	<path class="st9" d="M208.1,115.4h9.3v46.5h-9.3V115.4z M311.9,121.8h1.3h7.5h13v8.6h-13v7h11.9v8.6h-11.9v16.3h-8.8V121.8z
		 M380.7,130.3l-7.1,3.8c3.6,3.1,4.5,6.3,4.5,10v18.4l8.5-0.2l-0.1-14.1c0-7.2,5.8-8.8,9.4-9.7l-2-8.6c-3.3,0.3-7,2.4-9.6,4.6
		L380.7,130.3z M153,129.5l-8.6,2.8l11.1,27.5l-7.5,14.9l7.5,3.6l20.8-45.8l-7.9-2.8l-8,21.5L153,129.5z M236.3,138
		c3.6,0,6.5,3.9,6.5,8.8c0,4.8-2.9,8.8-6.5,8.8s-6.5-3.9-6.5-8.8S232.7,138,236.3,138z M236.3,129.9c8.6,0,15.5,7.6,15.5,16.9
		c0,9.3-6.9,16.9-15.5,16.9s-15.5-7.6-15.5-16.9S227.7,129.9,236.3,129.9z M353.9,138c3.6,0,6.5,3.9,6.5,8.8c0,4.8-2.9,8.8-6.5,8.8
		s-6.5-3.9-6.5-8.8S350.3,138,353.9,138z M353.9,129.9c8.6,0,15.5,7.6,15.5,16.9c0,9.3-6.9,16.9-15.5,16.9s-15.5-7.6-15.5-16.9
		S345.3,129.9,353.9,129.9z M200.5,152.2l5.1,6.1c-4.3,5.4-13.7,7.1-20.6,2.3c-4.4-3-7.1-8.2-6.9-14c0.2-5.4,2.7-10.7,6.8-13.8
		c7.1-5.5,16.3-2.8,21.3,2.7l-5.6,5.3c-6.7-7.6-13.9-1.2-13.8,5.3c0.1,4.4,1.4,8.5,6.9,9.1C196.5,155.4,199.1,154.1,200.5,152.2z
		 M142.8,157.7l-5.2-6.8c-2,2.3-5.1,4.1-7.7,4.1c-5.6,0-9.5-6.4-9.3-13.6c0.2-7.1,3.7-13.3,9.3-13.3c2.4,0,5.9,1.4,7.6,3.3l5.4-5.8
		c-6.8-6.7-14.7-7.3-20.7-3.9s-10.1,10.8-10.7,19.6c-0.8,12.1,8.2,21.9,19.3,21.9C135.3,163.3,139.2,160.7,142.8,157.7z M404.4,122
		h8.7v9.4h6.6v8.2l-6.6,0.1v10c0,3.1,1.5,7.9,5,9.8l-6.9,4.2c-3.8-3.2-6.6-7.5-6.6-13.5v-10.5h-6.3l-0.1-8.3l6.4-0.1V122H404.4z
		 M256.3,118c7.6-6.6,17.5-9.2,25.2-7.4c12.3,2.9,16.8,10.4,16.2,17.6c-0.5,5.8-4.4,11.3-10.4,13.7c7.3,3.1,12.2,7.5,12.7,14.2
		c0.6,7.3-2.5,16.2-15,20.8c-6.5,2.4-14.7,3-24.7,1.6l-0.6-13.1c6,1.2,10.8,1.7,14.6,1.5c12.9-0.6,16.5-13,6.1-16.3
		c-3.5-1.1-7.7-1.5-14-1.4l-0.2-12.3c4.1,0,9.1-0.3,12.3-1.4c6.7-2.4,7.2-10.5-0.6-12.4c-4.4-1.1-11-0.1-14.1,5.1L256.3,118z"/>
	<path class="st5" d="M208.1,115.4h9.3v46.5h-9.3V115.4z M311.9,121.8h1.3h7.5h13v8.6h-13v7h11.9v8.6h-11.9v16.3h-8.8V121.8z
		 M380.7,130.3l-7.1,3.8c3.6,3.1,4.5,6.3,4.5,10v18.4l8.5-0.2l-0.1-14.1c0-7.2,5.8-8.8,9.4-9.7l-2-8.6c-3.3,0.3-7,2.4-9.6,4.6
		L380.7,130.3z M153,129.5l-8.6,2.8l11.1,27.5l-7.5,14.9l7.5,3.6l20.8-45.8l-7.9-2.8l-8,21.5L153,129.5z M236.3,138
		c3.6,0,6.5,3.9,6.5,8.8c0,4.8-2.9,8.8-6.5,8.8s-6.5-3.9-6.5-8.8S232.7,138,236.3,138z M236.3,129.9c8.6,0,15.5,7.6,15.5,16.9
		c0,9.3-6.9,16.9-15.5,16.9s-15.5-7.6-15.5-16.9S227.7,129.9,236.3,129.9z M353.9,138c3.6,0,6.5,3.9,6.5,8.8c0,4.8-2.9,8.8-6.5,8.8
		s-6.5-3.9-6.5-8.8S350.3,138,353.9,138z M353.9,129.9c8.6,0,15.5,7.6,15.5,16.9c0,9.3-6.9,16.9-15.5,16.9s-15.5-7.6-15.5-16.9
		S345.3,129.9,353.9,129.9z M200.5,152.2l5.1,6.1c-4.3,5.4-13.7,7.1-20.6,2.3c-4.4-3-7.1-8.2-6.9-14c0.2-5.4,2.7-10.7,6.8-13.8
		c7.1-5.5,16.3-2.8,21.2,2.7l-5.6,5.3c-6.7-7.6-13.9-1.2-13.8,5.3c0.1,4.4,1.4,8.5,6.9,9.1C196.5,155.4,199.1,154.1,200.5,152.2z
		 M142.8,157.7l-5.2-6.8c-2,2.3-5.1,4.1-7.7,4.1c-5.6,0-9.5-6.4-9.3-13.6c0.2-7.1,3.7-13.3,9.3-13.3c2.4,0,5.9,1.4,7.6,3.3l5.4-5.8
		c-6.8-6.7-14.7-7.3-20.7-3.9s-10.1,10.8-10.7,19.6c-0.8,12.1,8.2,21.9,19.3,21.9C135.3,163.3,139.2,160.8,142.8,157.7z M404.3,122
		h8.7v9.4h6.6v8.2l-6.6,0.1v10c0,3.1,1.5,7.9,5,9.8l-6.9,4.2c-3.8-3.2-6.6-7.5-6.6-13.5v-10.5h-6.3l-0.1-8.3l6.4-0.1V122H404.3z
		 M256.3,118c7.6-6.6,17.5-9.2,25.2-7.4c12.3,2.9,16.8,10.4,16.2,17.6c-0.5,5.8-4.4,11.3-10.4,13.7c7.3,3.1,12.2,7.5,12.7,14.2
		c0.6,7.3-2.5,16.2-15,20.8c-6.5,2.4-14.7,3-24.7,1.6l-0.6-13.1c6,1.2,10.8,1.7,14.6,1.5c12.9-0.6,16.5-13,6.1-16.3
		c-3.5-1.1-7.7-1.5-14-1.4l-0.2-12.3c4.1,0,9.1-0.3,12.3-1.4c6.7-2.4,7.2-10.5-0.6-12.4c-4.4-1.1-11-0.1-14.1,5.1L256.3,118z"/>
	<path class="st5" d="M301.5,117.9v-4.7h1.6c0.6,0,0.9,0,1.2,0.1c0.2,0.1,0.4,0.2,0.6,0.5c0.1,0.2,0.2,0.4,0.2,0.7
		c0,0.3-0.1,0.6-0.4,0.9c-0.2,0.3-0.6,0.4-1,0.4c0.2,0.1,0.3,0.2,0.4,0.2c0.2,0.2,0.4,0.5,0.7,0.9l0.6,0.9h-0.9l-0.4-0.7
		c-0.3-0.6-0.6-0.9-0.8-1.1c-0.1-0.1-0.3-0.2-0.6-0.2h-0.4v2L301.5,117.9L301.5,117.9z M302.2,115.2h0.9c0.4,0,0.7-0.1,0.9-0.2
		c0.2-0.1,0.2-0.3,0.2-0.5c0-0.1,0-0.3-0.1-0.4s-0.2-0.2-0.3-0.2c-0.1-0.1-0.4-0.1-0.8-0.1h-0.9L302.2,115.2L302.2,115.2z
		 M303.4,111.8c-0.6,0-1.2,0.2-1.8,0.5c-0.6,0.3-1,0.8-1.4,1.3c-0.3,0.6-0.5,1.2-0.5,1.8c0,0.6,0.2,1.2,0.5,1.8
		c0.3,0.6,0.8,1,1.3,1.3c0.6,0.3,1.2,0.5,1.8,0.5c0.6,0,1.2-0.2,1.8-0.5c0.6-0.3,1-0.8,1.3-1.3c0.3-0.6,0.5-1.2,0.5-1.8
		c0-0.6-0.2-1.2-0.5-1.8c-0.3-0.6-0.8-1-1.4-1.3C304.6,112,304,111.8,303.4,111.8z M303.4,111.1c0.7,0,1.4,0.2,2.1,0.6
		s1.2,0.9,1.6,1.6s0.6,1.4,0.6,2.2c0,0.8-0.2,1.5-0.6,2.2s-0.9,1.2-1.6,1.6s-1.4,0.6-2.2,0.6c-0.8,0-1.5-0.2-2.2-0.6
		s-1.2-0.9-1.6-1.6s-0.6-1.4-0.6-2.2c0-0.8,0.2-1.5,0.6-2.2s0.9-1.2,1.6-1.6C301.9,111.3,302.6,111.1,303.4,111.1z"/>
	<polygon class="st10" points="1135.8,127.4 1115.5,127.4 1115.5,92.5 1135.2,92.5 1135.2,98.4 1123.4,98.4 1123.4,106.7 
		1134.6,106.7 1134.6,112.6 1123.4,112.6 1123.4,121.6 1135.8,121.6 	"/>
	<polygon class="st10" points="1160.4,98.4 1149.5,98.4 1149.5,107 1160,107 1160,112.9 1149.5,112.9 1149.5,127.4 1141.5,127.4 
		1141.5,92.5 1160.4,92.5 	"/>
	<polygon class="st10" points="1185.9,127.4 1165.6,127.4 1165.6,92.5 1185.3,92.5 1185.3,98.4 1173.5,98.4 1173.5,106.7 
		1184.7,106.7 1184.7,112.6 1173.5,112.6 1173.5,121.6 1185.9,121.6 	"/>
	<polygon class="st10" points="1217.9,127.4 1208.5,127.4 1199.5,111.4 1199.5,127.4 1191.6,127.4 1191.6,92.5 1199.5,92.5 
		1199.5,106.9 1208.2,92.5 1217,92.5 1206.5,108.8 	"/>
	<polygon class="st10" points="1242.3,98.8 1234.8,98.8 1234.8,127.4 1226.8,127.4 1226.8,98.8 1219.2,98.8 1219.2,92.5 
		1242.3,92.5 	"/>
	<path class="st10" d="M693.2,171.5c0-3.9-0.5-6.9-1.7-9c-1.1-2.1-2.6-3.1-4.6-3.1s-3.5,1-4.6,3.1s-1.7,5.1-1.7,9s0.6,6.9,1.7,9
		c1.1,2.1,2.6,3.1,4.6,3.1s3.5-1,4.6-3.1S693.2,175.4,693.2,171.5 M701.6,171.5c0,5.7-1.3,10.2-3.9,13.3c-2.6,3.1-6.2,4.7-10.8,4.7
		s-8.2-1.6-10.8-4.7c-2.6-3.1-3.9-7.6-3.9-13.3s1.3-10.2,3.9-13.3c2.6-3.2,6.2-4.7,10.8-4.7s8.2,1.6,10.8,4.7
		C700.3,161.3,701.6,165.7,701.6,171.5z"/>
	<path class="st10" d="M722,178.5c0-1.7-0.4-2.9-1.3-3.6c-0.9-0.7-2.3-1.1-4.2-1.1h-2v9.3h2C720.2,183,722,181.5,722,178.5
		 M721.3,164.2c0-1.6-0.4-2.7-1.2-3.3c-0.8-0.7-2.1-1-3.9-1h-1.7v8.5h1.8C719.7,168.3,721.3,167,721.3,164.2z M729.7,179.4
		c0,6.3-4.2,9.5-12.5,9.5h-10.3V154h10.7c7.6,0,11.4,3,11.4,8.9c0,4.4-2.1,7.1-6.3,7.9C727.4,171.6,729.7,174.5,729.7,179.4z"/>
	<polygon class="st10" points="761.3,188.9 751.9,188.9 742.9,172.9 742.9,188.9 734.9,188.9 734.9,154 742.9,154 742.9,168.3 
		751.6,154 760.4,154 749.9,170.3 	"/>
	<path class="st10" d="M788.5,175.4c0,9.4-4.2,14-12.5,14c-4.3,0-7.4-1.1-9.4-3.4c-2-2.3-3-5.8-3-10.6V154h8v22.3
		c0,2.6,0.3,4.4,0.9,5.4c0.7,1.2,2,1.8,3.8,1.8s3.1-0.6,3.8-1.8c0.6-1.1,1-2.9,1-5.5V154h7.6v21.4H788.5z"/>
	<path class="st10" d="M810.3,164.4c0-1.7-0.4-3-1.3-3.7c-0.8-0.6-2.2-0.9-4.2-0.9H803v9h1.7c1.9,0,3.3-0.3,4.2-1
		C809.8,167.1,810.3,166,810.3,164.4 M819.7,188.9h-8.2l-2.8-9.9c-0.5-1.6-1-2.7-1.5-3.3c-0.6-0.7-1.5-1.1-2.8-1.1H803v14.3h-7.8
		V154h8.2c0.4,0,0.8,0,1.3-0.1c0.4,0,0.7,0,0.7,0c4.3,0,7.5,0.7,9.6,2.2s3.1,3.9,3.1,7.2c0,4.4-2.2,7.1-6.5,8.2
		c1.2,0.3,2.1,0.9,2.7,1.8c0.5,0.7,1.1,2,1.7,3.8L819.7,188.9z"/>
	<path class="st10" d="M846.7,188c-2.5,1-5.2,1.5-8.2,1.5c-5,0-9-1.6-12-4.9s-4.5-7.6-4.5-13.2c0-5.5,1.5-9.9,4.5-13.1
		c3-3.3,6.9-4.9,11.8-4.9c2.7,0,5.5,0.6,8.2,1.7l-0.4,6.5c-2-1.2-4.2-1.9-6.6-1.9c-2.9,0-5.1,1-6.7,3c-1.6,2-2.4,4.9-2.4,8.7
		s0.8,6.8,2.5,8.8c1.6,2,3.9,3.1,6.9,3.1c2.2,0,4.4-0.7,6.6-2L846.7,188z"/>
	<polygon class="st10" points="872,188.9 849.5,188.9 849.5,182 862.8,160.2 849.9,160.2 849.9,154 871.6,154 871.6,160.5 
		858.1,182.7 872,182.7 	"/>
	<path class="st10" d="M892.4,175.1l-3.7-14.2l-4.2,14.2H892.4z M904.2,188.9h-8.3l-2-7.8h-11.2l-2.1,7.8h-7.8l11.3-34.9h9.2
		L904.2,188.9z"/>
	<path class="st10" d="M919.5,176c0,4.7-0.7,8-2.1,10.1c-1.5,2.2-4.1,3.4-7.7,3.4c-1.7,0-3.5-0.3-5.3-1l0.4-6.4
		c0.9,0.4,1.8,0.6,2.6,0.6c2.8,0,4.2-1.6,4.2-4.8V154h8v22H919.5z"/>
	<path class="st10" d="M941.8,175.1l-3.7-14.2l-4.2,14.2H941.8z M954.6,198.9c-1.4,0.6-2.8,0.9-4.2,0.9c-1.7,0-3.1-0.4-4.2-1.3
		c-1.1-0.9-1.7-2.2-1.7-3.9c0-2.2,1.4-4.1,4.3-5.6h-3.5l-2-7.8h-11.2L930,189h-7.8l11.3-34.9h9.2l10.8,34.9c-1.1,0-2,0.3-2.6,1
		s-0.9,1.4-0.9,2.3c0,1.9,0.8,2.9,2.4,2.9c0.7,0,1.4-0.2,2.1-0.5L954.6,198.9L954.6,198.9z"/>
	<path class="st10" d="M979.8,188c-2.5,1-5.2,1.5-8.2,1.5c-5,0-9-1.6-12-4.9c-3-3.2-4.5-7.6-4.5-13.2c0-5.5,1.5-9.9,4.5-13.1
		c3-3.3,6.9-4.9,11.8-4.9c2.7,0,5.5,0.6,8.2,1.7l-0.4,6.5c-2-1.2-4.2-1.9-6.6-1.9c-2.9,0-5.1,1-6.7,3c-1.6,2-2.4,4.9-2.4,8.7
		s0.8,6.8,2.5,8.8c1.6,2,3.9,3.1,6.9,3.1c2.2,0,4.4-0.7,6.6-2L979.8,188z"/>
	<polygon class="st10" points="1009.8,154 999.5,175.7 999.5,188.9 991.5,188.9 991.5,175.4 981.2,154 990.3,154 995.8,168.6 
		1001.3,154 	"/>
	<polygon class="st10" points="1051.6,188.9 1042.4,188.9 1031.9,163.4 1031.9,188.9 1025.2,188.9 1025.2,154 1034.3,154 
		1044.8,179.5 1044.8,154 1051.6,154 	"/>
	<path class="st10" d="M1074,175.1l-3.7-14.2l-4.2,14.2H1074z M1085.8,188.9h-8.3l-2-7.8h-11.2l-2.1,7.8h-7.8l11.3-34.9h9.2
		L1085.8,188.9z"/>
	<path class="st10" d="M1111.9,188c-2.5,1-5.2,1.5-8.2,1.5c-5,0-9-1.6-12-4.9c-3-3.2-4.5-7.6-4.5-13.2c0-5.5,1.5-9.9,4.5-13.1
		c3-3.3,6.9-4.9,11.8-4.9c2.7,0,5.5,0.6,8.2,1.7l-0.4,6.5c-2-1.2-4.2-1.9-6.6-1.9c-2.9,0-5.1,1-6.7,3s-2.4,4.9-2.4,8.7
		s0.8,6.8,2.5,8.8c1.6,2,3.9,3.1,6.9,3.1c2.2,0,4.4-0.7,6.6-2L1111.9,188z"/>
	<polygon class="st10" points="1137.2,188.9 1114.7,188.9 1114.7,182 1128,160.2 1115.1,160.2 1115.1,154 1136.8,154 1136.8,160.5 
		1123.3,182.7 1137.2,182.7 	"/>
	<polygon class="st10" points="1166,154 1155.7,175.7 1155.7,188.9 1147.7,188.9 1147.7,175.4 1137.4,154 1146.4,154 1152,168.6 
		1157.5,154 	"/>
	<polygon class="st10" points="1194.6,188.9 1185.5,188.9 1175,163.4 1175,188.9 1168.2,188.9 1168.2,154 1177.4,154 1187.8,179.5 
		1187.8,154 1194.6,154 	"/>
	<rect x="1201.5" y="154" class="st10" width="8" height="34.9"/>
	<path class="st10" d="M1231.8,175.1l-3.7-14.2l-4.2,14.2H1231.8z M1243.6,188.9h-8.3l-2-7.8h-11.2l-2.1,7.8h-7.8l11.3-34.9h9.2
		L1243.6,188.9z"/>
	<polygon class="st10" points="1251,163.1 1248.4,163.1 1248.4,150.7 1246.4,152.8 1245.1,150.8 1248.8,147.5 1251,147.5 	"/>
	<polygon class="st10" points="1263.2,150 1260.3,150.6 1262.3,152.7 1260.6,153.9 1259.2,151.3 1257.8,153.9 1256.1,152.7 
		1258.2,150.6 1255.3,150 1255.9,148 1258.5,149.3 1258.2,146.4 1260.2,146.4 1259.9,149.3 1262.5,148 	"/>
</g>
<g>
	<polygon class="st6" points="512.7,802.5 511.1,802.9 512.2,804 511.5,804.6 510.7,803.2 509.9,804.6 509.2,804 510.2,802.9 
		508.7,802.5 508.9,801.7 510.4,802.3 510.2,800.8 511.1,800.8 511,802.3 512.4,801.7 	"/>
	<path class="st6" d="M519.9,807.1v-0.7c0-1.3-0.4-2-1.3-2c-0.9,0-1.3,0.8-1.3,2.4c0,1.6,0.4,2.4,1.3,2.4c0.4,0,0.7-0.2,1-0.5
		C519.8,808.3,519.9,807.8,519.9,807.1 M520.9,809.8H520c0-0.4,0-0.7,0-0.9c-0.4,0.7-0.9,1-1.6,1c-1.4,0-2.1-1.1-2.1-3.2
		c0-2.1,0.7-3.2,2.2-3.2c0.6,0,1.1,0.3,1.5,0.9v-3.7h1v9.1L520.9,809.8L520.9,809.8z"/>
	<polygon class="st6" points="526,809.8 522.2,809.8 522.2,808.8 524.9,804.5 522.2,804.5 522.2,803.6 526,803.6 526,804.6 
		523.2,809 526,809 	"/>
	<path class="st6" d="M528.3,809.8h-1v-6.2h1V809.8z M528.3,802.3h-1.1v-1.2h1.1V802.3z"/>
	<path class="st6" d="M532.9,807.2v-0.5c-0.3,0-0.5,0-0.6,0c-1.2,0-1.8,0.4-1.8,1.3c0,0.7,0.4,1.1,1.1,1.1
		C532.4,809.2,532.9,808.5,532.9,807.2 M533.9,809.8H533l-0.1-0.7c-0.4,0.6-0.9,0.9-1.7,0.9c-0.5,0-1-0.2-1.3-0.5s-0.5-0.8-0.5-1.4
		c0-1.4,1-2,2.9-2c0,0,0.2,0,0.6,0v-0.4c0-0.9-0.4-1.4-1.3-1.4c-0.6,0-1.1,0.2-1.5,0.6L530,804c0.6-0.3,1.1-0.5,1.8-0.5
		c0.8,0,1.4,0.2,1.7,0.6c0.3,0.4,0.4,1,0.4,1.9v2.6C533.9,809.1,533.9,809.5,533.9,809.8z"/>
	<polygon class="st6" points="537.3,803.7 536.5,804.2 536.5,809.8 535.5,809.8 535.5,804.8 534.8,805.3 534.8,804.4 535.5,803.9 
		535.5,800.7 536.5,800.7 536.5,803.3 537.3,802.7 	"/>
	<path class="st6" d="M541.2,807.2v-0.5c-0.3,0-0.5,0-0.6,0c-1.2,0-1.8,0.4-1.8,1.3c0,0.7,0.4,1.1,1.1,1.1
		C540.7,809.2,541.2,808.5,541.2,807.2 M542.2,809.8h-0.9l-0.1-0.7c-0.4,0.6-0.9,0.9-1.7,0.9c-0.5,0-1-0.2-1.3-0.5s-0.5-0.8-0.5-1.4
		c0-1.4,1-2,2.9-2c0,0,0.2,0,0.6,0v-0.4c0-0.9-0.4-1.4-1.3-1.4c-0.6,0-1.1,0.2-1.5,0.6l-0.1-0.9c0.6-0.3,1.1-0.5,1.8-0.5
		c0.8,0,1.4,0.2,1.7,0.6c0.3,0.4,0.4,1,0.4,1.9v2.6C542.2,809.1,542.2,809.5,542.2,809.8z"/>
	<path class="st6" d="M548.1,809.8h-1v-4.2c0-0.8-0.3-1.3-1-1.3c-0.4,0-0.7,0.2-0.9,0.5s-0.3,0.7-0.3,1.3v3.7h-1v-4.6
		c0-0.4,0-1-0.1-1.5h0.9c0,0.2,0,0.5,0,0.9c0.3-0.7,0.9-1,1.6-1c0.5,0,1,0.2,1.3,0.5s0.4,0.8,0.4,1.5L548.1,809.8L548.1,809.8z"/>
	<path class="st6" d="M550.7,809.8h-1v-6.2h1V809.8z M550.8,802.3h-1.1v-1.2h1.1V802.3z"/>
	<path class="st6" d="M555.5,806.3L555.5,806.3c0-1.3-0.4-2-1.2-2s-1.2,0.6-1.3,2H555.5z M556.5,806.4c0,0.3,0,0.5,0,0.6h-3.4
		c0,1.4,0.6,2.1,1.7,2.1c0.5,0,0.9-0.1,1.4-0.4v0.9c-0.4,0.2-1,0.4-1.6,0.4c-1.7,0-2.6-1.1-2.6-3.2c0-1,0.2-1.8,0.6-2.4
		c0.4-0.6,1-0.9,1.7-0.9c0.6,0,1.2,0.3,1.6,0.8C556.3,804.8,556.5,805.5,556.5,806.4z"/>
	<path class="st6" d="M561.9,809.8l1.1-6.3h0.9l-1.1,6.3H561.9z M563.2,802.3l0.2-1.2h0.9l-0.2,1.2H563.2z"/>
	<path class="st6" d="M564.2,809.8l1.1-6.3h0.8l-0.2,1.1c0.4-0.5,0.7-0.8,1-1s0.6-0.3,0.9-0.3c0.4,0,0.7,0.1,1,0.4
		c0.2,0.3,0.4,0.7,0.4,1.1c0,0.2,0,0.6-0.1,1.1l-0.7,3.8h-0.9l0.7-4c0.1-0.4,0.1-0.7,0.1-0.9s-0.1-0.4-0.2-0.5
		c-0.1-0.1-0.3-0.2-0.5-0.2c-0.4,0-0.8,0.2-1.2,0.6c-0.4,0.4-0.6,1.1-0.8,2l-0.5,2.9h-0.9L564.2,809.8L564.2,809.8z"/>
	<path class="st6" d="M573.8,809.8l-0.9-6.3h0.9l0.4,3.5c0,0.4,0.1,1,0.2,1.9c0.2-0.5,0.4-1,0.7-1.5l1.7-3.8h0.9l-3,6.3h-0.9
		L573.8,809.8L573.8,809.8z"/>
	<path class="st6" d="M577.5,809.8l1.1-6.3h0.9l-1.1,6.3H577.5z M578.8,802.3l0.2-1.2h0.9l-0.2,1.2H578.8z"/>
	<path class="st6" d="M581.8,809l-0.2,0.9c-0.2,0.1-0.4,0.1-0.6,0.1c-0.3,0-0.6-0.1-0.8-0.3s-0.3-0.4-0.3-0.7c0-0.1,0-0.5,0.1-1
		l0.6-3.7H580l0.1-0.8h0.7l0.3-1.6l1-0.7l-0.4,2.3h0.9l-0.1,0.8h-0.9l-0.6,3.5c-0.1,0.4-0.1,0.7-0.1,0.8s0,0.2,0.1,0.3
		s0.2,0.1,0.3,0.1C581.5,809,581.7,809,581.8,809"/>
	<path class="st6" d="M582.5,809.8l1.1-6.3h0.8l-0.2,1.3c0.5-1,1-1.4,1.6-1.4c0.2,0,0.4,0.1,0.7,0.2l-0.4,1
		c-0.2-0.1-0.3-0.2-0.5-0.2c-0.3,0-0.6,0.2-1,0.6c-0.3,0.4-0.6,1.2-0.8,2.3l-0.4,2.5L582.5,809.8L582.5,809.8z"/>
	<path class="st6" d="M586.9,807.3c0,0.6,0.1,1.1,0.4,1.4c0.2,0.3,0.5,0.5,0.9,0.5c0.3,0,0.6-0.1,0.8-0.3c0.3-0.2,0.5-0.6,0.7-1.1
		s0.3-1.1,0.3-1.6c0-0.6-0.1-1.1-0.4-1.4c-0.2-0.3-0.5-0.5-0.9-0.5c-0.3,0-0.6,0.1-0.9,0.3c-0.3,0.2-0.5,0.6-0.7,1.1
		C587,806.2,586.9,806.7,586.9,807.3 M586,807.4c0-1.1,0.3-2.1,0.8-2.9c0.5-0.8,1.2-1.2,2.1-1.2c0.6,0,1.1,0.2,1.5,0.7
		s0.6,1.1,0.6,2c0,0.8-0.1,1.5-0.4,2.1c-0.3,0.6-0.6,1.1-1,1.4c-0.4,0.3-0.9,0.5-1.3,0.5c-0.6,0-1.1-0.2-1.5-0.7
		C586.2,808.8,586,808.2,586,807.4z"/>
	<polygon class="st6" points="604.2,803.6 602.5,809.8 601.4,809.8 600.1,804.7 598.9,809.8 597.7,809.8 596.1,803.6 597.2,803.6 
		598.3,808.8 599.6,803.6 600.7,803.6 602,808.8 603.2,803.6 	"/>
	<path class="st6" d="M609.4,803.6l-2,7c-0.2,0.7-0.4,1.2-0.6,1.4c-0.2,0.3-0.6,0.5-1.1,0.5c-0.3,0-0.5,0-0.7-0.1l0.1-0.9
		c0.2,0.1,0.3,0.1,0.4,0.1c0.4,0,0.7-0.3,0.8-0.9l0.2-0.7l-1.9-6.4h1.1l1.3,5.1l1.3-5.1L609.4,803.6L609.4,803.6z"/>
	<path class="st6" d="M614.1,809.7c-0.4,0.2-0.9,0.2-1.3,0.2c-0.8,0-1.5-0.3-1.9-0.9c-0.5-0.6-0.7-1.4-0.7-2.4s0.2-1.8,0.7-2.3
		c0.5-0.6,1.1-0.8,2-0.8c0.4,0,0.8,0.1,1.2,0.2v0.9c-0.3-0.2-0.7-0.3-1-0.3c-1.2,0-1.8,0.7-1.8,2.2c0,1.7,0.6,2.5,1.8,2.5
		c0.3,0,0.7-0.1,1.1-0.3L614.1,809.7z"/>
	<path class="st6" d="M616,809.8h-1v-6.2h1V809.8z M616.1,802.3H615v-1.2h1.1V802.3z"/>
	<path class="st6" d="M620.6,807.2v-0.5c-0.3,0-0.5,0-0.6,0c-1.2,0-1.8,0.4-1.8,1.3c0,0.7,0.4,1.1,1.1,1.1
		C620.2,809.2,620.6,808.5,620.6,807.2 M622.1,812.3c-0.2,0.1-0.4,0.1-0.6,0.1c-0.4,0-0.7-0.1-0.9-0.3c-0.3-0.2-0.4-0.5-0.4-0.8
		c0-0.5,0.3-1,0.8-1.5h-0.2l-0.1-0.7c-0.4,0.6-0.9,0.9-1.7,0.9c-0.5,0-1-0.2-1.3-0.5s-0.5-0.8-0.5-1.4c0-1.4,1-2,2.9-2
		c0,0,0.2,0,0.6,0v-0.4c0-0.9-0.4-1.4-1.3-1.4c-0.6,0-1.1,0.2-1.5,0.6l-0.1-0.9c0.6-0.3,1.1-0.5,1.8-0.5c0.8,0,1.4,0.2,1.7,0.6
		c0.3,0.4,0.4,1,0.4,1.9v2.6c0,0.5,0,0.8,0.1,1.2c-0.2,0.1-0.3,0.3-0.5,0.5c-0.1,0.2-0.2,0.5-0.2,0.7c0,0.4,0.2,0.6,0.6,0.6
		c0.2,0,0.3,0,0.5-0.1L622.1,812.3L622.1,812.3z"/>
	<path class="st6" d="M626.6,807v-0.7c0-0.6-0.1-1.1-0.3-1.5c-0.2-0.3-0.6-0.5-1-0.5c-0.9,0-1.3,0.8-1.3,2.3c0,1.6,0.4,2.3,1.3,2.3
		c0.4,0,0.7-0.2,1-0.5C626.5,808.2,626.6,807.7,626.6,807 M627.7,803.6c0,0.8,0,1.3,0,1.6v3.9c0,1.2-0.2,2-0.5,2.5
		c-0.4,0.6-1.1,0.8-2.1,0.8c-0.6,0-1.2-0.1-1.8-0.3l0.1-1c0.5,0.3,1.1,0.5,1.7,0.5c0.6,0,1-0.2,1.3-0.6c0.3-0.4,0.4-1,0.4-1.8
		c0,0,0-0.1,0-0.2c0-0.1,0-0.2,0-0.2c-0.4,0.6-0.9,0.9-1.5,0.9c-1.4,0-2.1-1.1-2.1-3.2c0-1,0.2-1.8,0.6-2.4c0.4-0.5,0.9-0.8,1.6-0.8
		c0.7,0,1.2,0.3,1.6,1c0-0.4,0-0.7,0-0.9h0.7V803.6z"/>
	<path class="st6" d="M633.6,809.8h-0.9c0-0.1,0-0.4,0-0.9c-0.3,0.7-0.9,1-1.6,1c-1.1,0-1.7-0.7-1.7-2v-4.3h1v4.2
		c0,0.8,0.3,1.3,1,1.3c0.4,0,0.7-0.2,0.9-0.5s0.3-0.7,0.3-1.3v-3.7h1v4.6C633.5,808.8,633.5,809.4,633.6,809.8"/>
	<path class="st6" d="M640.7,805h1.3c0.7,0,1.2,0,1.5-0.1s0.5-0.2,0.7-0.3c0.2-0.2,0.4-0.4,0.5-0.6c0.1-0.2,0.2-0.5,0.2-0.8
		s0-0.5-0.1-0.7s-0.2-0.3-0.4-0.4c-0.1-0.1-0.4-0.1-0.8-0.1h-2.3L640.7,805z M639,809.8l1.5-8.7h3c0.7,0,1.1,0.1,1.4,0.2
		c0.3,0.1,0.5,0.3,0.6,0.6c0.2,0.4,0.3,0.8,0.3,1.3c0,0.8-0.2,1.4-0.6,1.8c-0.4,0.4-1,0.7-1.8,0.9c0.3,0.2,0.5,0.5,0.6,0.7
		c0.3,0.5,0.5,1,0.7,1.5l0.5,1.6h-1.1l-0.5-1.6c-0.2-0.6-0.4-1.1-0.7-1.6c-0.2-0.3-0.3-0.5-0.5-0.5c-0.2-0.1-0.4-0.1-0.8-0.1h-1.1
		l-0.7,3.9L639,809.8L639,809.8z"/>
	<path class="st6" d="M649.6,808.7c-0.6,0.9-1.3,1.3-1.9,1.3c-0.4,0-0.7-0.1-0.9-0.4c-0.3-0.3-0.4-0.6-0.4-1c0-0.3,0.1-0.7,0.2-1.4
		l0.6-3.6h0.9l-0.7,4c-0.1,0.3-0.1,0.6-0.1,0.8s0.1,0.4,0.2,0.6c0.1,0.1,0.3,0.2,0.5,0.2c0.3,0,0.6-0.1,0.9-0.4
		c0.3-0.3,0.5-0.6,0.7-0.9c0.1-0.4,0.3-0.9,0.4-1.5l0.5-2.7h0.9l-1.1,6.3h-0.8L649.6,808.7z"/>
	<path class="st6" d="M651.6,807.7l0.9-0.1c0,0.5,0.1,0.9,0.3,1.2s0.5,0.4,0.9,0.4s0.6-0.1,0.9-0.3c0.2-0.2,0.3-0.4,0.3-0.7
		c0-0.2-0.1-0.4-0.2-0.5c-0.1-0.2-0.4-0.4-0.9-0.6c-0.5-0.3-0.9-0.5-1-0.6c-0.2-0.1-0.3-0.3-0.4-0.5c-0.1-0.2-0.1-0.4-0.1-0.7
		c0-0.5,0.2-1,0.5-1.3s0.8-0.5,1.3-0.5c0.6,0,1.1,0.2,1.5,0.5s0.5,0.8,0.6,1.5l-0.9,0.1c0-0.4-0.1-0.7-0.3-0.9s-0.5-0.3-0.9-0.3
		c-0.3,0-0.5,0.1-0.7,0.2c-0.2,0.2-0.3,0.3-0.3,0.6c0,0.2,0.1,0.3,0.2,0.5c0.1,0.1,0.4,0.3,0.8,0.5c0.7,0.4,1.1,0.6,1.3,0.8
		c0.3,0.3,0.4,0.7,0.4,1.2s-0.2,1-0.6,1.4c-0.4,0.4-0.9,0.6-1.5,0.6c-0.7,0-1.2-0.2-1.6-0.6c-0.4-0.4-0.6-0.9-0.6-1.6L651.6,807.7
		L651.6,807.7z"/>
	<path class="st6" d="M660.2,807.5l0.9,0.1c-0.2,0.8-0.5,1.4-1,1.8c-0.4,0.4-0.9,0.6-1.4,0.6s-1-0.2-1.4-0.6
		c-0.4-0.4-0.5-1.1-0.5-1.9c0-0.8,0.1-1.5,0.4-2.2c0.3-0.7,0.6-1.1,1-1.4c0.4-0.3,0.9-0.4,1.3-0.4c0.5,0,1,0.2,1.3,0.6
		c0.3,0.4,0.5,0.9,0.5,1.5l-0.9,0.1c0-0.4-0.1-0.7-0.3-1c-0.2-0.2-0.4-0.3-0.7-0.3s-0.6,0.1-0.8,0.3c-0.3,0.2-0.5,0.6-0.7,1.2
		c-0.2,0.6-0.3,1.2-0.3,1.9c0,0.5,0.1,0.9,0.3,1.2s0.4,0.4,0.7,0.4s0.6-0.1,0.8-0.4C659.8,808.5,660,808.1,660.2,807.5"/>
	<path class="st6" d="M665.1,808.7c-0.6,0.9-1.3,1.3-1.9,1.3c-0.4,0-0.7-0.1-0.9-0.4c-0.3-0.3-0.4-0.6-0.4-1c0-0.3,0.1-0.7,0.2-1.4
		l0.6-3.6h0.9l-0.7,4c-0.1,0.3-0.1,0.6-0.1,0.8s0.1,0.4,0.2,0.6c0.1,0.1,0.3,0.2,0.5,0.2c0.3,0,0.6-0.1,0.9-0.4
		c0.3-0.3,0.5-0.6,0.7-0.9c0.1-0.4,0.3-0.9,0.4-1.5l0.5-2.7h0.9l-1.1,6.3H665L665.1,808.7z"/>
	<path class="st6" d="M667.2,807.7l0.9-0.1c0,0.5,0.1,0.9,0.3,1.2s0.5,0.4,0.9,0.4s0.6-0.1,0.9-0.3c0.2-0.2,0.3-0.4,0.3-0.7
		c0-0.2-0.1-0.4-0.2-0.5c-0.1-0.2-0.4-0.4-0.9-0.6c-0.5-0.3-0.9-0.5-1-0.6c-0.2-0.1-0.3-0.3-0.4-0.5c-0.1-0.2-0.1-0.4-0.1-0.7
		c0-0.5,0.2-1,0.5-1.3s0.8-0.5,1.3-0.5c0.6,0,1.1,0.2,1.5,0.5s0.5,0.8,0.6,1.5l-0.9,0.1c0-0.4-0.1-0.7-0.3-0.9s-0.5-0.3-0.9-0.3
		c-0.3,0-0.5,0.1-0.7,0.2c-0.2,0.2-0.3,0.3-0.3,0.6c0,0.2,0.1,0.3,0.2,0.5c0.1,0.1,0.4,0.3,0.8,0.5c0.7,0.4,1.1,0.6,1.3,0.8
		c0.3,0.3,0.4,0.7,0.4,1.2s-0.2,1-0.6,1.4c-0.4,0.4-0.9,0.6-1.5,0.6c-0.7,0-1.2-0.2-1.6-0.6c-0.4-0.4-0.6-0.9-0.6-1.6L667.2,807.7
		L667.2,807.7z"/>
	<path class="st6" d="M678.7,806.6c-0.2,0.1-0.6,0.2-1.1,0.2c-0.5,0.1-0.9,0.1-1.1,0.2c-0.2,0.1-0.4,0.2-0.5,0.4s-0.2,0.4-0.2,0.6
		c0,0.3,0.1,0.6,0.3,0.8s0.4,0.3,0.7,0.3s0.6-0.1,0.8-0.3c0.3-0.2,0.5-0.4,0.6-0.8C678.5,807.8,678.6,807.3,678.7,806.6 M678.4,809
		c-0.3,0.3-0.6,0.6-0.9,0.7c-0.3,0.1-0.6,0.2-0.9,0.2c-0.5,0-0.8-0.2-1.1-0.5s-0.5-0.8-0.5-1.3c0-0.4,0.1-0.8,0.3-1.1
		s0.4-0.5,0.7-0.7s0.8-0.3,1.4-0.3c0.5,0,0.8-0.1,1-0.1s0.3-0.1,0.5-0.1c0.1-0.3,0.1-0.5,0.1-0.7c0-0.3-0.1-0.5-0.3-0.6
		c-0.2-0.2-0.5-0.2-0.8-0.2c-0.7,0-1.2,0.4-1.4,1.2l-0.9-0.1c0.4-1.3,1.2-1.9,2.4-1.9c0.6,0,1.1,0.2,1.4,0.5
		c0.3,0.3,0.5,0.7,0.5,1.2c0,0.3,0,0.7-0.1,1.2l-0.3,1.6c-0.1,0.5-0.1,0.9-0.1,1.2c0,0.2,0,0.5,0.1,0.9h-0.9
		C678.5,809.6,678.4,809.4,678.4,809z"/>
	<path class="st6" d="M684.1,807.5l0.9,0.1c-0.2,0.8-0.5,1.4-1,1.8c-0.4,0.4-0.9,0.6-1.4,0.6s-1-0.2-1.4-0.6
		c-0.4-0.4-0.5-1.1-0.5-1.9c0-0.8,0.1-1.5,0.4-2.2c0.3-0.7,0.6-1.1,1-1.4c0.4-0.3,0.9-0.4,1.3-0.4c0.5,0,1,0.2,1.3,0.6
		c0.3,0.4,0.5,0.9,0.5,1.5l-0.9,0.1c0-0.4-0.1-0.7-0.3-1c-0.2-0.2-0.4-0.3-0.7-0.3s-0.6,0.1-0.8,0.3c-0.3,0.2-0.5,0.6-0.7,1.2
		c-0.2,0.6-0.3,1.2-0.3,1.9c0,0.5,0.1,0.9,0.3,1.2s0.4,0.4,0.7,0.4s0.6-0.1,0.8-0.4C683.7,808.5,683.9,808.1,684.1,807.5"/>
	<path class="st6" d="M689,808.7c-0.6,0.9-1.3,1.3-1.9,1.3c-0.4,0-0.7-0.1-0.9-0.4c-0.3-0.3-0.4-0.6-0.4-1c0-0.3,0.1-0.7,0.2-1.4
		l0.6-3.6h0.9l-0.7,4c-0.1,0.3-0.1,0.6-0.1,0.8s0.1,0.4,0.2,0.6c0.1,0.1,0.3,0.2,0.5,0.2c0.3,0,0.6-0.1,0.9-0.4
		c0.3-0.3,0.5-0.6,0.7-0.9c0.1-0.4,0.3-0.9,0.4-1.5l0.5-2.7h0.9l-1.1,6.3h-0.8L689,808.7z"/>
	<polygon class="st6" points="691,809.8 692.5,801.1 693.4,801.1 691.9,809.8 	"/>
	<path class="st6" d="M694.5,806.1h2.9v-0.2c0-0.6-0.1-1-0.3-1.3s-0.5-0.4-0.9-0.4s-0.7,0.2-1,0.5
		C694.9,805,694.7,805.5,694.5,806.1 M697.1,807.7l0.9,0.1c-0.1,0.6-0.5,1.2-1,1.6c-0.4,0.4-0.9,0.6-1.4,0.6c-0.4,0-0.7-0.1-1-0.3
		s-0.6-0.5-0.7-0.9c-0.2-0.4-0.3-0.9-0.3-1.5c0-0.7,0.1-1.4,0.4-2.1c0.3-0.6,0.6-1.1,1-1.4c0.4-0.3,0.8-0.4,1.3-0.4
		c0.6,0,1.1,0.2,1.5,0.7s0.6,1.1,0.6,1.9c0,0.3,0,0.6-0.1,1h-3.8c0,0.1,0,0.2,0,0.3c0,0.6,0.1,1,0.3,1.4c0.2,0.3,0.5,0.5,0.8,0.5
		s0.6-0.1,0.9-0.4C696.7,808.5,696.9,808.1,697.1,807.7z"/>
	<path class="st6" d="M702.6,806.6c-0.2,0.1-0.6,0.2-1.1,0.2c-0.5,0.1-0.9,0.1-1.1,0.2c-0.2,0.1-0.4,0.2-0.5,0.4s-0.2,0.4-0.2,0.6
		c0,0.3,0.1,0.6,0.3,0.8s0.4,0.3,0.7,0.3s0.6-0.1,0.8-0.3c0.3-0.2,0.5-0.4,0.6-0.8C702.4,807.8,702.5,807.3,702.6,806.6 M702.3,809
		c-0.3,0.3-0.6,0.6-0.9,0.7c-0.3,0.1-0.6,0.2-0.9,0.2c-0.5,0-0.8-0.2-1.1-0.5s-0.5-0.8-0.5-1.3c0-0.4,0.1-0.8,0.3-1.1
		s0.4-0.5,0.7-0.7s0.8-0.3,1.4-0.3c0.5,0,0.8-0.1,1-0.1s0.3-0.1,0.5-0.1c0.1-0.3,0.1-0.5,0.1-0.7c0-0.3-0.1-0.5-0.3-0.6
		c-0.2-0.2-0.5-0.2-0.8-0.2c-0.7,0-1.2,0.4-1.4,1.2l-0.9-0.1c0.4-1.3,1.2-1.9,2.4-1.9c0.6,0,1.1,0.2,1.4,0.5
		c0.3,0.3,0.5,0.7,0.5,1.2c0,0.3,0,0.7-0.1,1.2l-0.3,1.6c-0.1,0.5-0.1,0.9-0.1,1.2c0,0.2,0,0.5,0.1,0.9h-0.9
		C702.4,809.6,702.3,809.4,702.3,809z"/>
	<path class="st6" d="M706.4,809l-0.2,0.9c-0.2,0.1-0.4,0.1-0.6,0.1c-0.3,0-0.6-0.1-0.8-0.3s-0.3-0.4-0.3-0.7c0-0.1,0-0.5,0.1-1
		l0.6-3.7h-0.7l0.1-0.8h0.7l0.3-1.6l1-0.7l-0.4,2.3h0.9l-0.1,0.8h-0.9l-0.6,3.5c-0.1,0.4-0.1,0.7-0.1,0.8s0,0.2,0.1,0.3
		s0.2,0.1,0.3,0.1C706.1,809,706.3,809,706.4,809"/>
	<path class="st6" d="M710.7,808.7c-0.6,0.9-1.3,1.3-1.9,1.3c-0.4,0-0.7-0.1-0.9-0.4c-0.3-0.3-0.4-0.6-0.4-1c0-0.3,0.1-0.7,0.2-1.4
		l0.6-3.6h0.9l-0.7,4c-0.1,0.3-0.1,0.6-0.1,0.8s0.1,0.4,0.2,0.6c0.1,0.1,0.3,0.2,0.5,0.2c0.3,0,0.6-0.1,0.9-0.4
		c0.3-0.3,0.5-0.6,0.7-0.9c0.1-0.4,0.3-0.9,0.4-1.5l0.5-2.7h0.9l-1.1,6.3h-0.8L710.7,808.7z"/>
	<path class="st6" d="M712.8,807.7l0.9-0.1c0,0.5,0.1,0.9,0.3,1.2s0.5,0.4,0.9,0.4s0.6-0.1,0.9-0.3c0.2-0.2,0.3-0.4,0.3-0.7
		c0-0.2-0.1-0.4-0.2-0.5c-0.1-0.2-0.4-0.4-0.9-0.6c-0.5-0.3-0.9-0.5-1-0.6c-0.2-0.1-0.3-0.3-0.4-0.5c-0.1-0.2-0.1-0.4-0.1-0.7
		c0-0.5,0.2-1,0.5-1.3s0.8-0.5,1.3-0.5c0.6,0,1.1,0.2,1.5,0.5s0.5,0.8,0.6,1.5l-0.9,0.1c0-0.4-0.1-0.7-0.3-0.9s-0.5-0.3-0.9-0.3
		c-0.3,0-0.5,0.1-0.7,0.2c-0.2,0.2-0.3,0.3-0.3,0.6c0,0.2,0.1,0.3,0.2,0.5c0.1,0.1,0.4,0.3,0.8,0.5c0.7,0.4,1.1,0.6,1.3,0.8
		c0.3,0.3,0.4,0.7,0.4,1.2s-0.2,1-0.6,1.4c-0.4,0.4-0.9,0.6-1.5,0.6c-0.7,0-1.2-0.2-1.6-0.6c-0.4-0.4-0.6-0.9-0.6-1.6L712.8,807.7
		L712.8,807.7z"/>
	<path class="st6" d="M719.6,808.5l-0.8,2.8H718l0.6-2.8H719.6z M719.5,805h-1.1v-1.4h1.1V805z"/>
	<path class="st6" d="M726.5,806.3L726.5,806.3c0-1.3-0.4-2-1.2-2s-1.2,0.6-1.3,2H726.5z M727.4,806.4c0,0.3,0,0.5,0,0.6H724
		c0,1.4,0.6,2.1,1.7,2.1c0.5,0,0.9-0.1,1.4-0.4v0.9c-0.4,0.2-1,0.4-1.6,0.4c-1.7,0-2.6-1.1-2.6-3.2c0-1,0.2-1.8,0.6-2.4
		c0.4-0.6,1-0.9,1.7-0.9s1.2,0.3,1.6,0.8C727.3,804.8,727.4,805.5,727.4,806.4z"/>
	<path class="st6" d="M731.3,801.5c-0.2,0-0.4-0.1-0.5-0.1c-0.3,0-0.5,0.1-0.6,0.2c-0.1,0.2-0.2,0.4-0.2,0.8v1.1h1.1v0.8H730v5.4h-1
		v-5.4h-1v-0.7h1v-1.2c0-0.7,0.1-1.1,0.4-1.4c0.2-0.3,0.6-0.4,1.2-0.4c0.2,0,0.4,0,0.7,0.1L731.3,801.5L731.3,801.5z"/>
	<path class="st6" d="M735.1,806.3L735.1,806.3c0-1.3-0.4-2-1.2-2s-1.2,0.6-1.3,2H735.1z M736.1,806.4c0,0.3,0,0.5,0,0.6h-3.4
		c0,1.4,0.6,2.1,1.7,2.1c0.5,0,0.9-0.1,1.4-0.4v0.9c-0.4,0.2-1,0.4-1.6,0.4c-1.7,0-2.6-1.1-2.6-3.2c0-1,0.2-1.8,0.6-2.4
		c0.4-0.6,1-0.9,1.7-0.9c0.6,0,1.2,0.3,1.6,0.8C735.9,804.8,736.1,805.5,736.1,806.4z"/>
	<polygon class="st6" points="741.9,809.8 740.7,809.8 738.4,806.7 738.4,809.8 737.4,809.8 737.4,800.7 738.4,800.7 738.4,806.1 
		740.5,803.6 741.7,803.6 739.3,806.4 	"/>
	<path class="st6" d="M744.9,809.8c-0.3,0.1-0.6,0.2-0.9,0.2c-0.6,0-1-0.2-1.2-0.6c-0.2-0.3-0.2-0.8-0.2-1.6v-3.4h-0.9v-0.8h0.9
		v-1.3l1-0.3v1.6h1.2v0.8h-1.2v3.5c0,0.4,0,0.6,0.1,0.8s0.3,0.4,0.6,0.4c0.2,0,0.4,0,0.6-0.1L744.9,809.8L744.9,809.8z"/>
	<polygon class="st6" points="752.3,809.8 748.5,809.8 748.5,808.8 751.2,804.5 748.6,804.5 748.6,803.6 752.3,803.6 752.3,804.6 
		749.5,809 752.3,809 	"/>
	<path class="st6" d="M756.5,807.2v-0.5c-0.3,0-0.5,0-0.6,0c-1.2,0-1.8,0.4-1.8,1.3c0,0.7,0.4,1.1,1.1,1.1
		C756.1,809.2,756.5,808.5,756.5,807.2 M757.6,809.8h-0.9l-0.1-0.7c-0.4,0.6-0.9,0.9-1.7,0.9c-0.5,0-1-0.2-1.3-0.5s-0.5-0.8-0.5-1.4
		c0-1.4,1-2,2.9-2c0,0,0.2,0,0.6,0v-0.4c0-0.9-0.4-1.4-1.3-1.4c-0.6,0-1.1,0.2-1.5,0.6l-0.1-0.9c0.6-0.3,1.1-0.5,1.8-0.5
		c0.8,0,1.4,0.2,1.7,0.6c0.3,0.4,0.4,1,0.4,1.9v2.6C757.5,809.1,757.5,809.5,757.6,809.8z"/>
	<rect x="759.2" y="800.7" class="st6" width="1" height="9.1"/>
	<path class="st6" d="M765,806.3L765,806.3c0-1.3-0.4-2-1.2-2s-1.2,0.6-1.3,2H765z M766,806.4c0,0.3,0,0.5,0,0.6h-3.4
		c0,1.4,0.6,2.1,1.7,2.1c0.5,0,0.9-0.1,1.4-0.4v0.9c-0.4,0.2-1,0.4-1.6,0.4c-1.7,0-2.6-1.1-2.6-3.2c0-1,0.2-1.8,0.6-2.4
		c0.4-0.6,1-0.9,1.7-0.9s1.2,0.3,1.6,0.8C765.8,804.8,766,805.5,766,806.4z"/>
	<path class="st6" d="M770.7,809.8h-3.9v-1l2.8-4.4h-2.7v-0.8h3.8v1l-2.8,4.4h2.8L770.7,809.8L770.7,809.8z M769.4,802.3h-1.1v-1.2
		h1.1V802.3z"/>
	<path class="st6" d="M776.2,809.8h-1v-4.2c0-0.8-0.3-1.3-1-1.3c-0.4,0-0.7,0.2-0.9,0.5s-0.3,0.7-0.3,1.3v3.7h-1v-4.6
		c0-0.4,0-1-0.1-1.5h0.9c0,0.2,0,0.5,0,0.9c0.3-0.7,0.9-1,1.6-1c0.5,0,1,0.2,1.3,0.5s0.4,0.8,0.4,1.5L776.2,809.8L776.2,809.8z"/>
	<path class="st6" d="M781.9,803.6l-2,7c-0.2,0.7-0.4,1.2-0.6,1.4c-0.2,0.3-0.6,0.5-1.1,0.5c-0.3,0-0.5,0-0.7-0.1l0.1-0.9
		c0.2,0.1,0.3,0.1,0.4,0.1c0.4,0,0.7-0.3,0.8-0.9l0.2-0.7l-1.9-6.4h1.1l1.3,5.1l1.3-5.1L781.9,803.6L781.9,803.6z"/>
	<path class="st6" d="M789.4,806.7c0-1.6-0.5-2.4-1.4-2.4s-1.4,0.8-1.4,2.4c0,1.6,0.5,2.4,1.4,2.4S789.4,808.3,789.4,806.7
		 M790.5,806.7c0,1-0.2,1.8-0.6,2.4c-0.4,0.6-1,0.8-1.8,0.8s-1.4-0.3-1.8-0.8c-0.4-0.6-0.6-1.3-0.6-2.4c0-1,0.2-1.8,0.6-2.4
		c0.4-0.6,1-0.8,1.8-0.8s1.4,0.3,1.8,0.8C790.3,804.9,790.5,805.7,790.5,806.7z"/>
	<path class="st6" d="M795.2,807.1v-0.7c0-1.3-0.4-2-1.3-2c-0.9,0-1.3,0.8-1.3,2.4c0,1.6,0.4,2.4,1.3,2.4c0.4,0,0.7-0.2,1-0.5
		C795.1,808.3,795.2,807.8,795.2,807.1 M796.2,809.8h-0.9c0-0.4,0-0.7,0-0.9c-0.4,0.7-0.9,1-1.6,1c-1.4,0-2.1-1.1-2.1-3.2
		c0-2.1,0.7-3.2,2.2-3.2c0.6,0,1.1,0.3,1.5,0.9v-3.7h1v9.1L796.2,809.8L796.2,809.8z"/>
	<path class="st6" d="M804.2,807.1v-0.7c0-1.3-0.4-2-1.3-2c-0.9,0-1.3,0.8-1.3,2.4c0,1.6,0.4,2.4,1.3,2.4c0.4,0,0.7-0.2,1-0.5
		C804.1,808.3,804.2,807.8,804.2,807.1 M805.2,809.8h-0.9c0-0.4,0-0.7,0-0.9c-0.4,0.7-0.9,1-1.6,1c-1.4,0-2.1-1.1-2.1-3.2
		c0-2.1,0.7-3.2,2.2-3.2c0.6,0,1.1,0.3,1.5,0.9v-3.7h1v9.1L805.2,809.8L805.2,809.8z"/>
	<path class="st6" d="M809.8,807.2v-0.5c-0.3,0-0.5,0-0.6,0c-1.2,0-1.8,0.4-1.8,1.3c0,0.7,0.4,1.1,1.1,1.1
		C809.4,809.2,809.8,808.5,809.8,807.2 M810.9,809.8H810l-0.1-0.7c-0.4,0.6-0.9,0.9-1.7,0.9c-0.5,0-1-0.2-1.3-0.5s-0.5-0.8-0.5-1.4
		c0-1.4,1-2,2.9-2c0,0,0.2,0,0.6,0v-0.4c0-0.9-0.4-1.4-1.3-1.4c-0.6,0-1.1,0.2-1.5,0.6L807,804c0.6-0.3,1.1-0.5,1.8-0.5
		c0.8,0,1.4,0.2,1.7,0.6c0.3,0.4,0.4,1,0.4,1.9v2.6C810.8,809.1,810.9,809.5,810.9,809.8z"/>
	<polygon class="st6" points="820,803.6 818.3,809.8 817.2,809.8 815.9,804.7 814.7,809.8 813.5,809.8 811.9,803.6 812.9,803.6 
		814.1,808.8 815.3,803.6 816.5,803.6 817.7,808.8 818.9,803.6 	"/>
	<polygon class="st6" points="825.5,809.8 824.4,809.8 822.1,806.7 822.1,809.8 821.1,809.8 821.1,800.7 822.1,800.7 822.1,806.1 
		824.2,803.6 825.3,803.6 822.9,806.4 	"/>
	<path class="st6" d="M827.2,809.8h-1v-6.2h1V809.8z M827.3,802.3h-1.1v-1.2h1.1V802.3z"/>
</g>
<g>
	<g>
		<g>
			<path class="st6" d="M527,594.5c0,2.2-0.8,4-2.4,5.4c-1.6,1.4-3.7,2.1-6.4,2.1c-2.1,0-4.3-0.4-6.4-1.2l0.2-4.9
				c2.1,1.2,4.1,1.8,6.2,1.8c2.5,0,3.8-0.9,3.8-2.6c0-0.7-0.3-1.3-1-1.8c-0.3-0.3-1.3-0.8-2.8-1.4c-2.2-1.1-3.8-2.1-4.8-3.1
				c-1.1-1.2-1.6-2.6-1.6-4.4c0-2.2,0.7-3.9,2.2-5.3c1.5-1.4,3.4-2.1,5.8-2.1c2.1,0,4,0.3,5.7,0.9l-0.2,4.5
				c-1.6-0.8-3.2-1.2-4.9-1.2c-2.3,0-3.5,0.8-3.5,2.4c0,0.8,0.3,1.5,0.9,2c0.4,0.4,1.4,0.9,2.9,1.6c2.2,1,3.7,2,4.5,2.8
				C526.4,591.2,527,592.6,527,594.5"/>
			<polygon class="st6" points="545.9,601.5 530,601.5 530,596.4 539.9,581.9 530.3,581.9 530.3,577.6 545.8,577.6 545.8,582.5 
				535.9,597.2 545.9,597.2 			"/>
			<path class="st6" d="M565.8,600.9c-1.9,0.7-3.9,1.1-6.1,1.1c-3.2,0-5.8-1.1-7.6-3.3c-1.9-2.2-2.8-5.2-2.8-9c0-4,1-7.1,2.9-9.3
				s4.6-3.3,8.1-3.3c1.6,0,3.4,0.3,5.2,1l-0.3,4.5c-1.3-0.7-2.6-1.1-4.1-1.1c-4,0-6,2.5-6,7.6c0,2.7,0.5,4.7,1.6,6.2
				c1.1,1.4,2.5,2.1,4.5,2.1c1.5,0,3-0.4,4.4-1.2L565.8,600.9z"/>
			<polygon class="st6" points="583.5,601.5 567.7,601.5 567.7,596.4 577.5,581.9 567.9,581.9 567.9,577.6 583.5,577.6 583.5,582.5 
				573.5,597.2 583.5,597.2 			"/>
			<path class="st6" d="M600.6,587.7v-0.4c0-4.1-1.3-6.2-3.9-6.2c-2.6,0-4.1,2.2-4.4,6.6L600.6,587.7L600.6,587.7z M605.9,589.1
				c0,0.6,0,1.3,0,2h-13.4c0.2,4.5,2.3,6.8,6.3,6.8c2,0,3.9-0.6,5.8-1.7v4.3c-2.1,1-4.3,1.5-6.7,1.5c-3.5,0-6.3-1.1-8.2-3.2
				c-1.9-2.1-2.9-5.2-2.9-9.1c0-3.9,0.9-6.9,2.7-9.2s4.2-3.4,7.3-3.4c2.7,0,4.9,1.1,6.5,3.2C605.1,582.4,605.9,585.4,605.9,589.1z"
				/>
			<path class="st6" d="M623.8,590.5v-2.4c0-2.2-0.4-3.8-1.2-5c-0.8-1.1-1.8-1.7-3.1-1.7c-2.8,0-4.2,2.6-4.2,7.7c0,5.3,1.4,8,4.2,8
				C622.4,597.1,623.8,594.9,623.8,590.5 M629.6,577.6c-0.1,2.3-0.1,4.4-0.1,6.2V598c0,2.8-0.2,4.9-0.5,6.2
				c-0.4,1.9-1.2,3.4-2.4,4.7c-1.9,2-4.6,2.9-8.3,2.9c-3,0-5.6-0.4-7.9-1.3l0.4-4.8c2.1,1.2,4.4,1.8,6.8,1.8c2.3,0,3.9-0.7,4.9-2
				s1.5-3.4,1.5-6.2c0-0.7,0-1.2,0-1.5c-1.4,2.4-3.5,3.6-6.1,3.6c-5.6,0-8.3-4.1-8.3-12.3c0-3.9,0.7-6.9,2.2-9s3.5-3.1,6.1-3.1
				c2.7,0,4.9,1.4,6.3,4.1c0-0.8,0.1-2,0.2-3.6L629.6,577.6L629.6,577.6z"/>
			<path class="st6" d="M648.9,589.6c0-5.5-1.5-8.3-4.4-8.3c-3,0-4.5,2.8-4.5,8.3s1.5,8.2,4.5,8.2
				C647.5,597.8,648.9,595,648.9,589.6 M654.8,589.5c0,4-0.9,7.1-2.7,9.2c-1.8,2.1-4.4,3.2-7.6,3.2c-3.3,0-5.8-1.1-7.6-3.2
				c-1.8-2.2-2.7-5.2-2.7-9.2s0.9-7.1,2.7-9.2c1.8-2.1,4.3-3.2,7.6-3.2s5.8,1.1,7.6,3.2S654.8,585.5,654.8,589.5z M650.9,567.6
				l-5,7.1h-4.2l3.5-7.1H650.9z"/>
			<rect x="659.6" y="566.6" class="st6" width="5.6" height="34.9"/>
			<path class="st6" d="M689.6,601.5H684v-15.4c0-2.9-1.1-4.3-3.3-4.3c-1.2,0-2.1,0.5-2.8,1.5s-1.1,2.4-1.1,4.1v14.1h-5.6v-18.4
				c0-2.1-0.1-3.9-0.2-5.6h5.1c0.2,2,0.2,3.2,0.2,3.5c1.2-2.7,3.4-4.1,6.5-4.1c4.5,0,6.7,2.6,6.7,7.9L689.6,601.5L689.6,601.5z"/>
			<path class="st6" d="M700.9,601.5h-5.6v-23.9h5.6V601.5z M701.1,573h-5.8v-5.5h5.8V573z"/>
			<path class="st6" d="M719.5,587.7v-0.4c0-4.1-1.3-6.2-3.9-6.2c-2.6,0-4.1,2.2-4.4,6.6L719.5,587.7L719.5,587.7z M724.7,589.1
				c0,0.6,0,1.3,0,2h-13.4c0.2,4.5,2.3,6.8,6.3,6.8c2,0,3.9-0.6,5.8-1.7v4.3c-2.1,1-4.3,1.5-6.7,1.5c-3.5,0-6.3-1.1-8.2-3.2
				c-1.9-2.1-2.9-5.2-2.9-9.1c0-3.9,0.9-6.9,2.7-9.2s4.2-3.4,7.3-3.4c2.7,0,4.9,1.1,6.5,3.2C723.9,582.4,724.7,585.4,724.7,589.1z"
				/>
			<polygon class="st6" points="772.7,577.6 766.3,601.5 760.2,601.5 755.9,582.6 751.6,601.5 745.3,601.5 739.1,577.6 744.9,577.6 
				748.8,596.4 752.9,577.6 759.2,577.6 763.3,596.4 767.3,577.6 			"/>
			<path class="st6" d="M794.9,577.6l-7.9,26.2c-0.9,2.9-1.8,4.9-2.7,6c-1.2,1.4-2.9,2.1-5.1,2.1c-1.2,0-2.3-0.2-3.4-0.5l0.4-4.3
				c0.7,0.2,1.3,0.3,1.8,0.3c1.7,0,2.9-1.1,3.5-3.3l0.5-1.8l-7.9-24.7h6l4.8,18.4l4.7-18.4H794.9z"/>
			<path class="st6" d="M810.5,582.4c-0.9-0.1-2.2-0.1-3.9-0.1s-2.5,2.2-2.5,6.7v12.5h-5.6v-18.4c0-2.1-0.1-3.9-0.2-5.6h5.1
				c0.1,1.6,0.2,2.7,0.2,3.4v0.7c1.2-3,3.4-4.6,6.3-4.6c0.3,0,0.5,0,0.7,0L810.5,582.4L810.5,582.4z"/>
			<path class="st6" d="M825.2,591.5V590c-1.1-0.1-1.8-0.1-2-0.1c-4.1,0-6.2,1.5-6.2,4.4c0,2.4,1.2,3.6,3.6,3.6
				C823.7,597.9,825.2,595.8,825.2,591.5 M830.9,601.5h-5.2l-0.3-3c-1.7,2.3-4,3.5-6.8,3.5c-2.1,0-3.8-0.7-5-2
				c-1.3-1.3-1.9-3.1-1.9-5.3c0-5.4,3.7-8.1,11.2-8.1c0.8,0,1.6,0,2.3,0v-1c0-3-1.6-4.5-4.8-4.5c-2.3,0-4.3,0.8-6.1,2.3l-0.4-4.5
				c2.6-1.2,5.1-1.8,7.6-1.8c3.5,0,6,0.8,7.3,2.5c1.2,1.5,1.9,4.1,1.9,7.8v9.4C830.8,598.8,830.8,600.4,830.9,601.5z"/>
			<path class="st6" d="M850.7,601.5h-15.9v-5.1l9.8-14.5H835v-4.3h15.6v4.9l-9.9,14.6h10L850.7,601.5L850.7,601.5z M849.1,567.6
				l-5,7.1h-4.2l3.5-7.1H849.1z"/>
			<path class="st6" d="M873.7,601.5h-5.6v-15.4c0-2.9-1.1-4.3-3.3-4.3c-1.2,0-2.1,0.5-2.8,1.5s-1.1,2.4-1.1,4.1v14.1h-5.6v-18.4
				c0-2.1-0.1-3.9-0.2-5.6h5.1c0.2,2,0.2,3.2,0.2,3.5c1.2-2.7,3.4-4.1,6.5-4.1c4.5,0,6.7,2.6,6.7,7.9L873.7,601.5L873.7,601.5z"/>
			<path class="st6" d="M897.9,577.6l-7.9,26.2c-0.9,2.9-1.8,4.9-2.7,6c-1.2,1.4-2.9,2.1-5.1,2.1c-1.2,0-2.3-0.2-3.4-0.5l0.4-4.3
				c0.7,0.2,1.3,0.3,1.8,0.3c1.7,0,2.9-1.1,3.5-3.3l0.5-1.8l-7.9-24.7h6l4.8,18.4l4.7-18.4H897.9z"/>
		</g>
		<g>
			<polygon class="st6" points="545.4,637 539,661 532.9,661 528.6,642 524.3,661 518,661 511.8,637 517.5,637 521.4,655.9 
				525.6,637 531.8,637 535.9,655.9 539.9,637 			"/>
			<path class="st6" d="M575.2,649c0-5.4-1.4-8.1-4.2-8.1s-4.2,2.3-4.2,6.9v2.5c0,4.6,1.4,6.9,4.2,6.9
				C573.8,657.1,575.2,654.4,575.2,649 M581.2,649c0,8.3-2.8,12.5-8.4,12.5c-2.6,0-4.6-1.2-6-3.7v13.4h-5.6v-27.9c0-0.2,0-0.8,0-2
				c-0.1-1.5-0.1-2.9-0.1-4.2h5.3c0.1,1.5,0.2,2.7,0.2,3.6c1.5-2.7,3.6-4.1,6.3-4.1C578.4,636.5,581.2,640.7,581.2,649z"/>
			<path class="st6" d="M598,641.9c-0.9-0.1-2.2-0.1-3.9-0.1s-2.5,2.2-2.5,6.7V661H586v-18.4c0-2.1-0.1-3.9-0.2-5.5h5.1
				c0.1,1.6,0.2,2.7,0.2,3.4v0.7c1.2-3,3.4-4.6,6.3-4.6c0.3,0,0.5,0,0.7,0L598,641.9L598,641.9z"/>
			<polygon class="st6" points="616.2,661 600.4,661 600.4,655.9 610.2,641.4 600.6,641.4 600.6,637 616.2,637 616.2,642 
				606.3,656.6 616.2,656.6 			"/>
			<path class="st6" d="M639.2,637l-7.9,26.2c-0.9,2.9-1.8,4.9-2.7,6c-1.2,1.4-2.9,2.1-5.1,2.1c-1.2,0-2.3-0.2-3.4-0.5l0.4-4.3
				c0.7,0.2,1.3,0.3,1.8,0.3c1.7,0,2.9-1.1,3.5-3.3l0.5-1.8l-7.9-24.7h6l4.8,18.4l4.7-18.4H639.2z"/>
			<path class="st6" d="M656.7,649c0-5.4-1.4-8.1-4.2-8.1s-4.2,2.3-4.2,6.9v2.5c0,4.6,1.4,6.9,4.2,6.9
				C655.3,657.1,656.7,654.4,656.7,649 M662.6,649c0,8.3-2.8,12.5-8.4,12.5c-2.6,0-4.6-1.2-6-3.7v13.4h-5.6v-27.9c0-0.2,0-0.8,0-2
				c-0.1-1.5-0.1-2.9-0.1-4.2h5.3c0.1,1.5,0.2,2.7,0.2,3.6c1.5-2.7,3.6-4.1,6.3-4.1C659.8,636.5,662.6,640.7,662.6,649z"/>
			<path class="st6" d="M679,651v-1.5c-1.1-0.1-1.8-0.1-2-0.1c-4.1,0-6.2,1.5-6.2,4.4c0,2.4,1.2,3.6,3.6,3.6
				C677.4,657.4,679,655.2,679,651 M684.7,661h-5.2l-0.3-3c-1.7,2.3-4,3.5-6.8,3.5c-2.1,0-3.8-0.7-5-2c-1.3-1.3-1.9-3.1-1.9-5.3
				c0-5.4,3.7-8.1,11.2-8.1c0.8,0,1.6,0,2.3,0v-1c0-3-1.6-4.5-4.8-4.5c-2.3,0-4.3,0.8-6.1,2.3l-0.4-4.5c2.6-1.2,5.1-1.8,7.6-1.8
				c3.5,0,6,0.8,7.3,2.5c1.2,1.5,1.9,4.1,1.9,7.8v9.4C684.6,658.3,684.6,659.9,684.7,661z"/>
			<path class="st6" d="M703.4,650.2v-2.4c0-2.2-0.4-3.9-1.1-5.1c-0.8-1.2-1.8-1.8-3.1-1.8c-2.8,0-4.2,2.7-4.2,8.1
				c0,5.4,1.4,8.1,4.2,8.1c1.3,0,2.4-0.6,3.1-1.8C703.1,654.2,703.4,652.5,703.4,650.2 M709,661h-5.2c-0.1-1.4-0.2-2.6-0.2-3.6
				c-1.5,2.7-3.6,4.1-6.3,4.1c-2.6,0-4.7-1.1-6.1-3.2c-1.4-2.1-2.2-5.2-2.2-9.2c0-8.4,2.8-12.5,8.3-12.5c2.6,0,4.6,1.2,6.1,3.7
				v-14.2h5.6L709,661L709,661z"/>
			<polygon class="st6" points="734.3,661 728,661 720.6,649.3 720.6,661 715,661 715,626.1 720.6,626.1 720.6,646.6 727.7,637 
				733.6,637 725.4,647.8 			"/>
			<path class="st6" d="M754.8,661h-5.1c-0.1-1.2-0.2-2.3-0.2-3.5c-1.2,2.7-3.4,4.1-6.5,4.1c-4.5,0-6.7-2.6-6.7-7.9v-16.5h5.6v15.4
				c0,2.9,1,4.3,3.1,4.3c2.7,0,4-1.9,4-5.8v-13.9h5.6v18.4C754.7,657.8,754.7,659.6,754.8,661"/>
			<path class="st6" d="M791,661h-5.6v-15.4c0-2.9-1.1-4.3-3.3-4.3c-1.2,0-2.1,0.5-2.8,1.5s-1.1,2.4-1.1,4.1V661h-5.6v-18.4
				c0-2.1-0.1-3.9-0.2-5.5h5.1c0.2,2,0.2,3.2,0.2,3.5c1.2-2.7,3.4-4.1,6.5-4.1c4.5,0,6.7,2.6,6.7,7.9L791,661L791,661z"/>
			<path class="st6" d="M808.4,651v-1.5c-1.1-0.1-1.8-0.1-2-0.1c-4.1,0-6.2,1.5-6.2,4.4c0,2.4,1.2,3.6,3.6,3.6
				C806.9,657.4,808.4,655.2,808.4,651 M814.2,661H809l-0.3-3c-1.7,2.3-4,3.5-6.8,3.5c-2.1,0-3.8-0.7-5-2c-1.3-1.3-1.9-3.1-1.9-5.3
				c0-5.4,3.7-8.1,11.2-8.1c0.8,0,1.6,0,2.3,0v-1c0-3-1.6-4.5-4.8-4.5c-2.3,0-4.3,0.8-6.1,2.3l-0.4-4.5c2.6-1.2,5.1-1.8,7.6-1.8
				c3.5,0,6,0.8,7.3,2.5c1.2,1.5,1.9,4.1,1.9,7.8v9.4C814,658.3,814.1,659.9,814.2,661z"/>
			<path class="st6" d="M835.1,660.3c-1.9,0.7-3.9,1.1-6.1,1.1c-3.2,0-5.8-1.1-7.6-3.3c-1.9-2.2-2.8-5.2-2.8-9c0-4,1-7.1,2.9-9.3
				s4.6-3.3,8.1-3.3c1.6,0,3.4,0.3,5.2,1l-0.3,4.5c-1.3-0.7-2.6-1.1-4.1-1.1c-4,0-6,2.5-6,7.6c0,2.7,0.5,4.7,1.6,6.2
				c1.1,1.4,2.5,2.1,4.5,2.1c1.5,0,3-0.4,4.4-1.2L835.1,660.3z"/>
			<polygon class="st6" points="852.8,661 836.9,661 836.9,655.9 846.8,641.4 837.2,641.4 837.2,637 852.7,637 852.7,642 
				842.8,656.6 852.8,656.6 			"/>
			<path class="st6" d="M875.7,637l-7.9,26.2c-0.9,2.9-1.8,4.9-2.7,6c-1.2,1.4-2.9,2.1-5.1,2.1c-1.2,0-2.3-0.2-3.4-0.5l0.4-4.3
				c0.7,0.2,1.3,0.3,1.8,0.3c1.7,0,2.9-1.1,3.5-3.3l0.5-1.8l-7.9-24.7h6l4.8,18.4l4.7-18.4H875.7z"/>
			<path class="st6" d="M897.5,661h-5.6v-15.4c0-2.9-1.1-4.3-3.3-4.3c-1.2,0-2.1,0.5-2.8,1.5s-1.1,2.4-1.1,4.1V661h-5.6v-18.4
				c0-2.1-0.1-3.9-0.2-5.5h5.1c0.2,2,0.2,3.2,0.2,3.5c1.2-2.7,3.4-4.1,6.5-4.1c4.5,0,6.7,2.6,6.7,7.9L897.5,661L897.5,661z
				 M894.2,627l-5,7.1H885l3.5-7.1H894.2z"/>
		</g>
		<g>
			<path class="st6" d="M527.7,720.4h-15.9v-5.1l9.8-14.5H512v-4.3h15.6v4.9l-9.9,14.6h10L527.7,720.4L527.7,720.4z M523,691.9h-5.8
				v-5.5h5.8V691.9z"/>
			<path class="st6" d="M550.7,696.5l-7.9,26.2c-0.9,2.9-1.8,4.9-2.7,6c-1.2,1.4-2.9,2.1-5.1,2.1c-1.2,0-2.3-0.2-3.4-0.5l0.4-4.3
				c0.7,0.2,1.3,0.3,1.8,0.3c1.7,0,2.9-1.1,3.5-3.3l0.5-1.8l-7.9-24.7h6l4.8,18.4l4.7-18.4H550.7z"/>
			<rect x="554" y="685.5" class="st6" width="5.6" height="34.9"/>
			<path class="st6" d="M577.3,710.4v-1.5c-1.1-0.1-1.8-0.1-2-0.1c-4.1,0-6.2,1.5-6.2,4.4c0,2.4,1.2,3.6,3.6,3.6
				C575.7,716.8,577.3,714.7,577.3,710.4 M583,720.4h-5.2l-0.3-3c-1.7,2.3-4,3.5-6.8,3.5c-2.1,0-3.8-0.7-5-2
				c-1.3-1.3-1.9-3.1-1.9-5.3c0-5.4,3.7-8.1,11.2-8.1c0.8,0,1.6,0,2.3,0v-1c0-3-1.6-4.5-4.8-4.5c-2.3,0-4.3,0.8-6.1,2.3l-0.4-4.5
				c2.6-1.2,5.1-1.8,7.6-1.8c3.5,0,6,0.8,7.3,2.5c1.2,1.5,1.9,4.1,1.9,7.8v9.4C582.9,717.7,582.9,719.3,583,720.4z"/>
			<polygon class="st6" points="607.8,720.4 601.6,720.4 594.1,708.8 594.1,720.4 588.5,720.4 588.5,685.5 594.1,685.5 594.1,706.1 
				601.2,696.5 607.1,696.5 598.9,707.3 			"/>
			<path class="st6" d="M623.6,708.5c0-5.5-1.5-8.3-4.4-8.3c-3,0-4.5,2.8-4.5,8.3s1.5,8.2,4.5,8.2
				C622.1,716.7,623.6,713.9,623.6,708.5 M629.4,708.4c0,4-0.9,7.1-2.7,9.2c-1.8,2.1-4.4,3.2-7.6,3.2c-3.3,0-5.8-1.1-7.6-3.2
				c-1.8-2.2-2.7-5.2-2.7-9.2s0.9-7.1,2.7-9.2c1.8-2.1,4.3-3.2,7.6-3.2s5.8,1.1,7.6,3.2C628.5,701.3,629.4,704.4,629.4,708.4z"/>
			<polygon class="st6" points="665.6,696.5 659.2,720.4 653.1,720.4 648.8,701.5 644.5,720.4 638.2,720.4 632,696.5 637.7,696.5 
				641.6,715.3 645.8,696.5 652,696.5 656.1,715.3 660.1,696.5 			"/>
			<path class="st6" d="M681.1,710.4v-1.5c-1.1-0.1-1.8-0.1-2-0.1c-4.1,0-6.2,1.5-6.2,4.4c0,2.4,1.2,3.6,3.6,3.6
				C679.5,716.8,681.1,714.7,681.1,710.4 M686.8,720.4h-5.2l-0.3-3c-1.7,2.3-4,3.5-6.8,3.5c-2.1,0-3.8-0.7-5-2
				c-1.3-1.3-1.9-3.1-1.9-5.3c0-5.4,3.7-8.1,11.2-8.1c0.8,0,1.6,0,2.3,0v-1c0-3-1.6-4.5-4.8-4.5c-2.3,0-4.3,0.8-6.1,2.3l-0.4-4.5
				c2.6-1.2,5.1-1.8,7.6-1.8c3.5,0,6,0.8,7.3,2.5c1.2,1.5,1.9,4.1,1.9,7.8v9.4C686.7,717.7,686.7,719.3,686.8,720.4z"/>
			<path class="st6" d="M703.6,720.3c-1.4,0.3-2.8,0.5-4,0.5c-2.7,0-4.5-0.7-5.4-2.2c-0.7-1.2-1.1-3.3-1.1-6.4v-11.7h-3.8v-4.1h3.8
				v-4.9l5.6-1.7v6.6h4.7v4.1h-4.7v11.6c0,1.5,0.1,2.4,0.3,2.9c0.4,0.9,1.2,1.4,2.4,1.4c0.7,0,1.4-0.1,2.2-0.4V720.3z"/>
			<path class="st6" d="M725.7,696.5l-7.9,26.2c-0.9,2.9-1.8,4.9-2.7,6c-1.2,1.4-2.9,2.1-5.1,2.1c-1.2,0-2.3-0.2-3.4-0.5l0.4-4.3
				c0.7,0.2,1.3,0.3,1.8,0.3c1.7,0,2.9-1.1,3.5-3.3l0.5-1.8l-7.9-24.7h6l4.8,18.4l4.7-18.4H725.7z"/>
			<path class="st6" d="M744.4,719.8c-1.9,0.7-3.9,1.1-6.1,1.1c-3.2,0-5.8-1.1-7.6-3.3c-1.9-2.2-2.8-5.2-2.8-9c0-4,1-7.1,2.9-9.3
				s4.6-3.3,8.1-3.3c1.6,0,3.4,0.3,5.2,1l-0.3,4.5c-1.3-0.7-2.6-1.1-4.1-1.1c-4,0-6,2.5-6,7.6c0,2.7,0.5,4.7,1.6,6.2
				c1.1,1.4,2.5,2.1,4.5,2.1c1.5,0,3-0.4,4.4-1.2L744.4,719.8z"/>
			<path class="st6" d="M766.3,720.4h-5.6V705c0-2.9-1.1-4.3-3.3-4.3c-1.2,0-2.1,0.5-2.8,1.5s-1.1,2.4-1.1,4.1v14.1h-5.6v-34.9h5.6
				v13.7c1.4-2.1,3.5-3.2,6.2-3.2c2,0,3.6,0.7,4.8,2c1.2,1.4,1.7,3.3,1.7,5.9L766.3,720.4L766.3,720.4z"/>
		</g>
	</g>
	<polygon class="st11" points="485.1,599.5 485.1,632.5 452.1,616 	"/>
</g>
<g>
	<polygon class="st11" points="1063.9,382.5 1096.9,399 1063.9,415.5 	"/>
	<g>
		<path class="st6" d="M808.7,383.9h-5.6v-15.4c0-2.9-1.1-4.3-3.3-4.3c-1.2,0-2.1,0.5-2.8,1.5s-1.1,2.4-1.1,4.1v14.1h-5.6v-18.4
			c0-2.1-0.1-3.9-0.2-5.6h5.1c0.2,2,0.2,3.2,0.2,3.5c1.2-2.7,3.4-4.1,6.5-4.1c4.5,0,6.7,2.6,6.7,7.9L808.7,383.9L808.7,383.9z"/>
		<path class="st6" d="M826.1,373.9v-1.5c-1.1-0.1-1.8-0.1-2-0.1c-4.1,0-6.2,1.5-6.2,4.4c0,2.4,1.2,3.6,3.6,3.6
			C824.6,380.3,826.1,378.2,826.1,373.9 M831.9,383.9h-5.2l-0.3-3c-1.7,2.3-4,3.5-6.8,3.5c-2.1,0-3.8-0.7-5-2
			c-1.3-1.3-1.9-3.1-1.9-5.3c0-5.4,3.7-8.1,11.2-8.1c0.8,0,1.6,0,2.3,0v-1c0-3-1.6-4.5-4.8-4.5c-2.3,0-4.3,0.8-6.1,2.3l-0.4-4.5
			c2.6-1.2,5.1-1.8,7.6-1.8c3.5,0,6,0.8,7.3,2.5c1.2,1.5,1.9,4.1,1.9,7.8v9.4C831.7,381.2,831.8,382.8,831.9,383.9z"/>
		<path class="st6" d="M851.5,376.9c0,2.2-0.8,4-2.4,5.4c-1.6,1.4-3.7,2.1-6.4,2.1c-2.1,0-4.3-0.4-6.4-1.2l0.2-4.9
			c2.1,1.2,4.1,1.8,6.2,1.8c2.5,0,3.8-0.9,3.8-2.6c0-0.7-0.3-1.3-1-1.8c-0.3-0.3-1.3-0.8-2.8-1.4c-2.2-1.1-3.8-2.1-4.8-3.1
			c-1.1-1.2-1.6-2.6-1.6-4.4c0-2.2,0.7-3.9,2.2-5.3s3.4-2.1,5.8-2.1c2.1,0,4,0.3,5.7,0.9l-0.2,4.5c-1.6-0.8-3.2-1.2-4.9-1.2
			c-2.3,0-3.5,0.8-3.5,2.4c0,0.8,0.3,1.5,0.9,2c0.4,0.4,1.4,0.9,2.9,1.6c2.2,1,3.7,2,4.5,2.8C850.9,373.6,851.5,375,851.5,376.9"/>
		<path class="st6" d="M861.8,383.9h-5.6V360h5.6V383.9z M861.9,355.4h-5.8v-5.5h5.8V355.4z"/>
		<rect x="867.7" y="349" class="st6" width="5.6" height="34.9"/>
		<path class="st6" d="M890.9,373.9v-1.5c-1.1-0.1-1.8-0.1-2-0.1c-4.1,0-6.2,1.5-6.2,4.4c0,2.4,1.2,3.6,3.6,3.6
			C889.4,380.3,890.9,378.2,890.9,373.9 M896.7,383.9h-5.2l-0.3-3c-1.7,2.3-4,3.5-6.8,3.5c-2.1,0-3.8-0.7-5-2
			c-1.3-1.3-1.9-3.1-1.9-5.3c0-5.4,3.7-8.1,11.2-8.1c0.8,0,1.6,0,2.3,0v-1c0-3-1.6-4.5-4.8-4.5c-2.3,0-4.3,0.8-6.1,2.3l-0.4-4.5
			c2.6-1.2,5.1-1.8,7.6-1.8c3.5,0,6,0.8,7.3,2.5c1.2,1.5,1.9,4.1,1.9,7.8v9.4C896.5,381.2,896.6,382.8,896.7,383.9z"/>
		<path class="st6" d="M907.8,385.1c0,3.2-0.5,5.5-1.4,6.9c-1,1.6-2.7,2.3-5.2,2.3c-1,0-1.9-0.1-2.9-0.4l0.1-4.1
			c0.5,0.1,0.9,0.2,1.4,0.2c1.1,0,1.8-0.5,2.1-1.4c0.2-0.7,0.3-2.1,0.3-4.3v-24.2h5.6V385.1z M908,355.4h-5.8v-5.5h5.8V355.4z"/>
		<path class="st6" d="M925.5,373.9v-1.5c-1.1-0.1-1.8-0.1-2-0.1c-4.1,0-6.2,1.5-6.2,4.4c0,2.4,1.2,3.6,3.6,3.6
			C923.9,380.3,925.5,378.2,925.5,373.9 M932.5,393.1c-0.9,0.3-1.8,0.5-2.6,0.5c-3.6,0-5.5-1.5-5.5-4.4c0-1.9,1-3.6,3-5.3H926
			l-0.3-3c-1.7,2.3-4,3.5-6.8,3.5c-2.1,0-3.8-0.7-5-2c-1.3-1.3-1.9-3.1-1.9-5.3c0-5.4,3.7-8.1,11.2-8.1c0.8,0,1.6,0,2.3,0v-1
			c0-3-1.6-4.5-4.8-4.5c-2.3,0-4.3,0.8-6.1,2.3l-0.4-4.5c2.6-1.2,5.1-1.8,7.6-1.8c3.5,0,6,0.8,7.3,2.5c1.2,1.5,1.9,4.1,1.9,7.8v9.4
			c0,2.1,0,3.7,0.1,4.8c-0.7,0.3-1.4,0.8-1.8,1.5c-0.5,0.7-0.7,1.5-0.7,2.3c0,0.6,0.2,1.2,0.6,1.6c0.4,0.5,0.9,0.7,1.4,0.7
			c0.7,0,1.4-0.1,1.9-0.4L932.5,393.1L932.5,393.1z"/>
		<path class="st6" d="M952.1,383.3c-1.9,0.7-3.9,1.1-6.1,1.1c-3.2,0-5.8-1.1-7.6-3.3c-1.9-2.2-2.8-5.2-2.8-9c0-4,1-7.1,2.9-9.3
			c1.9-2.2,4.6-3.3,8.1-3.3c1.6,0,3.4,0.3,5.2,1l-0.3,4.5c-1.3-0.7-2.6-1.1-4.1-1.1c-4,0-6,2.5-6,7.6c0,2.7,0.5,4.7,1.6,6.2
			c1.1,1.4,2.5,2.1,4.5,2.1c1.5,0,3-0.4,4.4-1.2L952.1,383.3z"/>
		<path class="st6" d="M974,360l-7.9,26.2c-0.9,2.9-1.8,4.9-2.7,6c-1.2,1.4-2.9,2.1-5.1,2.1c-1.2,0-2.3-0.2-3.4-0.5l0.4-4.3
			c0.7,0.2,1.3,0.3,1.8,0.3c1.7,0,2.9-1.1,3.5-3.3l0.5-1.8l-7.9-24.7h6l4.8,18.4l4.7-18.4L974,360L974,360z"/>
		<path class="st6" d="M1003.3,376.9c0,2.2-0.8,4-2.4,5.4c-1.6,1.4-3.7,2.1-6.4,2.1c-2.1,0-4.3-0.4-6.4-1.2l0.2-4.9
			c2.1,1.2,4.1,1.8,6.2,1.8c2.5,0,3.8-0.9,3.8-2.6c0-0.7-0.3-1.3-1-1.8c-0.3-0.3-1.3-0.8-2.8-1.4c-2.2-1.1-3.8-2.1-4.8-3.1
			c-1.1-1.2-1.6-2.6-1.6-4.4c0-2.2,0.7-3.9,2.2-5.3s3.4-2.1,5.8-2.1c2.1,0,4,0.3,5.7,0.9l-0.2,4.5c-1.6-0.8-3.2-1.2-4.9-1.2
			c-2.3,0-3.5,0.8-3.5,2.4c0,0.8,0.3,1.5,0.9,2c0.4,0.4,1.4,0.9,2.9,1.6c2.2,1,3.7,2,4.5,2.8C1002.8,373.6,1003.3,375,1003.3,376.9"
			/>
		<path class="st6" d="M1013.6,383.9h-5.6V360h5.6V383.9z M1013.7,355.4h-5.8v-5.5h5.8V355.4z"/>
		<path class="st6" d="M1032.1,370v-0.4c0-4.1-1.3-6.2-3.9-6.2s-4.1,2.2-4.4,6.6H1032.1z M1037.3,371.4c0,0.6,0,1.3,0,2h-13.4
			c0.2,4.5,2.3,6.8,6.3,6.8c2,0,3.9-0.6,5.8-1.7v4.3c-0.3,0.2-0.9,0.4-1.6,0.7c-1.6,0.7-2.3,2.1-2.3,4.2c0,0.6,0.2,1.2,0.6,1.6
			c0.4,0.5,0.9,0.7,1.4,0.7c0.7,0,1.4-0.1,1.9-0.4v3.6c-0.9,0.3-1.8,0.5-2.6,0.5c-3.6,0-5.5-1.5-5.5-4.4c0-1.7,0.8-3.3,2.5-4.9
			c-0.3,0-0.7,0-1.1,0c-3.5,0-6.3-1.1-8.2-3.2s-2.9-5.2-2.9-9.1s0.9-6.9,2.7-9.2c1.8-2.3,4.2-3.4,7.3-3.4c2.7,0,4.9,1.1,6.5,3.2
			C1036.5,364.8,1037.3,367.7,1037.3,371.4z"/>
	</g>
	<g>
		<path class="st6" d="M659.4,424.1c0-5.4-1.4-8.1-4.2-8.1c-2.8,0-4.2,2.3-4.2,6.9v2.5c0,4.6,1.4,6.9,4.2,6.9
			C658,432.2,659.4,429.5,659.4,424.1 M665.3,424.1c0,8.3-2.8,12.5-8.4,12.5c-2.6,0-4.6-1.2-6-3.7v13.4h-5.6v-27.9c0-0.2,0-0.8,0-2
			c-0.1-1.5-0.1-2.9-0.1-4.2h5.3c0.1,1.5,0.2,2.7,0.2,3.6c1.5-2.7,3.6-4.1,6.3-4.1C662.6,411.6,665.3,415.8,665.3,424.1z"/>
		<path class="st6" d="M683.6,424.1c0-5.5-1.5-8.3-4.4-8.3c-3,0-4.5,2.8-4.5,8.3s1.5,8.2,4.5,8.2
			C682.1,432.3,683.6,429.6,683.6,424.1 M689.5,424.1c0,4-0.9,7.1-2.7,9.2c-1.8,2.1-4.4,3.2-7.6,3.2c-3.3,0-5.8-1.1-7.6-3.2
			c-1.8-2.2-2.7-5.2-2.7-9.2s0.9-7.1,2.7-9.2s4.3-3.2,7.6-3.2c3.3,0,5.8,1.1,7.6,3.2S689.5,420.1,689.5,424.1z"/>
		<path class="st6" d="M707.5,425.3v-2.4c0-2.2-0.4-3.9-1.1-5.1c-0.8-1.2-1.8-1.8-3.1-1.8c-2.8,0-4.2,2.7-4.2,8.1s1.4,8.1,4.2,8.1
			c1.3,0,2.4-0.6,3.1-1.8C707.1,429.3,707.5,427.6,707.5,425.3 M713.1,436.1h-5.2c-0.1-1.4-0.2-2.6-0.2-3.6
			c-1.5,2.7-3.6,4.1-6.3,4.1c-2.6,0-4.7-1.1-6.1-3.2s-2.2-5.2-2.2-9.2c0-8.4,2.8-12.5,8.3-12.5c2.6,0,4.6,1.2,6.1,3.7v-14.2h5.6
			L713.1,436.1L713.1,436.1z"/>
		<polygon class="st6" points="762.3,412.1 755.9,436.1 749.8,436.1 745.5,417.1 741.2,436.1 734.9,436.1 728.7,412.1 734.5,412.1 
			738.3,431 742.5,412.1 748.7,412.1 752.8,431 756.8,412.1 		"/>
		<path class="st6" d="M780.3,424.1c0-5.4-1.4-8.1-4.2-8.1c-2.8,0-4.2,2.3-4.2,6.9v2.5c0,4.6,1.4,6.9,4.2,6.9
			C778.8,432.2,780.3,429.5,780.3,424.1 M786.2,424.1c0,8.3-2.8,12.5-8.4,12.5c-2.6,0-4.6-1.2-6-3.7v13.4h-5.6v-27.9
			c0-0.2,0-0.8,0-2c-0.1-1.5-0.1-2.9-0.1-4.2h5.3c0.1,1.5,0.2,2.7,0.2,3.6c1.5-2.7,3.6-4.1,6.3-4.1
			C783.4,411.6,786.2,415.8,786.2,424.1z"/>
		<polygon class="st6" points="799.6,412.7 796.4,415.1 796.4,436.1 791.3,436.1 791.3,417.8 788.1,420.1 788.1,415.6 791.3,413.3 
			791.3,401.2 796.4,401.2 796.4,410.6 799.6,408.3 		"/>
		<path class="st6" d="M821.2,412.1l-7.9,26.2c-0.9,2.9-1.8,4.9-2.7,6c-1.2,1.4-2.9,2.1-5.1,2.1c-1.2,0-2.3-0.2-3.4-0.5l0.4-4.3
			c0.7,0.2,1.3,0.3,1.8,0.3c1.7,0,2.9-1.1,3.5-3.3l0.5-1.8l-7.9-24.7h6l4.8,18.4l4.7-18.4L821.2,412.1L821.2,412.1z"/>
		<polygon class="st6" points="856,412.1 849.5,436.1 843.5,436.1 839.1,417.1 834.8,436.1 828.6,436.1 822.4,412.1 828.1,412.1 
			832,431 836.1,412.1 842.4,412.1 846.5,431 850.5,412.1 		"/>
		<path class="st6" d="M872.3,422.2v-0.4c0-4.1-1.3-6.2-3.9-6.2s-4.1,2.2-4.4,6.6H872.3z M877.6,423.6c0,0.6,0,1.3,0,2h-13.4
			c0.2,4.5,2.3,6.8,6.3,6.8c2,0,3.9-0.6,5.8-1.7v4.3c-2.1,1-4.3,1.5-6.7,1.5c-3.5,0-6.3-1.1-8.2-3.2s-2.9-5.2-2.9-9.1
			s0.9-6.9,2.7-9.2c1.8-2.3,4.2-3.4,7.3-3.4c2.7,0,4.9,1.1,6.5,3.2C876.8,417,877.6,419.9,877.6,423.6z"/>
		<path class="st6" d="M912.6,436.1H907v-15.4c0-2.9-1-4.3-3.1-4.3c-2.4,0-3.6,1.9-3.6,5.7v14h-5.6v-15.4c0-2.9-1-4.3-3.1-4.3
			c-2.4,0-3.6,1.9-3.6,5.7v14h-5.6v-18.4c0-2.1-0.1-3.9-0.2-5.6h5.1c0.2,2,0.2,3.2,0.2,3.5c0.6-1.3,1.4-2.3,2.5-3s2.3-1.1,3.7-1.1
			c3,0,5,1.3,6.1,3.9c1.4-2.6,3.5-3.9,6.5-3.9c2,0,3.6,0.7,4.7,2c1.1,1.4,1.7,3.3,1.7,5.9L912.6,436.1L912.6,436.1z"/>
		<path class="st6" d="M945.6,435.5c-1.9,0.7-3.9,1.1-6.1,1.1c-3.2,0-5.8-1.1-7.6-3.3c-1.9-2.2-2.8-5.2-2.8-9c0-4,1-7.1,2.9-9.3
			c1.9-2.2,4.6-3.3,8.1-3.3c1.6,0,3.4,0.3,5.2,1l-0.3,4.5c-1.3-0.7-2.6-1.1-4.1-1.1c-4,0-6,2.5-6,7.6c0,2.7,0.5,4.7,1.6,6.2
			c1.1,1.4,2.5,2.1,4.5,2.1c1.5,0,3-0.4,4.4-1.2L945.6,435.5z"/>
		<path class="st6" d="M954.7,436.1h-5.6v-24h5.6V436.1z M954.9,407.6h-5.8v-5.5h5.8V407.6z"/>
		<path class="st6" d="M973.2,422.2v-0.4c0-4.1-1.3-6.2-3.9-6.2c-2.6,0-4.1,2.2-4.4,6.6H973.2z M978.5,423.6c0,0.6,0,1.3,0,2h-13.4
			c0.2,4.5,2.3,6.8,6.3,6.8c2,0,3.9-0.6,5.8-1.7v4.3c-2.1,1-4.3,1.5-6.7,1.5c-3.5,0-6.3-1.1-8.2-3.2s-2.9-5.2-2.9-9.1
			s0.9-6.9,2.7-9.2c1.8-2.3,4.2-3.4,7.3-3.4c2.7,0,4.9,1.1,6.5,3.2C977.7,417,978.5,419.9,978.5,423.6z"/>
		<path class="st6" d="M997.4,424.1c0-5.4-1.4-8.1-4.2-8.1s-4.2,2.3-4.2,6.9v2.5c0,4.6,1.4,6.9,4.2,6.9
			C995.9,432.2,997.4,429.5,997.4,424.1 M1003.3,424.1c0,8.3-2.8,12.5-8.4,12.5c-2.6,0-4.6-1.2-6-3.7v13.4h-5.6v-27.9
			c0-0.2,0-0.8,0-2c-0.1-1.5-0.1-2.9-0.1-4.2h5.3c0.1,1.5,0.2,2.7,0.2,3.6c1.5-2.7,3.6-4.1,6.3-4.1
			C1000.5,411.6,1003.3,415.8,1003.3,424.1z"/>
		<polygon class="st6" points="1016.7,412.7 1013.5,415.1 1013.5,436.1 1008.4,436.1 1008.4,417.8 1005.2,420.1 1005.2,415.6 
			1008.4,413.3 1008.4,401.2 1013.5,401.2 1013.5,410.6 1016.7,408.3 		"/>
		<path class="st6" d="M1031.6,426.1v-1.5c-1.1-0.1-1.8-0.1-2-0.1c-4.1,0-6.2,1.5-6.2,4.4c0,2.4,1.2,3.6,3.6,3.6
			C1030,432.5,1031.6,430.3,1031.6,426.1 M1037.3,436.1h-5.2l-0.3-3c-1.7,2.3-4,3.5-6.8,3.5c-2.1,0-3.8-0.7-5-2
			c-1.3-1.3-1.9-3.1-1.9-5.3c0-5.4,3.7-8.1,11.2-8.1c0.8,0,1.6,0,2.3,0v-1c0-3-1.6-4.5-4.8-4.5c-2.3,0-4.3,0.8-6.1,2.3l-0.4-4.5
			c2.6-1.2,5.1-1.8,7.6-1.8c3.5,0,6,0.8,7.3,2.5c1.2,1.5,1.9,4.1,1.9,7.8v9.4C1037.2,433.4,1037.2,435,1037.3,436.1z"/>
	</g>
</g>
<g id="Warstwa_3" class="st1">
	
		<image style="display:inline;overflow:visible;enable-background:new    ;" width="354" height="295" xlink:href="4EC7D99302CBAD68.png"  transform="matrix(1.2699 0 0 1.2479 864.753 495.3285)">
	</image>
</g>
</svg>
