<?xml version="1.0" encoding="utf-8"?>
<!-- Generator: Adobe Illustrator 23.1.1, SVG Export Plug-In . SVG Version: 6.00 Build 0)  -->
<svg version="1.1" id="Warstwa_1" xmlns="http://www.w3.org/2000/svg" xmlns:xlink="http://www.w3.org/1999/xlink" x="0px" y="0px"
	 viewBox="0 0 30 30" style="enable-background:new 0 0 30 30;" xml:space="preserve">
<style type="text/css">
	.st0{fill:#706F6F;}
</style>
<g>
	<path class="st0" d="M27.5,15l-7.4,8.3c-0.3,0.3-0.6,0.5-0.9,0.7c-0.3,0.2-0.7,0.2-1.1,0.2c-0.7,0-1.3-0.2-1.8-0.7
		c-0.5-0.5-0.7-1.1-0.7-1.8c0-0.4,0.1-0.7,0.2-1.1c0.1-0.4,0.4-0.7,0.6-0.9l2-2H5.2c-0.8,0-1.4-0.3-1.9-0.8S2.5,15.8,2.5,15
		c0-0.8,0.3-1.4,0.8-1.9s1.2-0.8,1.9-0.8h13.2l-2-2.3c-0.3-0.3-0.5-0.6-0.6-0.9c-0.1-0.3-0.2-0.7-0.2-1c0-0.6,0.3-1.2,0.8-1.6
		s1.1-0.7,1.8-0.7c0.4,0,0.8,0.1,1.1,0.2c0.3,0.2,0.6,0.4,0.9,0.7L27.5,15z"/>
</g>
</svg>
