<svg id="Warstwa_1" data-name="Warstwa 1" xmlns="http://www.w3.org/2000/svg" viewBox="0 0 800 576"><defs><style>.cls-1{fill:#edf1f4;stroke:#096cb2;stroke-miterlimit:10;stroke-width:3px;}.cls-13,.cls-2,.cls-33{fill:#ee7d00;}.cls-13,.cls-16,.cls-3{font-size:39.35px;}.cls-3{fill:#fff;font-family:Montserrat-ExtraBold, Montserrat;font-weight:800;}.cls-4{letter-spacing:-0.01em;}.cls-5{letter-spacing:-0.02em;}.cls-6{letter-spacing:-0.02em;}.cls-7{letter-spacing:0em;}.cls-8{letter-spacing:0em;}.cls-9{letter-spacing:0em;}.cls-10{letter-spacing:0.01em;}.cls-11{letter-spacing:-0.01em;}.cls-12{letter-spacing:0em;}.cls-13,.cls-16{font-family:Montserrat-Bold, Montserrat;font-weight:700;}.cls-14{letter-spacing:-0.05em;}.cls-15{letter-spacing:0em;}.cls-16,.cls-19,.cls-32,.cls-43{fill:#096cb2;}.cls-17{letter-spacing:-0.01em;}.cls-18{letter-spacing:-0.01em;}.cls-19{font-size:20px;}.cls-19,.cls-43{font-family:Montserrat-Regular, Montserrat;}.cls-20{letter-spacing:-0.02em;}.cls-21{letter-spacing:-0.01em;}.cls-22{letter-spacing:-0.01em;}.cls-23{letter-spacing:-0.02em;}.cls-24{letter-spacing:-0.02em;}.cls-25{letter-spacing:-0.01em;}.cls-26{letter-spacing:0em;}.cls-27{letter-spacing:0em;}.cls-28{letter-spacing:-0.01em;}.cls-29{letter-spacing:-0.01em;}.cls-30{letter-spacing:0em;}.cls-31{letter-spacing:-0.02em;}.cls-33{font-size:27px;font-family:ZapfDingbatsITC, Zapf Dingbats;}.cls-34{letter-spacing:-0.02em;}.cls-35{letter-spacing:-0.01em;}.cls-36{letter-spacing:-0.01em;}.cls-37{letter-spacing:-0.03em;}.cls-38{letter-spacing:0.02em;}.cls-39{letter-spacing:0em;}.cls-40{letter-spacing:-0.02em;}.cls-41{letter-spacing:-0.01em;}.cls-42{letter-spacing:-0.02em;}.cls-43{font-size:11px;}.cls-44{letter-spacing:-0.01em;}.cls-45{letter-spacing:-0.02em;}.cls-46{letter-spacing:0em;}.cls-47{letter-spacing:-0.01em;}.cls-48{letter-spacing:0em;}.cls-49{letter-spacing:0em;}.cls-50{letter-spacing:-0.01em;}.cls-51{letter-spacing:0em;}.cls-52{letter-spacing:-0.02em;}.cls-53{letter-spacing:-0.01em;}.cls-54{letter-spacing:-0.02em;}.cls-55{letter-spacing:-0.01em;}.cls-56{letter-spacing:0em;}.cls-57{letter-spacing:0em;}.cls-58{letter-spacing:0.02em;}.cls-59{letter-spacing:-0.01em;}.cls-60{letter-spacing:-0.01em;}.cls-61{letter-spacing:0em;}.cls-62{letter-spacing:-0.01em;}.cls-63{letter-spacing:0em;}.cls-64{letter-spacing:0em;}.cls-65{letter-spacing:-0.01em;}.cls-66{letter-spacing:0em;}</style></defs><title>suplementy_nie</title><rect class="cls-1" x="10.41" y="11.14" width="779.14" height="552.68" rx="21.14"/><rect class="cls-2" x="21.39" y="24.11" width="755.2" height="121.71" rx="13.71"/><rect class="cls-1" x="21.39" y="157.79" width="362.14" height="359.81" rx="13.71"/><rect class="cls-1" x="414.45" y="157.79" width="362.14" height="359.81" rx="13.71"/><text class="cls-3" transform="translate(68.21 72.53)">SU<tspan class="cls-4" x="56.39" y="0">P</tspan><tspan x="85" y="0">LEMEN</tspan><tspan class="cls-5" x="231.15" y="0">T</tspan><tspan x="255.47" y="0">Y DIE</tspan><tspan class="cls-6" x="366.48" y="0">T</tspan><tspan x="390.8" y="0">Y NIE L</tspan><tspan class="cls-7" x="536.48" y="0">E</tspan><tspan class="cls-8" x="562.88" y="0">CZĄ</tspan><tspan x="-0.08" y="47.22">I NIE ZAPOBI</tspan><tspan class="cls-9" x="271.21" y="47.22">E</tspan><tspan x="297.61" y="47.22">G</tspan><tspan class="cls-10" x="327.91" y="47.22">A</tspan><tspan class="cls-11" x="359.43" y="47.22">J</tspan><tspan class="cls-12" x="380.76" y="47.22">Ą CHOROBIE</tspan></text><text class="cls-13" transform="translate(99.65 213.19)"><tspan class="cls-4">P</tspan><tspan x="28.41" y="0">RODU</tspan><tspan class="cls-14" x="154.06" y="0">K</tspan><tspan x="181.29" y="0">T</tspan><tspan x="-13.14" y="40">L</tspan><tspan class="cls-15" x="10.63" y="40">E</tspan><tspan x="36.95" y="40">CZNICZY</tspan></text><text class="cls-16" transform="translate(468.12 213.19)">SU<tspan class="cls-17" x="56.11" y="0">P</tspan><tspan x="84.53" y="0">LEMENT</tspan><tspan x="66.29" y="40">DIE</tspan><tspan class="cls-18" x="138.1" y="40">T</tspan><tspan x="161.91" y="40">Y</tspan></text><text class="cls-19" transform="translate(87.57 309.43)"><tspan class="cls-20">P</tspan><tspan class="cls-21" x="13.9" y="0">r</tspan><tspan class="cls-22" x="21.74" y="0">a</tspan><tspan class="cls-23" x="33.34" y="0">w</tspan><tspan x="50.62" y="0">o </tspan><tspan class="cls-24" x="68.4" y="0">F</tspan><tspan x="80.64" y="0">a</tspan><tspan class="cls-25" x="92.44" y="0">r</tspan><tspan x="100.3" y="0">m</tspan><tspan class="cls-26" x="121.52" y="0">a</tspan><tspan class="cls-21" x="133.36" y="0">c</tspan><tspan class="cls-27" x="144.44" y="0">eu</tspan><tspan class="cls-22" x="169.98" y="0">t</tspan><tspan class="cls-28" x="177.9" y="0">y</tspan><tspan class="cls-29" x="188.44" y="0">c</tspan><tspan x="199.54" y="0">z</tspan><tspan class="cls-30" x="209.76" y="0">n</tspan><tspan class="cls-31" x="223.34" y="0">e</tspan><tspan x="235.02" y="0">*</tspan></text><path class="cls-32" d="M93.83,361.05a6.67,6.67,0,0,1-2.61-2.55,7.49,7.49,0,0,1,0-7.3,6.65,6.65,0,0,1,2.63-2.55,8.16,8.16,0,0,1,6.63-.4,6,6,0,0,1,2.25,1.52l-.94.94a5.58,5.58,0,0,0-4.14-1.66,6.09,6.09,0,0,0-3,.76,5.57,5.57,0,0,0-2.12,2.08,6.07,6.07,0,0,0,0,5.92,5.57,5.57,0,0,0,2.12,2.08,6.09,6.09,0,0,0,3,.76,5.5,5.5,0,0,0,4.14-1.68l.94.94a6.08,6.08,0,0,1-2.25,1.53,7.87,7.87,0,0,1-2.9.53A7.71,7.71,0,0,1,93.83,361.05Z"/><path class="cls-32" d="M105.56,348.73a1,1,0,0,1-.29-.72.94.94,0,0,1,.29-.7,1,1,0,0,1,.75-.3,1,1,0,0,1,.73.29.89.89,0,0,1,.31.69,1,1,0,0,1-1,1A1,1,0,0,1,105.56,348.73Zm0,2.6H107v10.52h-1.42Z"/><path class="cls-32" d="M117.8,352.28a4,4,0,0,1,1.1,3.05v6.52h-1.36v-1.64a3.2,3.2,0,0,1-1.41,1.28,4.87,4.87,0,0,1-2.21.46,4.35,4.35,0,0,1-2.8-.84,2.89,2.89,0,0,1-.07-4.38,4.75,4.75,0,0,1,3.1-.82h3.33v-.64a2.71,2.71,0,0,0-.75-2.07,3.18,3.18,0,0,0-2.23-.71,5.7,5.7,0,0,0-1.92.33,4.81,4.81,0,0,0-1.58.91l-.64-1.06a5.93,5.93,0,0,1,1.92-1.05,7.44,7.44,0,0,1,2.37-.37A4.41,4.41,0,0,1,117.8,352.28Zm-1.59,8a3.26,3.26,0,0,0,1.27-1.59V357h-3.29c-1.81,0-2.71.63-2.71,1.88a1.72,1.72,0,0,0,.71,1.45,3.18,3.18,0,0,0,2,.53A3.75,3.75,0,0,0,116.21,360.28Zm-.19,5.45a1.75,1.75,0,0,1-.6-1.38c0-1.24.94-2.25,2.82-3l.66.54c-1.62.72-2.44,1.52-2.44,2.4a1,1,0,0,0,.36.83,1.48,1.48,0,0,0,.94.29A1.89,1.89,0,0,0,119,365l.32.78a3,3,0,0,1-1.7.48A2.35,2.35,0,0,1,116,365.73Z"/><path class="cls-32" d="M132.54,351.33v9.24a5.32,5.32,0,0,1-1.31,4,5.41,5.41,0,0,1-3.95,1.29,8.78,8.78,0,0,1-2.77-.43,5.75,5.75,0,0,1-2.13-1.19l.72-1.08a5.5,5.5,0,0,0,1.85,1.06,7,7,0,0,0,2.29.38,4,4,0,0,0,2.94-.93,3.9,3.9,0,0,0,.94-2.89v-1.34a4.24,4.24,0,0,1-1.73,1.52,5.28,5.28,0,0,1-2.37.52,5.66,5.66,0,0,1-2.69-.65,4.82,4.82,0,0,1-1.9-1.82,5.11,5.11,0,0,1-.69-2.65,5,5,0,0,1,.69-2.64,4.81,4.81,0,0,1,1.89-1.8,5.61,5.61,0,0,1,2.7-.64,5.32,5.32,0,0,1,2.42.54,4.36,4.36,0,0,1,1.74,1.56v-2Zm-3.32,8.37a3.5,3.5,0,0,0,1.43-1.37,3.92,3.92,0,0,0,.51-2,3.85,3.85,0,0,0-.51-2,3.58,3.58,0,0,0-1.42-1.36,4.22,4.22,0,0,0-2.07-.49,4.34,4.34,0,0,0-2,.48,3.51,3.51,0,0,0-1.42,1.36,4.18,4.18,0,0,0,0,4,3.6,3.6,0,0,0,1.42,1.37,4.55,4.55,0,0,0,4.11,0Z"/><path class="cls-32" d="M134.6,356.11l4.84-3.64.64.88L135.26,357Zm2-9.1H138v14.84h-1.42Z"/><path class="cls-32" d="M150.94,351.33l-5.26,11.78a4.93,4.93,0,0,1-1.48,2.1,3.32,3.32,0,0,1-2,.62,4.15,4.15,0,0,1-1.42-.24,3.08,3.08,0,0,1-1.14-.72l.66-1.06a2.65,2.65,0,0,0,1.92.8,1.91,1.91,0,0,0,1.23-.4,3.62,3.62,0,0,0,.95-1.36l.46-1-4.7-10.5h1.48l4,8.94,4-8.94Z"/><path class="cls-32" d="M166.69,352.4a4.49,4.49,0,0,1,1.17,3.35v6.1h-1.42v-6a3.47,3.47,0,0,0-.82-2.5,3.07,3.07,0,0,0-2.34-.86,3.61,3.61,0,0,0-2.69,1,3.8,3.8,0,0,0-1,2.79v5.52h-1.42V351.33h1.36v1.94a4,4,0,0,1,1.61-1.49,5.22,5.22,0,0,1,2.39-.53A4.28,4.28,0,0,1,166.69,352.4Z"/><path class="cls-32" d="M178.56,352.28a4,4,0,0,1,1.1,3.05v6.52H178.3v-1.64a3.26,3.26,0,0,1-1.41,1.28,4.87,4.87,0,0,1-2.21.46,4.35,4.35,0,0,1-2.8-.84,2.89,2.89,0,0,1-.07-4.38,4.74,4.74,0,0,1,3.09-.82h3.34v-.64a2.67,2.67,0,0,0-.76-2.07,3.13,3.13,0,0,0-2.22-.71,5.7,5.7,0,0,0-1.92.33,4.81,4.81,0,0,0-1.58.91l-.64-1.06a5.93,5.93,0,0,1,1.92-1.05,7.43,7.43,0,0,1,2.36-.37A4.42,4.42,0,0,1,178.56,352.28Zm-1.6,8a3.28,3.28,0,0,0,1.28-1.59V357h-3.3c-1.8,0-2.7.63-2.7,1.88a1.74,1.74,0,0,0,.7,1.45,3.22,3.22,0,0,0,2,.53A3.71,3.71,0,0,0,177,360.28Z"/><path class="cls-32" d="M193.16,347v14.84H191.8v-2.08a4.24,4.24,0,0,1-1.69,1.62,5,5,0,0,1-2.37.56,5.39,5.39,0,0,1-2.68-.68,4.9,4.9,0,0,1-1.88-1.9,6,6,0,0,1,0-5.56,4.88,4.88,0,0,1,1.88-1.89,5.39,5.39,0,0,1,2.68-.67,5,5,0,0,1,2.31.53,4.33,4.33,0,0,1,1.69,1.55V347Zm-3.31,13.17a3.56,3.56,0,0,0,1.4-1.45,4.74,4.74,0,0,0,0-4.28,3.56,3.56,0,0,0-1.4-1.45,3.9,3.9,0,0,0-2-.51,4,4,0,0,0-2,.51,3.62,3.62,0,0,0-1.4,1.45,4.74,4.74,0,0,0,0,4.28,3.62,3.62,0,0,0,1.4,1.45,4,4,0,0,0,2,.51A3.9,3.9,0,0,0,189.85,360.18Z"/><path class="cls-32" d="M204.54,360.67v1.18H196v-.94l6.62-8.38h-6.5v-1.2h8.32v.94l-6.62,8.4Z"/><path class="cls-32" d="M208.72,361.26a5.1,5.1,0,0,1-1.92-1.91,5.79,5.79,0,0,1,0-5.52,5,5,0,0,1,1.92-1.9,5.86,5.86,0,0,1,5.48,0,4.85,4.85,0,0,1,1.91,1.9,5.87,5.87,0,0,1,0,5.52,4.94,4.94,0,0,1-1.91,1.91,5.79,5.79,0,0,1-5.48,0Zm4.75-1.08a3.47,3.47,0,0,0,1.39-1.45,4.83,4.83,0,0,0,0-4.28,3.47,3.47,0,0,0-1.39-1.45,4,4,0,0,0-2-.51,4,4,0,0,0-2,.51,3.62,3.62,0,0,0-1.4,1.45,4.74,4.74,0,0,0,0,4.28,3.62,3.62,0,0,0,1.4,1.45,4,4,0,0,0,2,.51A4,4,0,0,0,213.47,360.18Zm-.59-13h1.9l-3.24,2.48h-1.4Z"/><path class="cls-32" d="M222.55,351.79a5.07,5.07,0,0,1,2.45-.54v1.38l-.34,0a3.37,3.37,0,0,0-2.6,1,4.09,4.09,0,0,0-.94,2.86v5.36H219.7V351.33h1.36v2.06A3.46,3.46,0,0,1,222.55,351.79Z"/><path class="cls-32" d="M232.94,348.73a1,1,0,0,1-.3-.72,1,1,0,0,1,.3-.7,1,1,0,0,1,.74-.3,1,1,0,0,1,.74.29.92.92,0,0,1,.3.69,1,1,0,0,1-.3.74,1,1,0,0,1-.74.3A1,1,0,0,1,232.94,348.73Zm0,2.6h1.42v10.52H233Z"/><path class="cls-32" d="M259.81,352.39a4.59,4.59,0,0,1,1.13,3.36v6.1h-1.42v-6a3.56,3.56,0,0,0-.79-2.5,2.88,2.88,0,0,0-2.23-.86,3.37,3.37,0,0,0-2.58,1,4,4,0,0,0-.94,2.79v5.52h-1.42v-6a3.56,3.56,0,0,0-.79-2.5,2.89,2.89,0,0,0-2.25-.86,3.37,3.37,0,0,0-2.57,1,3.91,3.91,0,0,0-.95,2.79v5.52h-1.42V351.33h1.36v1.92a3.78,3.78,0,0,1,1.56-1.48,4.9,4.9,0,0,1,2.3-.52,4.52,4.52,0,0,1,2.29.56,3.43,3.43,0,0,1,1.45,1.66,4.16,4.16,0,0,1,1.67-1.63,5.2,5.2,0,0,1,2.49-.59A4.18,4.18,0,0,1,259.81,352.39Z"/><path class="cls-32" d="M266.4,361.26a5.1,5.1,0,0,1-1.92-1.91,5.79,5.79,0,0,1,0-5.52,5,5,0,0,1,1.92-1.9,5.86,5.86,0,0,1,5.48,0,4.91,4.91,0,0,1,1.91,1.9,5.87,5.87,0,0,1,0,5.52,5,5,0,0,1-1.91,1.91,5.79,5.79,0,0,1-5.48,0Zm4.75-1.08a3.54,3.54,0,0,0,1.39-1.45,4.83,4.83,0,0,0,0-4.28,3.54,3.54,0,0,0-1.39-1.45,4.22,4.22,0,0,0-4,0,3.62,3.62,0,0,0-1.4,1.45,4.74,4.74,0,0,0,0,4.28,3.62,3.62,0,0,0,1.4,1.45,4.22,4.22,0,0,0,4,0Z"/><path class="cls-32" d="M285.89,352.4a4.49,4.49,0,0,1,1.17,3.35v6.1h-1.42v-6a3.47,3.47,0,0,0-.82-2.5,3.1,3.1,0,0,0-2.34-.86,3.61,3.61,0,0,0-2.69,1,3.8,3.8,0,0,0-1,2.79v5.52h-1.42V351.33h1.36v1.94a3.93,3.93,0,0,1,1.61-1.49,5.2,5.2,0,0,1,2.39-.53A4.28,4.28,0,0,1,285.89,352.4Z"/><path class="cls-32" d="M290.9,348.73a1,1,0,0,1-.3-.72,1,1,0,0,1,.3-.7,1,1,0,0,1,.74-.3,1,1,0,0,1,.74.29.92.92,0,0,1,.3.69,1,1,0,0,1-1.78.74Zm0,2.6h1.42v10.52h-1.42Z"/><path class="cls-32" d="M301.84,361.21a2.79,2.79,0,0,1-1,.55,3.86,3.86,0,0,1-1.23.19,2.79,2.79,0,0,1-3.08-3.06v-6.36h-1.88v-1.2h1.88V349H298v2.3h3.2v1.2H298v6.28a2,2,0,0,0,.47,1.43,1.76,1.76,0,0,0,1.35.49,2.7,2.7,0,0,0,.85-.14,2.15,2.15,0,0,0,.71-.4Z"/><path class="cls-32" d="M305.6,361.26a5.1,5.1,0,0,1-1.92-1.91,5.79,5.79,0,0,1,0-5.52,5,5,0,0,1,1.92-1.9,5.86,5.86,0,0,1,5.48,0,4.91,4.91,0,0,1,1.91,1.9,5.87,5.87,0,0,1,0,5.52,5,5,0,0,1-1.91,1.91,5.79,5.79,0,0,1-5.48,0Zm4.75-1.08a3.54,3.54,0,0,0,1.39-1.45,4.83,4.83,0,0,0,0-4.28,3.54,3.54,0,0,0-1.39-1.45,4.22,4.22,0,0,0-4,0,3.62,3.62,0,0,0-1.4,1.45,4.74,4.74,0,0,0,0,4.28,3.62,3.62,0,0,0,1.4,1.45,4.22,4.22,0,0,0,4,0Z"/><path class="cls-32" d="M319.43,351.79a5.07,5.07,0,0,1,2.45-.54v1.38l-.34,0a3.36,3.36,0,0,0-2.6,1,4,4,0,0,0-.94,2.86v5.36h-1.42V351.33h1.36v2.06A3.41,3.41,0,0,1,319.43,351.79Z"/><path class="cls-32" d="M325.9,361.26a5.1,5.1,0,0,1-1.92-1.91,5.79,5.79,0,0,1,0-5.52,5,5,0,0,1,1.92-1.9,5.86,5.86,0,0,1,5.48,0,4.91,4.91,0,0,1,1.91,1.9,5.87,5.87,0,0,1,0,5.52,5,5,0,0,1-1.91,1.91,5.79,5.79,0,0,1-5.48,0Zm4.75-1.08a3.54,3.54,0,0,0,1.39-1.45,4.83,4.83,0,0,0,0-4.28,3.54,3.54,0,0,0-1.39-1.45,4.22,4.22,0,0,0-4,0,3.62,3.62,0,0,0-1.4,1.45,4.74,4.74,0,0,0,0,4.28,3.62,3.62,0,0,0,1.4,1.45,4.22,4.22,0,0,0,4,0Z"/><path class="cls-32" d="M336.1,355.81h5.24v1.24H336.1Z"/><path class="cls-32" d="M106.65,375.33l-4,10.52h-1.34L98,377.23l-3.31,8.62H93.35l-4-10.52h1.36L94,384.27l3.39-8.94h1.22l3.35,8.94,3.35-8.94Z"/><path class="cls-32" d="M115.31,376.28a4,4,0,0,1,1.1,3.05v6.52h-1.36v-1.64a3.26,3.26,0,0,1-1.41,1.28,4.9,4.9,0,0,1-2.21.46,4.31,4.31,0,0,1-2.8-.84,2.89,2.89,0,0,1-.07-4.38,4.7,4.7,0,0,1,3.09-.82H115v-.64a2.71,2.71,0,0,0-.76-2.07,3.17,3.17,0,0,0-2.22-.71,5.62,5.62,0,0,0-1.92.33,4.71,4.71,0,0,0-1.58.91l-.64-1.06a5.73,5.73,0,0,1,1.92-1.05,7.34,7.34,0,0,1,2.36-.37A4.45,4.45,0,0,1,115.31,376.28Zm-1.6,8a3.33,3.33,0,0,0,1.28-1.59V381h-3.3c-1.8,0-2.7.63-2.7,1.88a1.71,1.71,0,0,0,.7,1.45,3.2,3.2,0,0,0,2,.53A3.73,3.73,0,0,0,113.71,384.28Z"/><path class="cls-32" d="M128.78,376.4a4.49,4.49,0,0,1,1.17,3.35v6.1h-1.42v-6a3.52,3.52,0,0,0-.82-2.5,3.1,3.1,0,0,0-2.34-.86,3.58,3.58,0,0,0-2.69,1,3.8,3.8,0,0,0-1,2.79v5.52h-1.42V375.33h1.35v1.94a4,4,0,0,1,1.62-1.49,5.15,5.15,0,0,1,2.38-.53A4.29,4.29,0,0,1,128.78,376.4Z"/><path class="cls-32" d="M133.78,372.73a1,1,0,0,1-.3-.72,1,1,0,0,1,.3-.7,1,1,0,0,1,.74-.3,1,1,0,0,1,.74.29.92.92,0,0,1,.3.69,1,1,0,0,1-.3.74,1,1,0,0,1-.74.3A1,1,0,0,1,133.78,372.73Zm0,2.6h1.42v10.52H133.8Z"/><path class="cls-32" d="M148.34,381h-8.8a3.76,3.76,0,0,0,1.26,2.65,4.2,4.2,0,0,0,2.88,1,4.55,4.55,0,0,0,1.8-.35,3.9,3.9,0,0,0,1.42-1l.8.92a4.42,4.42,0,0,1-1.75,1.28,6,6,0,0,1-2.31.44,5.86,5.86,0,0,1-2.87-.69,5,5,0,0,1-2-1.91,5.5,5.5,0,0,1-.7-2.76,5.69,5.69,0,0,1,.67-2.76,4.87,4.87,0,0,1,1.84-1.9,5.18,5.18,0,0,1,2.63-.68,5.09,5.09,0,0,1,2.62.68,4.73,4.73,0,0,1,1.82,1.89,5.7,5.7,0,0,1,.66,2.77Zm-7.63-3.59a3.88,3.88,0,0,0-1.17,2.53H147a3.79,3.79,0,0,0-1.17-2.53,3.86,3.86,0,0,0-5.12,0Z"/><path class="cls-32" d="M153.69,389.66a2.43,2.43,0,0,1-1-.51l.5-1.08a2.42,2.42,0,0,0,1.64.54,1.66,1.66,0,0,0,1.29-.5,2.15,2.15,0,0,0,.45-1.48v-11.3H158v11.3a3.26,3.26,0,0,1-.8,2.34,3,3,0,0,1-2.28.86A4.66,4.66,0,0,1,153.69,389.66Zm2.89-17a1,1,0,0,1-.3-.72,1,1,0,0,1,.3-.7,1,1,0,0,1,.74-.3,1,1,0,0,1,.74.29.92.92,0,0,1,.3.69,1,1,0,0,1-.3.74,1,1,0,0,1-.74.3A1,1,0,0,1,156.58,372.71Z"/><path class="cls-32" d="M168.82,376.28a4,4,0,0,1,1.1,3.05v6.52h-1.36v-1.64a3.26,3.26,0,0,1-1.41,1.28,4.87,4.87,0,0,1-2.21.46,4.35,4.35,0,0,1-2.8-.84,2.89,2.89,0,0,1-.07-4.38,4.74,4.74,0,0,1,3.09-.82h3.34v-.64a2.67,2.67,0,0,0-.76-2.07,3.13,3.13,0,0,0-2.22-.71,5.7,5.7,0,0,0-1.92.33,4.81,4.81,0,0,0-1.58.91l-.64-1.06a5.93,5.93,0,0,1,1.92-1.05,7.43,7.43,0,0,1,2.36-.37A4.42,4.42,0,0,1,168.82,376.28Zm-1.6,8a3.28,3.28,0,0,0,1.28-1.59V381h-3.3c-1.8,0-2.7.63-2.7,1.88a1.74,1.74,0,0,0,.7,1.45,3.22,3.22,0,0,0,2,.53A3.71,3.71,0,0,0,167.22,384.28Z"/><path class="cls-32" d="M177.68,380.57l-2.48,2.28v3h-1.42V371h1.42v10.06l6.28-5.74h1.76l-4.5,4.3,4.92,6.22h-1.74Z"/><path class="cls-32" d="M186.94,385.26a5.1,5.1,0,0,1-1.92-1.91,5.79,5.79,0,0,1,0-5.52,5,5,0,0,1,1.92-1.9,5.86,5.86,0,0,1,5.48,0,4.85,4.85,0,0,1,1.91,1.9,5.87,5.87,0,0,1,0,5.52,4.94,4.94,0,0,1-1.91,1.91,5.79,5.79,0,0,1-5.48,0Zm4.75-1.08a3.47,3.47,0,0,0,1.39-1.45,4.83,4.83,0,0,0,0-4.28,3.47,3.47,0,0,0-1.39-1.45,4,4,0,0,0-2-.51,4,4,0,0,0-2,.51,3.62,3.62,0,0,0-1.4,1.45,4.74,4.74,0,0,0,0,4.28,3.62,3.62,0,0,0,1.4,1.45,4,4,0,0,0,2,.51A4,4,0,0,0,191.69,384.18Z"/><path class="cls-32" d="M198.29,385.58a5.39,5.39,0,0,1-1.83-.93l.64-1.12a5.39,5.39,0,0,0,1.66.85,6.61,6.61,0,0,0,2.08.33,4,4,0,0,0,2.13-.45,1.43,1.43,0,0,0,.69-1.27,1.12,1.12,0,0,0-.38-.91,2.43,2.43,0,0,0-1-.5,15,15,0,0,0-1.54-.33,17.16,17.16,0,0,1-2.06-.49,3.08,3.08,0,0,1-1.33-.85,2.39,2.39,0,0,1-.55-1.66,2.61,2.61,0,0,1,1.1-2.16,5,5,0,0,1,3.06-.84,7.94,7.94,0,0,1,2,.27,5.7,5.7,0,0,1,1.68.71l-.62,1.14a5.3,5.3,0,0,0-3.1-.9A3.61,3.61,0,0,0,199,377a1.47,1.47,0,0,0-.69,1.26,1.24,1.24,0,0,0,.39,1,2.4,2.4,0,0,0,1,.53c.39.11.92.23,1.6.35a18,18,0,0,1,2,.48,2.92,2.92,0,0,1,1.3.82,2.26,2.26,0,0,1,.54,1.6,2.54,2.54,0,0,1-1.15,2.19,5.45,5.45,0,0,1-3.19.81A8,8,0,0,1,198.29,385.58Zm4-14.37h1.9l-3.24,2.48h-1.4Z"/><path class="cls-32" d="M209.27,385.27a4.92,4.92,0,0,1-1.93-1.91,5.56,5.56,0,0,1-.7-2.77,5.5,5.5,0,0,1,.7-2.76,5,5,0,0,1,1.93-1.9,5.71,5.71,0,0,1,2.79-.68,5.43,5.43,0,0,1,2.43.53,4,4,0,0,1,1.69,1.55l-1.06.72a3.23,3.23,0,0,0-1.32-1.17,3.9,3.9,0,0,0-1.74-.39A4.13,4.13,0,0,0,210,377a3.61,3.61,0,0,0-1.42,1.45,4.77,4.77,0,0,0,0,4.29,3.64,3.64,0,0,0,1.42,1.44,4.13,4.13,0,0,0,2.05.51,4,4,0,0,0,1.74-.38,3.14,3.14,0,0,0,1.32-1.16l1.06.72a4,4,0,0,1-1.7,1.55,5.44,5.44,0,0,1-2.42.53A5.71,5.71,0,0,1,209.27,385.27Z"/><path class="cls-32" d="M218.94,372.73a1,1,0,0,1-.3-.72,1,1,0,0,1,.3-.7,1,1,0,0,1,.74-.3,1,1,0,0,1,.74.29.92.92,0,0,1,.3.69,1,1,0,0,1-.3.74,1,1,0,0,1-.74.3A1,1,0,0,1,218.94,372.73Zm0,2.6h1.42v10.52H219Z"/><path class="cls-32" d="M229.56,372.73a1,1,0,0,1-.3-.72,1,1,0,0,1,.3-.7,1,1,0,0,1,.74-.3,1,1,0,0,1,.74.29.92.92,0,0,1,.3.69,1,1,0,0,1-.3.74,1,1,0,0,1-.74.3A1,1,0,0,1,229.56,372.73Zm0,2.6H231v10.52h-1.42Z"/><path class="cls-32" d="M248.3,375.92a4.81,4.81,0,0,1,1.88,1.89,6,6,0,0,1,0,5.56,4.84,4.84,0,0,1-1.88,1.9,5.37,5.37,0,0,1-2.68.68,5,5,0,0,1-2.37-.56,4.31,4.31,0,0,1-1.69-1.62v2.08H240.2V371h1.42v6.32a4.4,4.4,0,0,1,1.69-1.55,5,5,0,0,1,2.31-.53A5.36,5.36,0,0,1,248.3,375.92Zm-.78,8.26a3.58,3.58,0,0,0,1.41-1.45,4.74,4.74,0,0,0,0-4.28,3.58,3.58,0,0,0-1.41-1.45,4.2,4.2,0,0,0-4,0,3.62,3.62,0,0,0-1.4,1.45,4.74,4.74,0,0,0,0,4.28,3.62,3.62,0,0,0,1.4,1.45,4.2,4.2,0,0,0,4,0Z"/><path class="cls-32" d="M262.92,381h-8.8a3.76,3.76,0,0,0,1.26,2.65,4.2,4.2,0,0,0,2.88,1,4.55,4.55,0,0,0,1.8-.35,3.9,3.9,0,0,0,1.42-1l.8.92a4.42,4.42,0,0,1-1.75,1.28,6,6,0,0,1-2.31.44,5.86,5.86,0,0,1-2.87-.69,5,5,0,0,1-1.95-1.91,5.5,5.5,0,0,1-.7-2.76,5.69,5.69,0,0,1,.67-2.76,4.87,4.87,0,0,1,1.84-1.9,5.18,5.18,0,0,1,2.63-.68,5.09,5.09,0,0,1,2.62.68,4.73,4.73,0,0,1,1.82,1.89,5.7,5.7,0,0,1,.66,2.77Zm-7.63-3.59a3.88,3.88,0,0,0-1.17,2.53h7.46a3.79,3.79,0,0,0-1.17-2.53,3.86,3.86,0,0,0-5.12,0Z"/><path class="cls-32" d="M273.16,384.67v1.18H264.6v-.94l6.62-8.38h-6.5v-1.2H273v.94l-6.62,8.4Z"/><path class="cls-32" d="M284.06,375.92a4.81,4.81,0,0,1,1.88,1.89,6.06,6.06,0,0,1,0,5.58,4.79,4.79,0,0,1-1.87,1.89,5.34,5.34,0,0,1-2.69.67,5,5,0,0,1-2.31-.53,4.4,4.4,0,0,1-1.69-1.55v5.86H276v-14.4h1.36v2.08a4.4,4.4,0,0,1,1.69-1.6,5,5,0,0,1,2.37-.56A5.36,5.36,0,0,1,284.06,375.92Zm-.78,8.26a3.58,3.58,0,0,0,1.41-1.45,4.42,4.42,0,0,0,.51-2.14,4.36,4.36,0,0,0-.51-2.13,3.71,3.71,0,0,0-1.41-1.45,4.13,4.13,0,0,0-4,0,3.75,3.75,0,0,0-1.4,1.45,4.36,4.36,0,0,0-.51,2.13,4.42,4.42,0,0,0,.51,2.14,3.62,3.62,0,0,0,1.4,1.45,4.2,4.2,0,0,0,4,0Z"/><path class="cls-32" d="M289.5,372.73a1,1,0,0,1-.3-.72,1,1,0,0,1,.3-.7,1,1,0,0,1,.74-.3,1,1,0,0,1,.74.29.92.92,0,0,1,.3.69,1,1,0,0,1-.3.74,1,1,0,0,1-.74.3A1,1,0,0,1,289.5,372.73Zm0,2.6h1.42v10.52h-1.42Z"/><path class="cls-32" d="M304.06,381h-8.8a3.76,3.76,0,0,0,1.26,2.65,4.2,4.2,0,0,0,2.88,1,4.59,4.59,0,0,0,1.8-.35,3.9,3.9,0,0,0,1.42-1l.8.92a4.42,4.42,0,0,1-1.75,1.28,6,6,0,0,1-2.31.44,5.86,5.86,0,0,1-2.87-.69,5,5,0,0,1-1.95-1.91,5.5,5.5,0,0,1-.7-2.76,5.58,5.58,0,0,1,.67-2.76,4.87,4.87,0,0,1,1.84-1.9,5.18,5.18,0,0,1,2.63-.68,5.09,5.09,0,0,1,2.62.68,4.73,4.73,0,0,1,1.82,1.89,5.7,5.7,0,0,1,.66,2.77Zm-7.63-3.59a3.83,3.83,0,0,0-1.17,2.53h7.46a3.79,3.79,0,0,0-1.17-2.53,3.86,3.86,0,0,0-5.12,0Z"/><path class="cls-32" d="M308.55,385.27a4.92,4.92,0,0,1-1.93-1.91,5.46,5.46,0,0,1-.7-2.77,5.39,5.39,0,0,1,.7-2.76,5,5,0,0,1,1.93-1.9,5.71,5.71,0,0,1,2.79-.68,5.43,5.43,0,0,1,2.43.53,4,4,0,0,1,1.69,1.55l-1.06.72a3.36,3.36,0,0,0-1.32-1.17,3.9,3.9,0,0,0-1.74-.39,4.13,4.13,0,0,0-2,.51,3.54,3.54,0,0,0-1.42,1.45,4.77,4.77,0,0,0,0,4.29,3.58,3.58,0,0,0,1.42,1.44,4.13,4.13,0,0,0,2,.51,4,4,0,0,0,1.74-.38,3.26,3.26,0,0,0,1.32-1.16l1.06.72a4,4,0,0,1-1.7,1.55,5.48,5.48,0,0,1-2.42.53A5.71,5.71,0,0,1,308.55,385.27Z"/><path class="cls-32" d="M325.5,384.67v1.18h-8.56v-.94l6.62-8.38h-6.5v-1.2h8.32v.94l-6.62,8.4Z"/><path class="cls-32" d="M337.28,381h-8.8a3.76,3.76,0,0,0,1.26,2.65,4.2,4.2,0,0,0,2.88,1,4.62,4.62,0,0,0,1.8-.35,3.9,3.9,0,0,0,1.42-1l.8.92a4.5,4.5,0,0,1-1.75,1.28,6,6,0,0,1-2.31.44,5.83,5.83,0,0,1-2.87-.69,5,5,0,0,1-1.95-1.91,5.39,5.39,0,0,1-.7-2.76,5.58,5.58,0,0,1,.67-2.76,4.87,4.87,0,0,1,1.84-1.9,5.18,5.18,0,0,1,2.63-.68,5.12,5.12,0,0,1,2.62.68,4.8,4.8,0,0,1,1.82,1.89,5.7,5.7,0,0,1,.66,2.77Zm-7.63-3.59a3.79,3.79,0,0,0-1.17,2.53h7.46a3.79,3.79,0,0,0-1.17-2.53,3.86,3.86,0,0,0-5.12,0Z"/><path class="cls-32" d="M348.71,376.4a4.49,4.49,0,0,1,1.17,3.35v6.1h-1.42v-6a3.47,3.47,0,0,0-.82-2.5,3.1,3.1,0,0,0-2.34-.86,3.61,3.61,0,0,0-2.69,1,3.8,3.8,0,0,0-1,2.79v5.52H340.2V375.33h1.36v1.94a3.93,3.93,0,0,1,1.61-1.49,5.2,5.2,0,0,1,2.39-.53A4.28,4.28,0,0,1,348.71,376.4Zm-2.25-5.19h1.9l-3.24,2.48h-1.4Z"/><path class="cls-32" d="M353,379.81h5.24v1.24H353Z"/><path class="cls-32" d="M91.58,409.58a5.29,5.29,0,0,1-1.83-.93l.64-1.12a5.33,5.33,0,0,0,1.65.85,6.66,6.66,0,0,0,2.08.33,4,4,0,0,0,2.13-.45A1.42,1.42,0,0,0,97,407a1.12,1.12,0,0,0-.39-.91,2.43,2.43,0,0,0-1-.5,14.4,14.4,0,0,0-1.54-.33,17.16,17.16,0,0,1-2.06-.49,3,3,0,0,1-1.32-.85,2.35,2.35,0,0,1-.56-1.66,2.59,2.59,0,0,1,1.11-2.16,4.93,4.93,0,0,1,3.06-.84,7.94,7.94,0,0,1,2,.27,5.75,5.75,0,0,1,1.67.71l-.61,1.14a5.34,5.34,0,0,0-3.1-.9,3.65,3.65,0,0,0-2.06.48,1.47,1.47,0,0,0-.69,1.26,1.25,1.25,0,0,0,.4,1,2.34,2.34,0,0,0,1,.53c.38.11.92.23,1.59.35a17.51,17.51,0,0,1,2,.48,3,3,0,0,1,1.31.82,2.26,2.26,0,0,1,.54,1.6,2.56,2.56,0,0,1-1.15,2.19A5.49,5.49,0,0,1,94,410,7.88,7.88,0,0,1,91.58,409.58Z"/><path class="cls-32" d="M106.52,409.21a2.63,2.63,0,0,1-1,.55,3.86,3.86,0,0,1-1.23.19,3.12,3.12,0,0,1-2.28-.8,3.07,3.07,0,0,1-.79-2.26v-6.36H99.34v-1.2h1.89V397h1.42v2.3h3.19v1.2h-3.19v6.28a2,2,0,0,0,.46,1.43,1.79,1.79,0,0,0,1.35.49,2.66,2.66,0,0,0,.85-.14,2.05,2.05,0,0,0,.71-.4Z"/><path class="cls-32" d="M124.34,399.33l-4,10.52H119l-3.32-8.62-3.32,8.62H111l-4-10.52h1.36l3.3,8.94,3.38-8.94h1.22l3.36,8.94,3.34-8.94Z"/><path class="cls-32" d="M133,400.28a4,4,0,0,1,1.1,3.05v6.52h-1.35v-1.64a3.23,3.23,0,0,1-1.42,1.28,4.87,4.87,0,0,1-2.21.46,4.3,4.3,0,0,1-2.79-.84,2.9,2.9,0,0,1-.08-4.38,4.75,4.75,0,0,1,3.1-.82h3.34v-.64a2.71,2.71,0,0,0-.76-2.07,3.17,3.17,0,0,0-2.22-.71,5.62,5.62,0,0,0-1.92.33,4.71,4.71,0,0,0-1.58.91l-.65-1.06a5.93,5.93,0,0,1,1.92-1.05,7.44,7.44,0,0,1,2.37-.37A4.41,4.41,0,0,1,133,400.28Zm-1.59,8a3.33,3.33,0,0,0,1.28-1.59V405h-3.3c-1.81,0-2.7.63-2.7,1.88a1.71,1.71,0,0,0,.7,1.45,3.18,3.18,0,0,0,2,.53A3.73,3.73,0,0,0,131.41,408.28Z"/><path class="cls-32" d="M143.57,409.58a5.39,5.39,0,0,1-1.83-.93l.64-1.12a5.39,5.39,0,0,0,1.66.85,6.61,6.61,0,0,0,2.08.33,4,4,0,0,0,2.13-.45,1.43,1.43,0,0,0,.69-1.27,1.12,1.12,0,0,0-.38-.91,2.43,2.43,0,0,0-1-.5,15,15,0,0,0-1.54-.33,17.16,17.16,0,0,1-2.06-.49,3.08,3.08,0,0,1-1.33-.85,2.39,2.39,0,0,1-.55-1.66,2.61,2.61,0,0,1,1.1-2.16,5,5,0,0,1,3.06-.84,7.94,7.94,0,0,1,2,.27,5.7,5.7,0,0,1,1.68.71l-.62,1.14a5.3,5.3,0,0,0-3.1-.9,3.61,3.61,0,0,0-2.05.48,1.47,1.47,0,0,0-.69,1.26,1.24,1.24,0,0,0,.39,1,2.4,2.4,0,0,0,1,.53c.39.11.92.23,1.6.35a18,18,0,0,1,2,.48,2.92,2.92,0,0,1,1.3.82,2.26,2.26,0,0,1,.54,1.6,2.54,2.54,0,0,1-1.15,2.19A5.45,5.45,0,0,1,146,410,8,8,0,0,1,143.57,409.58Z"/><path class="cls-32" d="M158.52,409.21a2.63,2.63,0,0,1-1,.55,3.86,3.86,0,0,1-1.23.19,3.12,3.12,0,0,1-2.28-.8,3.07,3.07,0,0,1-.8-2.26v-6.36h-1.88v-1.2h1.88V397h1.42v2.3h3.2v1.2h-3.2v6.28a2,2,0,0,0,.47,1.43,1.79,1.79,0,0,0,1.35.49,2.66,2.66,0,0,0,.85-.14,2.05,2.05,0,0,0,.71-.4Z"/><path class="cls-32" d="M162.28,409.26a5.1,5.1,0,0,1-1.92-1.91,5.79,5.79,0,0,1,0-5.52,5,5,0,0,1,1.92-1.9,5.86,5.86,0,0,1,5.48,0,4.85,4.85,0,0,1,1.91,1.9,5.86,5.86,0,0,1,0,5.52,4.94,4.94,0,0,1-1.91,1.91,5.79,5.79,0,0,1-5.48,0Zm4.75-1.08a3.47,3.47,0,0,0,1.39-1.45,4.83,4.83,0,0,0,0-4.28A3.47,3.47,0,0,0,167,401a4,4,0,0,0-2-.51,4,4,0,0,0-2,.51,3.62,3.62,0,0,0-1.4,1.45,4.74,4.74,0,0,0,0,4.28,3.62,3.62,0,0,0,1.4,1.45,4,4,0,0,0,2,.51A4,4,0,0,0,167,408.18Z"/><path class="cls-32" d="M173.63,409.58a5.39,5.39,0,0,1-1.83-.93l.64-1.12a5.39,5.39,0,0,0,1.66.85,6.61,6.61,0,0,0,2.08.33,4,4,0,0,0,2.13-.45A1.43,1.43,0,0,0,179,407a1.12,1.12,0,0,0-.38-.91,2.43,2.43,0,0,0-1-.5,15,15,0,0,0-1.54-.33,17.16,17.16,0,0,1-2.06-.49,3.08,3.08,0,0,1-1.33-.85,2.39,2.39,0,0,1-.55-1.66,2.61,2.61,0,0,1,1.1-2.16,5,5,0,0,1,3.06-.84,7.94,7.94,0,0,1,2,.27,5.7,5.7,0,0,1,1.68.71l-.62,1.14a5.3,5.3,0,0,0-3.1-.9,3.61,3.61,0,0,0-2.05.48,1.47,1.47,0,0,0-.69,1.26,1.24,1.24,0,0,0,.39,1,2.4,2.4,0,0,0,1,.53c.39.11.92.23,1.6.35a18,18,0,0,1,2,.48,2.92,2.92,0,0,1,1.3.82,2.26,2.26,0,0,1,.54,1.6,2.54,2.54,0,0,1-1.15,2.19,5.45,5.45,0,0,1-3.19.81A8,8,0,0,1,173.63,409.58Z"/><path class="cls-32" d="M184.6,409.26a5.1,5.1,0,0,1-1.92-1.91,5.79,5.79,0,0,1,0-5.52,5,5,0,0,1,1.92-1.9,5.86,5.86,0,0,1,5.48,0,4.85,4.85,0,0,1,1.91,1.9,5.87,5.87,0,0,1,0,5.52,4.94,4.94,0,0,1-1.91,1.91,5.79,5.79,0,0,1-5.48,0Zm4.75-1.08a3.47,3.47,0,0,0,1.39-1.45,4.83,4.83,0,0,0,0-4.28,3.47,3.47,0,0,0-1.39-1.45,4,4,0,0,0-2-.51,4,4,0,0,0-2,.51,3.62,3.62,0,0,0-1.4,1.45,4.74,4.74,0,0,0,0,4.28,3.62,3.62,0,0,0,1.4,1.45,4,4,0,0,0,2,.51A4,4,0,0,0,189.35,408.18Z"/><path class="cls-32" d="M210.72,399.33l-4,10.52H205.4l-3.32-8.62-3.32,8.62h-1.34l-4-10.52h1.36l3.3,8.94,3.38-8.94h1.22l3.36,8.94,3.34-8.94Z"/><path class="cls-32" d="M219.38,400.28a4,4,0,0,1,1.1,3.05v6.52h-1.36v-1.64a3.26,3.26,0,0,1-1.41,1.28,4.87,4.87,0,0,1-2.21.46,4.35,4.35,0,0,1-2.8-.84,2.89,2.89,0,0,1-.07-4.38,4.74,4.74,0,0,1,3.09-.82h3.34v-.64a2.67,2.67,0,0,0-.76-2.07,3.13,3.13,0,0,0-2.22-.71,5.7,5.7,0,0,0-1.92.33,4.81,4.81,0,0,0-1.58.91l-.64-1.06a5.93,5.93,0,0,1,1.92-1.05,7.43,7.43,0,0,1,2.36-.37A4.42,4.42,0,0,1,219.38,400.28Zm-1.6,8a3.28,3.28,0,0,0,1.28-1.59V405h-3.3c-1.8,0-2.7.63-2.7,1.88a1.74,1.74,0,0,0,.7,1.45,3.22,3.22,0,0,0,2,.53A3.71,3.71,0,0,0,217.78,408.28Z"/><path class="cls-32" d="M232.85,400.4a4.49,4.49,0,0,1,1.17,3.35v6.1H232.6v-6a3.47,3.47,0,0,0-.82-2.5,3.07,3.07,0,0,0-2.34-.86,3.61,3.61,0,0,0-2.69,1,3.8,3.8,0,0,0-1,2.79v5.52h-1.42V399.33h1.36v1.94a4,4,0,0,1,1.61-1.49,5.22,5.22,0,0,1,2.39-.53A4.28,4.28,0,0,1,232.85,400.4Z"/><path class="cls-32" d="M237.86,396.73a1,1,0,0,1-.3-.72,1,1,0,0,1,.3-.7,1,1,0,0,1,.74-.3,1,1,0,0,1,.74.29.92.92,0,0,1,.3.69,1,1,0,0,1-.3.74,1,1,0,0,1-.74.3A1,1,0,0,1,237.86,396.73Zm0,2.6h1.42v10.52h-1.42Z"/><path class="cls-32" d="M250.1,400.28a4,4,0,0,1,1.1,3.05v6.52h-1.36v-1.64a3.26,3.26,0,0,1-1.41,1.28,4.87,4.87,0,0,1-2.21.46,4.35,4.35,0,0,1-2.8-.84,2.89,2.89,0,0,1-.07-4.38,4.74,4.74,0,0,1,3.09-.82h3.34v-.64a2.67,2.67,0,0,0-.76-2.07,3.13,3.13,0,0,0-2.22-.71,5.7,5.7,0,0,0-1.92.33,4.81,4.81,0,0,0-1.58.91l-.64-1.06a5.93,5.93,0,0,1,1.92-1.05,7.43,7.43,0,0,1,2.36-.37A4.42,4.42,0,0,1,250.1,400.28Zm-1.6,8a3.28,3.28,0,0,0,1.28-1.59V405h-3.3c-1.8,0-2.7.63-2.7,1.88a1.74,1.74,0,0,0,.7,1.45,3.22,3.22,0,0,0,2,.53A3.71,3.71,0,0,0,248.5,408.28Z"/><text class="cls-33" transform="translate(43.13 309.43)">➜</text><text class="cls-33" transform="translate(43.13 363.31)">➜</text><text class="cls-19" transform="translate(472.15 302.84)">Ust<tspan class="cls-22" x="33.74" y="0">a</tspan><tspan class="cls-34" x="45.34" y="0">w</tspan><tspan x="62.6" y="0">a o b</tspan><tspan class="cls-35" x="110.98" y="0">e</tspan><tspan x="122.96" y="0">zpie</tspan><tspan class="cls-25" x="164.2" y="0">c</tspan><tspan class="cls-21" x="175.3" y="0">z</tspan><tspan x="185.34" y="0">eńs</tspan><tspan class="cls-36" x="220.74" y="0">t</tspan><tspan x="228.66" y="0">wie </tspan><tspan class="cls-22" x="0" y="24">ż</tspan><tspan class="cls-35" x="10.02" y="24">y</tspan><tspan x="20.76" y="24">w</tspan><tspan class="cls-26" x="38.34" y="24">n</tspan><tspan x="51.92" y="24">ości i </tspan><tspan class="cls-22" x="106.74" y="24">ż</tspan><tspan class="cls-35" x="116.76" y="24">y</tspan><tspan x="127.5" y="24">wieni</tspan><tspan class="cls-37" x="181.46" y="24">a</tspan><tspan class="cls-38" x="192.7" y="24">*</tspan><tspan x="200.82" y="24">*</tspan></text><text class="cls-33" transform="translate(426.05 304.29)">➜</text><text class="cls-19" transform="translate(472.15 361.85)">B<tspan class="cls-21" x="15.08" y="0">r</tspan><tspan x="22.92" y="0">ak ust</tspan><tspan class="cls-36" x="83.34" y="0">a</tspan><tspan class="cls-28" x="94.94" y="0">wow</tspan><tspan x="141.74" y="0">ego </tspan><tspan class="cls-39" x="185.32" y="0">w</tspan><tspan x="202.8" y="0">y</tspan><tspan class="cls-26" x="213.64" y="0">m</tspan><tspan x="234.9" y="0">ogu </tspan><tspan x="0" y="24">ci</tspan><tspan class="cls-26" x="16.64" y="24">ą</tspan><tspan x="28.48" y="24">głego </tspan><tspan class="cls-26" x="91.36" y="24">m</tspan><tspan x="112.62" y="24">oni</tspan><tspan class="cls-40" x="144.08" y="24">t</tspan><tspan x="151.82" y="24">o</tspan><tspan class="cls-41" x="164.36" y="24">r</tspan><tspan class="cls-23" x="172.12" y="24">o</tspan><tspan class="cls-34" x="184.36" y="24">w</tspan><tspan x="201.62" y="24">ania </tspan><tspan x="0" y="48">b</tspan><tspan class="cls-39" x="13.56" y="48">e</tspan><tspan x="25.54" y="48">zpie</tspan><tspan class="cls-29" x="66.78" y="48">c</tspan><tspan class="cls-21" x="77.88" y="48">z</tspan><tspan x="87.92" y="48">eńs</tspan><tspan class="cls-22" x="123.32" y="48">t</tspan><tspan class="cls-34" x="131.24" y="48">w</tspan><tspan x="148.5" y="48">a s</tspan><tspan class="cls-42" x="175.32" y="48">t</tspan><tspan x="183.06" y="48">os</tspan><tspan class="cls-23" x="205.38" y="48">o</tspan><tspan class="cls-34" x="217.62" y="48">w</tspan><tspan x="234.88" y="48">ania</tspan></text><text class="cls-33" transform="translate(426.05 363.31)">➜</text><text class="cls-43" transform="translate(46.33 536.26)">* Ust<tspan class="cls-44" x="25.68" y="0">a</tspan><tspan class="cls-45" x="32.06" y="0">w</tspan><tspan class="cls-46" x="41.56" y="0">a z dnia 6 wr</tspan><tspan class="cls-47" x="110.33" y="0">z</tspan><tspan x="115.85" y="0">eśnia </tspan><tspan class="cls-48" x="147.65" y="0">2</tspan><tspan class="cls-46" x="153.85" y="0">0</tspan><tspan class="cls-49" x="161.14" y="0">0</tspan><tspan x="168.4" y="0">1 </tspan><tspan class="cls-50" x="175.25" y="0">r</tspan><tspan class="cls-51" x="179.55" y="0">. </tspan><tspan class="cls-52" x="184.76" y="0">P</tspan><tspan class="cls-53" x="192.41" y="0">r</tspan><tspan class="cls-50" x="196.72" y="0">a</tspan><tspan class="cls-54" x="203.1" y="0">w</tspan><tspan x="212.61" y="0">o </tspan><tspan class="cls-44" x="222.38" y="0">f</tspan><tspan x="226" y="0">a</tspan><tspan class="cls-55" x="232.49" y="0">r</tspan><tspan x="236.82" y="0">m</tspan><tspan class="cls-56" x="248.49" y="0">a</tspan><tspan class="cls-47" x="255" y="0">c</tspan><tspan x="261.09" y="0">eu</tspan><tspan class="cls-44" x="275.14" y="0">t</tspan><tspan class="cls-54" x="279.5" y="0">y</tspan><tspan class="cls-55" x="285.29" y="0">c</tspan><tspan class="cls-51" x="291.4" y="0">z</tspan><tspan class="cls-56" x="297.02" y="0">n</tspan><tspan class="cls-51" x="304.49" y="0">e D</tspan><tspan class="cls-57" x="323.1" y="0">z</tspan><tspan class="cls-47" x="328.74" y="0">.U</tspan><tspan class="cls-51" x="339.59" y="0">. </tspan><tspan class="cls-48" x="344.8" y="0">2</tspan><tspan class="cls-51" x="351.01" y="0">008 r</tspan><tspan class="cls-58" x="0" y="13.2">*</tspan><tspan class="cls-51" x="4.47" y="13.2">* Ust</tspan><tspan class="cls-44" x="30.15" y="13.2">a</tspan><tspan class="cls-45" x="36.53" y="13.2">w</tspan><tspan x="46.02" y="13.2">a o b</tspan><tspan class="cls-59" x="72.63" y="13.2">e</tspan><tspan class="cls-51" x="79.22" y="13.2">zpie</tspan><tspan class="cls-55" x="101.9" y="13.2">c</tspan><tspan class="cls-47" x="108.01" y="13.2">z</tspan><tspan class="cls-51" x="113.53" y="13.2">eńs</tspan><tspan class="cls-44" x="133" y="13.2">t</tspan><tspan x="137.36" y="13.2">wie </tspan><tspan class="cls-44" x="159.51" y="13.2">ż</tspan><tspan class="cls-59" x="165.02" y="13.2">y</tspan><tspan class="cls-46" x="170.93" y="13.2">w</tspan><tspan class="cls-57" x="180.6" y="13.2">n</tspan><tspan x="188.06" y="13.2">ości i </tspan><tspan class="cls-50" x="218.22" y="13.2">ż</tspan><tspan class="cls-59" x="223.73" y="13.2">y</tspan><tspan x="229.63" y="13.2">wienia z dnia 25 sie</tspan><tspan class="cls-60" x="334.76" y="13.2">r</tspan><tspan x="339.08" y="13.2">pnia </tspan><tspan class="cls-61" x="366.32" y="13.2">2</tspan><tspan x="372.52" y="13.2">006 </tspan><tspan class="cls-62" x="396.67" y="13.2">r</tspan><tspan x="400.97" y="13.2">. D</tspan><tspan class="cls-63" x="415.27" y="13.2">z</tspan><tspan x="420.91" y="13.2">. </tspan><tspan class="cls-53" x="426.12" y="13.2">U</tspan><tspan x="434.74" y="13.2">. </tspan><tspan class="cls-61" x="439.95" y="13.2">2</tspan><tspan class="cls-64" x="446.15" y="13.2">0</tspan><tspan x="453.41" y="13.2">10 Nr 136 p</tspan><tspan class="cls-65" x="511" y="13.2">o</tspan><tspan class="cls-63" x="517.8" y="13.2">z</tspan><tspan x="523.44" y="13.2">. </tspan><tspan class="cls-66" x="528.65" y="13.2">9</tspan><tspan x="535.33" y="13.2">14</tspan></text></svg>