<svg id="Warstwa_1" data-name="Warstwa 1" xmlns="http://www.w3.org/2000/svg" viewBox="0 0 465 260"><defs><style>.cls-1{fill:#096cb2;}.cls-2{fill:#e30613;}</style></defs><title>szczegolnie</title><polygon class="cls-1" points="68.35 244.27 66.75 244.67 67.85 245.77 67.15 246.37 66.35 244.97 65.55 246.37 64.85 245.77 65.85 244.67 64.35 244.27 64.55 243.47 66.05 244.07 65.85 242.57 66.75 242.57 66.65 244.07 68.05 243.47 68.35 244.27"/><path class="cls-1" d="M75.55,248.87v-.7c0-1.3-.4-2-1.3-2s-1.3.8-1.3,2.4.4,2.4,1.3,2.4a1.39,1.39,0,0,0,1-.5,3.51,3.51,0,0,0,.3-1.6m1,2.7h-.9v-.9a1.72,1.72,0,0,1-1.6,1c-1.4,0-2.1-1.1-2.1-3.2s.7-3.2,2.2-3.2a1.76,1.76,0,0,1,1.5.9v-3.7h1v9.1Z"/><polygon class="cls-1" points="81.65 251.57 77.85 251.57 77.85 250.57 80.55 246.27 77.85 246.27 77.85 245.37 81.65 245.37 81.65 246.37 78.85 250.77 81.65 250.77 81.65 251.57"/><path class="cls-1" d="M84,251.57H83v-6.2h1Zm0-7.5h-1.1v-1.2H84Z"/><path class="cls-1" d="M88.55,249v-.5H88c-1.2,0-1.8.4-1.8,1.3a1,1,0,0,0,1.1,1.1c.8.1,1.3-.6,1.3-1.9m1,2.6h-.9l-.1-.7a1.85,1.85,0,0,1-1.7.9,1.9,1.9,0,0,1-1.3-.5,2,2,0,0,1-.5-1.4c0-1.4,1-2,2.9-2h.6v-.4c0-.9-.4-1.4-1.3-1.4a2,2,0,0,0-1.5.6l-.1-.9a3.74,3.74,0,0,1,1.8-.5,2.06,2.06,0,0,1,1.7.6,3.16,3.16,0,0,1,.4,1.9v3.8Z"/><polygon class="cls-1" points="92.95 245.47 92.15 245.97 92.15 251.57 91.15 251.57 91.15 246.57 90.45 247.07 90.45 246.17 91.15 245.67 91.15 242.47 92.15 242.47 92.15 245.07 92.95 244.47 92.95 245.47"/><path class="cls-1" d="M96.85,249v-.5h-.6c-1.2,0-1.8.4-1.8,1.3a1,1,0,0,0,1.1,1.1c.8.1,1.3-.6,1.3-1.9m1,2.6H97l-.1-.7a1.85,1.85,0,0,1-1.7.9,1.9,1.9,0,0,1-1.3-.5,2,2,0,0,1-.5-1.4c0-1.4,1-2,2.9-2h.6v-.4c0-.9-.4-1.4-1.3-1.4a2,2,0,0,0-1.5.6l-.1-.9a3.74,3.74,0,0,1,1.8-.5,2.06,2.06,0,0,1,1.7.6,3.16,3.16,0,0,1,.4,1.9v3.8Z"/><path class="cls-1" d="M103.75,251.57h-1v-4.2c0-.8-.3-1.3-1-1.3a1.05,1.05,0,0,0-.9.5,2.27,2.27,0,0,0-.3,1.3v3.7h-1V247a8.08,8.08,0,0,0-.1-1.5h.9v.9a1.62,1.62,0,0,1,1.6-1,1.9,1.9,0,0,1,1.3.5,2.08,2.08,0,0,1,.4,1.5l.1,4.2Z"/><path class="cls-1" d="M106.35,251.57h-1v-6.2h1Zm.1-7.5h-1.1v-1.2h1.1Z"/><path class="cls-1" d="M111.15,248.07h0c0-1.3-.4-2-1.2-2s-1.2.6-1.3,2Zm1,.1v.6h-3.4c0,1.4.6,2.1,1.7,2.1a2.5,2.5,0,0,0,1.4-.4v.9a3.77,3.77,0,0,1-1.6.4c-1.7,0-2.6-1.1-2.6-3.2a4.27,4.27,0,0,1,.6-2.4,2,2,0,0,1,1.7-.9,2.09,2.09,0,0,1,1.6.8A3.28,3.28,0,0,1,112.15,248.17Z"/><path class="cls-1" d="M117.55,251.57l1.1-6.3h.9l-1.1,6.3Zm1.3-7.5.2-1.2h.9l-.2,1.2Z"/><path class="cls-1" d="M119.85,251.57l1.1-6.3h.8l-.2,1.1a4.64,4.64,0,0,1,1-1,1.61,1.61,0,0,1,.9-.3,1.28,1.28,0,0,1,1,.4,2.1,2.1,0,0,1,.4,1.1,5.38,5.38,0,0,1-.1,1.1l-.7,3.8h-.9l.7-4a3.44,3.44,0,0,0,.1-.9.68.68,0,0,0-.7-.7,1.73,1.73,0,0,0-1.2.6,4.16,4.16,0,0,0-.8,2l-.5,2.9h-.9v.2Z"/><path class="cls-1" d="M129.45,251.57l-.9-6.3h.9l.4,3.5c0,.4.1,1,.2,1.9a10.09,10.09,0,0,1,.7-1.5l1.7-3.8h.9l-3,6.3h-.9v-.1Z"/><path class="cls-1" d="M133.15,251.57l1.1-6.3h.9l-1.1,6.3Zm1.3-7.5.2-1.2h.9l-.2,1.2Z"/><path class="cls-1" d="M137.45,250.77l-.2.9a1.27,1.27,0,0,1-.6.1,1.14,1.14,0,0,1-.8-.3.91.91,0,0,1-.3-.7,5.13,5.13,0,0,1,.1-1l.6-3.7h-.6l.1-.8h.7l.3-1.6,1-.7-.4,2.3h.9l-.1.8h-.9l-.6,3.5a3.22,3.22,0,0,0-.1.8.35.35,0,0,0,.4.4h.5"/><path class="cls-1" d="M138.15,251.57l1.1-6.3h.8l-.2,1.3c.5-1,1-1.4,1.6-1.4a2.54,2.54,0,0,1,.7.2l-.4,1c-.2-.1-.3-.2-.5-.2s-.6.2-1,.6a5.93,5.93,0,0,0-.8,2.3l-.4,2.5Z"/><path class="cls-1" d="M142.55,249.07a2,2,0,0,0,.4,1.4,1.05,1.05,0,0,0,.9.5,1.14,1.14,0,0,0,.8-.3,2.33,2.33,0,0,0,.7-1.1,4.53,4.53,0,0,0,.3-1.6,2,2,0,0,0-.4-1.4,1.05,1.05,0,0,0-.9-.5,1.61,1.61,0,0,0-.9.3,2.33,2.33,0,0,0-.7,1.1,7.77,7.77,0,0,0-.2,1.6m-.9.1a5.47,5.47,0,0,1,.8-2.9,2.35,2.35,0,0,1,2.1-1.2,1.8,1.8,0,0,1,1.5.7,3,3,0,0,1,.6,2,4.64,4.64,0,0,1-.4,2.1,3.88,3.88,0,0,1-1,1.4,2.35,2.35,0,0,1-1.3.5,1.8,1.8,0,0,1-1.5-.7A2.24,2.24,0,0,1,141.65,249.17Z"/><polygon class="cls-1" points="159.85 245.37 158.15 251.57 157.05 251.57 155.75 246.47 154.55 251.57 153.35 251.57 151.75 245.37 152.85 245.37 153.95 250.57 155.25 245.37 156.35 245.37 157.65 250.57 158.85 245.37 159.85 245.37"/><path class="cls-1" d="M165.05,245.37l-2,7a3.77,3.77,0,0,1-.6,1.4,1.29,1.29,0,0,1-1.1.5,1.48,1.48,0,0,1-.7-.1l.1-.9a.76.76,0,0,0,.4.1c.4,0,.7-.3.8-.9l.2-.7-1.9-6.4h1.1l1.3,5.1,1.3-5.1Z"/><path class="cls-1" d="M169.75,251.47a3,3,0,0,1-1.3.2,2.2,2.2,0,0,1-1.9-.9,3.61,3.61,0,0,1-.7-2.4,3.17,3.17,0,0,1,.7-2.3,2.32,2.32,0,0,1,2-.8,5,5,0,0,1,1.2.2v.9a1.93,1.93,0,0,0-1-.3c-1.2,0-1.8.7-1.8,2.2,0,1.7.6,2.5,1.8,2.5a2.61,2.61,0,0,0,1.1-.3Z"/><path class="cls-1" d="M171.65,251.57h-1v-6.2h1Zm.1-7.5h-1.1v-1.2h1.1Z"/><path class="cls-1" d="M176.25,249v-.5h-.6c-1.2,0-1.8.4-1.8,1.3a1,1,0,0,0,1.1,1.1c.9.1,1.3-.6,1.3-1.9m1.5,5.1a1.27,1.27,0,0,1-.6.1,1.22,1.22,0,0,1-.9-.3.91.91,0,0,1-.4-.8,2.24,2.24,0,0,1,.8-1.5h-.2l-.1-.7a1.85,1.85,0,0,1-1.7.9,1.9,1.9,0,0,1-1.3-.5,2,2,0,0,1-.5-1.4c0-1.4,1-2,2.9-2h.6v-.4c0-.9-.4-1.4-1.3-1.4a2,2,0,0,0-1.5.6l-.1-.9a3.74,3.74,0,0,1,1.8-.5,2.06,2.06,0,0,1,1.7.6,3.16,3.16,0,0,1,.4,1.9v2.6a4.48,4.48,0,0,0,.1,1.2c-.2.1-.3.3-.5.5a1.85,1.85,0,0,0-.2.7.53.53,0,0,0,.6.6.9.9,0,0,0,.5-.1l-.1.8Z"/><path class="cls-1" d="M182.25,248.77v-.7a3.34,3.34,0,0,0-.3-1.5,1.23,1.23,0,0,0-1-.5c-.9,0-1.3.8-1.3,2.3s.4,2.3,1.3,2.3a1.39,1.39,0,0,0,1-.5,2.21,2.21,0,0,0,.3-1.4m1.1-3.4v5.5a4.94,4.94,0,0,1-.5,2.5,2.29,2.29,0,0,1-2.1.8,5.66,5.66,0,0,1-1.8-.3l.1-1a3.37,3.37,0,0,0,1.7.5,1.49,1.49,0,0,0,1.3-.6,3,3,0,0,0,.4-1.8v-.4a1.76,1.76,0,0,1-1.5.9c-1.4,0-2.1-1.1-2.1-3.2a4.27,4.27,0,0,1,.6-2.4,1.94,1.94,0,0,1,1.6-.8,1.72,1.72,0,0,1,1.6,1v-.9h.7Z"/><path class="cls-1" d="M189.25,251.57h-.9v-.9a1.62,1.62,0,0,1-1.6,1c-1.1,0-1.7-.7-1.7-2v-4.3h1v4.2c0,.8.3,1.3,1,1.3a1.05,1.05,0,0,0,.9-.5,2.27,2.27,0,0,0,.3-1.3v-3.7h1V250a4.27,4.27,0,0,0,0,1.6"/><path class="cls-1" d="M196.35,246.77h1.3a5.76,5.76,0,0,0,1.5-.1,4.88,4.88,0,0,0,.7-.3,2.65,2.65,0,0,0,.5-.6,1.88,1.88,0,0,0,.2-.8,1.48,1.48,0,0,0-.1-.7.78.78,0,0,0-.4-.4c-.1-.1-.4-.1-.8-.1H197Zm-1.7,4.8,1.5-8.7h3a4.14,4.14,0,0,1,1.4.2.9.9,0,0,1,.6.6,2.77,2.77,0,0,1,.3,1.3,2.44,2.44,0,0,1-.6,1.8,3.8,3.8,0,0,1-1.8.9,1.87,1.87,0,0,1,.6.7,10.09,10.09,0,0,1,.7,1.5l.5,1.6h-1.1l-.5-1.6a7.74,7.74,0,0,0-.7-1.6c-.2-.3-.3-.5-.5-.5a1.72,1.72,0,0,0-.8-.1h-1.1l-.7,3.9Z"/><path class="cls-1" d="M205.25,250.47a2.46,2.46,0,0,1-1.9,1.3,1,1,0,0,1-.9-.4,1.28,1.28,0,0,1-.4-1c0-.3.1-.7.2-1.4l.6-3.6h.9l-.7,4a2.49,2.49,0,0,0-.1.8,1.42,1.42,0,0,0,.2.6.76.76,0,0,0,.5.2,1.22,1.22,0,0,0,.9-.4,5.5,5.5,0,0,0,.7-.9,15.46,15.46,0,0,0,.4-1.5l.5-2.7h.9l-1.1,6.3h-.8Z"/><path class="cls-1" d="M207.25,249.47l.9-.1a2.13,2.13,0,0,0,.3,1.2,1,1,0,0,0,.9.4,1.4,1.4,0,0,0,.9-.3.91.91,0,0,0,.3-.7.76.76,0,0,0-.2-.5,1.71,1.71,0,0,0-.9-.6c-.5-.3-.9-.5-1-.6a1,1,0,0,1-.4-.5,1.48,1.48,0,0,1-.1-.7,1.71,1.71,0,0,1,1.8-1.8,2.46,2.46,0,0,1,1.5.5c.4.3.5.8.6,1.5l-.9.1a1.06,1.06,0,0,0-1.2-1.2,1.45,1.45,0,0,0-.7.2.71.71,0,0,0-.3.6c0,.2.1.3.2.5a3.78,3.78,0,0,0,.8.5,7.91,7.91,0,0,1,1.3.8,1.59,1.59,0,0,1,.4,1.2,2,2,0,0,1-.6,1.4,2,2,0,0,1-1.5.6,2.06,2.06,0,0,1-2.2-2.2l.1-.3Z"/><path class="cls-1" d="M215.85,249.27l.9.1a3.17,3.17,0,0,1-1,1.8,1.93,1.93,0,0,1-2.8,0,2.7,2.7,0,0,1-.5-1.9,5.38,5.38,0,0,1,.4-2.2,3.16,3.16,0,0,1,1-1.4,2.2,2.2,0,0,1,1.3-.4,1.61,1.61,0,0,1,1.3.6,2.46,2.46,0,0,1,.5,1.5l-.9.1a1.69,1.69,0,0,0-.3-1,.91.91,0,0,0-.7-.3,1.14,1.14,0,0,0-.8.3,2.23,2.23,0,0,0-.7,1.2,5.82,5.82,0,0,0-.3,1.9,2.13,2.13,0,0,0,.3,1.2.75.75,0,0,0,.7.4.91.91,0,0,0,.8-.4,4.35,4.35,0,0,0,.8-1.5"/><path class="cls-1" d="M220.75,250.47a2.46,2.46,0,0,1-1.9,1.3,1,1,0,0,1-.9-.4,1.28,1.28,0,0,1-.4-1c0-.3.1-.7.2-1.4l.6-3.6h.9l-.7,4a2.49,2.49,0,0,0-.1.8,1.42,1.42,0,0,0,.2.6.76.76,0,0,0,.5.2,1.22,1.22,0,0,0,.9-.4,5.5,5.5,0,0,0,.7-.9,15.46,15.46,0,0,0,.4-1.5l.5-2.7h.9l-1.1,6.3h-.8Z"/><path class="cls-1" d="M222.85,249.47l.9-.1a2.13,2.13,0,0,0,.3,1.2,1,1,0,0,0,.9.4,1.4,1.4,0,0,0,.9-.3.91.91,0,0,0,.3-.7.76.76,0,0,0-.2-.5,1.71,1.71,0,0,0-.9-.6c-.5-.3-.9-.5-1-.6a1,1,0,0,1-.4-.5,1.48,1.48,0,0,1-.1-.7,1.71,1.71,0,0,1,1.8-1.8,2.46,2.46,0,0,1,1.5.5c.4.3.5.8.6,1.5l-.9.1a1.06,1.06,0,0,0-1.2-1.2,1.45,1.45,0,0,0-.7.2.71.71,0,0,0-.3.6c0,.2.1.3.2.5a3.78,3.78,0,0,0,.8.5,7.91,7.91,0,0,1,1.3.8,1.59,1.59,0,0,1,.4,1.2,2,2,0,0,1-.6,1.4,2,2,0,0,1-1.5.6,2.06,2.06,0,0,1-2.2-2.2l.1-.3Z"/><path class="cls-1" d="M234.35,248.37a2.68,2.68,0,0,1-1.1.2,7.47,7.47,0,0,0-1.1.2,1,1,0,0,0-.5.4,1.42,1.42,0,0,0-.2.6,1.14,1.14,0,0,0,.3.8.91.91,0,0,0,.7.3,1.14,1.14,0,0,0,.8-.3,1.24,1.24,0,0,0,.6-.8c.3-.2.4-.7.5-1.4m-.3,2.4a2.76,2.76,0,0,1-.9.7,2.92,2.92,0,0,1-.9.2,1.43,1.43,0,0,1-1.1-.5,1.9,1.9,0,0,1-.5-1.3,2,2,0,0,1,.3-1.1,2.34,2.34,0,0,1,.7-.7,2.65,2.65,0,0,1,1.4-.3c.5,0,.8-.1,1-.1s.3-.1.5-.1a2,2,0,0,0,.1-.7.6.6,0,0,0-.3-.6,1.08,1.08,0,0,0-.8-.2,1.39,1.39,0,0,0-1.4,1.2l-.9-.1a2.34,2.34,0,0,1,2.4-1.9,2,2,0,0,1,1.4.5,1.66,1.66,0,0,1,.5,1.2,5.74,5.74,0,0,1-.1,1.2l-.3,1.6a5.74,5.74,0,0,0-.1,1.2,3.44,3.44,0,0,0,.1.9h-.9A5.16,5.16,0,0,1,234.05,250.77Z"/><path class="cls-1" d="M239.75,249.27l.9.1a3.17,3.17,0,0,1-1,1.8,1.93,1.93,0,0,1-2.8,0,2.7,2.7,0,0,1-.5-1.9,5.38,5.38,0,0,1,.4-2.2,3.16,3.16,0,0,1,1-1.4,2.2,2.2,0,0,1,1.3-.4,1.61,1.61,0,0,1,1.3.6,2.46,2.46,0,0,1,.5,1.5l-.9.1a1.69,1.69,0,0,0-.3-1,.91.91,0,0,0-.7-.3,1.14,1.14,0,0,0-.8.3,2.23,2.23,0,0,0-.7,1.2,5.82,5.82,0,0,0-.3,1.9,2.13,2.13,0,0,0,.3,1.2.75.75,0,0,0,.7.4.91.91,0,0,0,.8-.4,4.35,4.35,0,0,0,.8-1.5"/><path class="cls-1" d="M244.65,250.47a2.46,2.46,0,0,1-1.9,1.3,1,1,0,0,1-.9-.4,1.28,1.28,0,0,1-.4-1c0-.3.1-.7.2-1.4l.6-3.6h.9l-.7,4a2.49,2.49,0,0,0-.1.8,1.42,1.42,0,0,0,.2.6.76.76,0,0,0,.5.2,1.22,1.22,0,0,0,.9-.4,5.5,5.5,0,0,0,.7-.9,15.46,15.46,0,0,0,.4-1.5l.5-2.7h.9l-1.1,6.3h-.8Z"/><polygon class="cls-1" points="246.65 251.57 248.15 242.87 249.05 242.87 247.55 251.57 246.65 251.57"/><path class="cls-1" d="M250.15,247.87h2.9v-.2a2.27,2.27,0,0,0-.3-1.3,1,1,0,0,0-.9-.4,1.39,1.39,0,0,0-1,.5,3.65,3.65,0,0,0-.7,1.4m2.6,1.6.9.1a2.75,2.75,0,0,1-1,1.6,2,2,0,0,1-1.4.6,1.69,1.69,0,0,1-1-.3,1.6,1.6,0,0,1-.7-.9,3.34,3.34,0,0,1-.3-1.5,5.22,5.22,0,0,1,.4-2.1,3.88,3.88,0,0,1,1-1.4,2,2,0,0,1,1.3-.4,1.8,1.8,0,0,1,1.5.7,2.88,2.88,0,0,1,.6,1.9,3.75,3.75,0,0,1-.1,1h-3.8v.3a2.9,2.9,0,0,0,.3,1.4,1,1,0,0,0,.8.5,1.22,1.22,0,0,0,.9-.4A10.91,10.91,0,0,0,252.75,249.47Z"/><path class="cls-1" d="M258.25,248.37a2.68,2.68,0,0,1-1.1.2,7.47,7.47,0,0,0-1.1.2,1,1,0,0,0-.5.4,1.42,1.42,0,0,0-.2.6,1.14,1.14,0,0,0,.3.8.91.91,0,0,0,.7.3,1.14,1.14,0,0,0,.8-.3,1.24,1.24,0,0,0,.6-.8c.3-.2.4-.7.5-1.4m-.3,2.4a2.76,2.76,0,0,1-.9.7,2.92,2.92,0,0,1-.9.2,1.43,1.43,0,0,1-1.1-.5,1.9,1.9,0,0,1-.5-1.3,2,2,0,0,1,.3-1.1,2.34,2.34,0,0,1,.7-.7,2.65,2.65,0,0,1,1.4-.3c.5,0,.8-.1,1-.1s.3-.1.5-.1a2,2,0,0,0,.1-.7.6.6,0,0,0-.3-.6,1.08,1.08,0,0,0-.8-.2,1.39,1.39,0,0,0-1.4,1.2l-.9-.1a2.34,2.34,0,0,1,2.4-1.9,2,2,0,0,1,1.4.5,1.66,1.66,0,0,1,.5,1.2,5.74,5.74,0,0,1-.1,1.2l-.3,1.6a5.74,5.74,0,0,0-.1,1.2,3.44,3.44,0,0,0,.1.9h-.9A5.16,5.16,0,0,1,258,250.77Z"/><path class="cls-1" d="M262.05,250.77l-.2.9a1.27,1.27,0,0,1-.6.1,1.14,1.14,0,0,1-.8-.3.91.91,0,0,1-.3-.7,5.13,5.13,0,0,1,.1-1l.6-3.7h-.7l.1-.8h.7l.3-1.6,1-.7-.4,2.3h.9l-.1.8h-.9l-.6,3.5a3.22,3.22,0,0,0-.1.8.35.35,0,0,0,.4.4h.6"/><path class="cls-1" d="M266.35,250.47a2.46,2.46,0,0,1-1.9,1.3,1,1,0,0,1-.9-.4,1.28,1.28,0,0,1-.4-1c0-.3.1-.7.2-1.4l.6-3.6h.9l-.7,4a2.49,2.49,0,0,0-.1.8,1.42,1.42,0,0,0,.2.6.76.76,0,0,0,.5.2,1.22,1.22,0,0,0,.9-.4,5.5,5.5,0,0,0,.7-.9,15.46,15.46,0,0,0,.4-1.5l.5-2.7h.9l-1.1,6.3h-.8Z"/><path class="cls-1" d="M268.45,249.47l.9-.1a2.13,2.13,0,0,0,.3,1.2,1,1,0,0,0,.9.4,1.4,1.4,0,0,0,.9-.3.91.91,0,0,0,.3-.7.76.76,0,0,0-.2-.5,1.71,1.71,0,0,0-.9-.6c-.5-.3-.9-.5-1-.6a1,1,0,0,1-.4-.5,1.48,1.48,0,0,1-.1-.7,1.71,1.71,0,0,1,1.8-1.8,2.46,2.46,0,0,1,1.5.5c.4.3.5.8.6,1.5l-.9.1a1.06,1.06,0,0,0-1.2-1.2,1.45,1.45,0,0,0-.7.2.71.71,0,0,0-.3.6c0,.2.1.3.2.5a3.78,3.78,0,0,0,.8.5,7.91,7.91,0,0,1,1.3.8,1.59,1.59,0,0,1,.4,1.2,2,2,0,0,1-.6,1.4,2,2,0,0,1-1.5.6,2.06,2.06,0,0,1-2.2-2.2l.1-.3Z"/><path class="cls-1" d="M275.25,250.27l-.8,2.8h-.8l.6-2.8Zm-.1-3.5h-1.1v-1.4h1.1Z"/><path class="cls-1" d="M282.15,248.07h0c0-1.3-.4-2-1.2-2s-1.2.6-1.3,2Zm.9.1v.6h-3.4c0,1.4.6,2.1,1.7,2.1a2.5,2.5,0,0,0,1.4-.4v.9a3.77,3.77,0,0,1-1.6.4c-1.7,0-2.6-1.1-2.6-3.2a4.27,4.27,0,0,1,.6-2.4,2,2,0,0,1,1.7-.9,1.94,1.94,0,0,1,1.6.8A2.78,2.78,0,0,1,283.05,248.17Z"/><path class="cls-1" d="M287,243.27a4.33,4.33,0,0,1-.5-.1.85.85,0,0,0-.6.2,1.55,1.55,0,0,0-.2.8v1.1h1.1v.8h-1.1v5.4h-1v-5.4h-1v-.7h1v-1.2a1.81,1.81,0,0,1,.4-1.4c.2-.3.6-.4,1.2-.4a2,2,0,0,1,.7.1v.8Z"/><path class="cls-1" d="M290.75,248.07h0c0-1.3-.4-2-1.2-2s-1.2.6-1.3,2Zm1,.1v.6h-3.4c0,1.4.6,2.1,1.7,2.1a2.5,2.5,0,0,0,1.4-.4v.9a3.77,3.77,0,0,1-1.6.4c-1.7,0-2.6-1.1-2.6-3.2a4.27,4.27,0,0,1,.6-2.4,2,2,0,0,1,1.7-.9,2.09,2.09,0,0,1,1.6.8A3.28,3.28,0,0,1,291.75,248.17Z"/><polygon class="cls-1" points="297.55 251.57 296.35 251.57 294.05 248.47 294.05 251.57 293.05 251.57 293.05 242.47 294.05 242.47 294.05 247.87 296.15 245.37 297.35 245.37 294.95 248.17 297.55 251.57"/><path class="cls-1" d="M300.55,251.57a2.92,2.92,0,0,1-.9.2,1.21,1.21,0,0,1-1.2-.6,3.22,3.22,0,0,1-.2-1.6v-3.4h-.9v-.8h.9v-1.3l1-.3v1.6h1.2v.8h-1.2v3.5a1.72,1.72,0,0,0,.1.8.68.68,0,0,0,.6.4,1.27,1.27,0,0,0,.6-.1v.8Z"/><polygon class="cls-1" points="307.95 251.57 304.15 251.57 304.15 250.57 306.85 246.27 304.25 246.27 304.25 245.37 307.95 245.37 307.95 246.37 305.15 250.77 307.95 250.77 307.95 251.57"/><path class="cls-1" d="M312.15,249v-.5h-.6c-1.2,0-1.8.4-1.8,1.3a1,1,0,0,0,1.1,1.1c.9.1,1.3-.6,1.3-1.9m1.1,2.6h-.9l-.1-.7a1.85,1.85,0,0,1-1.7.9,1.9,1.9,0,0,1-1.3-.5,2,2,0,0,1-.5-1.4c0-1.4,1-2,2.9-2h.6v-.4c0-.9-.4-1.4-1.3-1.4a2,2,0,0,0-1.5.6l-.1-.9a3.74,3.74,0,0,1,1.8-.5,2.06,2.06,0,0,1,1.7.6,3.16,3.16,0,0,1,.4,1.9v2.6A2.4,2.4,0,0,0,313.25,251.57Z"/><rect class="cls-1" x="314.85" y="242.47" width="1" height="9.1"/><path class="cls-1" d="M320.65,248.07h0c0-1.3-.4-2-1.2-2s-1.2.6-1.3,2Zm1,.1v.6h-3.4c0,1.4.6,2.1,1.7,2.1a2.5,2.5,0,0,0,1.4-.4v.9a3.77,3.77,0,0,1-1.6.4c-1.7,0-2.6-1.1-2.6-3.2a4.27,4.27,0,0,1,.6-2.4,2,2,0,0,1,1.7-.9,1.94,1.94,0,0,1,1.6.8A3.28,3.28,0,0,1,321.65,248.17Z"/><path class="cls-1" d="M326.35,251.57h-3.9v-1l2.8-4.4h-2.7v-.8h3.8v1l-2.8,4.4h2.8v.8Zm-1.3-7.5H324v-1.2h1.1Z"/><path class="cls-1" d="M331.85,251.57h-1v-4.2c0-.8-.3-1.3-1-1.3a1.05,1.05,0,0,0-.9.5,2.27,2.27,0,0,0-.3,1.3v3.7h-1V247a8.08,8.08,0,0,0-.1-1.5h.9v.9a1.62,1.62,0,0,1,1.6-1,1.9,1.9,0,0,1,1.3.5,2.08,2.08,0,0,1,.4,1.5l.1,4.2Z"/><path class="cls-1" d="M337.55,245.37l-2,7a3.77,3.77,0,0,1-.6,1.4,1.29,1.29,0,0,1-1.1.5,1.48,1.48,0,0,1-.7-.1l.1-.9a.76.76,0,0,0,.4.1c.4,0,.7-.3.8-.9l.2-.7-1.9-6.4h1.1l1.3,5.1,1.3-5.1Z"/><path class="cls-1" d="M345.05,248.47c0-1.6-.5-2.4-1.4-2.4s-1.4.8-1.4,2.4.5,2.4,1.4,2.4,1.4-.8,1.4-2.4m1.1,0a4.27,4.27,0,0,1-.6,2.4,2,2,0,0,1-1.8.8,2.2,2.2,0,0,1-1.8-.8,4,4,0,0,1-.6-2.4,4.27,4.27,0,0,1,.6-2.4,2,2,0,0,1,1.8-.8,2.2,2.2,0,0,1,1.8.8A4.27,4.27,0,0,1,346.15,248.47Z"/><path class="cls-1" d="M350.85,248.87v-.7c0-1.3-.4-2-1.3-2s-1.3.8-1.3,2.4.4,2.4,1.3,2.4a1.39,1.39,0,0,0,1-.5,3.51,3.51,0,0,0,.3-1.6m1,2.7H351v-.9a1.72,1.72,0,0,1-1.6,1c-1.4,0-2.1-1.1-2.1-3.2s.7-3.2,2.2-3.2a1.76,1.76,0,0,1,1.5.9v-3.7h1v9.1Z"/><path class="cls-1" d="M359.85,248.87v-.7c0-1.3-.4-2-1.3-2s-1.3.8-1.3,2.4.4,2.4,1.3,2.4a1.39,1.39,0,0,0,1-.5,3.51,3.51,0,0,0,.3-1.6m1,2.7H360v-.9a1.72,1.72,0,0,1-1.6,1c-1.4,0-2.1-1.1-2.1-3.2s.7-3.2,2.2-3.2a1.76,1.76,0,0,1,1.5.9v-3.7h1v9.1Z"/><path class="cls-1" d="M365.45,249v-.5h-.6c-1.2,0-1.8.4-1.8,1.3a1,1,0,0,0,1.1,1.1c.9.1,1.3-.6,1.3-1.9m1.1,2.6h-.9l-.1-.7a1.85,1.85,0,0,1-1.7.9,1.9,1.9,0,0,1-1.3-.5,2,2,0,0,1-.5-1.4c0-1.4,1-2,2.9-2h.6v-.4c0-.9-.4-1.4-1.3-1.4a2,2,0,0,0-1.5.6l-.1-.9a3.74,3.74,0,0,1,1.8-.5,2.06,2.06,0,0,1,1.7.6,3.16,3.16,0,0,1,.4,1.9v2.6A4.74,4.74,0,0,0,366.55,251.57Z"/><polygon class="cls-1" points="375.65 245.37 373.95 251.57 372.85 251.57 371.55 246.47 370.35 251.57 369.15 251.57 367.55 245.37 368.55 245.37 369.75 250.57 370.95 245.37 372.15 245.37 373.35 250.57 374.55 245.37 375.65 245.37"/><polygon class="cls-1" points="381.15 251.57 380.05 251.57 377.75 248.47 377.75 251.57 376.75 251.57 376.75 242.47 377.75 242.47 377.75 247.87 379.85 245.37 380.95 245.37 378.55 248.17 381.15 251.57"/><path class="cls-1" d="M382.85,251.57h-1v-6.2h1Zm.1-7.5h-1.1v-1.2H383Z"/><path class="cls-1" d="M82.65,36.27a6.85,6.85,0,0,1-2.4,5.4,9.31,9.31,0,0,1-6.4,2.1,18.12,18.12,0,0,1-6.4-1.2l.2-4.9a12.25,12.25,0,0,0,6.2,1.8c2.5,0,3.8-.9,3.8-2.6a2.12,2.12,0,0,0-1-1.8,11.21,11.21,0,0,0-2.8-1.4,18.93,18.93,0,0,1-4.8-3.1,6.13,6.13,0,0,1-1.6-4.4,6.8,6.8,0,0,1,2.2-5.3,8.11,8.11,0,0,1,5.8-2.1,17,17,0,0,1,5.7.9l-.2,4.5a10.74,10.74,0,0,0-4.9-1.2c-2.3,0-3.5.8-3.5,2.4a2.52,2.52,0,0,0,.9,2,12.81,12.81,0,0,0,2.9,1.6,16,16,0,0,1,4.5,2.8,6,6,0,0,1,1.8,4.5"/><polygon class="cls-1" points="101.55 43.27 85.65 43.27 85.65 38.17 95.55 23.67 85.95 23.67 85.95 19.37 101.45 19.37 101.45 24.27 91.55 38.97 101.55 38.97 101.55 43.27"/><path class="cls-1" d="M121.45,42.67a17.39,17.39,0,0,1-6.1,1.1,9.36,9.36,0,0,1-7.6-3.3c-1.9-2.2-2.8-5.2-2.8-9,0-4,1-7.1,2.9-9.3s4.6-3.3,8.1-3.3a14.48,14.48,0,0,1,5.2,1l-.3,4.5a8.39,8.39,0,0,0-4.1-1.1c-4,0-6,2.5-6,7.6a10.17,10.17,0,0,0,1.6,6.2,5.29,5.29,0,0,0,4.5,2.1,8.83,8.83,0,0,0,4.4-1.2Z"/><polygon class="cls-1" points="139.15 43.27 123.35 43.27 123.35 38.17 133.15 23.67 123.55 23.67 123.55 19.37 139.15 19.37 139.15 24.27 129.15 38.97 139.15 38.97 139.15 43.27"/><path class="cls-1" d="M156.25,29.47v-.4c0-4.1-1.3-6.2-3.9-6.2s-4.1,2.2-4.4,6.6Zm5.3,1.4v2h-13.4c.2,4.5,2.3,6.8,6.3,6.8a11.43,11.43,0,0,0,5.8-1.7v4.3a15.28,15.28,0,0,1-6.7,1.5c-3.5,0-6.3-1.1-8.2-3.2s-2.9-5.2-2.9-9.1.9-6.9,2.7-9.2a8.7,8.7,0,0,1,7.3-3.4,7.83,7.83,0,0,1,6.5,3.2C160.75,24.17,161.55,27.17,161.55,30.87Z"/><path class="cls-1" d="M179.45,32.27v-2.4a8.8,8.8,0,0,0-1.2-5,3.68,3.68,0,0,0-3.1-1.7c-2.8,0-4.2,2.6-4.2,7.7,0,5.3,1.4,8,4.2,8s4.3-2.2,4.3-6.6m5.8-12.9c-.1,2.3-.1,4.4-.1,6.2v14.2a29.85,29.85,0,0,1-.5,6.2,9.6,9.6,0,0,1-2.4,4.7c-1.9,2-4.6,2.9-8.3,2.9a21.46,21.46,0,0,1-7.9-1.3l.4-4.8a13.57,13.57,0,0,0,6.8,1.8c2.3,0,3.9-.7,4.9-2s1.5-3.4,1.5-6.2v-1.5a6.75,6.75,0,0,1-6.1,3.6c-5.6,0-8.3-4.1-8.3-12.3,0-3.9.7-6.9,2.2-9a7,7,0,0,1,6.1-3.1,6.89,6.89,0,0,1,6.3,4.1c0-.8.1-2,.2-3.6l5.2.1Z"/><path class="cls-1" d="M204.55,31.37c0-5.5-1.5-8.3-4.4-8.3s-4.5,2.8-4.5,8.3,1.5,8.2,4.5,8.2,4.4-2.8,4.4-8.2m5.9-.1c0,4-.9,7.1-2.7,9.2a9.59,9.59,0,0,1-7.6,3.2,9.45,9.45,0,0,1-7.6-3.2c-1.8-2.2-2.7-5.2-2.7-9.2s.9-7.1,2.7-9.2a10.62,10.62,0,0,1,15.2,0C209.55,24.17,210.45,27.27,210.45,31.27Zm-3.9-21.9-5,7.1h-4.2l3.5-7.1Z"/><rect class="cls-1" x="215.25" y="8.37" width="5.6" height="34.9"/><path class="cls-1" d="M245.25,43.27h-5.6V27.87c0-2.9-1.1-4.3-3.3-4.3a3.22,3.22,0,0,0-2.8,1.5,7.11,7.11,0,0,0-1.1,4.1v14.1h-5.6V24.87c0-2.1-.1-3.9-.2-5.6h5.1a34.59,34.59,0,0,1,.2,3.5,6.59,6.59,0,0,1,6.5-4.1c4.5,0,6.7,2.6,6.7,7.9l.1,16.7Z"/><path class="cls-1" d="M256.55,43.27H251V19.37h5.6Zm.2-28.5H251V9.27h5.8Z"/><path class="cls-1" d="M275.15,29.47v-.4c0-4.1-1.3-6.2-3.9-6.2s-4.1,2.2-4.4,6.6Zm5.2,1.4v2H267c.2,4.5,2.3,6.8,6.3,6.8a11.43,11.43,0,0,0,5.8-1.7v4.3a15.28,15.28,0,0,1-6.7,1.5c-3.5,0-6.3-1.1-8.2-3.2s-2.9-5.2-2.9-9.1.9-6.9,2.7-9.2a8.7,8.7,0,0,1,7.3-3.4,7.83,7.83,0,0,1,6.5,3.2C279.55,24.17,280.35,27.17,280.35,30.87Z"/><polygon class="cls-1" points="328.35 19.37 321.95 43.27 315.85 43.27 311.55 24.37 307.25 43.27 300.95 43.27 294.75 19.37 300.55 19.37 304.45 38.17 308.55 19.37 314.85 19.37 318.95 38.17 322.95 19.37 328.35 19.37"/><path class="cls-1" d="M350.55,19.37l-7.9,26.2a19,19,0,0,1-2.7,6,6.35,6.35,0,0,1-5.1,2.1,12.7,12.7,0,0,1-3.4-.5l.4-4.3a6.72,6.72,0,0,0,1.8.3c1.7,0,2.9-1.1,3.5-3.3l.5-1.8-7.9-24.7h6l4.8,18.4,4.7-18.4Z"/><path class="cls-1" d="M366.15,24.17c-.9-.1-2.2-.1-3.9-.1s-2.5,2.2-2.5,6.7v12.5h-5.6V24.87c0-2.1-.1-3.9-.2-5.6h5.1c.1,1.6.2,2.7.2,3.4v.7c1.2-3,3.4-4.6,6.3-4.6h.7l-.1,5.4Z"/><path class="cls-1" d="M380.85,33.27v-1.5c-1.1-.1-1.8-.1-2-.1-4.1,0-6.2,1.5-6.2,4.4q0,3.6,3.6,3.6c3.1,0,4.6-2.1,4.6-6.4m5.7,10h-5.2l-.3-3a8.13,8.13,0,0,1-6.8,3.5,6.55,6.55,0,0,1-5-2,7.19,7.19,0,0,1-1.9-5.3c0-5.4,3.7-8.1,11.2-8.1h2.3v-1q0-4.5-4.8-4.5a9.26,9.26,0,0,0-6.1,2.3l-.4-4.5a18,18,0,0,1,7.6-1.8c3.5,0,6,.8,7.3,2.5,1.2,1.5,1.9,4.1,1.9,7.8v9.4C386.45,40.57,386.45,42.17,386.55,43.27Z"/><path class="cls-1" d="M406.35,43.27h-15.9v-5.1l9.8-14.5h-9.6v-4.3h15.6v4.9l-9.9,14.6h10v4.4Zm-1.6-33.9-5,7.1h-4.2l3.5-7.1Z"/><path class="cls-1" d="M429.35,43.27h-5.6V27.87c0-2.9-1.1-4.3-3.3-4.3a3.22,3.22,0,0,0-2.8,1.5,7.11,7.11,0,0,0-1.1,4.1v14.1H411V24.87c0-2.1-.1-3.9-.2-5.6h5.1a34.59,34.59,0,0,1,.2,3.5,6.59,6.59,0,0,1,6.5-4.1c4.5,0,6.7,2.6,6.7,7.9l.1,16.7Z"/><path class="cls-1" d="M453.55,19.37l-7.9,26.2a19,19,0,0,1-2.7,6,6.35,6.35,0,0,1-5.1,2.1,12.7,12.7,0,0,1-3.4-.5l.4-4.3a6.72,6.72,0,0,0,1.8.3c1.7,0,2.9-1.1,3.5-3.3l.5-1.8-7.9-24.7h6l4.8,18.4,4.7-18.4Z"/><polygon class="cls-1" points="101.05 78.77 94.65 102.77 88.55 102.77 84.25 83.77 79.95 102.77 73.65 102.77 67.45 78.77 73.15 78.77 77.05 97.67 81.25 78.77 87.45 78.77 91.55 97.67 95.55 78.77 101.05 78.77"/><path class="cls-1" d="M130.85,90.77q0-8.1-4.2-8.1t-4.2,6.9v2.5q0,6.9,4.2,6.9c2.8-.1,4.2-2.8,4.2-8.2m6,0c0,8.3-2.8,12.5-8.4,12.5a6.52,6.52,0,0,1-6-3.7V113h-5.6V83.07c-.1-1.5-.1-2.9-.1-4.2h5.3c.1,1.5.2,2.7.2,3.6,1.5-2.7,3.6-4.1,6.3-4.1C134.05,78.27,136.85,82.47,136.85,90.77Z"/><path class="cls-1" d="M153.65,83.67c-.9-.1-2.2-.1-3.9-.1s-2.5,2.2-2.5,6.7v12.5h-5.6V84.37c0-2.1-.1-3.9-.2-5.5h5.1c.1,1.6.2,2.7.2,3.4V83c1.2-3,3.4-4.6,6.3-4.6h.7l-.1,5.3Z"/><polygon class="cls-1" points="171.85 102.77 156.05 102.77 156.05 97.67 165.85 83.17 156.25 83.17 156.25 78.77 171.85 78.77 171.85 83.77 161.95 98.37 171.85 98.37 171.85 102.77"/><path class="cls-1" d="M194.85,78.77,187,105a19,19,0,0,1-2.7,6,6.35,6.35,0,0,1-5.1,2.1,12.7,12.7,0,0,1-3.4-.5l.4-4.3a6.72,6.72,0,0,0,1.8.3c1.7,0,2.9-1.1,3.5-3.3l.5-1.8-7.9-24.7h6l4.8,18.4,4.7-18.4Z"/><path class="cls-1" d="M212.35,90.77q0-8.1-4.2-8.1t-4.2,6.9v2.5q0,6.9,4.2,6.9c2.8-.1,4.2-2.8,4.2-8.2m5.9,0c0,8.3-2.8,12.5-8.4,12.5a6.52,6.52,0,0,1-6-3.7V113h-5.6V83.07c-.1-1.5-.1-2.9-.1-4.2h5.3c.1,1.5.2,2.7.2,3.6,1.5-2.7,3.6-4.1,6.3-4.1C215.45,78.27,218.25,82.47,218.25,90.77Z"/><path class="cls-1" d="M234.65,92.77v-1.5c-1.1-.1-1.8-.1-2-.1-4.1,0-6.2,1.5-6.2,4.4q0,3.6,3.6,3.6c3,0,4.6-2.2,4.6-6.4m5.7,10h-5.2l-.3-3a8.13,8.13,0,0,1-6.8,3.5,6.55,6.55,0,0,1-5-2,7.19,7.19,0,0,1-1.9-5.3c0-5.4,3.7-8.1,11.2-8.1h2.3v-1q0-4.5-4.8-4.5a9.26,9.26,0,0,0-6.1,2.3l-.4-4.5a18,18,0,0,1,7.6-1.8c3.5,0,6,.8,7.3,2.5,1.2,1.5,1.9,4.1,1.9,7.8v9.4C240.25,100.07,240.25,101.67,240.35,102.77Z"/><path class="cls-1" d="M259.05,92v-2.4a10.16,10.16,0,0,0-1.1-5.1,3.56,3.56,0,0,0-3.1-1.8q-4.2,0-4.2,8.1t4.2,8.1a3.45,3.45,0,0,0,3.1-1.8c.8-1.1,1.1-2.8,1.1-5.1m5.6,10.8h-5.2c-.1-1.4-.2-2.6-.2-3.6-1.5,2.7-3.6,4.1-6.3,4.1a7,7,0,0,1-6.1-3.2c-1.4-2.1-2.2-5.2-2.2-9.2,0-8.4,2.8-12.5,8.3-12.5a6.77,6.77,0,0,1,6.1,3.7V67.87h5.6v34.9Z"/><polygon class="cls-1" points="289.95 102.77 283.65 102.77 276.25 91.07 276.25 102.77 270.65 102.77 270.65 67.87 276.25 67.87 276.25 88.37 283.35 78.77 289.25 78.77 281.05 89.57 289.95 102.77"/><path class="cls-1" d="M310.45,102.77h-5.1c-.1-1.2-.2-2.3-.2-3.5a6.59,6.59,0,0,1-6.5,4.1c-4.5,0-6.7-2.6-6.7-7.9V79h5.6v15.4c0,2.9,1,4.3,3.1,4.3,2.7,0,4-1.9,4-5.8V79h5.6v18.4c.1,2.2.1,4,.2,5.4"/><path class="cls-1" d="M346.65,102.77h-5.6V87.37c0-2.9-1.1-4.3-3.3-4.3a3.22,3.22,0,0,0-2.8,1.5,7.11,7.11,0,0,0-1.1,4.1v14.1h-5.6V84.37c0-2.1-.1-3.9-.2-5.5h5.1a34.59,34.59,0,0,1,.2,3.5,6.59,6.59,0,0,1,6.5-4.1c4.5,0,6.7,2.6,6.7,7.9l.1,16.6Z"/><path class="cls-1" d="M364.05,92.77v-1.5c-1.1-.1-1.8-.1-2-.1-4.1,0-6.2,1.5-6.2,4.4q0,3.6,3.6,3.6c3.1,0,4.6-2.2,4.6-6.4m5.8,10h-5.2l-.3-3a8.13,8.13,0,0,1-6.8,3.5,6.55,6.55,0,0,1-5-2,7.19,7.19,0,0,1-1.9-5.3c0-5.4,3.7-8.1,11.2-8.1h2.3v-1q0-4.5-4.8-4.5a9.26,9.26,0,0,0-6.1,2.3l-.4-4.5a18,18,0,0,1,7.6-1.8c3.5,0,6,.8,7.3,2.5,1.2,1.5,1.9,4.1,1.9,7.8v9.4C369.65,100.07,369.75,101.67,369.85,102.77Z"/><path class="cls-1" d="M390.75,102.07a17.39,17.39,0,0,1-6.1,1.1,9.36,9.36,0,0,1-7.6-3.3c-1.9-2.2-2.8-5.2-2.8-9,0-4,1-7.1,2.9-9.3s4.6-3.3,8.1-3.3a14.48,14.48,0,0,1,5.2,1l-.3,4.5a8.39,8.39,0,0,0-4.1-1.1c-4,0-6,2.5-6,7.6a10.17,10.17,0,0,0,1.6,6.2,5.29,5.29,0,0,0,4.5,2.1,8.83,8.83,0,0,0,4.4-1.2Z"/><polygon class="cls-1" points="408.45 102.77 392.55 102.77 392.55 97.67 402.45 83.17 392.85 83.17 392.85 78.77 408.35 78.77 408.35 83.77 398.45 98.37 408.45 98.37 408.45 102.77"/><path class="cls-1" d="M431.35,78.77l-7.9,26.2a19,19,0,0,1-2.7,6,6.35,6.35,0,0,1-5.1,2.1,12.7,12.7,0,0,1-3.4-.5l.4-4.3a6.72,6.72,0,0,0,1.8.3c1.7,0,2.9-1.1,3.5-3.3l.5-1.8-7.9-24.7h6l4.8,18.4,4.7-18.4Z"/><path class="cls-1" d="M453.15,102.77h-5.6V87.37c0-2.9-1.1-4.3-3.3-4.3a3.22,3.22,0,0,0-2.8,1.5,7.11,7.11,0,0,0-1.1,4.1v14.1h-5.6V84.37c0-2.1-.1-3.9-.2-5.5h5.1a34.59,34.59,0,0,1,.2,3.5,6.59,6.59,0,0,1,6.5-4.1c4.5,0,6.7,2.6,6.7,7.9l.1,16.6Zm-3.3-34-5,7.1h-4.2l3.5-7.1Z"/><path class="cls-1" d="M83.35,162.17H67.45v-5.1l9.8-14.5h-9.6v-4.3h15.6v4.9l-9.9,14.6h10v4.4Zm-4.7-28.5h-5.8v-5.5h5.8Z"/><path class="cls-1" d="M106.35,138.27l-7.9,26.2a19,19,0,0,1-2.7,6,6.35,6.35,0,0,1-5.1,2.1,12.7,12.7,0,0,1-3.4-.5l.4-4.3a6.72,6.72,0,0,0,1.8.3c1.7,0,2.9-1.1,3.5-3.3l.5-1.8-7.9-24.7h6l4.8,18.4,4.7-18.4Z"/><rect class="cls-1" x="109.65" y="127.27" width="5.6" height="34.9"/><path class="cls-1" d="M133,152.17v-1.5c-1.1-.1-1.8-.1-2-.1-4.1,0-6.2,1.5-6.2,4.4q0,3.6,3.6,3.6c3,0,4.6-2.1,4.6-6.4m5.7,10h-5.2l-.3-3a8.13,8.13,0,0,1-6.8,3.5,6.55,6.55,0,0,1-5-2,7.19,7.19,0,0,1-1.9-5.3c0-5.4,3.7-8.1,11.2-8.1H133v-1q0-4.5-4.8-4.5a9.26,9.26,0,0,0-6.1,2.3l-.4-4.5a18,18,0,0,1,7.6-1.8c3.5,0,6,.8,7.3,2.5,1.2,1.5,1.9,4.1,1.9,7.8v9.4C138.55,159.47,138.55,161.07,138.65,162.17Z"/><polygon class="cls-1" points="163.45 162.17 157.25 162.17 149.75 150.57 149.75 162.17 144.15 162.17 144.15 127.27 149.75 127.27 149.75 147.87 156.85 138.27 162.75 138.27 154.55 149.07 163.45 162.17"/><path class="cls-1" d="M179.25,150.27c0-5.5-1.5-8.3-4.4-8.3s-4.5,2.8-4.5,8.3,1.5,8.2,4.5,8.2,4.4-2.8,4.4-8.2m5.8-.1c0,4-.9,7.1-2.7,9.2a9.59,9.59,0,0,1-7.6,3.2,9.45,9.45,0,0,1-7.6-3.2c-1.8-2.2-2.7-5.2-2.7-9.2s.9-7.1,2.7-9.2a10.63,10.63,0,0,1,15.2,0C184.15,143.07,185.05,146.17,185.05,150.17Z"/><polygon class="cls-1" points="221.25 138.27 214.85 162.17 208.75 162.17 204.45 143.27 200.15 162.17 193.85 162.17 187.65 138.27 193.35 138.27 197.25 157.07 201.45 138.27 207.65 138.27 211.75 157.07 215.75 138.27 221.25 138.27"/><path class="cls-1" d="M236.75,152.17v-1.5c-1.1-.1-1.8-.1-2-.1-4.1,0-6.2,1.5-6.2,4.4q0,3.6,3.6,3.6c3,0,4.6-2.1,4.6-6.4m5.7,10h-5.2l-.3-3a8.13,8.13,0,0,1-6.8,3.5,6.55,6.55,0,0,1-5-2,7.19,7.19,0,0,1-1.9-5.3c0-5.4,3.7-8.1,11.2-8.1h2.3v-1q0-4.5-4.8-4.5a9.26,9.26,0,0,0-6.1,2.3l-.4-4.5a18,18,0,0,1,7.6-1.8c3.5,0,6,.8,7.3,2.5,1.2,1.5,1.9,4.1,1.9,7.8v9.4C242.35,159.47,242.35,161.07,242.45,162.17Z"/><path class="cls-1" d="M259.25,162.07a19.86,19.86,0,0,1-4,.5c-2.7,0-4.5-.7-5.4-2.2-.7-1.2-1.1-3.3-1.1-6.4v-11.7H245v-4.1h3.8v-4.9l5.6-1.7v6.6h4.7v4.1h-4.7v11.6a8.86,8.86,0,0,0,.3,2.9,2.39,2.39,0,0,0,2.4,1.4,6,6,0,0,0,2.2-.4Z"/><path class="cls-1" d="M281.35,138.27l-7.9,26.2a19,19,0,0,1-2.7,6,6.35,6.35,0,0,1-5.1,2.1,12.7,12.7,0,0,1-3.4-.5l.4-4.3a6.72,6.72,0,0,0,1.8.3c1.7,0,2.9-1.1,3.5-3.3l.5-1.8-7.9-24.7h6l4.8,18.4,4.7-18.4Z"/><path class="cls-1" d="M300.05,161.57a17.39,17.39,0,0,1-6.1,1.1,9.36,9.36,0,0,1-7.6-3.3c-1.9-2.2-2.8-5.2-2.8-9,0-4,1-7.1,2.9-9.3s4.6-3.3,8.1-3.3a14.48,14.48,0,0,1,5.2,1l-.3,4.5a8.39,8.39,0,0,0-4.1-1.1c-4,0-6,2.5-6,7.6A10.17,10.17,0,0,0,291,156a5.29,5.29,0,0,0,4.5,2.1,8.83,8.83,0,0,0,4.4-1.2Z"/><path class="cls-1" d="M322,162.17h-5.6v-15.4c0-2.9-1.1-4.3-3.3-4.3a3.22,3.22,0,0,0-2.8,1.5,7.11,7.11,0,0,0-1.1,4.1v14.1h-5.6v-34.9h5.6V141a7,7,0,0,1,6.2-3.2,6.25,6.25,0,0,1,4.8,2c1.2,1.4,1.7,3.3,1.7,5.9l.1,16.5Z"/><polygon class="cls-2" points="40.75 41.27 40.75 74.27 7.75 57.77 40.75 41.27"/></svg>