<?xml version="1.0" encoding="utf-8"?>
<!-- Generator: Adobe Illustrator 23.1.1, SVG Export Plug-In . SVG Version: 6.00 Build 0)  -->
<svg version="1.1" id="Warstwa_1" xmlns="http://www.w3.org/2000/svg" xmlns:xlink="http://www.w3.org/1999/xlink" x="0px" y="0px"
	 viewBox="0 0 405 695" style="enable-background:new 0 0 405 695;" xml:space="preserve">
<style type="text/css">
	.st0{fill-rule:evenodd;clip-rule:evenodd;fill:#FFFFFF;}
	.st1{clip-path:url(#SVGID_2_);}
	.st2{clip-path:url(#SVGID_4_);fill:url(#SVGID_5_);}
	.st3{clip-path:url(#SVGID_7_);fill-rule:evenodd;clip-rule:evenodd;fill:#FFE300;}
	.st4{clip-path:url(#SVGID_9_);fill-rule:evenodd;clip-rule:evenodd;fill:#EAE553;}
	.st5{clip-path:url(#SVGID_11_);fill-rule:evenodd;clip-rule:evenodd;fill:#E53325;}
	.st6{clip-path:url(#SVGID_13_);fill-rule:evenodd;clip-rule:evenodd;fill:#EB6209;}
	.st7{clip-path:url(#SVGID_15_);fill-rule:evenodd;clip-rule:evenodd;fill:#00ABE7;}
	.st8{clip-path:url(#SVGID_17_);fill-rule:evenodd;clip-rule:evenodd;fill:#0056A4;}
	.st9{clip-path:url(#SVGID_19_);fill-rule:evenodd;clip-rule:evenodd;fill:#D02225;}
	.st10{clip-path:url(#SVGID_21_);fill-rule:evenodd;clip-rule:evenodd;fill:#FFD300;}
	.st11{clip-path:url(#SVGID_23_);fill-rule:evenodd;clip-rule:evenodd;fill:#B0D289;}
	.st12{clip-path:url(#SVGID_25_);fill-rule:evenodd;clip-rule:evenodd;fill:#DB2624;}
	.st13{clip-path:url(#SVGID_27_);fill-rule:evenodd;clip-rule:evenodd;fill:#F7A520;}
	.st14{clip-path:url(#SVGID_29_);fill-rule:evenodd;clip-rule:evenodd;fill:#68C0B5;}
	.st15{fill:none;stroke:#000000;stroke-width:1.4171;stroke-linecap:round;stroke-miterlimit:22.9256;}
	.st16{fill:#FFFFFF;}
	.st17{fill-rule:evenodd;clip-rule:evenodd;fill:#FDFEFF;}
	.st18{fill-rule:evenodd;clip-rule:evenodd;fill:#F9FCFD;}
	.st19{fill-rule:evenodd;clip-rule:evenodd;fill:#F7FBFD;}
	.st20{fill-rule:evenodd;clip-rule:evenodd;fill:#F4F8FB;}
	.st21{fill-rule:evenodd;clip-rule:evenodd;fill:#F1F7FB;}
	.st22{fill-rule:evenodd;clip-rule:evenodd;fill:#EFF6FB;}
	.st23{fill-rule:evenodd;clip-rule:evenodd;fill:#ECF4F9;}
	.st24{fill-rule:evenodd;clip-rule:evenodd;fill:#E9F3F9;}
	.st25{fill-rule:evenodd;clip-rule:evenodd;fill:#E6F0F7;}
	.st26{fill-rule:evenodd;clip-rule:evenodd;fill:#E3EFF7;}
	.st27{fill:#E3EFF7;}
</style>
<g>
	<path class="st0" d="M236,462.4c16.8,9.4,28,27.3,28,48c0,71.7-109.9,71.7-109.9,0c0-20.6,11.3-38.5,28-48V168
		c0-14.7,12-26.9,26.9-26.9l0,0c14.7,0,26.9,12,26.9,26.9L236,462.4L236,462.4z"/>
	<g>
		<g>
			<g>
				<g>
					<g>
						<g>
							<defs>
								<path id="SVGID_1_" d="M236,462.4c16.8,9.4,28,27.3,28,48c0,71.7-109.9,71.7-109.9,0c0-20.6,11.3-38.5,28-48V168
									c0-14.7,12-26.9,26.9-26.9l0,0c14.7,0,26.9,12,26.9,26.9L236,462.4L236,462.4z"/>
							</defs>
							<clipPath id="SVGID_2_">
								<use xlink:href="#SVGID_1_"  style="overflow:visible;"/>
							</clipPath>
							<g class="st1">
								<g>
									<g>
										<g>
											<g>
												<g>
													<defs>
														<path id="SVGID_3_" d="M191.3,485.9c5.4,0,9.9,4.4,9.9,9.9c0,5.5-4.4,9.9-9.9,9.9c-5.4,0-9.9-4.4-9.9-9.9
															C181.3,490.3,185.8,485.9,191.3,485.9 M225.4,468.7c16.6,6.4,28.5,22.6,28.5,41.6c0,24.7-20,44.7-44.7,44.7
															c-24.7,0-44.7-20-44.7-44.7c0-19,11.8-35.1,28.5-41.6v-25.5h32.3L225.4,468.7L225.4,468.7z"/>
													</defs>
													<clipPath id="SVGID_4_">
														<use xlink:href="#SVGID_3_"  style="overflow:visible;"/>
													</clipPath>
													
														<linearGradient id="SVGID_5_" gradientUnits="userSpaceOnUse" x1="-926.1365" y1="-138.0999" x2="-924.6661" y2="-138.0999" gradientTransform="matrix(0 76.0638 60.7527 0 8599.2295 70888.6562)">
														<stop  offset="0" style="stop-color:#005CA9"/>
														<stop  offset="1" style="stop-color:#27348B"/>
													</linearGradient>
													<rect x="164.6" y="443.2" class="st2" width="89.4" height="111.8"/>
												</g>
											</g>
										</g>
									</g>
								</g>
							</g>
						</g>
					</g>
				</g>
			</g>
		</g>
		<g>
			<g>
				<g>
					<g>
						<g>
							<defs>
								<path id="SVGID_6_" d="M236,462.4c16.8,9.4,28,27.3,28,48c0,71.7-109.9,71.7-109.9,0c0-20.6,11.3-38.5,28-48V168
									c0-14.7,12-26.9,26.9-26.9l0,0c14.7,0,26.9,12,26.9,26.9L236,462.4L236,462.4z"/>
							</defs>
							<clipPath id="SVGID_7_">
								<use xlink:href="#SVGID_6_"  style="overflow:visible;"/>
							</clipPath>
							<rect x="193.1" y="311.2" class="st3" width="32.4" height="24.7"/>
						</g>
					</g>
				</g>
			</g>
		</g>
		<g>
			<g>
				<g>
					<g>
						<g>
							<defs>
								<path id="SVGID_8_" d="M236,462.4c16.8,9.4,28,27.3,28,48c0,71.7-109.9,71.7-109.9,0c0-20.6,11.3-38.5,28-48V168
									c0-14.7,12-26.9,26.9-26.9l0,0c14.7,0,26.9,12,26.9,26.9L236,462.4L236,462.4z"/>
							</defs>
							<clipPath id="SVGID_9_">
								<use xlink:href="#SVGID_8_"  style="overflow:visible;"/>
							</clipPath>
							<rect x="193.1" y="336" class="st4" width="32.4" height="24.7"/>
						</g>
					</g>
				</g>
			</g>
		</g>
		<g>
			<g>
				<g>
					<g>
						<g>
							<defs>
								<path id="SVGID_10_" d="M236,462.4c16.8,9.4,28,27.3,28,48c0,71.7-109.9,71.7-109.9,0c0-20.6,11.3-38.5,28-48V168
									c0-14.7,12-26.9,26.9-26.9l0,0c14.7,0,26.9,12,26.9,26.9L236,462.4L236,462.4z"/>
							</defs>
							<clipPath id="SVGID_11_">
								<use xlink:href="#SVGID_10_"  style="overflow:visible;"/>
							</clipPath>
							<rect x="193.1" y="212.3" class="st5" width="32.4" height="24.7"/>
						</g>
					</g>
				</g>
			</g>
		</g>
		<g>
			<g>
				<g>
					<g>
						<g>
							<defs>
								<path id="SVGID_12_" d="M236,462.4c16.8,9.4,28,27.3,28,48c0,71.7-109.9,71.7-109.9,0c0-20.6,11.3-38.5,28-48V168
									c0-14.7,12-26.9,26.9-26.9l0,0c14.7,0,26.9,12,26.9,26.9L236,462.4L236,462.4z"/>
							</defs>
							<clipPath id="SVGID_13_">
								<use xlink:href="#SVGID_12_"  style="overflow:visible;"/>
							</clipPath>
							<rect x="193.1" y="237" class="st6" width="32.4" height="24.7"/>
						</g>
					</g>
				</g>
			</g>
		</g>
		<g>
			<g>
				<g>
					<g>
						<g>
							<defs>
								<path id="SVGID_14_" d="M236,462.4c16.8,9.4,28,27.3,28,48c0,71.7-109.9,71.7-109.9,0c0-20.6,11.3-38.5,28-48V168
									c0-14.7,12-26.9,26.9-26.9l0,0c14.7,0,26.9,12,26.9,26.9L236,462.4L236,462.4z"/>
							</defs>
							<clipPath id="SVGID_15_">
								<use xlink:href="#SVGID_14_"  style="overflow:visible;"/>
							</clipPath>
							<rect x="193.1" y="410.1" class="st7" width="32.4" height="24.7"/>
						</g>
					</g>
				</g>
			</g>
		</g>
		<g>
			<g>
				<g>
					<g>
						<g>
							<defs>
								<path id="SVGID_16_" d="M236,462.4c16.8,9.4,28,27.3,28,48c0,71.7-109.9,71.7-109.9,0c0-20.6,11.3-38.5,28-48V168
									c0-14.7,12-26.9,26.9-26.9l0,0c14.7,0,26.9,12,26.9,26.9L236,462.4L236,462.4z"/>
							</defs>
							<clipPath id="SVGID_17_">
								<use xlink:href="#SVGID_16_"  style="overflow:visible;"/>
							</clipPath>
							<rect x="193.1" y="434.9" class="st8" width="32.4" height="24.7"/>
						</g>
					</g>
				</g>
			</g>
		</g>
		<g>
			<g>
				<g>
					<g>
						<g>
							<defs>
								<path id="SVGID_18_" d="M236,462.4c16.8,9.4,28,27.3,28,48c0,71.7-109.9,71.7-109.9,0c0-20.6,11.3-38.5,28-48V168
									c0-14.7,12-26.9,26.9-26.9l0,0c14.7,0,26.9,12,26.9,26.9L236,462.4L236,462.4z"/>
							</defs>
							<clipPath id="SVGID_19_">
								<use xlink:href="#SVGID_18_"  style="overflow:visible;"/>
							</clipPath>
							<rect x="193.1" y="162.9" class="st9" width="32.4" height="24.7"/>
						</g>
					</g>
				</g>
			</g>
		</g>
		<g>
			<g>
				<g>
					<g>
						<g>
							<defs>
								<path id="SVGID_20_" d="M236,462.4c16.8,9.4,28,27.3,28,48c0,71.7-109.9,71.7-109.9,0c0-20.6,11.3-38.5,28-48V168
									c0-14.7,12-26.9,26.9-26.9l0,0c14.7,0,26.9,12,26.9,26.9L236,462.4L236,462.4z"/>
							</defs>
							<clipPath id="SVGID_21_">
								<use xlink:href="#SVGID_20_"  style="overflow:visible;"/>
							</clipPath>
							<rect x="193.1" y="286.5" class="st10" width="32.4" height="24.7"/>
						</g>
					</g>
				</g>
			</g>
		</g>
		<g>
			<g>
				<g>
					<g>
						<g>
							<defs>
								<path id="SVGID_22_" d="M236,462.4c16.8,9.4,28,27.3,28,48c0,71.7-109.9,71.7-109.9,0c0-20.6,11.3-38.5,28-48V168
									c0-14.7,12-26.9,26.9-26.9l0,0c14.7,0,26.9,12,26.9,26.9L236,462.4L236,462.4z"/>
							</defs>
							<clipPath id="SVGID_23_">
								<use xlink:href="#SVGID_22_"  style="overflow:visible;"/>
							</clipPath>
							<rect x="193.1" y="360.8" class="st11" width="32.4" height="24.7"/>
						</g>
					</g>
				</g>
			</g>
		</g>
		<g>
			<g>
				<g>
					<g>
						<g>
							<defs>
								<path id="SVGID_24_" d="M236,462.4c16.8,9.4,28,27.3,28,48c0,71.7-109.9,71.7-109.9,0c0-20.6,11.3-38.5,28-48V168
									c0-14.7,12-26.9,26.9-26.9l0,0c14.7,0,26.9,12,26.9,26.9L236,462.4L236,462.4z"/>
							</defs>
							<clipPath id="SVGID_25_">
								<use xlink:href="#SVGID_24_"  style="overflow:visible;"/>
							</clipPath>
							<rect x="193.1" y="187.7" class="st12" width="32.4" height="24.7"/>
						</g>
					</g>
				</g>
			</g>
		</g>
		<g>
			<g>
				<g>
					<g>
						<g>
							<defs>
								<path id="SVGID_26_" d="M236,462.4c16.8,9.4,28,27.3,28,48c0,71.7-109.9,71.7-109.9,0c0-20.6,11.3-38.5,28-48V168
									c0-14.7,12-26.9,26.9-26.9l0,0c14.7,0,26.9,12,26.9,26.9L236,462.4L236,462.4z"/>
							</defs>
							<clipPath id="SVGID_27_">
								<use xlink:href="#SVGID_26_"  style="overflow:visible;"/>
							</clipPath>
							<rect x="193.1" y="261.9" class="st13" width="32.4" height="24.7"/>
						</g>
					</g>
				</g>
			</g>
		</g>
		<g>
			<g>
				<g>
					<g>
						<g>
							<defs>
								<path id="SVGID_28_" d="M236,462.4c16.8,9.4,28,27.3,28,48c0,71.7-109.9,71.7-109.9,0c0-20.6,11.3-38.5,28-48V168
									c0-14.7,12-26.9,26.9-26.9l0,0c14.7,0,26.9,12,26.9,26.9L236,462.4L236,462.4z"/>
							</defs>
							<clipPath id="SVGID_29_">
								<use xlink:href="#SVGID_28_"  style="overflow:visible;"/>
							</clipPath>
							<rect x="193.1" y="385.4" class="st14" width="32.4" height="24.7"/>
						</g>
					</g>
				</g>
			</g>
		</g>
	</g>
	<path class="st15" d="M236,462.4c16.8,9.4,28,27.3,28,48c0,71.7-109.9,71.7-109.9,0c0-20.6,11.3-38.5,28-48V168
		c0-14.7,12-26.9,26.9-26.9l0,0c14.7,0,26.9,12,26.9,26.9L236,462.4L236,462.4z"/>
	<path class="st16" d="M198.5,170.3c0-1.3,1.2-2.5,2.5-2.5c1.3,0,2.5,1.2,2.5,2.5v291.2c0,1.3-1.2,2.5-2.5,2.5s-2.5-1.2-2.5-2.5
		V170.3z"/>
	<path class="st17" d="M198.5,170.3c0-1.3,1-2.3,2.3-2.3c1.3,0,2.3,1,2.3,2.3c0,97.1,0,194,0,291.2c0,1.3-1,2.3-2.3,2.3
		c-1.3,0-2.3-1-2.3-2.3C198.5,364.4,198.5,267.5,198.5,170.3"/>
	<path class="st17" d="M198.7,170.3c0-1.3,1-2.3,2.2-2.3c1.3,0,2.3,1,2.3,2.3c0,97.1,0,194,0,291.2c0,1.3-1,2.3-2.3,2.3
		c-1.3,0-2.2-1-2.2-2.3C198.7,364.4,198.7,267.5,198.7,170.3"/>
	<path class="st18" d="M198.9,170.3c0-1.2,1-2.2,2.2-2.2c1.2,0,2.2,1,2.2,2.2c0,97.1,0,194,0,291.2c0,1.2-1,2.2-2.2,2.2
		c-1.2,0-2.2-1-2.2-2.2C198.9,364.4,198.9,267.5,198.9,170.3"/>
	<path class="st18" d="M199,170.3c0-1.2,0.9-2.2,2-2.2c1.2,0,2,1,2,2.2c0,97.1,0,194,0,291.2c0,1.2-0.9,2.2-2,2.2c-1.2,0-2-1-2-2.2
		C199,364.4,199,267.5,199,170.3"/>
	<path class="st19" d="M199,170.3c0-1.2,0.9-2,1.9-2c1,0,1.9,0.9,1.9,2c0,97.1,0,194,0,291.2c0,1.2-0.9,2-1.9,2s-1.9-0.9-1.9-2
		C199,364.4,199,267.5,199,170.3"/>
	<path class="st19" d="M199.1,170.3c0-1,0.9-2,1.8-2c1,0,1.8,0.9,1.8,2c0,97.1,0,194,0,291.2c0,1-0.9,2-1.8,2c-1,0-1.8-0.9-1.8-2
		C199.1,364.4,199.1,267.5,199.1,170.3"/>
	<path class="st20" d="M199.3,170.3c0-1,0.7-1.9,1.8-1.9s1.8,0.9,1.8,1.9c0,97.1,0,194,0,291.2c0,1-0.7,1.9-1.8,1.9
		s-1.8-0.9-1.8-1.9C199.3,364.4,199.3,267.5,199.3,170.3"/>
	<path class="st20" d="M199.4,170.3c0-1,0.7-1.8,1.6-1.8s1.6,0.9,1.6,1.8c0,97.1,0,194,0,291.2c0,1-0.7,1.8-1.6,1.8
		s-1.6-0.9-1.6-1.8C199.4,364.4,199.4,267.5,199.4,170.3"/>
	<path class="st21" d="M199.4,170.3c0-1,0.7-1.8,1.5-1.8c0.9,0,1.5,0.7,1.5,1.8c0,97.1,0,194,0,291.2c0,1-0.7,1.8-1.5,1.8
		c-0.9,0-1.5-0.7-1.5-1.8C199.4,364.4,199.4,267.5,199.4,170.3"/>
	<path class="st21" d="M199.6,170.3c0-0.9,0.6-1.6,1.3-1.6s1.3,0.7,1.3,1.6c0,97.1,0,194,0,291.2c0,0.9-0.6,1.6-1.3,1.6
		s-1.3-0.7-1.3-1.6C199.6,364.4,199.6,267.5,199.6,170.3"/>
	<path class="st21" d="M199.7,170.3c0-0.9,0.6-1.6,1.3-1.6s1.3,0.7,1.3,1.6c0,97.1,0,194,0,291.2c0,0.9-0.6,1.6-1.3,1.6
		s-1.3-0.7-1.3-1.6C199.7,364.4,199.7,267.5,199.7,170.3"/>
	<path class="st22" d="M199.9,170.3c0-0.9,0.6-1.5,1.2-1.5s1.2,0.7,1.2,1.5c0,97.1,0,194,0,291.2c0,0.9-0.6,1.5-1.2,1.5
		s-1.2-0.7-1.2-1.5C199.9,364.4,199.9,267.5,199.9,170.3"/>
	<path class="st23" d="M199.9,170.3c0-0.7,0.4-1.5,1-1.5c0.6,0,1,0.6,1,1.5c0,97.1,0,194,0,291.2c0,0.7-0.4,1.5-1,1.5
		c-0.6,0-1-0.6-1-1.5C199.9,364.4,199.9,267.5,199.9,170.3"/>
	<path class="st23" d="M200,170.3c0-0.7,0.4-1.3,0.9-1.3c0.6,0,0.9,0.6,0.9,1.3c0,97.1,0,194,0,291.2c0,0.7-0.4,1.3-0.9,1.3
		c-0.6,0-0.9-0.6-0.9-1.3C200,364.4,200,267.5,200,170.3"/>
	<path class="st23" d="M200.2,170.3c0-0.7,0.4-1.2,0.9-1.2c0.4,0,0.9,0.6,0.9,1.2c0,97.1,0,194,0,291.2c0,0.7-0.4,1.2-0.9,1.2
		c-0.4,0-0.9-0.6-0.9-1.2C200.2,364.4,200.2,267.5,200.2,170.3"/>
	<path class="st24" d="M200.2,170.3c0-0.6,0.3-1.2,0.7-1.2c0.4,0,0.7,0.6,0.7,1.2c0,97.1,0,194,0,291.2c0,0.6-0.3,1.2-0.7,1.2
		c-0.4,0-0.7-0.6-0.7-1.2C200.2,364.4,200.2,267.5,200.2,170.3"/>
	<path class="st25" d="M200.2,170.3c0-0.6,0.3-1,0.6-1s0.6,0.4,0.6,1c0,97.1,0,194,0,291.2c0,0.6-0.3,1-0.6,1c-0.3,0-0.6-0.4-0.6-1
		C200.2,364.4,200.2,267.5,200.2,170.3"/>
	<path class="st25" d="M200.5,170.3c0-0.6,0.3-1,0.4-1c0.3,0,0.4,0.4,0.4,1c0,97.1,0,194,0,291.2c0,0.6-0.3,1-0.4,1
		c-0.3,0-0.4-0.4-0.4-1C200.5,364.4,200.5,267.5,200.5,170.3"/>
	<path class="st25" d="M200.6,170.3c0-0.4,0.1-0.9,0.4-0.9s0.4,0.4,0.4,0.9c0,97.1,0,194,0,291.2c0,0.4-0.1,0.9-0.4,0.9
		s-0.4-0.4-0.4-0.9C200.6,364.4,200.6,267.5,200.6,170.3"/>
	<path class="st26" d="M200.8,170.3c0-0.4,0.1-0.9,0.3-0.9s0.3,0.3,0.3,0.9c0,97.1,0,194,0,291.2c0,0.4-0.1,0.9-0.3,0.9
		s-0.3-0.3-0.3-0.9C200.8,364.4,200.8,267.5,200.8,170.3"/>
	<path class="st27" d="M200.8,170.3c0-0.4,0.1-0.7,0.1-0.7c0.1,0,0.1,0.3,0.1,0.7v291.2c0,0.4-0.1,0.7-0.1,0.7
		c-0.1,0-0.1-0.3-0.1-0.7V170.3z"/>
</g>
</svg>
